<?xml version="1.0" standalone="no"?>
<!DOCTYPE svg PUBLIC "-//W3C//DTD SVG 1.1//EN" "http://www.w3.org/Graphics/SVG/1.1/DTD/svg11.dtd">
<svg width="512" height="594" viewBox="-256 -426 512 594" xmlns="http://www.w3.org/2000/svg" version="1.1">
<title>OpenSCAD Model</title>
<path d="
M -182.227,-297.638 L -109.336,-297.638 L -109.336,-283.465 L -36.4454,-283.465 L -36.4454,-297.638 L 36.4454,-297.638
 L 36.4454,-283.465 L 109.336,-283.465 L 109.336,-297.638 L 182.227,-297.638 L 182.227,-283.465 L 255.118,-283.465
 L 255.118,-425.197 L 182.227,-425.197 L 182.227,-411.024 L 109.336,-411.024 L 109.336,-425.197 L 36.4454,-425.197
 L 36.4454,-411.024 L -36.4454,-411.024 L -36.4454,-425.197 L -109.336,-425.197 L -109.336,-411.024 L -182.227,-411.024
 L -182.227,-425.197 L -255.118,-425.197 L -255.118,-283.465 L -182.227,-283.465 z
M 47.833,-388.358 L 47.4784,-388.391 L 47.1266,-388.447 L 46.7791,-388.525 L 46.4371,-388.624 L 46.102,-388.745
 L 45.7751,-388.886 L 45.4578,-389.048 L 45.1512,-389.229 L 44.8566,-389.429 L 44.5752,-389.647 L 44.3081,-389.883
 L 44.0562,-390.135 L 43.8207,-390.402 L 43.6024,-390.683 L 43.4022,-390.978 L 43.2209,-391.285 L 43.0592,-391.602
 L 42.9178,-391.929 L 42.7971,-392.264 L 42.6978,-392.606 L 42.6201,-392.953 L 42.5644,-393.305 L 42.5309,-393.66
 L 42.5197,-394.016 L 42.5309,-394.372 L 42.5644,-394.726 L 42.6201,-395.078 L 42.6978,-395.426 L 42.7971,-395.768
 L 42.9178,-396.103 L 43.0592,-396.43 L 43.2209,-396.747 L 43.4022,-397.053 L 43.6024,-397.348 L 43.8207,-397.629
 L 44.0562,-397.897 L 44.3081,-398.148 L 44.5752,-398.384 L 44.8566,-398.602 L 45.1512,-398.802 L 45.4578,-398.984
 L 45.7751,-399.145 L 46.102,-399.287 L 46.4371,-399.408 L 46.7791,-399.507 L 47.1266,-399.585 L 47.4784,-399.64
 L 47.833,-399.674 L 48.189,-399.685 L 48.545,-399.674 L 48.8995,-399.64 L 49.2513,-399.585 L 49.5989,-399.507
 L 49.9409,-399.408 L 50.276,-399.287 L 50.6028,-399.145 L 50.9202,-398.984 L 51.2267,-398.802 L 51.5213,-398.602
 L 51.8027,-398.384 L 52.0699,-398.148 L 52.3217,-397.897 L 52.5572,-397.629 L 52.7755,-397.348 L 52.9757,-397.053
 L 53.157,-396.747 L 53.3187,-396.43 L 53.4601,-396.103 L 53.5808,-395.768 L 53.6801,-395.426 L 53.7578,-395.078
 L 53.8136,-394.726 L 53.8471,-394.372 L 53.8583,-394.016 L 53.8471,-393.66 L 53.8136,-393.305 L 53.7578,-392.953
 L 53.6801,-392.606 L 53.5808,-392.264 L 53.4601,-391.929 L 53.3187,-391.602 L 53.157,-391.285 L 52.9757,-390.978
 L 52.7755,-390.683 L 52.5572,-390.402 L 52.3217,-390.135 L 52.0699,-389.883 L 51.8027,-389.647 L 51.5213,-389.429
 L 51.2267,-389.229 L 50.9202,-389.048 L 50.6028,-388.886 L 50.276,-388.745 L 49.9409,-388.624 L 49.5989,-388.525
 L 49.2513,-388.447 L 48.8995,-388.391 L 48.545,-388.358 L 48.189,-388.346 z
M -48.545,-388.358 L -48.8995,-388.391 L -49.2513,-388.447 L -49.5989,-388.525 L -49.9409,-388.624 L -50.276,-388.745
 L -50.6028,-388.886 L -50.9202,-389.048 L -51.2267,-389.229 L -51.5213,-389.429 L -51.8027,-389.647 L -52.0699,-389.883
 L -52.3217,-390.135 L -52.5572,-390.402 L -52.7755,-390.683 L -52.9757,-390.978 L -53.157,-391.285 L -53.3187,-391.602
 L -53.4601,-391.929 L -53.5808,-392.264 L -53.6801,-392.606 L -53.7578,-392.953 L -53.8136,-393.305 L -53.8471,-393.66
 L -53.8583,-394.016 L -53.8471,-394.372 L -53.8136,-394.726 L -53.7578,-395.078 L -53.6801,-395.426 L -53.5808,-395.768
 L -53.4601,-396.103 L -53.3187,-396.43 L -53.157,-396.747 L -52.9757,-397.053 L -52.7755,-397.348 L -52.5572,-397.629
 L -52.3217,-397.897 L -52.0699,-398.148 L -51.8027,-398.384 L -51.5213,-398.602 L -51.2267,-398.802 L -50.9202,-398.984
 L -50.6028,-399.145 L -50.276,-399.287 L -49.9409,-399.408 L -49.5989,-399.507 L -49.2513,-399.585 L -48.8995,-399.64
 L -48.545,-399.674 L -48.189,-399.685 L -47.833,-399.674 L -47.4784,-399.64 L -47.1266,-399.585 L -46.7791,-399.507
 L -46.4371,-399.408 L -46.102,-399.287 L -45.7751,-399.145 L -45.4578,-398.984 L -45.1512,-398.802 L -44.8566,-398.602
 L -44.5752,-398.384 L -44.3081,-398.148 L -44.0562,-397.897 L -43.8207,-397.629 L -43.6024,-397.348 L -43.4022,-397.053
 L -43.2209,-396.747 L -43.0592,-396.43 L -42.9178,-396.103 L -42.7971,-395.768 L -42.6978,-395.426 L -42.6201,-395.078
 L -42.5644,-394.726 L -42.5309,-394.372 L -42.5197,-394.016 L -42.5309,-393.66 L -42.5644,-393.305 L -42.6201,-392.953
 L -42.6978,-392.606 L -42.7971,-392.264 L -42.9178,-391.929 L -43.0592,-391.602 L -43.2209,-391.285 L -43.4022,-390.978
 L -43.6024,-390.683 L -43.8207,-390.402 L -44.0562,-390.135 L -44.3081,-389.883 L -44.5752,-389.647 L -44.8566,-389.429
 L -45.1512,-389.229 L -45.4578,-389.048 L -45.7751,-388.886 L -46.102,-388.745 L -46.4371,-388.624 L -46.7791,-388.525
 L -47.1266,-388.447 L -47.4784,-388.391 L -47.833,-388.358 L -48.189,-388.346 z
M 138.667,-385.228 L 138.667,-389.764 L 152.897,-389.764 L 152.897,-385.228 z
M -152.897,-385.228 L -152.897,-389.764 L -138.667,-389.764 L -138.667,-385.228 z
M 15.5622,-385.228 L 15.5622,-389.764 L 29.7921,-389.764 L 29.7921,-385.228 z
M -29.7921,-385.228 L -29.7921,-389.764 L -15.5622,-389.764 L -15.5622,-385.228 z
M -0.711945,-343.014 L -1.4211,-343.082 L -2.12463,-343.193 L -2.81978,-343.348 L -3.5038,-343.547 L -4.174,-343.788
 L -4.82773,-344.071 L -5.4624,-344.395 L -6.0755,-344.757 L -6.66464,-345.158 L -7.22748,-345.594 L -7.76178,-346.065
 L -8.26546,-346.569 L -8.73651,-347.103 L -9.1731,-347.666 L -9.57347,-348.255 L -9.93607,-348.868 L -10.2594,-349.503
 L -10.5423,-350.157 L -10.7836,-350.827 L -10.9823,-351.511 L -11.1377,-352.206 L -11.2492,-352.91 L -11.3162,-353.619
 L -11.3386,-354.331 L -11.3162,-355.043 L -11.2492,-355.752 L -11.1377,-356.455 L -10.9823,-357.15 L -10.7836,-357.835
 L -10.5423,-358.505 L -10.2594,-359.158 L -9.93607,-359.793 L -9.57347,-360.406 L -9.1731,-360.995 L -8.73651,-361.558
 L -8.26546,-362.092 L -7.76178,-362.596 L -7.22748,-363.067 L -6.66464,-363.504 L -6.0755,-363.904 L -5.4624,-364.267
 L -4.82773,-364.59 L -4.174,-364.873 L -3.5038,-365.114 L -2.81978,-365.313 L -2.12463,-365.468 L -1.4211,-365.58
 L -0.711945,-365.647 L 0,-365.669 L 0.711945,-365.647 L 1.4211,-365.58 L 2.12463,-365.468 L 2.81978,-365.313
 L 3.5038,-365.114 L 4.174,-364.873 L 4.82773,-364.59 L 5.4624,-364.267 L 6.0755,-363.904 L 6.66464,-363.504
 L 7.22748,-363.067 L 7.76178,-362.596 L 8.26546,-362.092 L 8.73651,-361.558 L 9.1731,-360.995 L 9.57347,-360.406
 L 9.93607,-359.793 L 10.2594,-359.158 L 10.5423,-358.505 L 10.7836,-357.835 L 10.9823,-357.15 L 11.1377,-356.455
 L 11.2492,-355.752 L 11.3162,-355.043 L 11.3386,-354.331 L 11.3162,-353.619 L 11.2492,-352.91 L 11.1377,-352.206
 L 10.9823,-351.511 L 10.7836,-350.827 L 10.5423,-350.157 L 10.2594,-349.503 L 9.93607,-348.868 L 9.57347,-348.255
 L 9.1731,-347.666 L 8.73651,-347.103 L 8.26546,-346.569 L 7.76178,-346.065 L 7.22748,-345.594 L 6.66464,-345.158
 L 6.0755,-344.757 L 5.4624,-344.395 L 4.82773,-344.071 L 4.174,-343.788 L 3.5038,-343.547 L 2.81978,-343.348
 L 2.12463,-343.193 L 1.4211,-343.082 L 0.711945,-343.014 L 0,-342.992 z
M 15.5622,-318.898 L 15.5622,-323.433 L 29.7921,-323.433 L 29.7921,-318.898 z
M -29.7921,-318.898 L -29.7921,-323.433 L -15.5622,-323.433 L -15.5622,-318.898 z
M 138.667,-318.898 L 138.667,-323.433 L 152.897,-323.433 L 152.897,-318.898 z
M -152.897,-318.898 L -152.897,-323.433 L -138.667,-323.433 L -138.667,-318.898 z
M 47.833,-308.988 L 47.4784,-309.021 L 47.1266,-309.077 L 46.7791,-309.154 L 46.4371,-309.254 L 46.102,-309.375
 L 45.7751,-309.516 L 45.4578,-309.678 L 45.1512,-309.859 L 44.8566,-310.059 L 44.5752,-310.277 L 44.3081,-310.513
 L 44.0562,-310.765 L 43.8207,-311.032 L 43.6024,-311.313 L 43.4022,-311.608 L 43.2209,-311.914 L 43.0592,-312.232
 L 42.9178,-312.559 L 42.7971,-312.894 L 42.6978,-313.236 L 42.6201,-313.583 L 42.5644,-313.935 L 42.5309,-314.29
 L 42.5197,-314.646 L 42.5309,-315.002 L 42.5644,-315.356 L 42.6201,-315.708 L 42.6978,-316.056 L 42.7971,-316.398
 L 42.9178,-316.733 L 43.0592,-317.06 L 43.2209,-317.377 L 43.4022,-317.683 L 43.6024,-317.978 L 43.8207,-318.259
 L 44.0562,-318.527 L 44.3081,-318.778 L 44.5752,-319.014 L 44.8566,-319.232 L 45.1512,-319.432 L 45.4578,-319.614
 L 45.7751,-319.775 L 46.102,-319.917 L 46.4371,-320.037 L 46.7791,-320.137 L 47.1266,-320.215 L 47.4784,-320.27
 L 47.833,-320.304 L 48.189,-320.315 L 48.545,-320.304 L 48.8995,-320.27 L 49.2513,-320.215 L 49.5989,-320.137
 L 49.9409,-320.037 L 50.276,-319.917 L 50.6028,-319.775 L 50.9202,-319.614 L 51.2267,-319.432 L 51.5213,-319.232
 L 51.8027,-319.014 L 52.0699,-318.778 L 52.3217,-318.527 L 52.5572,-318.259 L 52.7755,-317.978 L 52.9757,-317.683
 L 53.157,-317.377 L 53.3187,-317.06 L 53.4601,-316.733 L 53.5808,-316.398 L 53.6801,-316.056 L 53.7578,-315.708
 L 53.8136,-315.356 L 53.8471,-315.002 L 53.8583,-314.646 L 53.8471,-314.29 L 53.8136,-313.935 L 53.7578,-313.583
 L 53.6801,-313.236 L 53.5808,-312.894 L 53.4601,-312.559 L 53.3187,-312.232 L 53.157,-311.914 L 52.9757,-311.608
 L 52.7755,-311.313 L 52.5572,-311.032 L 52.3217,-310.765 L 52.0699,-310.513 L 51.8027,-310.277 L 51.5213,-310.059
 L 51.2267,-309.859 L 50.9202,-309.678 L 50.6028,-309.516 L 50.276,-309.375 L 49.9409,-309.254 L 49.5989,-309.154
 L 49.2513,-309.077 L 48.8995,-309.021 L 48.545,-308.988 L 48.189,-308.976 z
M -48.545,-308.988 L -48.8995,-309.021 L -49.2513,-309.077 L -49.5989,-309.154 L -49.9409,-309.254 L -50.276,-309.375
 L -50.6028,-309.516 L -50.9202,-309.678 L -51.2267,-309.859 L -51.5213,-310.059 L -51.8027,-310.277 L -52.0699,-310.513
 L -52.3217,-310.765 L -52.5572,-311.032 L -52.7755,-311.313 L -52.9757,-311.608 L -53.157,-311.914 L -53.3187,-312.232
 L -53.4601,-312.559 L -53.5808,-312.894 L -53.6801,-313.236 L -53.7578,-313.583 L -53.8136,-313.935 L -53.8471,-314.29
 L -53.8583,-314.646 L -53.8471,-315.002 L -53.8136,-315.356 L -53.7578,-315.708 L -53.6801,-316.056 L -53.5808,-316.398
 L -53.4601,-316.733 L -53.3187,-317.06 L -53.157,-317.377 L -52.9757,-317.683 L -52.7755,-317.978 L -52.5572,-318.259
 L -52.3217,-318.527 L -52.0699,-318.778 L -51.8027,-319.014 L -51.5213,-319.232 L -51.2267,-319.432 L -50.9202,-319.614
 L -50.6028,-319.775 L -50.276,-319.917 L -49.9409,-320.037 L -49.5989,-320.137 L -49.2513,-320.215 L -48.8995,-320.27
 L -48.545,-320.304 L -48.189,-320.315 L -47.833,-320.304 L -47.4784,-320.27 L -47.1266,-320.215 L -46.7791,-320.137
 L -46.4371,-320.037 L -46.102,-319.917 L -45.7751,-319.775 L -45.4578,-319.614 L -45.1512,-319.432 L -44.8566,-319.232
 L -44.5752,-319.014 L -44.3081,-318.778 L -44.0562,-318.527 L -43.8207,-318.259 L -43.6024,-317.978 L -43.4022,-317.683
 L -43.2209,-317.377 L -43.0592,-317.06 L -42.9178,-316.733 L -42.7971,-316.398 L -42.6978,-316.056 L -42.6201,-315.708
 L -42.5644,-315.356 L -42.5309,-315.002 L -42.5197,-314.646 L -42.5309,-314.29 L -42.5644,-313.935 L -42.6201,-313.583
 L -42.6978,-313.236 L -42.7971,-312.894 L -42.9178,-312.559 L -43.0592,-312.232 L -43.2209,-311.914 L -43.4022,-311.608
 L -43.6024,-311.313 L -43.8207,-311.032 L -44.0562,-310.765 L -44.3081,-310.513 L -44.5752,-310.277 L -44.8566,-310.059
 L -45.1512,-309.859 L -45.4578,-309.678 L -45.7751,-309.516 L -46.102,-309.375 L -46.4371,-309.254 L -46.7791,-309.154
 L -47.1266,-309.077 L -47.4784,-309.021 L -47.833,-308.988 L -48.189,-308.976 z
M -182.227,-147.402 L -109.336,-147.402 L -109.336,-133.228 L -36.4454,-133.228 L -36.4454,-147.402 L 36.4454,-147.402
 L 36.4454,-133.228 L 109.336,-133.228 L 109.336,-147.402 L 182.227,-147.402 L 182.227,-133.228 L 255.118,-133.228
 L 255.118,-274.961 L 182.227,-274.961 L 182.227,-260.787 L 109.336,-260.787 L 109.336,-274.961 L 36.4454,-274.961
 L 36.4454,-260.787 L -36.4454,-260.787 L -36.4454,-274.961 L -109.336,-274.961 L -109.336,-260.787 L -182.227,-260.787
 L -182.227,-274.961 L -255.118,-274.961 L -255.118,-133.228 L -182.227,-133.228 z
M -48.545,-238.121 L -48.8995,-238.155 L -49.2513,-238.211 L -49.5989,-238.288 L -49.9409,-238.388 L -50.276,-238.508
 L -50.6028,-238.65 L -50.9202,-238.811 L -51.2267,-238.993 L -51.5213,-239.193 L -51.8027,-239.411 L -52.0699,-239.647
 L -52.3217,-239.899 L -52.5572,-240.166 L -52.7755,-240.447 L -52.9757,-240.742 L -53.157,-241.048 L -53.3187,-241.366
 L -53.4601,-241.693 L -53.5808,-242.028 L -53.6801,-242.37 L -53.7578,-242.717 L -53.8136,-243.069 L -53.8471,-243.424
 L -53.8583,-243.78 L -53.8471,-244.135 L -53.8136,-244.49 L -53.7578,-244.842 L -53.6801,-245.189 L -53.5808,-245.531
 L -53.4601,-245.867 L -53.3187,-246.193 L -53.157,-246.511 L -52.9757,-246.817 L -52.7755,-247.112 L -52.5572,-247.393
 L -52.3217,-247.66 L -52.0699,-247.912 L -51.8027,-248.148 L -51.5213,-248.366 L -51.2267,-248.566 L -50.9202,-248.748
 L -50.6028,-248.909 L -50.276,-249.051 L -49.9409,-249.171 L -49.5989,-249.271 L -49.2513,-249.348 L -48.8995,-249.404
 L -48.545,-249.438 L -48.189,-249.449 L -47.833,-249.438 L -47.4784,-249.404 L -47.1266,-249.348 L -46.7791,-249.271
 L -46.4371,-249.171 L -46.102,-249.051 L -45.7751,-248.909 L -45.4578,-248.748 L -45.1512,-248.566 L -44.8566,-248.366
 L -44.5752,-248.148 L -44.3081,-247.912 L -44.0562,-247.66 L -43.8207,-247.393 L -43.6024,-247.112 L -43.4022,-246.817
 L -43.2209,-246.511 L -43.0592,-246.193 L -42.9178,-245.867 L -42.7971,-245.531 L -42.6978,-245.189 L -42.6201,-244.842
 L -42.5644,-244.49 L -42.5309,-244.135 L -42.5197,-243.78 L -42.5309,-243.424 L -42.5644,-243.069 L -42.6201,-242.717
 L -42.6978,-242.37 L -42.7971,-242.028 L -42.9178,-241.693 L -43.0592,-241.366 L -43.2209,-241.048 L -43.4022,-240.742
 L -43.6024,-240.447 L -43.8207,-240.166 L -44.0562,-239.899 L -44.3081,-239.647 L -44.5752,-239.411 L -44.8566,-239.193
 L -45.1512,-238.993 L -45.4578,-238.811 L -45.7751,-238.65 L -46.102,-238.508 L -46.4371,-238.388 L -46.7791,-238.288
 L -47.1266,-238.211 L -47.4784,-238.155 L -47.833,-238.121 L -48.189,-238.11 z
M 47.833,-238.121 L 47.4784,-238.155 L 47.1266,-238.211 L 46.7791,-238.288 L 46.4371,-238.388 L 46.102,-238.508
 L 45.7751,-238.65 L 45.4578,-238.811 L 45.1512,-238.993 L 44.8566,-239.193 L 44.5752,-239.411 L 44.3081,-239.647
 L 44.0562,-239.899 L 43.8207,-240.166 L 43.6024,-240.447 L 43.4022,-240.742 L 43.2209,-241.048 L 43.0592,-241.366
 L 42.9178,-241.693 L 42.7971,-242.028 L 42.6978,-242.37 L 42.6201,-242.717 L 42.5644,-243.069 L 42.5309,-243.424
 L 42.5197,-243.78 L 42.5309,-244.135 L 42.5644,-244.49 L 42.6201,-244.842 L 42.6978,-245.189 L 42.7971,-245.531
 L 42.9178,-245.867 L 43.0592,-246.193 L 43.2209,-246.511 L 43.4022,-246.817 L 43.6024,-247.112 L 43.8207,-247.393
 L 44.0562,-247.66 L 44.3081,-247.912 L 44.5752,-248.148 L 44.8566,-248.366 L 45.1512,-248.566 L 45.4578,-248.748
 L 45.7751,-248.909 L 46.102,-249.051 L 46.4371,-249.171 L 46.7791,-249.271 L 47.1266,-249.348 L 47.4784,-249.404
 L 47.833,-249.438 L 48.189,-249.449 L 48.545,-249.438 L 48.8995,-249.404 L 49.2513,-249.348 L 49.5989,-249.271
 L 49.9409,-249.171 L 50.276,-249.051 L 50.6028,-248.909 L 50.9202,-248.748 L 51.2267,-248.566 L 51.5213,-248.366
 L 51.8027,-248.148 L 52.0699,-247.912 L 52.3217,-247.66 L 52.5572,-247.393 L 52.7755,-247.112 L 52.9757,-246.817
 L 53.157,-246.511 L 53.3187,-246.193 L 53.4601,-245.867 L 53.5808,-245.531 L 53.6801,-245.189 L 53.7578,-244.842
 L 53.8136,-244.49 L 53.8471,-244.135 L 53.8583,-243.78 L 53.8471,-243.424 L 53.8136,-243.069 L 53.7578,-242.717
 L 53.6801,-242.37 L 53.5808,-242.028 L 53.4601,-241.693 L 53.3187,-241.366 L 53.157,-241.048 L 52.9757,-240.742
 L 52.7755,-240.447 L 52.5572,-240.166 L 52.3217,-239.899 L 52.0699,-239.647 L 51.8027,-239.411 L 51.5213,-239.193
 L 51.2267,-238.993 L 50.9202,-238.811 L 50.6028,-238.65 L 50.276,-238.508 L 49.9409,-238.388 L 49.5989,-238.288
 L 49.2513,-238.211 L 48.8995,-238.155 L 48.545,-238.121 L 48.189,-238.11 z
M 138.667,-234.992 L 138.667,-239.528 L 152.897,-239.528 L 152.897,-234.992 z
M 15.5622,-234.992 L 15.5622,-239.528 L 29.7921,-239.528 L 29.7921,-234.992 z
M -29.7921,-234.992 L -29.7921,-239.528 L -15.5622,-239.528 L -15.5622,-234.992 z
M -152.897,-234.992 L -152.897,-239.528 L -138.667,-239.528 L -138.667,-234.992 z
M -0.711945,-192.778 L -1.4211,-192.845 L -2.12463,-192.957 L -2.81978,-193.112 L -3.5038,-193.311 L -4.174,-193.552
 L -4.82773,-193.835 L -5.4624,-194.158 L -6.0755,-194.521 L -6.66464,-194.921 L -7.22748,-195.358 L -7.76178,-195.829
 L -8.26546,-196.333 L -8.73651,-196.867 L -9.1731,-197.43 L -9.57347,-198.019 L -9.93607,-198.632 L -10.2594,-199.267
 L -10.5423,-199.92 L -10.7836,-200.591 L -10.9823,-201.275 L -11.1377,-201.97 L -11.2492,-202.673 L -11.3162,-203.383
 L -11.3386,-204.094 L -11.3162,-204.806 L -11.2492,-205.516 L -11.1377,-206.219 L -10.9823,-206.914 L -10.7836,-207.598
 L -10.5423,-208.268 L -10.2594,-208.922 L -9.93607,-209.557 L -9.57347,-210.17 L -9.1731,-210.759 L -8.73651,-211.322
 L -8.26546,-211.856 L -7.76178,-212.36 L -7.22748,-212.831 L -6.66464,-213.268 L -6.0755,-213.668 L -5.4624,-214.031
 L -4.82773,-214.354 L -4.174,-214.637 L -3.5038,-214.878 L -2.81978,-215.077 L -2.12463,-215.232 L -1.4211,-215.344
 L -0.711945,-215.411 L 0,-215.433 L 0.711945,-215.411 L 1.4211,-215.344 L 2.12463,-215.232 L 2.81978,-215.077
 L 3.5038,-214.878 L 4.174,-214.637 L 4.82773,-214.354 L 5.4624,-214.031 L 6.0755,-213.668 L 6.66464,-213.268
 L 7.22748,-212.831 L 7.76178,-212.36 L 8.26546,-211.856 L 8.73651,-211.322 L 9.1731,-210.759 L 9.57347,-210.17
 L 9.93607,-209.557 L 10.2594,-208.922 L 10.5423,-208.268 L 10.7836,-207.598 L 10.9823,-206.914 L 11.1377,-206.219
 L 11.2492,-205.516 L 11.3162,-204.806 L 11.3386,-204.094 L 11.3162,-203.383 L 11.2492,-202.673 L 11.1377,-201.97
 L 10.9823,-201.275 L 10.7836,-200.591 L 10.5423,-199.92 L 10.2594,-199.267 L 9.93607,-198.632 L 9.57347,-198.019
 L 9.1731,-197.43 L 8.73651,-196.867 L 8.26546,-196.333 L 7.76178,-195.829 L 7.22748,-195.358 L 6.66464,-194.921
 L 6.0755,-194.521 L 5.4624,-194.158 L 4.82773,-193.835 L 4.174,-193.552 L 3.5038,-193.311 L 2.81978,-193.112
 L 2.12463,-192.957 L 1.4211,-192.845 L 0.711945,-192.778 L 0,-192.756 z
M -29.7921,-168.661 L -29.7921,-173.197 L -15.5622,-173.197 L -15.5622,-168.661 z
M 138.667,-168.661 L 138.667,-173.197 L 152.897,-173.197 L 152.897,-168.661 z
M 15.5622,-168.661 L 15.5622,-173.197 L 29.7921,-173.197 L 29.7921,-168.661 z
M -152.897,-168.661 L -152.897,-173.197 L -138.667,-173.197 L -138.667,-168.661 z
M 47.833,-158.751 L 47.4784,-158.785 L 47.1266,-158.841 L 46.7791,-158.918 L 46.4371,-159.018 L 46.102,-159.138
 L 45.7751,-159.28 L 45.4578,-159.441 L 45.1512,-159.623 L 44.8566,-159.823 L 44.5752,-160.041 L 44.3081,-160.277
 L 44.0562,-160.529 L 43.8207,-160.796 L 43.6024,-161.077 L 43.4022,-161.372 L 43.2209,-161.678 L 43.0592,-161.996
 L 42.9178,-162.322 L 42.7971,-162.658 L 42.6978,-163 L 42.6201,-163.347 L 42.5644,-163.699 L 42.5309,-164.053
 L 42.5197,-164.409 L 42.5309,-164.765 L 42.5644,-165.12 L 42.6201,-165.472 L 42.6978,-165.819 L 42.7971,-166.161
 L 42.9178,-166.496 L 43.0592,-166.823 L 43.2209,-167.141 L 43.4022,-167.447 L 43.6024,-167.742 L 43.8207,-168.023
 L 44.0562,-168.29 L 44.3081,-168.542 L 44.5752,-168.778 L 44.8566,-168.996 L 45.1512,-169.196 L 45.4578,-169.377
 L 45.7751,-169.539 L 46.102,-169.681 L 46.4371,-169.801 L 46.7791,-169.901 L 47.1266,-169.978 L 47.4784,-170.034
 L 47.833,-170.068 L 48.189,-170.079 L 48.545,-170.068 L 48.8995,-170.034 L 49.2513,-169.978 L 49.5989,-169.901
 L 49.9409,-169.801 L 50.276,-169.681 L 50.6028,-169.539 L 50.9202,-169.377 L 51.2267,-169.196 L 51.5213,-168.996
 L 51.8027,-168.778 L 52.0699,-168.542 L 52.3217,-168.29 L 52.5572,-168.023 L 52.7755,-167.742 L 52.9757,-167.447
 L 53.157,-167.141 L 53.3187,-166.823 L 53.4601,-166.496 L 53.5808,-166.161 L 53.6801,-165.819 L 53.7578,-165.472
 L 53.8136,-165.12 L 53.8471,-164.765 L 53.8583,-164.409 L 53.8471,-164.053 L 53.8136,-163.699 L 53.7578,-163.347
 L 53.6801,-163 L 53.5808,-162.658 L 53.4601,-162.322 L 53.3187,-161.996 L 53.157,-161.678 L 52.9757,-161.372
 L 52.7755,-161.077 L 52.5572,-160.796 L 52.3217,-160.529 L 52.0699,-160.277 L 51.8027,-160.041 L 51.5213,-159.823
 L 51.2267,-159.623 L 50.9202,-159.441 L 50.6028,-159.28 L 50.276,-159.138 L 49.9409,-159.018 L 49.5989,-158.918
 L 49.2513,-158.841 L 48.8995,-158.785 L 48.545,-158.751 L 48.189,-158.74 z
M -48.545,-158.751 L -48.8995,-158.785 L -49.2513,-158.841 L -49.5989,-158.918 L -49.9409,-159.018 L -50.276,-159.138
 L -50.6028,-159.28 L -50.9202,-159.441 L -51.2267,-159.623 L -51.5213,-159.823 L -51.8027,-160.041 L -52.0699,-160.277
 L -52.3217,-160.529 L -52.5572,-160.796 L -52.7755,-161.077 L -52.9757,-161.372 L -53.157,-161.678 L -53.3187,-161.996
 L -53.4601,-162.322 L -53.5808,-162.658 L -53.6801,-163 L -53.7578,-163.347 L -53.8136,-163.699 L -53.8471,-164.053
 L -53.8583,-164.409 L -53.8471,-164.765 L -53.8136,-165.12 L -53.7578,-165.472 L -53.6801,-165.819 L -53.5808,-166.161
 L -53.4601,-166.496 L -53.3187,-166.823 L -53.157,-167.141 L -52.9757,-167.447 L -52.7755,-167.742 L -52.5572,-168.023
 L -52.3217,-168.29 L -52.0699,-168.542 L -51.8027,-168.778 L -51.5213,-168.996 L -51.2267,-169.196 L -50.9202,-169.377
 L -50.6028,-169.539 L -50.276,-169.681 L -49.9409,-169.801 L -49.5989,-169.901 L -49.2513,-169.978 L -48.8995,-170.034
 L -48.545,-170.068 L -48.189,-170.079 L -47.833,-170.068 L -47.4784,-170.034 L -47.1266,-169.978 L -46.7791,-169.901
 L -46.4371,-169.801 L -46.102,-169.681 L -45.7751,-169.539 L -45.4578,-169.377 L -45.1512,-169.196 L -44.8566,-168.996
 L -44.5752,-168.778 L -44.3081,-168.542 L -44.0562,-168.29 L -43.8207,-168.023 L -43.6024,-167.742 L -43.4022,-167.447
 L -43.2209,-167.141 L -43.0592,-166.823 L -42.9178,-166.496 L -42.7971,-166.161 L -42.6978,-165.819 L -42.6201,-165.472
 L -42.5644,-165.12 L -42.5309,-164.765 L -42.5197,-164.409 L -42.5309,-164.053 L -42.5644,-163.699 L -42.6201,-163.347
 L -42.6978,-163 L -42.7971,-162.658 L -42.9178,-162.322 L -43.0592,-161.996 L -43.2209,-161.678 L -43.4022,-161.372
 L -43.6024,-161.077 L -43.8207,-160.796 L -44.0562,-160.529 L -44.3081,-160.277 L -44.5752,-160.041 L -44.8566,-159.823
 L -45.1512,-159.623 L -45.4578,-159.441 L -45.7751,-159.28 L -46.102,-159.138 L -46.4371,-159.018 L -46.7791,-158.918
 L -47.1266,-158.841 L -47.4784,-158.785 L -47.833,-158.751 L -48.189,-158.74 z
M -182.227,2.83464 L -109.336,2.83464 L -109.336,17.0079 L -36.4454,17.0079 L -36.4454,2.83464 L 36.4454,2.83464
 L 36.4454,17.0079 L 109.336,17.0079 L 109.336,2.83464 L 182.227,2.83464 L 182.227,17.0079 L 255.118,17.0079
 L 255.118,-124.724 L 182.227,-124.724 L 182.227,-110.551 L 109.336,-110.551 L 109.336,-124.724 L 36.4454,-124.724
 L 36.4454,-110.551 L -36.4454,-110.551 L -36.4454,-124.724 L -109.336,-124.724 L -109.336,-110.551 L -182.227,-110.551
 L -182.227,-124.724 L -255.118,-124.724 L -255.118,17.0079 L -182.227,17.0079 z
M 47.833,-87.8852 L 47.4784,-87.9187 L 47.1266,-87.9744 L 46.7791,-88.0521 L 46.4371,-88.1515 L 46.102,-88.2721
 L 45.7751,-88.4136 L 45.4578,-88.5753 L 45.1512,-88.7566 L 44.8566,-88.9568 L 44.5752,-89.175 L 44.3081,-89.4106
 L 44.0562,-89.6624 L 43.8207,-89.9296 L 43.6024,-90.211 L 43.4022,-90.5055 L 43.2209,-90.8121 L 43.0592,-91.1294
 L 42.9178,-91.4563 L 42.7971,-91.7914 L 42.6978,-92.1334 L 42.6201,-92.481 L 42.5644,-92.8327 L 42.5309,-93.1873
 L 42.5197,-93.5433 L 42.5309,-93.8993 L 42.5644,-94.2538 L 42.6201,-94.6056 L 42.6978,-94.9532 L 42.7971,-95.2952
 L 42.9178,-95.6303 L 43.0592,-95.9572 L 43.2209,-96.2745 L 43.4022,-96.5811 L 43.6024,-96.8756 L 43.8207,-97.157
 L 44.0562,-97.4242 L 44.3081,-97.676 L 44.5752,-97.9116 L 44.8566,-98.1299 L 45.1512,-98.33 L 45.4578,-98.5113
 L 45.7751,-98.673 L 46.102,-98.8145 L 46.4371,-98.9351 L 46.7791,-99.0345 L 47.1266,-99.1122 L 47.4784,-99.1679
 L 47.833,-99.2014 L 48.189,-99.2126 L 48.545,-99.2014 L 48.8995,-99.1679 L 49.2513,-99.1122 L 49.5989,-99.0345
 L 49.9409,-98.9351 L 50.276,-98.8145 L 50.6028,-98.673 L 50.9202,-98.5113 L 51.2267,-98.33 L 51.5213,-98.1299
 L 51.8027,-97.9116 L 52.0699,-97.676 L 52.3217,-97.4242 L 52.5572,-97.157 L 52.7755,-96.8756 L 52.9757,-96.5811
 L 53.157,-96.2745 L 53.3187,-95.9572 L 53.4601,-95.6303 L 53.5808,-95.2952 L 53.6801,-94.9532 L 53.7578,-94.6056
 L 53.8136,-94.2538 L 53.8471,-93.8993 L 53.8583,-93.5433 L 53.8471,-93.1873 L 53.8136,-92.8327 L 53.7578,-92.481
 L 53.6801,-92.1334 L 53.5808,-91.7914 L 53.4601,-91.4563 L 53.3187,-91.1294 L 53.157,-90.8121 L 52.9757,-90.5055
 L 52.7755,-90.211 L 52.5572,-89.9296 L 52.3217,-89.6624 L 52.0699,-89.4106 L 51.8027,-89.175 L 51.5213,-88.9568
 L 51.2267,-88.7566 L 50.9202,-88.5753 L 50.6028,-88.4136 L 50.276,-88.2721 L 49.9409,-88.1515 L 49.5989,-88.0521
 L 49.2513,-87.9744 L 48.8995,-87.9187 L 48.545,-87.8852 L 48.189,-87.874 z
M -48.545,-87.8852 L -48.8995,-87.9187 L -49.2513,-87.9744 L -49.5989,-88.0521 L -49.9409,-88.1515 L -50.276,-88.2721
 L -50.6028,-88.4136 L -50.9202,-88.5753 L -51.2267,-88.7566 L -51.5213,-88.9568 L -51.8027,-89.175 L -52.0699,-89.4106
 L -52.3217,-89.6624 L -52.5572,-89.9296 L -52.7755,-90.211 L -52.9757,-90.5055 L -53.157,-90.8121 L -53.3187,-91.1294
 L -53.4601,-91.4563 L -53.5808,-91.7914 L -53.6801,-92.1334 L -53.7578,-92.481 L -53.8136,-92.8327 L -53.8471,-93.1873
 L -53.8583,-93.5433 L -53.8471,-93.8993 L -53.8136,-94.2538 L -53.7578,-94.6056 L -53.6801,-94.9532 L -53.5808,-95.2952
 L -53.4601,-95.6303 L -53.3187,-95.9572 L -53.157,-96.2745 L -52.9757,-96.5811 L -52.7755,-96.8756 L -52.5572,-97.157
 L -52.3217,-97.4242 L -52.0699,-97.676 L -51.8027,-97.9116 L -51.5213,-98.1299 L -51.2267,-98.33 L -50.9202,-98.5113
 L -50.6028,-98.673 L -50.276,-98.8145 L -49.9409,-98.9351 L -49.5989,-99.0345 L -49.2513,-99.1122 L -48.8995,-99.1679
 L -48.545,-99.2014 L -48.189,-99.2126 L -47.833,-99.2014 L -47.4784,-99.1679 L -47.1266,-99.1122 L -46.7791,-99.0345
 L -46.4371,-98.9351 L -46.102,-98.8145 L -45.7751,-98.673 L -45.4578,-98.5113 L -45.1512,-98.33 L -44.8566,-98.1299
 L -44.5752,-97.9116 L -44.3081,-97.676 L -44.0562,-97.4242 L -43.8207,-97.157 L -43.6024,-96.8756 L -43.4022,-96.5811
 L -43.2209,-96.2745 L -43.0592,-95.9572 L -42.9178,-95.6303 L -42.7971,-95.2952 L -42.6978,-94.9532 L -42.6201,-94.6056
 L -42.5644,-94.2538 L -42.5309,-93.8993 L -42.5197,-93.5433 L -42.5309,-93.1873 L -42.5644,-92.8327 L -42.6201,-92.481
 L -42.6978,-92.1334 L -42.7971,-91.7914 L -42.9178,-91.4563 L -43.0592,-91.1294 L -43.2209,-90.8121 L -43.4022,-90.5055
 L -43.6024,-90.211 L -43.8207,-89.9296 L -44.0562,-89.6624 L -44.3081,-89.4106 L -44.5752,-89.175 L -44.8566,-88.9568
 L -45.1512,-88.7566 L -45.4578,-88.5753 L -45.7751,-88.4136 L -46.102,-88.2721 L -46.4371,-88.1515 L -46.7791,-88.0521
 L -47.1266,-87.9744 L -47.4784,-87.9187 L -47.833,-87.8852 L -48.189,-87.874 z
M -29.7921,-84.7559 L -29.7921,-89.2913 L -15.5622,-89.2913 L -15.5622,-84.7559 z
M 15.5622,-84.7559 L 15.5622,-89.2913 L 29.7921,-89.2913 L 29.7921,-84.7559 z
M -152.897,-84.7559 L -152.897,-89.2913 L -138.667,-89.2913 L -138.667,-84.7559 z
M 138.667,-84.7559 L 138.667,-89.2913 L 152.897,-89.2913 L 152.897,-84.7559 z
M -0.711945,-42.5421 L -1.4211,-42.6091 L -2.12463,-42.7205 L -2.81978,-42.8759 L -3.5038,-43.0746 L -4.174,-43.3159
 L -4.82773,-43.5988 L -5.4624,-43.9222 L -6.0755,-44.2848 L -6.66464,-44.6852 L -7.22748,-45.1217 L -7.76178,-45.5928
 L -8.26546,-46.0965 L -8.73651,-46.6308 L -9.1731,-47.1936 L -9.57347,-47.7827 L -9.93607,-48.3959 L -10.2594,-49.0305
 L -10.5423,-49.6842 L -10.7836,-50.3544 L -10.9823,-51.0385 L -11.1377,-51.7336 L -11.2492,-52.4372 L -11.3162,-53.1463
 L -11.3386,-53.8583 L -11.3162,-54.5702 L -11.2492,-55.2794 L -11.1377,-55.9829 L -10.9823,-56.6781 L -10.7836,-57.3621
 L -10.5423,-58.0323 L -10.2594,-58.686 L -9.93607,-59.3207 L -9.57347,-59.9338 L -9.1731,-60.5229 L -8.73651,-61.0857
 L -8.26546,-61.6201 L -7.76178,-62.1237 L -7.22748,-62.5948 L -6.66464,-63.0314 L -6.0755,-63.4317 L -5.4624,-63.7943
 L -4.82773,-64.1177 L -4.174,-64.4006 L -3.5038,-64.6419 L -2.81978,-64.8406 L -2.12463,-64.996 L -1.4211,-65.1074
 L -0.711945,-65.1745 L 0,-65.1969 L 0.711945,-65.1745 L 1.4211,-65.1074 L 2.12463,-64.996 L 2.81978,-64.8406
 L 3.5038,-64.6419 L 4.174,-64.4006 L 4.82773,-64.1177 L 5.4624,-63.7943 L 6.0755,-63.4317 L 6.66464,-63.0314
 L 7.22748,-62.5948 L 7.76178,-62.1237 L 8.26546,-61.6201 L 8.73651,-61.0857 L 9.1731,-60.5229 L 9.57347,-59.9338
 L 9.93607,-59.3207 L 10.2594,-58.686 L 10.5423,-58.0323 L 10.7836,-57.3621 L 10.9823,-56.6781 L 11.1377,-55.9829
 L 11.2492,-55.2794 L 11.3162,-54.5702 L 11.3386,-53.8583 L 11.3162,-53.1463 L 11.2492,-52.4372 L 11.1377,-51.7336
 L 10.9823,-51.0385 L 10.7836,-50.3544 L 10.5423,-49.6842 L 10.2594,-49.0305 L 9.93607,-48.3959 L 9.57347,-47.7827
 L 9.1731,-47.1936 L 8.73651,-46.6308 L 8.26546,-46.0965 L 7.76178,-45.5928 L 7.22748,-45.1217 L 6.66464,-44.6852
 L 6.0755,-44.2848 L 5.4624,-43.9222 L 4.82773,-43.5988 L 4.174,-43.3159 L 3.5038,-43.0746 L 2.81978,-42.8759
 L 2.12463,-42.7205 L 1.4211,-42.6091 L 0.711945,-42.5421 L 0,-42.5197 z
M -152.897,-18.4252 L -152.897,-22.9606 L -138.667,-22.9606 L -138.667,-18.4252 z
M -29.7921,-18.4252 L -29.7921,-22.9606 L -15.5622,-22.9606 L -15.5622,-18.4252 z
M 138.667,-18.4252 L 138.667,-22.9606 L 152.897,-22.9606 L 152.897,-18.4252 z
M 15.5622,-18.4252 L 15.5622,-22.9606 L 29.7921,-22.9606 L 29.7921,-18.4252 z
M -48.545,-8.51512 L -48.8995,-8.54863 L -49.2513,-8.60435 L -49.5989,-8.68204 L -49.9409,-8.7814 L -50.276,-8.90205
 L -50.6028,-9.0435 L -50.9202,-9.20518 L -51.2267,-9.38649 L -51.5213,-9.58667 L -51.8027,-9.80496 L -52.0699,-10.0405
 L -52.3217,-10.2923 L -52.5572,-10.5595 L -52.7755,-10.8409 L -52.9757,-11.1355 L -53.157,-11.442 L -53.3187,-11.7594
 L -53.4601,-12.0862 L -53.5808,-12.4213 L -53.6801,-12.7633 L -53.7578,-13.1109 L -53.8136,-13.4627 L -53.8471,-13.8172
 L -53.8583,-14.1732 L -53.8471,-14.5292 L -53.8136,-14.8838 L -53.7578,-15.2355 L -53.6801,-15.5831 L -53.5808,-15.9251
 L -53.4601,-16.2602 L -53.3187,-16.5871 L -53.157,-16.9044 L -52.9757,-17.211 L -52.7755,-17.5056 L -52.5572,-17.787
 L -52.3217,-18.0541 L -52.0699,-18.306 L -51.8027,-18.5415 L -51.5213,-18.7598 L -51.2267,-18.96 L -50.9202,-19.1413
 L -50.6028,-19.3029 L -50.276,-19.4444 L -49.9409,-19.565 L -49.5989,-19.6644 L -49.2513,-19.7421 L -48.8995,-19.7978
 L -48.545,-19.8313 L -48.189,-19.8425 L -47.833,-19.8313 L -47.4784,-19.7978 L -47.1266,-19.7421 L -46.7791,-19.6644
 L -46.4371,-19.565 L -46.102,-19.4444 L -45.7751,-19.3029 L -45.4578,-19.1413 L -45.1512,-18.96 L -44.8566,-18.7598
 L -44.5752,-18.5415 L -44.3081,-18.306 L -44.0562,-18.0541 L -43.8207,-17.787 L -43.6024,-17.5056 L -43.4022,-17.211
 L -43.2209,-16.9044 L -43.0592,-16.5871 L -42.9178,-16.2602 L -42.7971,-15.9251 L -42.6978,-15.5831 L -42.6201,-15.2355
 L -42.5644,-14.8838 L -42.5309,-14.5292 L -42.5197,-14.1732 L -42.5309,-13.8172 L -42.5644,-13.4627 L -42.6201,-13.1109
 L -42.6978,-12.7633 L -42.7971,-12.4213 L -42.9178,-12.0862 L -43.0592,-11.7594 L -43.2209,-11.442 L -43.4022,-11.1355
 L -43.6024,-10.8409 L -43.8207,-10.5595 L -44.0562,-10.2923 L -44.3081,-10.0405 L -44.5752,-9.80496 L -44.8566,-9.58667
 L -45.1512,-9.38649 L -45.4578,-9.20518 L -45.7751,-9.0435 L -46.102,-8.90205 L -46.4371,-8.7814 L -46.7791,-8.68204
 L -47.1266,-8.60435 L -47.4784,-8.54863 L -47.833,-8.51512 L -48.189,-8.50394 z
M 47.833,-8.51512 L 47.4784,-8.54863 L 47.1266,-8.60435 L 46.7791,-8.68204 L 46.4371,-8.7814 L 46.102,-8.90205
 L 45.7751,-9.0435 L 45.4578,-9.20518 L 45.1512,-9.38649 L 44.8566,-9.58667 L 44.5752,-9.80496 L 44.3081,-10.0405
 L 44.0562,-10.2923 L 43.8207,-10.5595 L 43.6024,-10.8409 L 43.4022,-11.1355 L 43.2209,-11.442 L 43.0592,-11.7594
 L 42.9178,-12.0862 L 42.7971,-12.4213 L 42.6978,-12.7633 L 42.6201,-13.1109 L 42.5644,-13.4627 L 42.5309,-13.8172
 L 42.5197,-14.1732 L 42.5309,-14.5292 L 42.5644,-14.8838 L 42.6201,-15.2355 L 42.6978,-15.5831 L 42.7971,-15.9251
 L 42.9178,-16.2602 L 43.0592,-16.5871 L 43.2209,-16.9044 L 43.4022,-17.211 L 43.6024,-17.5056 L 43.8207,-17.787
 L 44.0562,-18.0541 L 44.3081,-18.306 L 44.5752,-18.5415 L 44.8566,-18.7598 L 45.1512,-18.96 L 45.4578,-19.1413
 L 45.7751,-19.3029 L 46.102,-19.4444 L 46.4371,-19.565 L 46.7791,-19.6644 L 47.1266,-19.7421 L 47.4784,-19.7978
 L 47.833,-19.8313 L 48.189,-19.8425 L 48.545,-19.8313 L 48.8995,-19.7978 L 49.2513,-19.7421 L 49.5989,-19.6644
 L 49.9409,-19.565 L 50.276,-19.4444 L 50.6028,-19.3029 L 50.9202,-19.1413 L 51.2267,-18.96 L 51.5213,-18.7598
 L 51.8027,-18.5415 L 52.0699,-18.306 L 52.3217,-18.0541 L 52.5572,-17.787 L 52.7755,-17.5056 L 52.9757,-17.211
 L 53.157,-16.9044 L 53.3187,-16.5871 L 53.4601,-16.2602 L 53.5808,-15.9251 L 53.6801,-15.5831 L 53.7578,-15.2355
 L 53.8136,-14.8838 L 53.8471,-14.5292 L 53.8583,-14.1732 L 53.8471,-13.8172 L 53.8136,-13.4627 L 53.7578,-13.1109
 L 53.6801,-12.7633 L 53.5808,-12.4213 L 53.4601,-12.0862 L 53.3187,-11.7594 L 53.157,-11.442 L 52.9757,-11.1355
 L 52.7755,-10.8409 L 52.5572,-10.5595 L 52.3217,-10.2923 L 52.0699,-10.0405 L 51.8027,-9.80496 L 51.5213,-9.58667
 L 51.2267,-9.38649 L 50.9202,-9.20518 L 50.6028,-9.0435 L 50.276,-8.90205 L 49.9409,-8.7814 L 49.5989,-8.68204
 L 49.2513,-8.60435 L 48.8995,-8.54863 L 48.545,-8.51512 L 48.189,-8.50394 z
M -182.227,153.071 L -109.336,153.071 L -109.336,167.244 L -36.4454,167.244 L -36.4454,153.071 L 36.4454,153.071
 L 36.4454,167.244 L 109.336,167.244 L 109.336,153.071 L 182.227,153.071 L 182.227,167.244 L 255.118,167.244
 L 255.118,25.5118 L 182.227,25.5118 L 182.227,39.685 L 109.336,39.685 L 109.336,25.5118 L 36.4454,25.5118
 L 36.4454,39.685 L -36.4454,39.685 L -36.4454,25.5118 L -109.336,25.5118 L -109.336,39.685 L -182.227,39.685
 L -182.227,25.5118 L -255.118,25.5118 L -255.118,167.244 L -182.227,167.244 z
M -48.545,62.351 L -48.8995,62.3175 L -49.2513,62.2618 L -49.5989,62.1841 L -49.9409,62.0847 L -50.276,61.9641
 L -50.6028,61.8226 L -50.9202,61.6609 L -51.2267,61.4796 L -51.5213,61.2795 L -51.8027,61.0612 L -52.0699,60.8257
 L -52.3217,60.5738 L -52.5572,60.3067 L -52.7755,60.0252 L -52.9757,59.7307 L -53.157,59.4241 L -53.3187,59.1068
 L -53.4601,58.7799 L -53.5808,58.4448 L -53.6801,58.1028 L -53.7578,57.7552 L -53.8136,57.4035 L -53.8471,57.0489
 L -53.8583,56.6929 L -53.8471,56.3369 L -53.8136,55.9824 L -53.7578,55.6306 L -53.6801,55.283 L -53.5808,54.941
 L -53.4601,54.6059 L -53.3187,54.279 L -53.157,53.9617 L -52.9757,53.6552 L -52.7755,53.3606 L -52.5572,53.0792
 L -52.3217,52.812 L -52.0699,52.5602 L -51.8027,52.3246 L -51.5213,52.1064 L -51.2267,51.9062 L -50.9202,51.7249
 L -50.6028,51.5632 L -50.276,51.4217 L -49.9409,51.3011 L -49.5989,51.2017 L -49.2513,51.124 L -48.8995,51.0683
 L -48.545,51.0348 L -48.189,51.0236 L -47.833,51.0348 L -47.4784,51.0683 L -47.1266,51.124 L -46.7791,51.2017
 L -46.4371,51.3011 L -46.102,51.4217 L -45.7751,51.5632 L -45.4578,51.7249 L -45.1512,51.9062 L -44.8566,52.1064
 L -44.5752,52.3246 L -44.3081,52.5602 L -44.0562,52.812 L -43.8207,53.0792 L -43.6024,53.3606 L -43.4022,53.6552
 L -43.2209,53.9617 L -43.0592,54.279 L -42.9178,54.6059 L -42.7971,54.941 L -42.6978,55.283 L -42.6201,55.6306
 L -42.5644,55.9824 L -42.5309,56.3369 L -42.5197,56.6929 L -42.5309,57.0489 L -42.5644,57.4035 L -42.6201,57.7552
 L -42.6978,58.1028 L -42.7971,58.4448 L -42.9178,58.7799 L -43.0592,59.1068 L -43.2209,59.4241 L -43.4022,59.7307
 L -43.6024,60.0252 L -43.8207,60.3067 L -44.0562,60.5738 L -44.3081,60.8257 L -44.5752,61.0612 L -44.8566,61.2795
 L -45.1512,61.4796 L -45.4578,61.6609 L -45.7751,61.8226 L -46.102,61.9641 L -46.4371,62.0847 L -46.7791,62.1841
 L -47.1266,62.2618 L -47.4784,62.3175 L -47.833,62.351 L -48.189,62.3622 z
M 47.833,62.351 L 47.4784,62.3175 L 47.1266,62.2618 L 46.7791,62.1841 L 46.4371,62.0847 L 46.102,61.9641
 L 45.7751,61.8226 L 45.4578,61.6609 L 45.1512,61.4796 L 44.8566,61.2795 L 44.5752,61.0612 L 44.3081,60.8257
 L 44.0562,60.5738 L 43.8207,60.3067 L 43.6024,60.0252 L 43.4022,59.7307 L 43.2209,59.4241 L 43.0592,59.1068
 L 42.9178,58.7799 L 42.7971,58.4448 L 42.6978,58.1028 L 42.6201,57.7552 L 42.5644,57.4035 L 42.5309,57.0489
 L 42.5197,56.6929 L 42.5309,56.3369 L 42.5644,55.9824 L 42.6201,55.6306 L 42.6978,55.283 L 42.7971,54.941
 L 42.9178,54.6059 L 43.0592,54.279 L 43.2209,53.9617 L 43.4022,53.6552 L 43.6024,53.3606 L 43.8207,53.0792
 L 44.0562,52.812 L 44.3081,52.5602 L 44.5752,52.3246 L 44.8566,52.1064 L 45.1512,51.9062 L 45.4578,51.7249
 L 45.7751,51.5632 L 46.102,51.4217 L 46.4371,51.3011 L 46.7791,51.2017 L 47.1266,51.124 L 47.4784,51.0683
 L 47.833,51.0348 L 48.189,51.0236 L 48.545,51.0348 L 48.8995,51.0683 L 49.2513,51.124 L 49.5989,51.2017
 L 49.9409,51.3011 L 50.276,51.4217 L 50.6028,51.5632 L 50.9202,51.7249 L 51.2267,51.9062 L 51.5213,52.1064
 L 51.8027,52.3246 L 52.0699,52.5602 L 52.3217,52.812 L 52.5572,53.0792 L 52.7755,53.3606 L 52.9757,53.6552
 L 53.157,53.9617 L 53.3187,54.279 L 53.4601,54.6059 L 53.5808,54.941 L 53.6801,55.283 L 53.7578,55.6306
 L 53.8136,55.9824 L 53.8471,56.3369 L 53.8583,56.6929 L 53.8471,57.0489 L 53.8136,57.4035 L 53.7578,57.7552
 L 53.6801,58.1028 L 53.5808,58.4448 L 53.4601,58.7799 L 53.3187,59.1068 L 53.157,59.4241 L 52.9757,59.7307
 L 52.7755,60.0252 L 52.5572,60.3067 L 52.3217,60.5738 L 52.0699,60.8257 L 51.8027,61.0612 L 51.5213,61.2795
 L 51.2267,61.4796 L 50.9202,61.6609 L 50.6028,61.8226 L 50.276,61.9641 L 49.9409,62.0847 L 49.5989,62.1841
 L 49.2513,62.2618 L 48.8995,62.3175 L 48.545,62.351 L 48.189,62.3622 z
M 138.667,65.4803 L 138.667,60.9449 L 152.897,60.9449 L 152.897,65.4803 z
M -152.897,65.4803 L -152.897,60.9449 L -138.667,60.9449 L -138.667,65.4803 z
M -29.7921,65.4803 L -29.7921,60.9449 L -15.5622,60.9449 L -15.5622,65.4803 z
M 15.5622,65.4803 L 15.5622,60.9449 L 29.7921,60.9449 L 29.7921,65.4803 z
M -0.711945,107.694 L -1.4211,107.627 L -2.12463,107.516 L -2.81978,107.36 L -3.5038,107.162 L -4.174,106.92
 L -4.82773,106.637 L -5.4624,106.314 L -6.0755,105.951 L -6.66464,105.551 L -7.22748,105.114 L -7.76178,104.643
 L -8.26546,104.14 L -8.73651,103.605 L -9.1731,103.043 L -9.57347,102.453 L -9.93607,101.84 L -10.2594,101.206
 L -10.5423,100.552 L -10.7836,99.8818 L -10.9823,99.1977 L -11.1377,98.5026 L -11.2492,97.799 L -11.3162,97.0899
 L -11.3386,96.3779 L -11.3162,95.666 L -11.2492,94.9568 L -11.1377,94.2533 L -10.9823,93.5582 L -10.7836,92.8741
 L -10.5423,92.2039 L -10.2594,91.5502 L -9.93607,90.9155 L -9.57347,90.3024 L -9.1731,89.7133 L -8.73651,89.1505
 L -8.26546,88.6161 L -7.76178,88.1125 L -7.22748,87.6414 L -6.66464,87.2048 L -6.0755,86.8045 L -5.4624,86.4419
 L -4.82773,86.1185 L -4.174,85.8356 L -3.5038,85.5943 L -2.81978,85.3956 L -2.12463,85.2402 L -1.4211,85.1288
 L -0.711945,85.0617 L 0,85.0394 L 0.711945,85.0617 L 1.4211,85.1288 L 2.12463,85.2402 L 2.81978,85.3956
 L 3.5038,85.5943 L 4.174,85.8356 L 4.82773,86.1185 L 5.4624,86.4419 L 6.0755,86.8045 L 6.66464,87.2048
 L 7.22748,87.6414 L 7.76178,88.1125 L 8.26546,88.6161 L 8.73651,89.1505 L 9.1731,89.7133 L 9.57347,90.3024
 L 9.93607,90.9155 L 10.2594,91.5502 L 10.5423,92.2039 L 10.7836,92.8741 L 10.9823,93.5582 L 11.1377,94.2533
 L 11.2492,94.9568 L 11.3162,95.666 L 11.3386,96.3779 L 11.3162,97.0899 L 11.2492,97.799 L 11.1377,98.5026
 L 10.9823,99.1977 L 10.7836,99.8818 L 10.5423,100.552 L 10.2594,101.206 L 9.93607,101.84 L 9.57347,102.453
 L 9.1731,103.043 L 8.73651,103.605 L 8.26546,104.14 L 7.76178,104.643 L 7.22748,105.114 L 6.66464,105.551
 L 6.0755,105.951 L 5.4624,106.314 L 4.82773,106.637 L 4.174,106.92 L 3.5038,107.162 L 2.81978,107.36
 L 2.12463,107.516 L 1.4211,107.627 L 0.711945,107.694 L 0,107.717 z
M 15.5622,131.811 L 15.5622,127.276 L 29.7921,127.276 L 29.7921,131.811 z
M 138.667,131.811 L 138.667,127.276 L 152.897,127.276 L 152.897,131.811 z
M -152.897,131.811 L -152.897,127.276 L -138.667,127.276 L -138.667,131.811 z
M -29.7921,131.811 L -29.7921,127.276 L -15.5622,127.276 L -15.5622,131.811 z
M -48.545,141.721 L -48.8995,141.688 L -49.2513,141.632 L -49.5989,141.554 L -49.9409,141.455 L -50.276,141.334
 L -50.6028,141.193 L -50.9202,141.031 L -51.2267,140.85 L -51.5213,140.65 L -51.8027,140.431 L -52.0699,140.196
 L -52.3217,139.944 L -52.5572,139.677 L -52.7755,139.395 L -52.9757,139.101 L -53.157,138.794 L -53.3187,138.477
 L -53.4601,138.15 L -53.5808,137.815 L -53.6801,137.473 L -53.7578,137.125 L -53.8136,136.774 L -53.8471,136.419
 L -53.8583,136.063 L -53.8471,135.707 L -53.8136,135.352 L -53.7578,135.001 L -53.6801,134.653 L -53.5808,134.311
 L -53.4601,133.976 L -53.3187,133.649 L -53.157,133.332 L -52.9757,133.025 L -52.7755,132.731 L -52.5572,132.449
 L -52.3217,132.182 L -52.0699,131.93 L -51.8027,131.695 L -51.5213,131.476 L -51.2267,131.276 L -50.9202,131.095
 L -50.6028,130.933 L -50.276,130.792 L -49.9409,130.671 L -49.5989,130.572 L -49.2513,130.494 L -48.8995,130.438
 L -48.545,130.405 L -48.189,130.394 L -47.833,130.405 L -47.4784,130.438 L -47.1266,130.494 L -46.7791,130.572
 L -46.4371,130.671 L -46.102,130.792 L -45.7751,130.933 L -45.4578,131.095 L -45.1512,131.276 L -44.8566,131.476
 L -44.5752,131.695 L -44.3081,131.93 L -44.0562,132.182 L -43.8207,132.449 L -43.6024,132.731 L -43.4022,133.025
 L -43.2209,133.332 L -43.0592,133.649 L -42.9178,133.976 L -42.7971,134.311 L -42.6978,134.653 L -42.6201,135.001
 L -42.5644,135.352 L -42.5309,135.707 L -42.5197,136.063 L -42.5309,136.419 L -42.5644,136.774 L -42.6201,137.125
 L -42.6978,137.473 L -42.7971,137.815 L -42.9178,138.15 L -43.0592,138.477 L -43.2209,138.794 L -43.4022,139.101
 L -43.6024,139.395 L -43.8207,139.677 L -44.0562,139.944 L -44.3081,140.196 L -44.5752,140.431 L -44.8566,140.65
 L -45.1512,140.85 L -45.4578,141.031 L -45.7751,141.193 L -46.102,141.334 L -46.4371,141.455 L -46.7791,141.554
 L -47.1266,141.632 L -47.4784,141.688 L -47.833,141.721 L -48.189,141.732 z
M 47.833,141.721 L 47.4784,141.688 L 47.1266,141.632 L 46.7791,141.554 L 46.4371,141.455 L 46.102,141.334
 L 45.7751,141.193 L 45.4578,141.031 L 45.1512,140.85 L 44.8566,140.65 L 44.5752,140.431 L 44.3081,140.196
 L 44.0562,139.944 L 43.8207,139.677 L 43.6024,139.395 L 43.4022,139.101 L 43.2209,138.794 L 43.0592,138.477
 L 42.9178,138.15 L 42.7971,137.815 L 42.6978,137.473 L 42.6201,137.125 L 42.5644,136.774 L 42.5309,136.419
 L 42.5197,136.063 L 42.5309,135.707 L 42.5644,135.352 L 42.6201,135.001 L 42.6978,134.653 L 42.7971,134.311
 L 42.9178,133.976 L 43.0592,133.649 L 43.2209,133.332 L 43.4022,133.025 L 43.6024,132.731 L 43.8207,132.449
 L 44.0562,132.182 L 44.3081,131.93 L 44.5752,131.695 L 44.8566,131.476 L 45.1512,131.276 L 45.4578,131.095
 L 45.7751,130.933 L 46.102,130.792 L 46.4371,130.671 L 46.7791,130.572 L 47.1266,130.494 L 47.4784,130.438
 L 47.833,130.405 L 48.189,130.394 L 48.545,130.405 L 48.8995,130.438 L 49.2513,130.494 L 49.5989,130.572
 L 49.9409,130.671 L 50.276,130.792 L 50.6028,130.933 L 50.9202,131.095 L 51.2267,131.276 L 51.5213,131.476
 L 51.8027,131.695 L 52.0699,131.93 L 52.3217,132.182 L 52.5572,132.449 L 52.7755,132.731 L 52.9757,133.025
 L 53.157,133.332 L 53.3187,133.649 L 53.4601,133.976 L 53.5808,134.311 L 53.6801,134.653 L 53.7578,135.001
 L 53.8136,135.352 L 53.8471,135.707 L 53.8583,136.063 L 53.8471,136.419 L 53.8136,136.774 L 53.7578,137.125
 L 53.6801,137.473 L 53.5808,137.815 L 53.4601,138.15 L 53.3187,138.477 L 53.157,138.794 L 52.9757,139.101
 L 52.7755,139.395 L 52.5572,139.677 L 52.3217,139.944 L 52.0699,140.196 L 51.8027,140.431 L 51.5213,140.65
 L 51.2267,140.85 L 50.9202,141.031 L 50.6028,141.193 L 50.276,141.334 L 49.9409,141.455 L 49.5989,141.554
 L 49.2513,141.632 L 48.8995,141.688 L 48.545,141.721 L 48.189,141.732 z
" stroke="black" fill="lightgray" stroke-width="0.5"/></svg>
