<?xml version="1.0" standalone="no"?>
<!DOCTYPE svg PUBLIC "-//W3C//DTD SVG 1.1//EN" "http://www.w3.org/Graphics/SVG/1.1/DTD/svg11.dtd">
<svg width="1059" height="526" viewBox="-796 -263 1059 526" xmlns="http://www.w3.org/2000/svg" version="1.1">
<title>OpenSCAD Model</title>
<path d="
M -795.118,193.77 L -795.062,195.55 L -794.895,197.323 L -794.616,199.082 L -794.228,200.82 L -793.731,202.53
 L -793.128,204.205 L -792.42,205.84 L -791.612,207.426 L -790.705,208.959 L -789.704,210.432 L -788.613,211.839
 L -787.435,213.175 L -746.088,254.522 L -744.752,255.7 L -743.345,256.791 L -741.872,257.792 L -740.34,258.698
 L -738.753,259.507 L -737.119,260.214 L -735.443,260.817 L -733.733,261.314 L -731.995,261.703 L -730.236,261.981
 L -728.464,262.149 L -726.684,262.205 L -555.591,262.205 L -555.546,260.781 L -555.412,259.363 L -555.189,257.955
 L -554.878,256.565 L -554.481,255.197 L -553.998,253.857 L -553.432,252.549 L -552.786,251.28 L -552.06,250.054
 L -551.26,248.875 L -550.386,247.75 L -549.444,246.681 L -548.437,245.674 L -547.368,244.732 L -546.243,243.859
 L -545.064,243.058 L -543.838,242.333 L -542.569,241.686 L -541.261,241.12 L -539.921,240.637 L -538.553,240.24
 L -537.163,239.929 L -535.756,239.706 L -534.337,239.572 L -532.913,239.528 L -531.489,239.572 L -530.071,239.706
 L -528.664,239.929 L -527.274,240.24 L -525.906,240.637 L -524.565,241.12 L -523.258,241.686 L -521.989,242.333
 L -520.762,243.058 L -519.584,243.859 L -518.458,244.732 L -517.39,245.674 L -516.382,246.681 L -515.44,247.75
 L -514.567,248.875 L -513.766,250.054 L -513.041,251.28 L -512.394,252.549 L -511.829,253.857 L -511.346,255.197
 L -510.949,256.565 L -510.638,257.955 L -510.415,259.363 L -510.281,260.781 L -510.236,262.205 L -339.143,262.205
 L -337.363,262.149 L -335.59,261.981 L -333.831,261.703 L -332.094,261.314 L -330.384,260.817 L -328.708,260.214
 L -327.074,259.507 L -325.487,258.698 L -323.954,257.792 L -322.481,256.791 L -321.074,255.7 L -319.739,254.522
 L -278.391,213.175 L -277.214,211.839 L -276.122,210.432 L -275.121,208.959 L -274.215,207.426 L -273.406,205.84
 L -272.699,204.205 L -272.096,202.53 L -271.599,200.82 L -271.211,199.082 L -270.932,197.323 L -270.765,195.55
 L -270.709,193.77 L -270.709,22.6772 L -272.133,22.6324 L -273.551,22.4983 L -274.958,22.2755 L -276.348,21.9647
 L -277.716,21.5673 L -279.057,21.0847 L -280.364,20.5189 L -281.633,19.8722 L -282.86,19.147 L -284.038,18.3462
 L -285.164,17.4731 L -286.232,16.5309 L -287.24,15.5236 L -288.182,14.455 L -289.055,13.3293 L -289.856,12.151
 L -290.581,10.9248 L -291.228,9.65547 L -291.793,8.34802 L -292.276,7.00763 L -292.673,5.63958 L -292.984,4.24928
 L -293.207,2.8422 L -293.341,1.42391 L -293.386,-7.81048e-015 L -293.341,-1.42391 L -293.207,-2.8422 L -292.984,-4.24928
 L -292.673,-5.63958 L -292.276,-7.00763 L -291.793,-8.34802 L -291.228,-9.65547 L -290.581,-10.9248 L -289.856,-12.151
 L -289.055,-13.3293 L -288.182,-14.455 L -287.24,-15.5236 L -286.232,-16.5309 L -285.164,-17.4731 L -284.038,-18.3462
 L -282.86,-19.147 L -281.633,-19.8722 L -280.364,-20.5189 L -279.057,-21.0847 L -277.716,-21.5673 L -276.348,-21.9647
 L -274.958,-22.2755 L -273.551,-22.4983 L -272.133,-22.6324 L -270.709,-22.6772 L -270.709,-193.77 L -270.765,-195.55
 L -270.932,-197.323 L -271.211,-199.082 L -271.599,-200.82 L -272.096,-202.53 L -272.699,-204.205 L -273.406,-205.84
 L -274.215,-207.426 L -275.121,-208.959 L -276.122,-210.432 L -277.214,-211.839 L -278.391,-213.175 L -319.739,-254.522
 L -321.074,-255.7 L -322.481,-256.791 L -323.954,-257.792 L -325.487,-258.698 L -327.074,-259.507 L -328.708,-260.214
 L -330.384,-260.817 L -332.094,-261.314 L -333.831,-261.703 L -335.59,-261.981 L -337.363,-262.149 L -339.143,-262.205
 L -510.236,-262.205 L -510.281,-260.781 L -510.415,-259.363 L -510.638,-257.955 L -510.949,-256.565 L -511.346,-255.197
 L -511.829,-253.857 L -512.394,-252.549 L -513.041,-251.28 L -513.766,-250.054 L -514.567,-248.875 L -515.44,-247.75
 L -516.382,-246.681 L -517.39,-245.674 L -518.458,-244.732 L -519.584,-243.859 L -520.762,-243.058 L -521.989,-242.333
 L -523.258,-241.686 L -524.565,-241.12 L -525.906,-240.637 L -527.274,-240.24 L -528.664,-239.929 L -530.071,-239.706
 L -531.489,-239.572 L -532.913,-239.528 L -534.337,-239.572 L -535.756,-239.706 L -537.163,-239.929 L -538.553,-240.24
 L -539.921,-240.637 L -541.261,-241.12 L -542.569,-241.686 L -543.838,-242.333 L -545.064,-243.058 L -546.243,-243.859
 L -547.368,-244.732 L -548.437,-245.674 L -549.444,-246.681 L -550.386,-247.75 L -551.26,-248.875 L -552.06,-250.054
 L -552.786,-251.28 L -553.432,-252.549 L -553.998,-253.857 L -554.481,-255.197 L -554.878,-256.565 L -555.189,-257.955
 L -555.412,-259.363 L -555.546,-260.781 L -555.591,-262.205 L -726.684,-262.205 L -728.464,-262.149 L -730.236,-261.981
 L -731.995,-261.703 L -733.733,-261.314 L -735.443,-260.817 L -737.119,-260.214 L -738.753,-259.507 L -740.34,-258.698
 L -741.872,-257.792 L -743.345,-256.791 L -744.752,-255.7 L -746.088,-254.522 L -787.435,-213.175 L -788.613,-211.839
 L -789.704,-210.432 L -790.705,-208.959 L -791.612,-207.426 L -792.42,-205.84 L -793.128,-204.205 L -793.731,-202.53
 L -794.228,-200.82 L -794.616,-199.082 L -794.895,-197.323 L -795.062,-195.55 L -795.118,-193.77 L -795.118,-22.6772
 L -793.694,-22.6324 L -792.276,-22.4983 L -790.869,-22.2755 L -789.479,-21.9647 L -788.11,-21.5673 L -786.77,-21.0847
 L -785.463,-20.5189 L -784.193,-19.8722 L -782.967,-19.147 L -781.789,-18.3462 L -780.663,-17.4731 L -779.595,-16.5309
 L -778.587,-15.5236 L -777.645,-14.455 L -776.772,-13.3293 L -775.971,-12.151 L -775.246,-10.9248 L -774.599,-9.65547
 L -774.033,-8.34802 L -773.551,-7.00763 L -773.153,-5.63958 L -772.843,-4.24928 L -772.62,-2.8422 L -772.486,-1.42391
 L -772.441,-7.81048e-015 L -772.486,1.42391 L -772.62,2.8422 L -772.843,4.24928 L -773.153,5.63958 L -773.551,7.00763
 L -774.033,8.34802 L -774.599,9.65547 L -775.246,10.9248 L -775.971,12.151 L -776.772,13.3293 L -777.645,14.455
 L -778.587,15.5236 L -779.595,16.5309 L -780.663,17.4731 L -781.789,18.3462 L -782.967,19.147 L -784.193,19.8722
 L -785.463,20.5189 L -786.77,21.0847 L -788.11,21.5673 L -789.479,21.9647 L -790.869,22.2755 L -792.276,22.4983
 L -793.694,22.6324 L -795.118,22.6772 z
M -772.441,141.732 L -772.441,101.237 L -758.268,101.237 L -758.268,141.732 z
M -772.441,60.7424 L -772.441,20.2475 L -758.268,20.2475 L -758.268,60.7424 z
M -772.441,-20.2475 L -772.441,-60.7424 L -758.268,-60.7424 L -758.268,-20.2475 z
M -772.441,-101.237 L -772.441,-141.732 L -758.268,-141.732 L -758.268,-101.237 z
M -768.898,80.9899 L -768.891,80.7674 L -768.87,80.5458 L -768.835,80.3259 L -768.786,80.1087 L -768.724,79.8949
 L -768.649,79.6855 L -768.56,79.4812 L -768.459,79.2829 L -768.346,79.0913 L -768.221,78.9072 L -768.084,78.7313
 L -767.937,78.5643 L -767.78,78.4069 L -767.613,78.2597 L -767.437,78.1233 L -767.253,77.9982 L -767.061,77.8849
 L -766.863,77.7838 L -766.659,77.6954 L -766.449,77.62 L -766.236,77.5579 L -766.018,77.5093 L -765.798,77.4745
 L -765.577,77.4536 L -765.354,77.4466 L -765.132,77.4536 L -764.91,77.4745 L -764.69,77.5093 L -764.473,77.5579
 L -764.259,77.62 L -764.05,77.6954 L -763.846,77.7838 L -763.647,77.8849 L -763.456,77.9982 L -763.272,78.1233
 L -763.096,78.2597 L -762.929,78.4069 L -762.771,78.5643 L -762.624,78.7313 L -762.488,78.9072 L -762.363,79.0913
 L -762.249,79.2829 L -762.148,79.4812 L -762.06,79.6855 L -761.984,79.8949 L -761.922,80.1087 L -761.874,80.3259
 L -761.839,80.5458 L -761.818,80.7674 L -761.811,80.9899 L -761.818,81.2124 L -761.839,81.434 L -761.874,81.6538
 L -761.922,81.8711 L -761.984,82.0848 L -762.06,82.2943 L -762.148,82.4985 L -762.249,82.6969 L -762.363,82.8885
 L -762.488,83.0726 L -762.624,83.2485 L -762.771,83.4154 L -762.929,83.5728 L -763.096,83.72 L -763.272,83.8565
 L -763.456,83.9816 L -763.647,84.0949 L -763.846,84.196 L -764.05,84.2844 L -764.259,84.3598 L -764.473,84.4219
 L -764.69,84.4704 L -764.91,84.5052 L -765.132,84.5262 L -765.354,84.5332 L -765.577,84.5262 L -765.798,84.5052
 L -766.018,84.4704 L -766.236,84.4219 L -766.449,84.3598 L -766.659,84.2844 L -766.863,84.196 L -767.061,84.0949
 L -767.253,83.9816 L -767.437,83.8565 L -767.613,83.72 L -767.78,83.5728 L -767.937,83.4154 L -768.084,83.2485
 L -768.221,83.0726 L -768.346,82.8885 L -768.459,82.6969 L -768.56,82.4985 L -768.649,82.2943 L -768.724,82.0848
 L -768.786,81.8711 L -768.835,81.6538 L -768.87,81.434 L -768.891,81.2124 z
M -768.898,-80.9899 L -768.891,-81.2124 L -768.87,-81.434 L -768.835,-81.6538 L -768.786,-81.8711 L -768.724,-82.0848
 L -768.649,-82.2943 L -768.56,-82.4985 L -768.459,-82.6969 L -768.346,-82.8885 L -768.221,-83.0726 L -768.084,-83.2485
 L -767.937,-83.4154 L -767.78,-83.5728 L -767.613,-83.72 L -767.437,-83.8565 L -767.253,-83.9816 L -767.061,-84.0949
 L -766.863,-84.196 L -766.659,-84.2844 L -766.449,-84.3598 L -766.236,-84.4219 L -766.018,-84.4704 L -765.798,-84.5052
 L -765.577,-84.5262 L -765.354,-84.5332 L -765.132,-84.5262 L -764.91,-84.5052 L -764.69,-84.4704 L -764.473,-84.4219
 L -764.259,-84.3598 L -764.05,-84.2844 L -763.846,-84.196 L -763.647,-84.0949 L -763.456,-83.9816 L -763.272,-83.8565
 L -763.096,-83.72 L -762.929,-83.5728 L -762.771,-83.4154 L -762.624,-83.2485 L -762.488,-83.0726 L -762.363,-82.8885
 L -762.249,-82.6969 L -762.148,-82.4985 L -762.06,-82.2943 L -761.984,-82.0848 L -761.922,-81.8711 L -761.874,-81.6538
 L -761.839,-81.434 L -761.818,-81.2124 L -761.811,-80.9899 L -761.818,-80.7674 L -761.839,-80.5458 L -761.874,-80.3259
 L -761.922,-80.1087 L -761.984,-79.8949 L -762.06,-79.6855 L -762.148,-79.4812 L -762.249,-79.2829 L -762.363,-79.0913
 L -762.488,-78.9072 L -762.624,-78.7313 L -762.771,-78.5643 L -762.929,-78.4069 L -763.096,-78.2597 L -763.272,-78.1233
 L -763.456,-77.9982 L -763.647,-77.8849 L -763.846,-77.7838 L -764.05,-77.6954 L -764.259,-77.62 L -764.473,-77.5579
 L -764.69,-77.5093 L -764.91,-77.4745 L -765.132,-77.4536 L -765.354,-77.4466 L -765.577,-77.4536 L -765.798,-77.4745
 L -766.018,-77.5093 L -766.236,-77.5579 L -766.449,-77.62 L -766.659,-77.6954 L -766.863,-77.7838 L -767.061,-77.8849
 L -767.253,-77.9982 L -767.437,-78.1233 L -767.613,-78.2597 L -767.78,-78.4069 L -767.937,-78.5643 L -768.084,-78.7313
 L -768.221,-78.9072 L -768.346,-79.0913 L -768.459,-79.2829 L -768.56,-79.4812 L -768.649,-79.6855 L -768.724,-79.8949
 L -768.786,-80.1087 L -768.835,-80.3259 L -768.87,-80.5458 L -768.891,-80.7674 z
M -674.646,-225.354 L -674.646,-239.528 L -634.151,-239.528 L -634.151,-225.354 z
M -674.646,239.528 L -674.646,225.354 L -634.151,225.354 L -634.151,239.528 z
M -674.646,113.386 L -674.646,-113.386 L -674.59,-115.166 L -674.422,-116.939 L -674.144,-118.697 L -673.755,-120.435
 L -673.258,-122.145 L -672.655,-123.821 L -671.948,-125.455 L -671.139,-127.042 L -670.233,-128.575 L -669.232,-130.047
 L -668.141,-131.455 L -666.963,-132.79 L -665.704,-134.05 L -664.368,-135.227 L -662.961,-136.319 L -661.488,-137.32
 L -659.955,-138.226 L -658.369,-139.034 L -656.734,-139.742 L -655.059,-140.345 L -653.349,-140.842 L -651.611,-141.23
 L -649.852,-141.509 L -648.079,-141.676 L -646.299,-141.732 L -419.528,-141.732 L -417.748,-141.676 L -415.975,-141.509
 L -414.216,-141.23 L -412.478,-140.842 L -410.768,-140.345 L -409.093,-139.742 L -407.458,-139.034 L -405.872,-138.226
 L -404.339,-137.32 L -402.866,-136.319 L -401.459,-135.227 L -400.123,-134.05 L -398.864,-132.79 L -397.686,-131.455
 L -396.595,-130.047 L -395.594,-128.575 L -394.687,-127.042 L -393.879,-125.455 L -393.172,-123.821 L -392.568,-122.145
 L -392.072,-120.435 L -391.683,-118.697 L -391.405,-116.939 L -391.237,-115.166 L -391.181,-113.386 L -391.181,113.386
 L -391.237,115.166 L -391.405,116.939 L -391.683,118.697 L -392.072,120.435 L -392.568,122.145 L -393.172,123.821
 L -393.879,125.455 L -394.687,127.042 L -395.594,128.575 L -396.595,130.047 L -397.686,131.455 L -398.864,132.79
 L -400.123,134.05 L -401.459,135.227 L -402.866,136.319 L -404.339,137.32 L -405.872,138.226 L -407.458,139.034
 L -409.093,139.742 L -410.768,140.345 L -412.478,140.842 L -414.216,141.23 L -415.975,141.509 L -417.748,141.676
 L -419.528,141.732 L -646.299,141.732 L -648.079,141.676 L -649.852,141.509 L -651.611,141.23 L -653.349,140.842
 L -655.059,140.345 L -656.734,139.742 L -658.369,139.034 L -659.955,138.226 L -661.488,137.32 L -662.961,136.319
 L -664.368,135.227 L -665.704,134.05 L -666.963,132.79 L -668.141,131.455 L -669.232,130.047 L -670.233,128.575
 L -671.139,127.042 L -671.948,125.455 L -672.655,123.821 L -673.258,122.145 L -673.755,120.435 L -674.144,118.697
 L -674.422,116.939 L -674.59,115.166 z
M -617.447,232.441 L -617.44,232.218 L -617.419,231.997 L -617.384,231.777 L -617.335,231.56 L -617.273,231.346
 L -617.198,231.137 L -617.109,230.932 L -617.008,230.734 L -616.895,230.542 L -616.77,230.358 L -616.633,230.182
 L -616.486,230.015 L -616.329,229.858 L -616.162,229.711 L -615.986,229.574 L -615.802,229.449 L -615.61,229.336
 L -615.412,229.235 L -615.208,229.146 L -614.998,229.071 L -614.784,229.009 L -614.567,228.96 L -614.347,228.926
 L -614.126,228.905 L -613.903,228.898 L -613.681,228.905 L -613.459,228.926 L -613.239,228.96 L -613.022,229.009
 L -612.808,229.071 L -612.599,229.146 L -612.395,229.235 L -612.196,229.336 L -612.005,229.449 L -611.821,229.574
 L -611.645,229.711 L -611.478,229.858 L -611.32,230.015 L -611.173,230.182 L -611.037,230.358 L -610.912,230.542
 L -610.798,230.734 L -610.697,230.932 L -610.609,231.137 L -610.533,231.346 L -610.471,231.56 L -610.423,231.777
 L -610.388,231.997 L -610.367,232.218 L -610.36,232.441 L -610.367,232.663 L -610.388,232.885 L -610.423,233.105
 L -610.471,233.322 L -610.533,233.536 L -610.609,233.745 L -610.697,233.95 L -610.798,234.148 L -610.912,234.34
 L -611.037,234.524 L -611.173,234.7 L -611.32,234.867 L -611.478,235.024 L -611.645,235.171 L -611.821,235.308
 L -612.005,235.433 L -612.196,235.546 L -612.395,235.647 L -612.599,235.735 L -612.808,235.811 L -613.022,235.873
 L -613.239,235.921 L -613.459,235.956 L -613.681,235.977 L -613.903,235.984 L -614.126,235.977 L -614.347,235.956
 L -614.567,235.921 L -614.784,235.873 L -614.998,235.811 L -615.208,235.735 L -615.412,235.647 L -615.61,235.546
 L -615.802,235.433 L -615.986,235.308 L -616.162,235.171 L -616.329,235.024 L -616.486,234.867 L -616.633,234.7
 L -616.77,234.524 L -616.895,234.34 L -617.008,234.148 L -617.109,233.95 L -617.198,233.745 L -617.273,233.536
 L -617.335,233.322 L -617.384,233.105 L -617.419,232.885 L -617.44,232.663 z
M -617.447,-232.441 L -617.44,-232.663 L -617.419,-232.885 L -617.384,-233.105 L -617.335,-233.322 L -617.273,-233.536
 L -617.198,-233.745 L -617.109,-233.95 L -617.008,-234.148 L -616.895,-234.34 L -616.77,-234.524 L -616.633,-234.7
 L -616.486,-234.867 L -616.329,-235.024 L -616.162,-235.171 L -615.986,-235.308 L -615.802,-235.433 L -615.61,-235.546
 L -615.412,-235.647 L -615.208,-235.735 L -614.998,-235.811 L -614.784,-235.873 L -614.567,-235.921 L -614.347,-235.956
 L -614.126,-235.977 L -613.903,-235.984 L -613.681,-235.977 L -613.459,-235.956 L -613.239,-235.921 L -613.022,-235.873
 L -612.808,-235.811 L -612.599,-235.735 L -612.395,-235.647 L -612.196,-235.546 L -612.005,-235.433 L -611.821,-235.308
 L -611.645,-235.171 L -611.478,-235.024 L -611.32,-234.867 L -611.173,-234.7 L -611.037,-234.524 L -610.912,-234.34
 L -610.798,-234.148 L -610.697,-233.95 L -610.609,-233.745 L -610.533,-233.536 L -610.471,-233.322 L -610.423,-233.105
 L -610.388,-232.885 L -610.367,-232.663 L -610.36,-232.441 L -610.367,-232.218 L -610.388,-231.997 L -610.423,-231.777
 L -610.471,-231.56 L -610.533,-231.346 L -610.609,-231.137 L -610.697,-230.932 L -610.798,-230.734 L -610.912,-230.542
 L -611.037,-230.358 L -611.173,-230.182 L -611.32,-230.015 L -611.478,-229.858 L -611.645,-229.711 L -611.821,-229.574
 L -612.005,-229.449 L -612.196,-229.336 L -612.395,-229.235 L -612.599,-229.146 L -612.808,-229.071 L -613.022,-229.009
 L -613.239,-228.96 L -613.459,-228.926 L -613.681,-228.905 L -613.903,-228.898 L -614.126,-228.905 L -614.347,-228.926
 L -614.567,-228.96 L -614.784,-229.009 L -614.998,-229.071 L -615.208,-229.146 L -615.412,-229.235 L -615.61,-229.336
 L -615.802,-229.449 L -615.986,-229.574 L -616.162,-229.711 L -616.329,-229.858 L -616.486,-230.015 L -616.633,-230.182
 L -616.77,-230.358 L -616.895,-230.542 L -617.008,-230.734 L -617.109,-230.932 L -617.198,-231.137 L -617.273,-231.346
 L -617.335,-231.56 L -617.384,-231.777 L -617.419,-231.997 L -617.44,-232.218 z
M -593.656,-239.528 L -553.161,-239.528 L -553.161,-225.354 L -593.656,-225.354 z
M -593.656,239.528 L -593.656,225.354 L -553.161,225.354 L -553.161,239.528 z
M -512.666,239.528 L -512.666,225.354 L -472.171,225.354 L -472.171,239.528 z
M -512.666,-225.354 L -512.666,-239.528 L -472.171,-239.528 L -472.171,-225.354 z
M -455.467,232.441 L -455.46,232.218 L -455.439,231.997 L -455.404,231.777 L -455.355,231.56 L -455.293,231.346
 L -455.218,231.137 L -455.13,230.932 L -455.029,230.734 L -454.915,230.542 L -454.79,230.358 L -454.654,230.182
 L -454.506,230.015 L -454.349,229.858 L -454.182,229.711 L -454.006,229.574 L -453.822,229.449 L -453.631,229.336
 L -453.432,229.235 L -453.228,229.146 L -453.018,229.071 L -452.805,229.009 L -452.587,228.96 L -452.368,228.926
 L -452.146,228.905 L -451.924,228.898 L -451.701,228.905 L -451.479,228.926 L -451.26,228.96 L -451.042,229.009
 L -450.829,229.071 L -450.619,229.146 L -450.415,229.235 L -450.217,229.336 L -450.025,229.449 L -449.841,229.574
 L -449.665,229.711 L -449.498,229.858 L -449.341,230.015 L -449.193,230.182 L -449.057,230.358 L -448.932,230.542
 L -448.818,230.734 L -448.717,230.932 L -448.629,231.137 L -448.554,231.346 L -448.492,231.56 L -448.443,231.777
 L -448.408,231.997 L -448.387,232.218 L -448.38,232.441 L -448.387,232.663 L -448.408,232.885 L -448.443,233.105
 L -448.492,233.322 L -448.554,233.536 L -448.629,233.745 L -448.717,233.95 L -448.818,234.148 L -448.932,234.34
 L -449.057,234.524 L -449.193,234.7 L -449.341,234.867 L -449.498,235.024 L -449.665,235.171 L -449.841,235.308
 L -450.025,235.433 L -450.217,235.546 L -450.415,235.647 L -450.619,235.735 L -450.829,235.811 L -451.042,235.873
 L -451.26,235.921 L -451.479,235.956 L -451.701,235.977 L -451.924,235.984 L -452.146,235.977 L -452.368,235.956
 L -452.587,235.921 L -452.805,235.873 L -453.018,235.811 L -453.228,235.735 L -453.432,235.647 L -453.631,235.546
 L -453.822,235.433 L -454.006,235.308 L -454.182,235.171 L -454.349,235.024 L -454.506,234.867 L -454.654,234.7
 L -454.79,234.524 L -454.915,234.34 L -455.029,234.148 L -455.13,233.95 L -455.218,233.745 L -455.293,233.536
 L -455.355,233.322 L -455.404,233.105 L -455.439,232.885 L -455.46,232.663 z
M -455.467,-232.441 L -455.46,-232.663 L -455.439,-232.885 L -455.404,-233.105 L -455.355,-233.322 L -455.293,-233.536
 L -455.218,-233.745 L -455.13,-233.95 L -455.029,-234.148 L -454.915,-234.34 L -454.79,-234.524 L -454.654,-234.7
 L -454.506,-234.867 L -454.349,-235.024 L -454.182,-235.171 L -454.006,-235.308 L -453.822,-235.433 L -453.631,-235.546
 L -453.432,-235.647 L -453.228,-235.735 L -453.018,-235.811 L -452.805,-235.873 L -452.587,-235.921 L -452.368,-235.956
 L -452.146,-235.977 L -451.924,-235.984 L -451.701,-235.977 L -451.479,-235.956 L -451.26,-235.921 L -451.042,-235.873
 L -450.829,-235.811 L -450.619,-235.735 L -450.415,-235.647 L -450.217,-235.546 L -450.025,-235.433 L -449.841,-235.308
 L -449.665,-235.171 L -449.498,-235.024 L -449.341,-234.867 L -449.193,-234.7 L -449.057,-234.524 L -448.932,-234.34
 L -448.818,-234.148 L -448.717,-233.95 L -448.629,-233.745 L -448.554,-233.536 L -448.492,-233.322 L -448.443,-233.105
 L -448.408,-232.885 L -448.387,-232.663 L -448.38,-232.441 L -448.387,-232.218 L -448.408,-231.997 L -448.443,-231.777
 L -448.492,-231.56 L -448.554,-231.346 L -448.629,-231.137 L -448.717,-230.932 L -448.818,-230.734 L -448.932,-230.542
 L -449.057,-230.358 L -449.193,-230.182 L -449.341,-230.015 L -449.498,-229.858 L -449.665,-229.711 L -449.841,-229.574
 L -450.025,-229.449 L -450.217,-229.336 L -450.415,-229.235 L -450.619,-229.146 L -450.829,-229.071 L -451.042,-229.009
 L -451.26,-228.96 L -451.479,-228.926 L -451.701,-228.905 L -451.924,-228.898 L -452.146,-228.905 L -452.368,-228.926
 L -452.587,-228.96 L -452.805,-229.009 L -453.018,-229.071 L -453.228,-229.146 L -453.432,-229.235 L -453.631,-229.336
 L -453.822,-229.449 L -454.006,-229.574 L -454.182,-229.711 L -454.349,-229.858 L -454.506,-230.015 L -454.654,-230.182
 L -454.79,-230.358 L -454.915,-230.542 L -455.029,-230.734 L -455.13,-230.932 L -455.218,-231.137 L -455.293,-231.346
 L -455.355,-231.56 L -455.404,-231.777 L -455.439,-231.997 L -455.46,-232.218 z
M -431.676,-225.354 L -431.676,-239.528 L -391.181,-239.528 L -391.181,-225.354 z
M -431.676,239.528 L -431.676,225.354 L -391.181,225.354 L -391.181,239.528 z
M -307.559,-101.237 L -307.559,-141.732 L -293.386,-141.732 L -293.386,-101.237 z
M -307.559,141.732 L -307.559,101.237 L -293.386,101.237 L -293.386,141.732 z
M -307.559,60.7424 L -307.559,20.2475 L -293.386,20.2475 L -293.386,60.7424 z
M -307.559,-20.2475 L -307.559,-60.7424 L -293.386,-60.7424 L -293.386,-20.2475 z
M -304.016,80.9899 L -304.009,80.7674 L -303.988,80.5458 L -303.953,80.3259 L -303.904,80.1087 L -303.842,79.8949
 L -303.767,79.6855 L -303.679,79.4812 L -303.577,79.2829 L -303.464,79.0913 L -303.339,78.9072 L -303.203,78.7313
 L -303.055,78.5643 L -302.898,78.4069 L -302.731,78.2597 L -302.555,78.1233 L -302.371,77.9982 L -302.179,77.8849
 L -301.981,77.7838 L -301.777,77.6954 L -301.567,77.62 L -301.354,77.5579 L -301.136,77.5093 L -300.917,77.4745
 L -300.695,77.4536 L -300.472,77.4466 L -300.25,77.4536 L -300.028,77.4745 L -299.808,77.5093 L -299.591,77.5579
 L -299.378,77.62 L -299.168,77.6954 L -298.964,77.7838 L -298.765,77.8849 L -298.574,77.9982 L -298.39,78.1233
 L -298.214,78.2597 L -298.047,78.4069 L -297.889,78.5643 L -297.742,78.7313 L -297.606,78.9072 L -297.481,79.0913
 L -297.367,79.2829 L -297.266,79.4812 L -297.178,79.6855 L -297.103,79.8949 L -297.04,80.1087 L -296.992,80.3259
 L -296.957,80.5458 L -296.936,80.7674 L -296.929,80.9899 L -296.936,81.2124 L -296.957,81.434 L -296.992,81.6538
 L -297.04,81.8711 L -297.103,82.0848 L -297.178,82.2943 L -297.266,82.4985 L -297.367,82.6969 L -297.481,82.8885
 L -297.606,83.0726 L -297.742,83.2485 L -297.889,83.4154 L -298.047,83.5728 L -298.214,83.72 L -298.39,83.8565
 L -298.574,83.9816 L -298.765,84.0949 L -298.964,84.196 L -299.168,84.2844 L -299.378,84.3598 L -299.591,84.4219
 L -299.808,84.4704 L -300.028,84.5052 L -300.25,84.5262 L -300.472,84.5332 L -300.695,84.5262 L -300.917,84.5052
 L -301.136,84.4704 L -301.354,84.4219 L -301.567,84.3598 L -301.777,84.2844 L -301.981,84.196 L -302.179,84.0949
 L -302.371,83.9816 L -302.555,83.8565 L -302.731,83.72 L -302.898,83.5728 L -303.055,83.4154 L -303.203,83.2485
 L -303.339,83.0726 L -303.464,82.8885 L -303.577,82.6969 L -303.679,82.4985 L -303.767,82.2943 L -303.842,82.0848
 L -303.904,81.8711 L -303.953,81.6538 L -303.988,81.434 L -304.009,81.2124 z
M -304.016,-80.9899 L -304.009,-81.2124 L -303.988,-81.434 L -303.953,-81.6538 L -303.904,-81.8711 L -303.842,-82.0848
 L -303.767,-82.2943 L -303.679,-82.4985 L -303.577,-82.6969 L -303.464,-82.8885 L -303.339,-83.0726 L -303.203,-83.2485
 L -303.055,-83.4154 L -302.898,-83.5728 L -302.731,-83.72 L -302.555,-83.8565 L -302.371,-83.9816 L -302.179,-84.0949
 L -301.981,-84.196 L -301.777,-84.2844 L -301.567,-84.3598 L -301.354,-84.4219 L -301.136,-84.4704 L -300.917,-84.5052
 L -300.695,-84.5262 L -300.472,-84.5332 L -300.25,-84.5262 L -300.028,-84.5052 L -299.808,-84.4704 L -299.591,-84.4219
 L -299.378,-84.3598 L -299.168,-84.2844 L -298.964,-84.196 L -298.765,-84.0949 L -298.574,-83.9816 L -298.39,-83.8565
 L -298.214,-83.72 L -298.047,-83.5728 L -297.889,-83.4154 L -297.742,-83.2485 L -297.606,-83.0726 L -297.481,-82.8885
 L -297.367,-82.6969 L -297.266,-82.4985 L -297.178,-82.2943 L -297.103,-82.0848 L -297.04,-81.8711 L -296.992,-81.6538
 L -296.957,-81.434 L -296.936,-81.2124 L -296.929,-80.9899 L -296.936,-80.7674 L -296.957,-80.5458 L -296.992,-80.3259
 L -297.04,-80.1087 L -297.103,-79.8949 L -297.178,-79.6855 L -297.266,-79.4812 L -297.367,-79.2829 L -297.481,-79.0913
 L -297.606,-78.9072 L -297.742,-78.7313 L -297.889,-78.5643 L -298.047,-78.4069 L -298.214,-78.2597 L -298.39,-78.1233
 L -298.574,-77.9982 L -298.765,-77.8849 L -298.964,-77.7838 L -299.168,-77.6954 L -299.378,-77.62 L -299.591,-77.5579
 L -299.808,-77.5093 L -300.028,-77.4745 L -300.25,-77.4536 L -300.472,-77.4466 L -300.695,-77.4536 L -300.917,-77.4745
 L -301.136,-77.5093 L -301.354,-77.5579 L -301.567,-77.62 L -301.777,-77.6954 L -301.981,-77.7838 L -302.179,-77.8849
 L -302.371,-77.9982 L -302.555,-78.1233 L -302.731,-78.2597 L -302.898,-78.4069 L -303.055,-78.5643 L -303.203,-78.7313
 L -303.339,-78.9072 L -303.464,-79.0913 L -303.577,-79.2829 L -303.679,-79.4812 L -303.767,-79.6855 L -303.842,-79.8949
 L -303.904,-80.1087 L -303.953,-80.3259 L -303.988,-80.5458 L -304.009,-80.7674 z
M -262.205,193.77 L -262.149,195.55 L -261.981,197.323 L -261.703,199.082 L -261.314,200.82 L -260.817,202.53
 L -260.214,204.205 L -259.507,205.84 L -258.698,207.426 L -257.792,208.959 L -256.791,210.432 L -255.7,211.839
 L -254.522,213.175 L -213.175,254.522 L -211.839,255.7 L -210.432,256.791 L -208.959,257.792 L -207.426,258.698
 L -205.84,259.507 L -204.205,260.214 L -202.53,260.817 L -200.82,261.314 L -199.082,261.703 L -197.323,261.981
 L -195.55,262.149 L -193.77,262.205 L -22.6772,262.205 L -22.6324,260.781 L -22.4983,259.363 L -22.2755,257.955
 L -21.9647,256.565 L -21.5673,255.197 L -21.0847,253.857 L -20.5189,252.549 L -19.8722,251.28 L -19.147,250.054
 L -18.3462,248.875 L -17.4731,247.75 L -16.5309,246.681 L -15.5236,245.674 L -14.455,244.732 L -13.3293,243.859
 L -12.151,243.058 L -10.9248,242.333 L -9.65547,241.686 L -8.34802,241.12 L -7.00763,240.637 L -5.63958,240.24
 L -4.24928,239.929 L -2.8422,239.706 L -1.42391,239.572 L 0,239.528 L 1.42391,239.572 L 2.8422,239.706
 L 4.24928,239.929 L 5.63958,240.24 L 7.00763,240.637 L 8.34802,241.12 L 9.65547,241.686 L 10.9248,242.333
 L 12.151,243.058 L 13.3293,243.859 L 14.455,244.732 L 15.5236,245.674 L 16.5309,246.681 L 17.4731,247.75
 L 18.3462,248.875 L 19.147,250.054 L 19.8722,251.28 L 20.5189,252.549 L 21.0847,253.857 L 21.5673,255.197
 L 21.9647,256.565 L 22.2755,257.955 L 22.4983,259.363 L 22.6324,260.781 L 22.6772,262.205 L 193.77,262.205
 L 195.55,262.149 L 197.323,261.981 L 199.082,261.703 L 200.82,261.314 L 202.53,260.817 L 204.205,260.214
 L 205.84,259.507 L 207.426,258.698 L 208.959,257.792 L 210.432,256.791 L 211.839,255.7 L 213.175,254.522
 L 254.522,213.175 L 255.7,211.839 L 256.791,210.432 L 257.792,208.959 L 258.698,207.426 L 259.507,205.84
 L 260.214,204.205 L 260.817,202.53 L 261.314,200.82 L 261.703,199.082 L 261.981,197.323 L 262.149,195.55
 L 262.205,193.77 L 262.205,22.6772 L 260.781,22.6324 L 259.363,22.4983 L 257.955,22.2755 L 256.565,21.9647
 L 255.197,21.5673 L 253.857,21.0847 L 252.549,20.5189 L 251.28,19.8722 L 250.054,19.147 L 248.875,18.3462
 L 247.75,17.4731 L 246.681,16.5309 L 245.674,15.5236 L 244.732,14.455 L 243.859,13.3293 L 243.058,12.151
 L 242.333,10.9248 L 241.686,9.65547 L 241.12,8.34802 L 240.637,7.00763 L 240.24,5.63958 L 239.929,4.24928
 L 239.706,2.8422 L 239.572,1.42391 L 239.528,-0 L 239.572,-1.42391 L 239.706,-2.8422 L 239.929,-4.24928
 L 240.24,-5.63958 L 240.637,-7.00763 L 241.12,-8.34802 L 241.686,-9.65547 L 242.333,-10.9248 L 243.058,-12.151
 L 243.859,-13.3293 L 244.732,-14.455 L 245.674,-15.5236 L 246.681,-16.5309 L 247.75,-17.4731 L 248.875,-18.3462
 L 250.054,-19.147 L 251.28,-19.8722 L 252.549,-20.5189 L 253.857,-21.0847 L 255.197,-21.5673 L 256.565,-21.9647
 L 257.955,-22.2755 L 259.363,-22.4983 L 260.781,-22.6324 L 262.205,-22.6772 L 262.205,-193.77 L 262.149,-195.55
 L 261.981,-197.323 L 261.703,-199.082 L 261.314,-200.82 L 260.817,-202.53 L 260.214,-204.205 L 259.507,-205.84
 L 258.698,-207.426 L 257.792,-208.959 L 256.791,-210.432 L 255.7,-211.839 L 254.522,-213.175 L 213.175,-254.522
 L 211.839,-255.7 L 210.432,-256.791 L 208.959,-257.792 L 207.426,-258.698 L 205.84,-259.507 L 204.205,-260.214
 L 202.53,-260.817 L 200.82,-261.314 L 199.082,-261.703 L 197.323,-261.981 L 195.55,-262.149 L 193.77,-262.205
 L 22.6772,-262.205 L 22.6324,-260.781 L 22.4983,-259.363 L 22.2755,-257.955 L 21.9647,-256.565 L 21.5673,-255.197
 L 21.0847,-253.857 L 20.5189,-252.549 L 19.8722,-251.28 L 19.147,-250.054 L 18.3462,-248.875 L 17.4731,-247.75
 L 16.5309,-246.681 L 15.5236,-245.674 L 14.455,-244.732 L 13.3293,-243.859 L 12.151,-243.058 L 10.9248,-242.333
 L 9.65547,-241.686 L 8.34802,-241.12 L 7.00763,-240.637 L 5.63958,-240.24 L 4.24928,-239.929 L 2.8422,-239.706
 L 1.42391,-239.572 L 0,-239.528 L -1.42391,-239.572 L -2.8422,-239.706 L -4.24928,-239.929 L -5.63958,-240.24
 L -7.00763,-240.637 L -8.34802,-241.12 L -9.65547,-241.686 L -10.9248,-242.333 L -12.151,-243.058 L -13.3293,-243.859
 L -14.455,-244.732 L -15.5236,-245.674 L -16.5309,-246.681 L -17.4731,-247.75 L -18.3462,-248.875 L -19.147,-250.054
 L -19.8722,-251.28 L -20.5189,-252.549 L -21.0847,-253.857 L -21.5673,-255.197 L -21.9647,-256.565 L -22.2755,-257.955
 L -22.4983,-259.363 L -22.6324,-260.781 L -22.6772,-262.205 L -193.77,-262.205 L -195.55,-262.149 L -197.323,-261.981
 L -199.082,-261.703 L -200.82,-261.314 L -202.53,-260.817 L -204.205,-260.214 L -205.84,-259.507 L -207.426,-258.698
 L -208.959,-257.792 L -210.432,-256.791 L -211.839,-255.7 L -213.175,-254.522 L -254.522,-213.175 L -255.7,-211.839
 L -256.791,-210.432 L -257.792,-208.959 L -258.698,-207.426 L -259.507,-205.84 L -260.214,-204.205 L -260.817,-202.53
 L -261.314,-200.82 L -261.703,-199.082 L -261.981,-197.323 L -262.149,-195.55 L -262.205,-193.77 L -262.205,-22.6772
 L -260.781,-22.6324 L -259.363,-22.4983 L -257.955,-22.2755 L -256.565,-21.9647 L -255.197,-21.5673 L -253.857,-21.0847
 L -252.549,-20.5189 L -251.28,-19.8722 L -250.054,-19.147 L -248.875,-18.3462 L -247.75,-17.4731 L -246.681,-16.5309
 L -245.674,-15.5236 L -244.732,-14.455 L -243.859,-13.3293 L -243.058,-12.151 L -242.333,-10.9248 L -241.686,-9.65547
 L -241.12,-8.34802 L -240.637,-7.00763 L -240.24,-5.63958 L -239.929,-4.24928 L -239.706,-2.8422 L -239.572,-1.42391
 L -239.528,-0 L -239.572,1.42391 L -239.706,2.8422 L -239.929,4.24928 L -240.24,5.63958 L -240.637,7.00763
 L -241.12,8.34802 L -241.686,9.65547 L -242.333,10.9248 L -243.058,12.151 L -243.859,13.3293 L -244.732,14.455
 L -245.674,15.5236 L -246.681,16.5309 L -247.75,17.4731 L -248.875,18.3462 L -250.054,19.147 L -251.28,19.8722
 L -252.549,20.5189 L -253.857,21.0847 L -255.197,21.5673 L -256.565,21.9647 L -257.955,22.2755 L -259.363,22.4983
 L -260.781,22.6324 L -262.205,22.6772 z
M -239.528,141.732 L -239.528,101.237 L -225.354,101.237 L -225.354,141.732 z
M -239.528,60.7424 L -239.528,20.2475 L -225.354,20.2475 L -225.354,60.7424 z
M -239.528,-20.2475 L -239.528,-60.7424 L -225.354,-60.7424 L -225.354,-20.2475 z
M -239.528,-101.237 L -239.528,-141.732 L -225.354,-141.732 L -225.354,-101.237 z
M -235.984,80.9899 L -235.977,80.7674 L -235.956,80.5458 L -235.921,80.3259 L -235.873,80.1087 L -235.811,79.8949
 L -235.735,79.6855 L -235.647,79.4812 L -235.546,79.2829 L -235.433,79.0913 L -235.308,78.9072 L -235.171,78.7313
 L -235.024,78.5643 L -234.867,78.4069 L -234.7,78.2597 L -234.524,78.1233 L -234.34,77.9982 L -234.148,77.8849
 L -233.95,77.7838 L -233.745,77.6954 L -233.536,77.62 L -233.322,77.5579 L -233.105,77.5093 L -232.885,77.4745
 L -232.663,77.4536 L -232.441,77.4466 L -232.218,77.4536 L -231.997,77.4745 L -231.777,77.5093 L -231.56,77.5579
 L -231.346,77.62 L -231.137,77.6954 L -230.932,77.7838 L -230.734,77.8849 L -230.542,77.9982 L -230.358,78.1233
 L -230.182,78.2597 L -230.015,78.4069 L -229.858,78.5643 L -229.711,78.7313 L -229.574,78.9072 L -229.449,79.0913
 L -229.336,79.2829 L -229.235,79.4812 L -229.146,79.6855 L -229.071,79.8949 L -229.009,80.1087 L -228.96,80.3259
 L -228.926,80.5458 L -228.905,80.7674 L -228.898,80.9899 L -228.905,81.2124 L -228.926,81.434 L -228.96,81.6538
 L -229.009,81.8711 L -229.071,82.0848 L -229.146,82.2943 L -229.235,82.4985 L -229.336,82.6969 L -229.449,82.8885
 L -229.574,83.0726 L -229.711,83.2485 L -229.858,83.4154 L -230.015,83.5728 L -230.182,83.72 L -230.358,83.8565
 L -230.542,83.9816 L -230.734,84.0949 L -230.932,84.196 L -231.137,84.2844 L -231.346,84.3598 L -231.56,84.4219
 L -231.777,84.4704 L -231.997,84.5052 L -232.218,84.5262 L -232.441,84.5332 L -232.663,84.5262 L -232.885,84.5052
 L -233.105,84.4704 L -233.322,84.4219 L -233.536,84.3598 L -233.745,84.2844 L -233.95,84.196 L -234.148,84.0949
 L -234.34,83.9816 L -234.524,83.8565 L -234.7,83.72 L -234.867,83.5728 L -235.024,83.4154 L -235.171,83.2485
 L -235.308,83.0726 L -235.433,82.8885 L -235.546,82.6969 L -235.647,82.4985 L -235.735,82.2943 L -235.811,82.0848
 L -235.873,81.8711 L -235.921,81.6538 L -235.956,81.434 L -235.977,81.2124 z
M -235.984,-80.9899 L -235.977,-81.2124 L -235.956,-81.434 L -235.921,-81.6538 L -235.873,-81.8711 L -235.811,-82.0848
 L -235.735,-82.2943 L -235.647,-82.4985 L -235.546,-82.6969 L -235.433,-82.8885 L -235.308,-83.0726 L -235.171,-83.2485
 L -235.024,-83.4154 L -234.867,-83.5728 L -234.7,-83.72 L -234.524,-83.8565 L -234.34,-83.9816 L -234.148,-84.0949
 L -233.95,-84.196 L -233.745,-84.2844 L -233.536,-84.3598 L -233.322,-84.4219 L -233.105,-84.4704 L -232.885,-84.5052
 L -232.663,-84.5262 L -232.441,-84.5332 L -232.218,-84.5262 L -231.997,-84.5052 L -231.777,-84.4704 L -231.56,-84.4219
 L -231.346,-84.3598 L -231.137,-84.2844 L -230.932,-84.196 L -230.734,-84.0949 L -230.542,-83.9816 L -230.358,-83.8565
 L -230.182,-83.72 L -230.015,-83.5728 L -229.858,-83.4154 L -229.711,-83.2485 L -229.574,-83.0726 L -229.449,-82.8885
 L -229.336,-82.6969 L -229.235,-82.4985 L -229.146,-82.2943 L -229.071,-82.0848 L -229.009,-81.8711 L -228.96,-81.6538
 L -228.926,-81.434 L -228.905,-81.2124 L -228.898,-80.9899 L -228.905,-80.7674 L -228.926,-80.5458 L -228.96,-80.3259
 L -229.009,-80.1087 L -229.071,-79.8949 L -229.146,-79.6855 L -229.235,-79.4812 L -229.336,-79.2829 L -229.449,-79.0913
 L -229.574,-78.9072 L -229.711,-78.7313 L -229.858,-78.5643 L -230.015,-78.4069 L -230.182,-78.2597 L -230.358,-78.1233
 L -230.542,-77.9982 L -230.734,-77.8849 L -230.932,-77.7838 L -231.137,-77.6954 L -231.346,-77.62 L -231.56,-77.5579
 L -231.777,-77.5093 L -231.997,-77.4745 L -232.218,-77.4536 L -232.441,-77.4466 L -232.663,-77.4536 L -232.885,-77.4745
 L -233.105,-77.5093 L -233.322,-77.5579 L -233.536,-77.62 L -233.745,-77.6954 L -233.95,-77.7838 L -234.148,-77.8849
 L -234.34,-77.9982 L -234.524,-78.1233 L -234.7,-78.2597 L -234.867,-78.4069 L -235.024,-78.5643 L -235.171,-78.7313
 L -235.308,-78.9072 L -235.433,-79.0913 L -235.546,-79.2829 L -235.647,-79.4812 L -235.735,-79.6855 L -235.811,-79.8949
 L -235.873,-80.1087 L -235.921,-80.3259 L -235.956,-80.5458 L -235.977,-80.7674 z
M -141.732,239.528 L -141.732,225.354 L -101.237,225.354 L -101.237,239.528 z
M -141.732,-225.354 L -141.732,-239.528 L -101.237,-239.528 L -101.237,-225.354 z
M -84.5332,232.441 L -84.5262,232.218 L -84.5052,231.997 L -84.4704,231.777 L -84.4219,231.56 L -84.3598,231.346
 L -84.2844,231.137 L -84.196,230.932 L -84.0949,230.734 L -83.9816,230.542 L -83.8565,230.358 L -83.72,230.182
 L -83.5728,230.015 L -83.4154,229.858 L -83.2485,229.711 L -83.0726,229.574 L -82.8885,229.449 L -82.6969,229.336
 L -82.4985,229.235 L -82.2943,229.146 L -82.0848,229.071 L -81.8711,229.009 L -81.6538,228.96 L -81.434,228.926
 L -81.2124,228.905 L -80.9899,228.898 L -80.7674,228.905 L -80.5458,228.926 L -80.3259,228.96 L -80.1087,229.009
 L -79.8949,229.071 L -79.6855,229.146 L -79.4812,229.235 L -79.2829,229.336 L -79.0913,229.449 L -78.9072,229.574
 L -78.7313,229.711 L -78.5643,229.858 L -78.4069,230.015 L -78.2597,230.182 L -78.1233,230.358 L -77.9982,230.542
 L -77.8849,230.734 L -77.7838,230.932 L -77.6954,231.137 L -77.62,231.346 L -77.5579,231.56 L -77.5093,231.777
 L -77.4745,231.997 L -77.4536,232.218 L -77.4466,232.441 L -77.4536,232.663 L -77.4745,232.885 L -77.5093,233.105
 L -77.5579,233.322 L -77.62,233.536 L -77.6954,233.745 L -77.7838,233.95 L -77.8849,234.148 L -77.9982,234.34
 L -78.1233,234.524 L -78.2597,234.7 L -78.4069,234.867 L -78.5643,235.024 L -78.7313,235.171 L -78.9072,235.308
 L -79.0913,235.433 L -79.2829,235.546 L -79.4812,235.647 L -79.6855,235.735 L -79.8949,235.811 L -80.1087,235.873
 L -80.3259,235.921 L -80.5458,235.956 L -80.7674,235.977 L -80.9899,235.984 L -81.2124,235.977 L -81.434,235.956
 L -81.6538,235.921 L -81.8711,235.873 L -82.0848,235.811 L -82.2943,235.735 L -82.4985,235.647 L -82.6969,235.546
 L -82.8885,235.433 L -83.0726,235.308 L -83.2485,235.171 L -83.4154,235.024 L -83.5728,234.867 L -83.72,234.7
 L -83.8565,234.524 L -83.9816,234.34 L -84.0949,234.148 L -84.196,233.95 L -84.2844,233.745 L -84.3598,233.536
 L -84.4219,233.322 L -84.4704,233.105 L -84.5052,232.885 L -84.5262,232.663 z
M -84.5332,-232.441 L -84.5262,-232.663 L -84.5052,-232.885 L -84.4704,-233.105 L -84.4219,-233.322 L -84.3598,-233.536
 L -84.2844,-233.745 L -84.196,-233.95 L -84.0949,-234.148 L -83.9816,-234.34 L -83.8565,-234.524 L -83.72,-234.7
 L -83.5728,-234.867 L -83.4154,-235.024 L -83.2485,-235.171 L -83.0726,-235.308 L -82.8885,-235.433 L -82.6969,-235.546
 L -82.4985,-235.647 L -82.2943,-235.735 L -82.0848,-235.811 L -81.8711,-235.873 L -81.6538,-235.921 L -81.434,-235.956
 L -81.2124,-235.977 L -80.9899,-235.984 L -80.7674,-235.977 L -80.5458,-235.956 L -80.3259,-235.921 L -80.1087,-235.873
 L -79.8949,-235.811 L -79.6855,-235.735 L -79.4812,-235.647 L -79.2829,-235.546 L -79.0913,-235.433 L -78.9072,-235.308
 L -78.7313,-235.171 L -78.5643,-235.024 L -78.4069,-234.867 L -78.2597,-234.7 L -78.1233,-234.524 L -77.9982,-234.34
 L -77.8849,-234.148 L -77.7838,-233.95 L -77.6954,-233.745 L -77.62,-233.536 L -77.5579,-233.322 L -77.5093,-233.105
 L -77.4745,-232.885 L -77.4536,-232.663 L -77.4466,-232.441 L -77.4536,-232.218 L -77.4745,-231.997 L -77.5093,-231.777
 L -77.5579,-231.56 L -77.62,-231.346 L -77.6954,-231.137 L -77.7838,-230.932 L -77.8849,-230.734 L -77.9982,-230.542
 L -78.1233,-230.358 L -78.2597,-230.182 L -78.4069,-230.015 L -78.5643,-229.858 L -78.7313,-229.711 L -78.9072,-229.574
 L -79.0913,-229.449 L -79.2829,-229.336 L -79.4812,-229.235 L -79.6855,-229.146 L -79.8949,-229.071 L -80.1087,-229.009
 L -80.3259,-228.96 L -80.5458,-228.926 L -80.7674,-228.905 L -80.9899,-228.898 L -81.2124,-228.905 L -81.434,-228.926
 L -81.6538,-228.96 L -81.8711,-229.009 L -82.0848,-229.071 L -82.2943,-229.146 L -82.4985,-229.235 L -82.6969,-229.336
 L -82.8885,-229.449 L -83.0726,-229.574 L -83.2485,-229.711 L -83.4154,-229.858 L -83.5728,-230.015 L -83.72,-230.182
 L -83.8565,-230.358 L -83.9816,-230.542 L -84.0949,-230.734 L -84.196,-230.932 L -84.2844,-231.137 L -84.3598,-231.346
 L -84.4219,-231.56 L -84.4704,-231.777 L -84.5052,-231.997 L -84.5262,-232.218 z
M -60.7424,239.528 L -60.7424,225.354 L -20.2475,225.354 L -20.2475,239.528 z
M -60.7424,-225.354 L -60.7424,-239.528 L -20.2475,-239.528 L -20.2475,-225.354 z
M 20.2475,239.528 L 20.2475,225.354 L 60.7424,225.354 L 60.7424,239.528 z
M 20.2475,-225.354 L 20.2475,-239.528 L 60.7424,-239.528 L 60.7424,-225.354 z
M 77.4466,232.441 L 77.4536,232.218 L 77.4745,231.997 L 77.5093,231.777 L 77.5579,231.56 L 77.62,231.346
 L 77.6954,231.137 L 77.7838,230.932 L 77.8849,230.734 L 77.9982,230.542 L 78.1233,230.358 L 78.2597,230.182
 L 78.4069,230.015 L 78.5643,229.858 L 78.7313,229.711 L 78.9072,229.574 L 79.0913,229.449 L 79.2829,229.336
 L 79.4812,229.235 L 79.6855,229.146 L 79.8949,229.071 L 80.1087,229.009 L 80.3259,228.96 L 80.5458,228.926
 L 80.7674,228.905 L 80.9899,228.898 L 81.2124,228.905 L 81.434,228.926 L 81.6538,228.96 L 81.8711,229.009
 L 82.0848,229.071 L 82.2943,229.146 L 82.4985,229.235 L 82.6969,229.336 L 82.8885,229.449 L 83.0726,229.574
 L 83.2485,229.711 L 83.4154,229.858 L 83.5728,230.015 L 83.72,230.182 L 83.8565,230.358 L 83.9816,230.542
 L 84.0949,230.734 L 84.196,230.932 L 84.2844,231.137 L 84.3598,231.346 L 84.4219,231.56 L 84.4704,231.777
 L 84.5052,231.997 L 84.5262,232.218 L 84.5332,232.441 L 84.5262,232.663 L 84.5052,232.885 L 84.4704,233.105
 L 84.4219,233.322 L 84.3598,233.536 L 84.2844,233.745 L 84.196,233.95 L 84.0949,234.148 L 83.9816,234.34
 L 83.8565,234.524 L 83.72,234.7 L 83.5728,234.867 L 83.4154,235.024 L 83.2485,235.171 L 83.0726,235.308
 L 82.8885,235.433 L 82.6969,235.546 L 82.4985,235.647 L 82.2943,235.735 L 82.0848,235.811 L 81.8711,235.873
 L 81.6538,235.921 L 81.434,235.956 L 81.2124,235.977 L 80.9899,235.984 L 80.7674,235.977 L 80.5458,235.956
 L 80.3259,235.921 L 80.1087,235.873 L 79.8949,235.811 L 79.6855,235.735 L 79.4812,235.647 L 79.2829,235.546
 L 79.0913,235.433 L 78.9072,235.308 L 78.7313,235.171 L 78.5643,235.024 L 78.4069,234.867 L 78.2597,234.7
 L 78.1233,234.524 L 77.9982,234.34 L 77.8849,234.148 L 77.7838,233.95 L 77.6954,233.745 L 77.62,233.536
 L 77.5579,233.322 L 77.5093,233.105 L 77.4745,232.885 L 77.4536,232.663 z
M 77.4466,-232.441 L 77.4536,-232.663 L 77.4745,-232.885 L 77.5093,-233.105 L 77.5579,-233.322 L 77.62,-233.536
 L 77.6954,-233.745 L 77.7838,-233.95 L 77.8849,-234.148 L 77.9982,-234.34 L 78.1233,-234.524 L 78.2597,-234.7
 L 78.4069,-234.867 L 78.5643,-235.024 L 78.7313,-235.171 L 78.9072,-235.308 L 79.0913,-235.433 L 79.2829,-235.546
 L 79.4812,-235.647 L 79.6855,-235.735 L 79.8949,-235.811 L 80.1087,-235.873 L 80.3259,-235.921 L 80.5458,-235.956
 L 80.7674,-235.977 L 80.9899,-235.984 L 81.2124,-235.977 L 81.434,-235.956 L 81.6538,-235.921 L 81.8711,-235.873
 L 82.0848,-235.811 L 82.2943,-235.735 L 82.4985,-235.647 L 82.6969,-235.546 L 82.8885,-235.433 L 83.0726,-235.308
 L 83.2485,-235.171 L 83.4154,-235.024 L 83.5728,-234.867 L 83.72,-234.7 L 83.8565,-234.524 L 83.9816,-234.34
 L 84.0949,-234.148 L 84.196,-233.95 L 84.2844,-233.745 L 84.3598,-233.536 L 84.4219,-233.322 L 84.4704,-233.105
 L 84.5052,-232.885 L 84.5262,-232.663 L 84.5332,-232.441 L 84.5262,-232.218 L 84.5052,-231.997 L 84.4704,-231.777
 L 84.4219,-231.56 L 84.3598,-231.346 L 84.2844,-231.137 L 84.196,-230.932 L 84.0949,-230.734 L 83.9816,-230.542
 L 83.8565,-230.358 L 83.72,-230.182 L 83.5728,-230.015 L 83.4154,-229.858 L 83.2485,-229.711 L 83.0726,-229.574
 L 82.8885,-229.449 L 82.6969,-229.336 L 82.4985,-229.235 L 82.2943,-229.146 L 82.0848,-229.071 L 81.8711,-229.009
 L 81.6538,-228.96 L 81.434,-228.926 L 81.2124,-228.905 L 80.9899,-228.898 L 80.7674,-228.905 L 80.5458,-228.926
 L 80.3259,-228.96 L 80.1087,-229.009 L 79.8949,-229.071 L 79.6855,-229.146 L 79.4812,-229.235 L 79.2829,-229.336
 L 79.0913,-229.449 L 78.9072,-229.574 L 78.7313,-229.711 L 78.5643,-229.858 L 78.4069,-230.015 L 78.2597,-230.182
 L 78.1233,-230.358 L 77.9982,-230.542 L 77.8849,-230.734 L 77.7838,-230.932 L 77.6954,-231.137 L 77.62,-231.346
 L 77.5579,-231.56 L 77.5093,-231.777 L 77.4745,-231.997 L 77.4536,-232.218 z
M 101.237,239.528 L 101.237,225.354 L 141.732,225.354 L 141.732,239.528 z
M 101.237,-225.354 L 101.237,-239.528 L 141.732,-239.528 L 141.732,-225.354 z
M 225.354,141.732 L 225.354,101.237 L 239.528,101.237 L 239.528,141.732 z
M 225.354,60.7424 L 225.354,20.2475 L 239.528,20.2475 L 239.528,60.7424 z
M 225.354,-20.2475 L 225.354,-60.7424 L 239.528,-60.7424 L 239.528,-20.2475 z
M 225.354,-101.237 L 225.354,-141.732 L 239.528,-141.732 L 239.528,-101.237 z
M 228.898,80.9899 L 228.905,80.7674 L 228.926,80.5458 L 228.96,80.3259 L 229.009,80.1087 L 229.071,79.8949
 L 229.146,79.6855 L 229.235,79.4812 L 229.336,79.2829 L 229.449,79.0913 L 229.574,78.9072 L 229.711,78.7313
 L 229.858,78.5643 L 230.015,78.4069 L 230.182,78.2597 L 230.358,78.1233 L 230.542,77.9982 L 230.734,77.8849
 L 230.932,77.7838 L 231.137,77.6954 L 231.346,77.62 L 231.56,77.5579 L 231.777,77.5093 L 231.997,77.4745
 L 232.218,77.4536 L 232.441,77.4466 L 232.663,77.4536 L 232.885,77.4745 L 233.105,77.5093 L 233.322,77.5579
 L 233.536,77.62 L 233.745,77.6954 L 233.95,77.7838 L 234.148,77.8849 L 234.34,77.9982 L 234.524,78.1233
 L 234.7,78.2597 L 234.867,78.4069 L 235.024,78.5643 L 235.171,78.7313 L 235.308,78.9072 L 235.433,79.0913
 L 235.546,79.2829 L 235.647,79.4812 L 235.735,79.6855 L 235.811,79.8949 L 235.873,80.1087 L 235.921,80.3259
 L 235.956,80.5458 L 235.977,80.7674 L 235.984,80.9899 L 235.977,81.2124 L 235.956,81.434 L 235.921,81.6538
 L 235.873,81.8711 L 235.811,82.0848 L 235.735,82.2943 L 235.647,82.4985 L 235.546,82.6969 L 235.433,82.8885
 L 235.308,83.0726 L 235.171,83.2485 L 235.024,83.4154 L 234.867,83.5728 L 234.7,83.72 L 234.524,83.8565
 L 234.34,83.9816 L 234.148,84.0949 L 233.95,84.196 L 233.745,84.2844 L 233.536,84.3598 L 233.322,84.4219
 L 233.105,84.4704 L 232.885,84.5052 L 232.663,84.5262 L 232.441,84.5332 L 232.218,84.5262 L 231.997,84.5052
 L 231.777,84.4704 L 231.56,84.4219 L 231.346,84.3598 L 231.137,84.2844 L 230.932,84.196 L 230.734,84.0949
 L 230.542,83.9816 L 230.358,83.8565 L 230.182,83.72 L 230.015,83.5728 L 229.858,83.4154 L 229.711,83.2485
 L 229.574,83.0726 L 229.449,82.8885 L 229.336,82.6969 L 229.235,82.4985 L 229.146,82.2943 L 229.071,82.0848
 L 229.009,81.8711 L 228.96,81.6538 L 228.926,81.434 L 228.905,81.2124 z
M 228.898,-80.9899 L 228.905,-81.2124 L 228.926,-81.434 L 228.96,-81.6538 L 229.009,-81.8711 L 229.071,-82.0848
 L 229.146,-82.2943 L 229.235,-82.4985 L 229.336,-82.6969 L 229.449,-82.8885 L 229.574,-83.0726 L 229.711,-83.2485
 L 229.858,-83.4154 L 230.015,-83.5728 L 230.182,-83.72 L 230.358,-83.8565 L 230.542,-83.9816 L 230.734,-84.0949
 L 230.932,-84.196 L 231.137,-84.2844 L 231.346,-84.3598 L 231.56,-84.4219 L 231.777,-84.4704 L 231.997,-84.5052
 L 232.218,-84.5262 L 232.441,-84.5332 L 232.663,-84.5262 L 232.885,-84.5052 L 233.105,-84.4704 L 233.322,-84.4219
 L 233.536,-84.3598 L 233.745,-84.2844 L 233.95,-84.196 L 234.148,-84.0949 L 234.34,-83.9816 L 234.524,-83.8565
 L 234.7,-83.72 L 234.867,-83.5728 L 235.024,-83.4154 L 235.171,-83.2485 L 235.308,-83.0726 L 235.433,-82.8885
 L 235.546,-82.6969 L 235.647,-82.4985 L 235.735,-82.2943 L 235.811,-82.0848 L 235.873,-81.8711 L 235.921,-81.6538
 L 235.956,-81.434 L 235.977,-81.2124 L 235.984,-80.9899 L 235.977,-80.7674 L 235.956,-80.5458 L 235.921,-80.3259
 L 235.873,-80.1087 L 235.811,-79.8949 L 235.735,-79.6855 L 235.647,-79.4812 L 235.546,-79.2829 L 235.433,-79.0913
 L 235.308,-78.9072 L 235.171,-78.7313 L 235.024,-78.5643 L 234.867,-78.4069 L 234.7,-78.2597 L 234.524,-78.1233
 L 234.34,-77.9982 L 234.148,-77.8849 L 233.95,-77.7838 L 233.745,-77.6954 L 233.536,-77.62 L 233.322,-77.5579
 L 233.105,-77.5093 L 232.885,-77.4745 L 232.663,-77.4536 L 232.441,-77.4466 L 232.218,-77.4536 L 231.997,-77.4745
 L 231.777,-77.5093 L 231.56,-77.5579 L 231.346,-77.62 L 231.137,-77.6954 L 230.932,-77.7838 L 230.734,-77.8849
 L 230.542,-77.9982 L 230.358,-78.1233 L 230.182,-78.2597 L 230.015,-78.4069 L 229.858,-78.5643 L 229.711,-78.7313
 L 229.574,-78.9072 L 229.449,-79.0913 L 229.336,-79.2829 L 229.235,-79.4812 L 229.146,-79.6855 L 229.071,-79.8949
 L 229.009,-80.1087 L 228.96,-80.3259 L 228.926,-80.5458 L 228.905,-80.7674 z
" stroke="black" fill="lightgray" stroke-width="0.5"/></svg>
