<?xml version="1.0" standalone="no"?>
<!DOCTYPE svg PUBLIC "-//W3C//DTD SVG 1.1//EN" "http://www.w3.org/Graphics/SVG/1.1/DTD/svg11.dtd">
<svg width="284" height="594" viewBox="-142 -263 284 594" xmlns="http://www.w3.org/2000/svg" version="1.1">
<title>OpenSCAD Model</title>
<path d="
M -101.237,-134.646 L -60.7424,-134.646 L -60.7424,-120.472 L -20.2475,-120.472 L -20.2475,-134.646 L 20.2475,-134.646
 L 20.2475,-120.472 L 60.7424,-120.472 L 60.7424,-134.646 L 101.237,-134.646 L 101.237,-120.472 L 141.732,-120.472
 L 141.732,-262.205 L 101.237,-262.205 L 101.237,-248.031 L 60.7424,-248.031 L 60.7424,-262.205 L 20.2475,-262.205
 L 20.2475,-248.031 L -20.2475,-248.031 L -20.2475,-262.205 L -60.7424,-262.205 L -60.7424,-248.031 L -101.237,-248.031
 L -101.237,-262.205 L -141.732,-262.205 L -141.732,-120.472 L -101.237,-120.472 z
M 47.833,-225.366 L 47.4784,-225.399 L 47.1266,-225.455 L 46.7791,-225.532 L 46.4371,-225.632 L 46.102,-225.752
 L 45.7751,-225.894 L 45.4578,-226.056 L 45.1512,-226.237 L 44.8566,-226.437 L 44.5752,-226.655 L 44.3081,-226.891
 L 44.0562,-227.143 L 43.8207,-227.41 L 43.6024,-227.691 L 43.4022,-227.986 L 43.2209,-228.292 L 43.0592,-228.61
 L 42.9178,-228.937 L 42.7971,-229.272 L 42.6978,-229.614 L 42.6201,-229.961 L 42.5644,-230.313 L 42.5309,-230.668
 L 42.5197,-231.024 L 42.5309,-231.38 L 42.5644,-231.734 L 42.6201,-232.086 L 42.6978,-232.434 L 42.7971,-232.776
 L 42.9178,-233.111 L 43.0592,-233.437 L 43.2209,-233.755 L 43.4022,-234.061 L 43.6024,-234.356 L 43.8207,-234.637
 L 44.0562,-234.905 L 44.3081,-235.156 L 44.5752,-235.392 L 44.8566,-235.61 L 45.1512,-235.81 L 45.4578,-235.992
 L 45.7751,-236.153 L 46.102,-236.295 L 46.4371,-236.415 L 46.7791,-236.515 L 47.1266,-236.592 L 47.4784,-236.648
 L 47.833,-236.682 L 48.189,-236.693 L 48.545,-236.682 L 48.8995,-236.648 L 49.2513,-236.592 L 49.5989,-236.515
 L 49.9409,-236.415 L 50.276,-236.295 L 50.6028,-236.153 L 50.9202,-235.992 L 51.2267,-235.81 L 51.5213,-235.61
 L 51.8027,-235.392 L 52.0699,-235.156 L 52.3217,-234.905 L 52.5572,-234.637 L 52.7755,-234.356 L 52.9757,-234.061
 L 53.157,-233.755 L 53.3187,-233.437 L 53.4601,-233.111 L 53.5808,-232.776 L 53.6801,-232.434 L 53.7578,-232.086
 L 53.8136,-231.734 L 53.8471,-231.38 L 53.8583,-231.024 L 53.8471,-230.668 L 53.8136,-230.313 L 53.7578,-229.961
 L 53.6801,-229.614 L 53.5808,-229.272 L 53.4601,-228.937 L 53.3187,-228.61 L 53.157,-228.292 L 52.9757,-227.986
 L 52.7755,-227.691 L 52.5572,-227.41 L 52.3217,-227.143 L 52.0699,-226.891 L 51.8027,-226.655 L 51.5213,-226.437
 L 51.2267,-226.237 L 50.9202,-226.056 L 50.6028,-225.894 L 50.276,-225.752 L 49.9409,-225.632 L 49.5989,-225.532
 L 49.2513,-225.455 L 48.8995,-225.399 L 48.545,-225.366 L 48.189,-225.354 z
M -48.545,-225.366 L -48.8995,-225.399 L -49.2513,-225.455 L -49.5989,-225.532 L -49.9409,-225.632 L -50.276,-225.752
 L -50.6028,-225.894 L -50.9202,-226.056 L -51.2267,-226.237 L -51.5213,-226.437 L -51.8027,-226.655 L -52.0699,-226.891
 L -52.3217,-227.143 L -52.5572,-227.41 L -52.7755,-227.691 L -52.9757,-227.986 L -53.157,-228.292 L -53.3187,-228.61
 L -53.4601,-228.937 L -53.5808,-229.272 L -53.6801,-229.614 L -53.7578,-229.961 L -53.8136,-230.313 L -53.8471,-230.668
 L -53.8583,-231.024 L -53.8471,-231.38 L -53.8136,-231.734 L -53.7578,-232.086 L -53.6801,-232.434 L -53.5808,-232.776
 L -53.4601,-233.111 L -53.3187,-233.437 L -53.157,-233.755 L -52.9757,-234.061 L -52.7755,-234.356 L -52.5572,-234.637
 L -52.3217,-234.905 L -52.0699,-235.156 L -51.8027,-235.392 L -51.5213,-235.61 L -51.2267,-235.81 L -50.9202,-235.992
 L -50.6028,-236.153 L -50.276,-236.295 L -49.9409,-236.415 L -49.5989,-236.515 L -49.2513,-236.592 L -48.8995,-236.648
 L -48.545,-236.682 L -48.189,-236.693 L -47.833,-236.682 L -47.4784,-236.648 L -47.1266,-236.592 L -46.7791,-236.515
 L -46.4371,-236.415 L -46.102,-236.295 L -45.7751,-236.153 L -45.4578,-235.992 L -45.1512,-235.81 L -44.8566,-235.61
 L -44.5752,-235.392 L -44.3081,-235.156 L -44.0562,-234.905 L -43.8207,-234.637 L -43.6024,-234.356 L -43.4022,-234.061
 L -43.2209,-233.755 L -43.0592,-233.437 L -42.9178,-233.111 L -42.7971,-232.776 L -42.6978,-232.434 L -42.6201,-232.086
 L -42.5644,-231.734 L -42.5309,-231.38 L -42.5197,-231.024 L -42.5309,-230.668 L -42.5644,-230.313 L -42.6201,-229.961
 L -42.6978,-229.614 L -42.7971,-229.272 L -42.9178,-228.937 L -43.0592,-228.61 L -43.2209,-228.292 L -43.4022,-227.986
 L -43.6024,-227.691 L -43.8207,-227.41 L -44.0562,-227.143 L -44.3081,-226.891 L -44.5752,-226.655 L -44.8566,-226.437
 L -45.1512,-226.237 L -45.4578,-226.056 L -45.7751,-225.894 L -46.102,-225.752 L -46.4371,-225.632 L -46.7791,-225.532
 L -47.1266,-225.455 L -47.4784,-225.399 L -47.833,-225.366 L -48.189,-225.354 z
M 73.8749,-220.819 L 73.8749,-225.354 L 88.1048,-225.354 L 88.1048,-220.819 z
M -88.1048,-220.819 L -88.1048,-225.354 L -73.8749,-225.354 L -73.8749,-220.819 z
M -0.711945,-180.022 L -1.4211,-180.089 L -2.12463,-180.201 L -2.81978,-180.356 L -3.5038,-180.555 L -4.174,-180.796
 L -4.82773,-181.079 L -5.4624,-181.403 L -6.0755,-181.765 L -6.66464,-182.165 L -7.22748,-182.602 L -7.76178,-183.073
 L -8.26546,-183.577 L -8.73651,-184.111 L -9.1731,-184.674 L -9.57347,-185.263 L -9.93607,-185.876 L -10.2594,-186.511
 L -10.5423,-187.165 L -10.7836,-187.835 L -10.9823,-188.519 L -11.1377,-189.214 L -11.2492,-189.917 L -11.3162,-190.627
 L -11.3386,-191.339 L -11.3162,-192.051 L -11.2492,-192.76 L -11.1377,-193.463 L -10.9823,-194.158 L -10.7836,-194.842
 L -10.5423,-195.513 L -10.2594,-196.166 L -9.93607,-196.801 L -9.57347,-197.414 L -9.1731,-198.003 L -8.73651,-198.566
 L -8.26546,-199.1 L -7.76178,-199.604 L -7.22748,-200.075 L -6.66464,-200.512 L -6.0755,-200.912 L -5.4624,-201.275
 L -4.82773,-201.598 L -4.174,-201.881 L -3.5038,-202.122 L -2.81978,-202.321 L -2.12463,-202.476 L -1.4211,-202.588
 L -0.711945,-202.655 L 0,-202.677 L 0.711945,-202.655 L 1.4211,-202.588 L 2.12463,-202.476 L 2.81978,-202.321
 L 3.5038,-202.122 L 4.174,-201.881 L 4.82773,-201.598 L 5.4624,-201.275 L 6.0755,-200.912 L 6.66464,-200.512
 L 7.22748,-200.075 L 7.76178,-199.604 L 8.26546,-199.1 L 8.73651,-198.566 L 9.1731,-198.003 L 9.57347,-197.414
 L 9.93607,-196.801 L 10.2594,-196.166 L 10.5423,-195.513 L 10.7836,-194.842 L 10.9823,-194.158 L 11.1377,-193.463
 L 11.2492,-192.76 L 11.3162,-192.051 L 11.3386,-191.339 L 11.3162,-190.627 L 11.2492,-189.917 L 11.1377,-189.214
 L 10.9823,-188.519 L 10.7836,-187.835 L 10.5423,-187.165 L 10.2594,-186.511 L 9.93607,-185.876 L 9.57347,-185.263
 L 9.1731,-184.674 L 8.73651,-184.111 L 8.26546,-183.577 L 7.76178,-183.073 L 7.22748,-182.602 L 6.66464,-182.165
 L 6.0755,-181.765 L 5.4624,-181.403 L 4.82773,-181.079 L 4.174,-180.796 L 3.5038,-180.555 L 2.81978,-180.356
 L 2.12463,-180.201 L 1.4211,-180.089 L 0.711945,-180.022 L 0,-180 z
M 73.8749,-157.323 L 73.8749,-161.858 L 88.1048,-161.858 L 88.1048,-157.323 z
M -88.1048,-157.323 L -88.1048,-161.858 L -73.8749,-161.858 L -73.8749,-157.323 z
M -48.545,-145.995 L -48.8995,-146.029 L -49.2513,-146.085 L -49.5989,-146.162 L -49.9409,-146.262 L -50.276,-146.382
 L -50.6028,-146.524 L -50.9202,-146.686 L -51.2267,-146.867 L -51.5213,-147.067 L -51.8027,-147.285 L -52.0699,-147.521
 L -52.3217,-147.773 L -52.5572,-148.04 L -52.7755,-148.321 L -52.9757,-148.616 L -53.157,-148.922 L -53.3187,-149.24
 L -53.4601,-149.567 L -53.5808,-149.902 L -53.6801,-150.244 L -53.7578,-150.591 L -53.8136,-150.943 L -53.8471,-151.298
 L -53.8583,-151.654 L -53.8471,-152.01 L -53.8136,-152.364 L -53.7578,-152.716 L -53.6801,-153.063 L -53.5808,-153.405
 L -53.4601,-153.741 L -53.3187,-154.067 L -53.157,-154.385 L -52.9757,-154.691 L -52.7755,-154.986 L -52.5572,-155.267
 L -52.3217,-155.534 L -52.0699,-155.786 L -51.8027,-156.022 L -51.5213,-156.24 L -51.2267,-156.44 L -50.9202,-156.622
 L -50.6028,-156.783 L -50.276,-156.925 L -49.9409,-157.045 L -49.5989,-157.145 L -49.2513,-157.222 L -48.8995,-157.278
 L -48.545,-157.312 L -48.189,-157.323 L -47.833,-157.312 L -47.4784,-157.278 L -47.1266,-157.222 L -46.7791,-157.145
 L -46.4371,-157.045 L -46.102,-156.925 L -45.7751,-156.783 L -45.4578,-156.622 L -45.1512,-156.44 L -44.8566,-156.24
 L -44.5752,-156.022 L -44.3081,-155.786 L -44.0562,-155.534 L -43.8207,-155.267 L -43.6024,-154.986 L -43.4022,-154.691
 L -43.2209,-154.385 L -43.0592,-154.067 L -42.9178,-153.741 L -42.7971,-153.405 L -42.6978,-153.063 L -42.6201,-152.716
 L -42.5644,-152.364 L -42.5309,-152.01 L -42.5197,-151.654 L -42.5309,-151.298 L -42.5644,-150.943 L -42.6201,-150.591
 L -42.6978,-150.244 L -42.7971,-149.902 L -42.9178,-149.567 L -43.0592,-149.24 L -43.2209,-148.922 L -43.4022,-148.616
 L -43.6024,-148.321 L -43.8207,-148.04 L -44.0562,-147.773 L -44.3081,-147.521 L -44.5752,-147.285 L -44.8566,-147.067
 L -45.1512,-146.867 L -45.4578,-146.686 L -45.7751,-146.524 L -46.102,-146.382 L -46.4371,-146.262 L -46.7791,-146.162
 L -47.1266,-146.085 L -47.4784,-146.029 L -47.833,-145.995 L -48.189,-145.984 z
M 47.833,-145.995 L 47.4784,-146.029 L 47.1266,-146.085 L 46.7791,-146.162 L 46.4371,-146.262 L 46.102,-146.382
 L 45.7751,-146.524 L 45.4578,-146.686 L 45.1512,-146.867 L 44.8566,-147.067 L 44.5752,-147.285 L 44.3081,-147.521
 L 44.0562,-147.773 L 43.8207,-148.04 L 43.6024,-148.321 L 43.4022,-148.616 L 43.2209,-148.922 L 43.0592,-149.24
 L 42.9178,-149.567 L 42.7971,-149.902 L 42.6978,-150.244 L 42.6201,-150.591 L 42.5644,-150.943 L 42.5309,-151.298
 L 42.5197,-151.654 L 42.5309,-152.01 L 42.5644,-152.364 L 42.6201,-152.716 L 42.6978,-153.063 L 42.7971,-153.405
 L 42.9178,-153.741 L 43.0592,-154.067 L 43.2209,-154.385 L 43.4022,-154.691 L 43.6024,-154.986 L 43.8207,-155.267
 L 44.0562,-155.534 L 44.3081,-155.786 L 44.5752,-156.022 L 44.8566,-156.24 L 45.1512,-156.44 L 45.4578,-156.622
 L 45.7751,-156.783 L 46.102,-156.925 L 46.4371,-157.045 L 46.7791,-157.145 L 47.1266,-157.222 L 47.4784,-157.278
 L 47.833,-157.312 L 48.189,-157.323 L 48.545,-157.312 L 48.8995,-157.278 L 49.2513,-157.222 L 49.5989,-157.145
 L 49.9409,-157.045 L 50.276,-156.925 L 50.6028,-156.783 L 50.9202,-156.622 L 51.2267,-156.44 L 51.5213,-156.24
 L 51.8027,-156.022 L 52.0699,-155.786 L 52.3217,-155.534 L 52.5572,-155.267 L 52.7755,-154.986 L 52.9757,-154.691
 L 53.157,-154.385 L 53.3187,-154.067 L 53.4601,-153.741 L 53.5808,-153.405 L 53.6801,-153.063 L 53.7578,-152.716
 L 53.8136,-152.364 L 53.8471,-152.01 L 53.8583,-151.654 L 53.8471,-151.298 L 53.8136,-150.943 L 53.7578,-150.591
 L 53.6801,-150.244 L 53.5808,-149.902 L 53.4601,-149.567 L 53.3187,-149.24 L 53.157,-148.922 L 52.9757,-148.616
 L 52.7755,-148.321 L 52.5572,-148.04 L 52.3217,-147.773 L 52.0699,-147.521 L 51.8027,-147.285 L 51.5213,-147.067
 L 51.2267,-146.867 L 50.9202,-146.686 L 50.6028,-146.524 L 50.276,-146.382 L 49.9409,-146.262 L 49.5989,-146.162
 L 49.2513,-146.085 L 48.8995,-146.029 L 48.545,-145.995 L 48.189,-145.984 z
M -101.237,15.5905 L -60.7424,15.5905 L -60.7424,29.7638 L -20.2475,29.7638 L -20.2475,15.5905 L 20.2475,15.5905
 L 20.2475,29.7638 L 60.7424,29.7638 L 60.7424,15.5905 L 101.237,15.5905 L 101.237,29.7638 L 141.732,29.7638
 L 141.732,-111.969 L 101.237,-111.969 L 101.237,-97.7953 L 60.7424,-97.7953 L 60.7424,-111.969 L 20.2475,-111.969
 L 20.2475,-97.7953 L -20.2475,-97.7953 L -20.2475,-111.969 L -60.7424,-111.969 L -60.7424,-97.7953 L -101.237,-97.7953
 L -101.237,-111.969 L -141.732,-111.969 L -141.732,29.7638 L -101.237,29.7638 z
M -48.545,-75.1293 L -48.8995,-75.1628 L -49.2513,-75.2185 L -49.5989,-75.2962 L -49.9409,-75.3956 L -50.276,-75.5162
 L -50.6028,-75.6577 L -50.9202,-75.8194 L -51.2267,-76.0007 L -51.5213,-76.2008 L -51.8027,-76.4191 L -52.0699,-76.6547
 L -52.3217,-76.9065 L -52.5572,-77.1737 L -52.7755,-77.4551 L -52.9757,-77.7496 L -53.157,-78.0562 L -53.3187,-78.3735
 L -53.4601,-78.7004 L -53.5808,-79.0355 L -53.6801,-79.3775 L -53.7578,-79.7251 L -53.8136,-80.0768 L -53.8471,-80.4314
 L -53.8583,-80.7874 L -53.8471,-81.1434 L -53.8136,-81.4979 L -53.7578,-81.8497 L -53.6801,-82.1973 L -53.5808,-82.5393
 L -53.4601,-82.8744 L -53.3187,-83.2013 L -53.157,-83.5186 L -52.9757,-83.8251 L -52.7755,-84.1197 L -52.5572,-84.4011
 L -52.3217,-84.6683 L -52.0699,-84.9201 L -51.8027,-85.1557 L -51.5213,-85.3739 L -51.2267,-85.5741 L -50.9202,-85.7554
 L -50.6028,-85.9171 L -50.276,-86.0586 L -49.9409,-86.1792 L -49.5989,-86.2786 L -49.2513,-86.3563 L -48.8995,-86.412
 L -48.545,-86.4455 L -48.189,-86.4567 L -47.833,-86.4455 L -47.4784,-86.412 L -47.1266,-86.3563 L -46.7791,-86.2786
 L -46.4371,-86.1792 L -46.102,-86.0586 L -45.7751,-85.9171 L -45.4578,-85.7554 L -45.1512,-85.5741 L -44.8566,-85.3739
 L -44.5752,-85.1557 L -44.3081,-84.9201 L -44.0562,-84.6683 L -43.8207,-84.4011 L -43.6024,-84.1197 L -43.4022,-83.8251
 L -43.2209,-83.5186 L -43.0592,-83.2013 L -42.9178,-82.8744 L -42.7971,-82.5393 L -42.6978,-82.1973 L -42.6201,-81.8497
 L -42.5644,-81.4979 L -42.5309,-81.1434 L -42.5197,-80.7874 L -42.5309,-80.4314 L -42.5644,-80.0768 L -42.6201,-79.7251
 L -42.6978,-79.3775 L -42.7971,-79.0355 L -42.9178,-78.7004 L -43.0592,-78.3735 L -43.2209,-78.0562 L -43.4022,-77.7496
 L -43.6024,-77.4551 L -43.8207,-77.1737 L -44.0562,-76.9065 L -44.3081,-76.6547 L -44.5752,-76.4191 L -44.8566,-76.2008
 L -45.1512,-76.0007 L -45.4578,-75.8194 L -45.7751,-75.6577 L -46.102,-75.5162 L -46.4371,-75.3956 L -46.7791,-75.2962
 L -47.1266,-75.2185 L -47.4784,-75.1628 L -47.833,-75.1293 L -48.189,-75.1181 z
M 47.833,-75.1293 L 47.4784,-75.1628 L 47.1266,-75.2185 L 46.7791,-75.2962 L 46.4371,-75.3956 L 46.102,-75.5162
 L 45.7751,-75.6577 L 45.4578,-75.8194 L 45.1512,-76.0007 L 44.8566,-76.2008 L 44.5752,-76.4191 L 44.3081,-76.6547
 L 44.0562,-76.9065 L 43.8207,-77.1737 L 43.6024,-77.4551 L 43.4022,-77.7496 L 43.2209,-78.0562 L 43.0592,-78.3735
 L 42.9178,-78.7004 L 42.7971,-79.0355 L 42.6978,-79.3775 L 42.6201,-79.7251 L 42.5644,-80.0768 L 42.5309,-80.4314
 L 42.5197,-80.7874 L 42.5309,-81.1434 L 42.5644,-81.4979 L 42.6201,-81.8497 L 42.6978,-82.1973 L 42.7971,-82.5393
 L 42.9178,-82.8744 L 43.0592,-83.2013 L 43.2209,-83.5186 L 43.4022,-83.8251 L 43.6024,-84.1197 L 43.8207,-84.4011
 L 44.0562,-84.6683 L 44.3081,-84.9201 L 44.5752,-85.1557 L 44.8566,-85.3739 L 45.1512,-85.5741 L 45.4578,-85.7554
 L 45.7751,-85.9171 L 46.102,-86.0586 L 46.4371,-86.1792 L 46.7791,-86.2786 L 47.1266,-86.3563 L 47.4784,-86.412
 L 47.833,-86.4455 L 48.189,-86.4567 L 48.545,-86.4455 L 48.8995,-86.412 L 49.2513,-86.3563 L 49.5989,-86.2786
 L 49.9409,-86.1792 L 50.276,-86.0586 L 50.6028,-85.9171 L 50.9202,-85.7554 L 51.2267,-85.5741 L 51.5213,-85.3739
 L 51.8027,-85.1557 L 52.0699,-84.9201 L 52.3217,-84.6683 L 52.5572,-84.4011 L 52.7755,-84.1197 L 52.9757,-83.8251
 L 53.157,-83.5186 L 53.3187,-83.2013 L 53.4601,-82.8744 L 53.5808,-82.5393 L 53.6801,-82.1973 L 53.7578,-81.8497
 L 53.8136,-81.4979 L 53.8471,-81.1434 L 53.8583,-80.7874 L 53.8471,-80.4314 L 53.8136,-80.0768 L 53.7578,-79.7251
 L 53.6801,-79.3775 L 53.5808,-79.0355 L 53.4601,-78.7004 L 53.3187,-78.3735 L 53.157,-78.0562 L 52.9757,-77.7496
 L 52.7755,-77.4551 L 52.5572,-77.1737 L 52.3217,-76.9065 L 52.0699,-76.6547 L 51.8027,-76.4191 L 51.5213,-76.2008
 L 51.2267,-76.0007 L 50.9202,-75.8194 L 50.6028,-75.6577 L 50.276,-75.5162 L 49.9409,-75.3956 L 49.5989,-75.2962
 L 49.2513,-75.2185 L 48.8995,-75.1628 L 48.545,-75.1293 L 48.189,-75.1181 z
M -88.1048,-70.5827 L -88.1048,-75.1181 L -73.8749,-75.1181 L -73.8749,-70.5827 z
M 73.8749,-70.5827 L 73.8749,-75.1181 L 88.1048,-75.1181 L 88.1048,-70.5827 z
M -0.711945,-29.7861 L -1.4211,-29.8532 L -2.12463,-29.9646 L -2.81978,-30.12 L -3.5038,-30.3187 L -4.174,-30.56
 L -4.82773,-30.8429 L -5.4624,-31.1663 L -6.0755,-31.5289 L -6.66464,-31.9292 L -7.22748,-32.3658 L -7.76178,-32.8369
 L -8.26546,-33.3406 L -8.73651,-33.8749 L -9.1731,-34.4377 L -9.57347,-35.0268 L -9.93607,-35.64 L -10.2594,-36.2746
 L -10.5423,-36.9283 L -10.7836,-37.5985 L -10.9823,-38.2826 L -11.1377,-38.9777 L -11.2492,-39.6813 L -11.3162,-40.3904
 L -11.3386,-41.1024 L -11.3162,-41.8143 L -11.2492,-42.5235 L -11.1377,-43.227 L -10.9823,-43.9221 L -10.7836,-44.6062
 L -10.5423,-45.2764 L -10.2594,-45.9301 L -9.93607,-46.5648 L -9.57347,-47.1779 L -9.1731,-47.767 L -8.73651,-48.3298
 L -8.26546,-48.8642 L -7.76178,-49.3678 L -7.22748,-49.8389 L -6.66464,-50.2755 L -6.0755,-50.6758 L -5.4624,-51.0384
 L -4.82773,-51.3618 L -4.174,-51.6447 L -3.5038,-51.886 L -2.81978,-52.0847 L -2.12463,-52.2401 L -1.4211,-52.3515
 L -0.711945,-52.4186 L 0,-52.4409 L 0.711945,-52.4186 L 1.4211,-52.3515 L 2.12463,-52.2401 L 2.81978,-52.0847
 L 3.5038,-51.886 L 4.174,-51.6447 L 4.82773,-51.3618 L 5.4624,-51.0384 L 6.0755,-50.6758 L 6.66464,-50.2755
 L 7.22748,-49.8389 L 7.76178,-49.3678 L 8.26546,-48.8642 L 8.73651,-48.3298 L 9.1731,-47.767 L 9.57347,-47.1779
 L 9.93607,-46.5648 L 10.2594,-45.9301 L 10.5423,-45.2764 L 10.7836,-44.6062 L 10.9823,-43.9221 L 11.1377,-43.227
 L 11.2492,-42.5235 L 11.3162,-41.8143 L 11.3386,-41.1024 L 11.3162,-40.3904 L 11.2492,-39.6813 L 11.1377,-38.9777
 L 10.9823,-38.2826 L 10.7836,-37.5985 L 10.5423,-36.9283 L 10.2594,-36.2746 L 9.93607,-35.64 L 9.57347,-35.0268
 L 9.1731,-34.4377 L 8.73651,-33.8749 L 8.26546,-33.3406 L 7.76178,-32.8369 L 7.22748,-32.3658 L 6.66464,-31.9292
 L 6.0755,-31.5289 L 5.4624,-31.1663 L 4.82773,-30.8429 L 4.174,-30.56 L 3.5038,-30.3187 L 2.81978,-30.12
 L 2.12463,-29.9646 L 1.4211,-29.8532 L 0.711945,-29.7861 L 0,-29.7638 z
M -88.1048,-7.08661 L -88.1048,-11.622 L -73.8749,-11.622 L -73.8749,-7.08661 z
M 73.8749,-7.08661 L 73.8749,-11.622 L 88.1048,-11.622 L 88.1048,-7.08661 z
M -48.545,4.24077 L -48.8995,4.20726 L -49.2513,4.15154 L -49.5989,4.07385 L -49.9409,3.97449 L -50.276,3.85384
 L -50.6028,3.7124 L -50.9202,3.5507 L -51.2267,3.36942 L -51.5213,3.16922 L -51.8027,2.95093 L -52.0699,2.71541
 L -52.3217,2.46356 L -52.5572,2.19641 L -52.7755,1.91499 L -52.9757,1.62042 L -53.157,1.31387 L -53.3187,0.996536
 L -53.4601,0.669678 L -53.5808,0.334579 L -53.6801,-0.00741577 L -53.7578,-0.354996 L -53.8136,-0.706772 L -53.8471,-1.06134
 L -53.8583,-1.41731 L -53.8471,-1.7733 L -53.8136,-2.12787 L -53.7578,-2.47963 L -53.6801,-2.82721 L -53.5808,-3.16922
 L -53.4601,-3.50432 L -53.3187,-3.83118 L -53.157,-4.14851 L -52.9757,-4.45508 L -52.7755,-4.74965 L -52.5572,-5.03105
 L -52.3217,-5.29822 L -52.0699,-5.55005 L -51.8027,-5.78558 L -51.5213,-6.00388 L -51.2267,-6.20406 L -50.9202,-6.38536
 L -50.6028,-6.54704 L -50.276,-6.68849 L -49.9409,-6.80913 L -49.5989,-6.90849 L -49.2513,-6.98619 L -48.8995,-7.0419
 L -48.545,-7.07542 L -48.189,-7.08661 L -47.833,-7.07542 L -47.4784,-7.0419 L -47.1266,-6.98619 L -46.7791,-6.90849
 L -46.4371,-6.80913 L -46.102,-6.68849 L -45.7751,-6.54704 L -45.4578,-6.38536 L -45.1512,-6.20406 L -44.8566,-6.00388
 L -44.5752,-5.78558 L -44.3081,-5.55005 L -44.0562,-5.29822 L -43.8207,-5.03105 L -43.6024,-4.74965 L -43.4022,-4.45508
 L -43.2209,-4.14851 L -43.0592,-3.83118 L -42.9178,-3.50432 L -42.7971,-3.16922 L -42.6978,-2.82721 L -42.6201,-2.47963
 L -42.5644,-2.12787 L -42.5309,-1.7733 L -42.5197,-1.41731 L -42.5309,-1.06134 L -42.5644,-0.706772 L -42.6201,-0.354996
 L -42.6978,-0.00741577 L -42.7971,0.334579 L -42.9178,0.669678 L -43.0592,0.996536 L -43.2209,1.31387 L -43.4022,1.62042
 L -43.6024,1.91499 L -43.8207,2.19641 L -44.0562,2.46356 L -44.3081,2.71541 L -44.5752,2.95093 L -44.8566,3.16922
 L -45.1512,3.36942 L -45.4578,3.5507 L -45.7751,3.7124 L -46.102,3.85384 L -46.4371,3.97449 L -46.7791,4.07385
 L -47.1266,4.15154 L -47.4784,4.20726 L -47.833,4.24077 L -48.189,4.25197 z
M 47.833,4.24077 L 47.4784,4.20726 L 47.1266,4.15154 L 46.7791,4.07385 L 46.4371,3.97449 L 46.102,3.85384
 L 45.7751,3.7124 L 45.4578,3.5507 L 45.1512,3.36942 L 44.8566,3.16922 L 44.5752,2.95093 L 44.3081,2.71541
 L 44.0562,2.46356 L 43.8207,2.19641 L 43.6024,1.91499 L 43.4022,1.62042 L 43.2209,1.31387 L 43.0592,0.996536
 L 42.9178,0.669678 L 42.7971,0.334579 L 42.6978,-0.00741577 L 42.6201,-0.354996 L 42.5644,-0.706772 L 42.5309,-1.06134
 L 42.5197,-1.41731 L 42.5309,-1.7733 L 42.5644,-2.12787 L 42.6201,-2.47963 L 42.6978,-2.82721 L 42.7971,-3.16922
 L 42.9178,-3.50432 L 43.0592,-3.83118 L 43.2209,-4.14851 L 43.4022,-4.45508 L 43.6024,-4.74965 L 43.8207,-5.03105
 L 44.0562,-5.29822 L 44.3081,-5.55005 L 44.5752,-5.78558 L 44.8566,-6.00388 L 45.1512,-6.20406 L 45.4578,-6.38536
 L 45.7751,-6.54704 L 46.102,-6.68849 L 46.4371,-6.80913 L 46.7791,-6.90849 L 47.1266,-6.98619 L 47.4784,-7.0419
 L 47.833,-7.07542 L 48.189,-7.08661 L 48.545,-7.07542 L 48.8995,-7.0419 L 49.2513,-6.98619 L 49.5989,-6.90849
 L 49.9409,-6.80913 L 50.276,-6.68849 L 50.6028,-6.54704 L 50.9202,-6.38536 L 51.2267,-6.20406 L 51.5213,-6.00388
 L 51.8027,-5.78558 L 52.0699,-5.55005 L 52.3217,-5.29822 L 52.5572,-5.03105 L 52.7755,-4.74965 L 52.9757,-4.45508
 L 53.157,-4.14851 L 53.3187,-3.83118 L 53.4601,-3.50432 L 53.5808,-3.16922 L 53.6801,-2.82721 L 53.7578,-2.47963
 L 53.8136,-2.12787 L 53.8471,-1.7733 L 53.8583,-1.41731 L 53.8471,-1.06134 L 53.8136,-0.706772 L 53.7578,-0.354996
 L 53.6801,-0.00741577 L 53.5808,0.334579 L 53.4601,0.669678 L 53.3187,0.996536 L 53.157,1.31387 L 52.9757,1.62042
 L 52.7755,1.91499 L 52.5572,2.19641 L 52.3217,2.46356 L 52.0699,2.71541 L 51.8027,2.95093 L 51.5213,3.16922
 L 51.2267,3.36942 L 50.9202,3.5507 L 50.6028,3.7124 L 50.276,3.85384 L 49.9409,3.97449 L 49.5989,4.07385
 L 49.2513,4.15154 L 48.8995,4.20726 L 48.545,4.24077 L 48.189,4.25197 z
M -101.237,165.827 L -60.7424,165.827 L -60.7424,180 L -20.2475,180 L -20.2475,165.827 L 20.2475,165.827
 L 20.2475,180 L 60.7424,180 L 60.7424,165.827 L 101.237,165.827 L 101.237,180 L 141.732,180
 L 141.732,38.2677 L 101.237,38.2677 L 101.237,52.4409 L 60.7424,52.4409 L 60.7424,38.2677 L 20.2475,38.2677
 L 20.2475,52.4409 L -20.2475,52.4409 L -20.2475,38.2677 L -60.7424,38.2677 L -60.7424,52.4409 L -101.237,52.4409
 L -101.237,38.2677 L -141.732,38.2677 L -141.732,180 L -101.237,180 z
M 47.833,75.1069 L 47.4784,75.0734 L 47.1266,75.0177 L 46.7791,74.94 L 46.4371,74.8406 L 46.102,74.72
 L 45.7751,74.5785 L 45.4578,74.4169 L 45.1512,74.2355 L 44.8566,74.0354 L 44.5752,73.8171 L 44.3081,73.5816
 L 44.0562,73.3297 L 43.8207,73.0626 L 43.6024,72.7811 L 43.4022,72.4866 L 43.2209,72.18 L 43.0592,71.8627
 L 42.9178,71.5358 L 42.7971,71.2007 L 42.6978,70.8587 L 42.6201,70.5111 L 42.5644,70.1594 L 42.5309,69.8048
 L 42.5197,69.4488 L 42.5309,69.0928 L 42.5644,68.7383 L 42.6201,68.3865 L 42.6978,68.0389 L 42.7971,67.6969
 L 42.9178,67.3618 L 43.0592,67.035 L 43.2209,66.7176 L 43.4022,66.4111 L 43.6024,66.1165 L 43.8207,65.8351
 L 44.0562,65.5679 L 44.3081,65.3161 L 44.5752,65.0806 L 44.8566,64.8623 L 45.1512,64.6621 L 45.4578,64.4808
 L 45.7751,64.3191 L 46.102,64.1776 L 46.4371,64.057 L 46.7791,63.9576 L 47.1266,63.8799 L 47.4784,63.8242
 L 47.833,63.7907 L 48.189,63.7795 L 48.545,63.7907 L 48.8995,63.8242 L 49.2513,63.8799 L 49.5989,63.9576
 L 49.9409,64.057 L 50.276,64.1776 L 50.6028,64.3191 L 50.9202,64.4808 L 51.2267,64.6621 L 51.5213,64.8623
 L 51.8027,65.0806 L 52.0699,65.3161 L 52.3217,65.5679 L 52.5572,65.8351 L 52.7755,66.1165 L 52.9757,66.4111
 L 53.157,66.7176 L 53.3187,67.035 L 53.4601,67.3618 L 53.5808,67.6969 L 53.6801,68.0389 L 53.7578,68.3865
 L 53.8136,68.7383 L 53.8471,69.0928 L 53.8583,69.4488 L 53.8471,69.8048 L 53.8136,70.1594 L 53.7578,70.5111
 L 53.6801,70.8587 L 53.5808,71.2007 L 53.4601,71.5358 L 53.3187,71.8627 L 53.157,72.18 L 52.9757,72.4866
 L 52.7755,72.7811 L 52.5572,73.0626 L 52.3217,73.3297 L 52.0699,73.5816 L 51.8027,73.8171 L 51.5213,74.0354
 L 51.2267,74.2355 L 50.9202,74.4169 L 50.6028,74.5785 L 50.276,74.72 L 49.9409,74.8406 L 49.5989,74.94
 L 49.2513,75.0177 L 48.8995,75.0734 L 48.545,75.1069 L 48.189,75.1181 z
M -48.545,75.1069 L -48.8995,75.0734 L -49.2513,75.0177 L -49.5989,74.94 L -49.9409,74.8406 L -50.276,74.72
 L -50.6028,74.5785 L -50.9202,74.4169 L -51.2267,74.2355 L -51.5213,74.0354 L -51.8027,73.8171 L -52.0699,73.5816
 L -52.3217,73.3297 L -52.5572,73.0626 L -52.7755,72.7811 L -52.9757,72.4866 L -53.157,72.18 L -53.3187,71.8627
 L -53.4601,71.5358 L -53.5808,71.2007 L -53.6801,70.8587 L -53.7578,70.5111 L -53.8136,70.1594 L -53.8471,69.8048
 L -53.8583,69.4488 L -53.8471,69.0928 L -53.8136,68.7383 L -53.7578,68.3865 L -53.6801,68.0389 L -53.5808,67.6969
 L -53.4601,67.3618 L -53.3187,67.035 L -53.157,66.7176 L -52.9757,66.4111 L -52.7755,66.1165 L -52.5572,65.8351
 L -52.3217,65.5679 L -52.0699,65.3161 L -51.8027,65.0806 L -51.5213,64.8623 L -51.2267,64.6621 L -50.9202,64.4808
 L -50.6028,64.3191 L -50.276,64.1776 L -49.9409,64.057 L -49.5989,63.9576 L -49.2513,63.8799 L -48.8995,63.8242
 L -48.545,63.7907 L -48.189,63.7795 L -47.833,63.7907 L -47.4784,63.8242 L -47.1266,63.8799 L -46.7791,63.9576
 L -46.4371,64.057 L -46.102,64.1776 L -45.7751,64.3191 L -45.4578,64.4808 L -45.1512,64.6621 L -44.8566,64.8623
 L -44.5752,65.0806 L -44.3081,65.3161 L -44.0562,65.5679 L -43.8207,65.8351 L -43.6024,66.1165 L -43.4022,66.4111
 L -43.2209,66.7176 L -43.0592,67.035 L -42.9178,67.3618 L -42.7971,67.6969 L -42.6978,68.0389 L -42.6201,68.3865
 L -42.5644,68.7383 L -42.5309,69.0928 L -42.5197,69.4488 L -42.5309,69.8048 L -42.5644,70.1594 L -42.6201,70.5111
 L -42.6978,70.8587 L -42.7971,71.2007 L -42.9178,71.5358 L -43.0592,71.8627 L -43.2209,72.18 L -43.4022,72.4866
 L -43.6024,72.7811 L -43.8207,73.0626 L -44.0562,73.3297 L -44.3081,73.5816 L -44.5752,73.8171 L -44.8566,74.0354
 L -45.1512,74.2355 L -45.4578,74.4169 L -45.7751,74.5785 L -46.102,74.72 L -46.4371,74.8406 L -46.7791,74.94
 L -47.1266,75.0177 L -47.4784,75.0734 L -47.833,75.1069 L -48.189,75.1181 z
M 73.8749,79.6535 L 73.8749,75.1181 L 88.1048,75.1181 L 88.1048,79.6535 z
M -88.1048,79.6535 L -88.1048,75.1181 L -73.8749,75.1181 L -73.8749,79.6535 z
M -0.711945,120.45 L -1.4211,120.383 L -2.12463,120.272 L -2.81978,120.116 L -3.5038,119.917 L -4.174,119.676
 L -4.82773,119.393 L -5.4624,119.07 L -6.0755,118.707 L -6.66464,118.307 L -7.22748,117.87 L -7.76178,117.399
 L -8.26546,116.896 L -8.73651,116.361 L -9.1731,115.799 L -9.57347,115.209 L -9.93607,114.596 L -10.2594,113.962
 L -10.5423,113.308 L -10.7836,112.638 L -10.9823,111.954 L -11.1377,111.258 L -11.2492,110.555 L -11.3162,109.846
 L -11.3386,109.134 L -11.3162,108.422 L -11.2492,107.713 L -11.1377,107.009 L -10.9823,106.314 L -10.7836,105.63
 L -10.5423,104.96 L -10.2594,104.306 L -9.93607,103.671 L -9.57347,103.058 L -9.1731,102.469 L -8.73651,101.906
 L -8.26546,101.372 L -7.76178,100.868 L -7.22748,100.397 L -6.66464,99.9608 L -6.0755,99.5604 L -5.4624,99.1978
 L -4.82773,98.8744 L -4.174,98.5915 L -3.5038,98.3502 L -2.81978,98.1515 L -2.12463,97.9961 L -1.4211,97.8847
 L -0.711945,97.8176 L 0,97.7953 L 0.711945,97.8176 L 1.4211,97.8847 L 2.12463,97.9961 L 2.81978,98.1515
 L 3.5038,98.3502 L 4.174,98.5915 L 4.82773,98.8744 L 5.4624,99.1978 L 6.0755,99.5604 L 6.66464,99.9608
 L 7.22748,100.397 L 7.76178,100.868 L 8.26546,101.372 L 8.73651,101.906 L 9.1731,102.469 L 9.57347,103.058
 L 9.93607,103.671 L 10.2594,104.306 L 10.5423,104.96 L 10.7836,105.63 L 10.9823,106.314 L 11.1377,107.009
 L 11.2492,107.713 L 11.3162,108.422 L 11.3386,109.134 L 11.3162,109.846 L 11.2492,110.555 L 11.1377,111.258
 L 10.9823,111.954 L 10.7836,112.638 L 10.5423,113.308 L 10.2594,113.962 L 9.93607,114.596 L 9.57347,115.209
 L 9.1731,115.799 L 8.73651,116.361 L 8.26546,116.896 L 7.76178,117.399 L 7.22748,117.87 L 6.66464,118.307
 L 6.0755,118.707 L 5.4624,119.07 L 4.82773,119.393 L 4.174,119.676 L 3.5038,119.917 L 2.81978,120.116
 L 2.12463,120.272 L 1.4211,120.383 L 0.711945,120.45 L 0,120.472 z
M -88.1048,143.15 L -88.1048,138.614 L -73.8749,138.614 L -73.8749,143.15 z
M 73.8749,143.15 L 73.8749,138.614 L 88.1048,138.614 L 88.1048,143.15 z
M 47.833,154.477 L 47.4784,154.443 L 47.1266,154.388 L 46.7791,154.31 L 46.4371,154.211 L 46.102,154.09
 L 45.7751,153.949 L 45.4578,153.787 L 45.1512,153.606 L 44.8566,153.405 L 44.5752,153.187 L 44.3081,152.952
 L 44.0562,152.7 L 43.8207,152.433 L 43.6024,152.151 L 43.4022,151.857 L 43.2209,151.55 L 43.0592,151.233
 L 42.9178,150.906 L 42.7971,150.571 L 42.6978,150.229 L 42.6201,149.881 L 42.5644,149.529 L 42.5309,149.175
 L 42.5197,148.819 L 42.5309,148.463 L 42.5644,148.108 L 42.6201,147.757 L 42.6978,147.409 L 42.7971,147.067
 L 42.9178,146.732 L 43.0592,146.405 L 43.2209,146.088 L 43.4022,145.781 L 43.6024,145.487 L 43.8207,145.205
 L 44.0562,144.938 L 44.3081,144.686 L 44.5752,144.451 L 44.8566,144.232 L 45.1512,144.032 L 45.4578,143.851
 L 45.7751,143.689 L 46.102,143.548 L 46.4371,143.427 L 46.7791,143.328 L 47.1266,143.25 L 47.4784,143.194
 L 47.833,143.161 L 48.189,143.15 L 48.545,143.161 L 48.8995,143.194 L 49.2513,143.25 L 49.5989,143.328
 L 49.9409,143.427 L 50.276,143.548 L 50.6028,143.689 L 50.9202,143.851 L 51.2267,144.032 L 51.5213,144.232
 L 51.8027,144.451 L 52.0699,144.686 L 52.3217,144.938 L 52.5572,145.205 L 52.7755,145.487 L 52.9757,145.781
 L 53.157,146.088 L 53.3187,146.405 L 53.4601,146.732 L 53.5808,147.067 L 53.6801,147.409 L 53.7578,147.757
 L 53.8136,148.108 L 53.8471,148.463 L 53.8583,148.819 L 53.8471,149.175 L 53.8136,149.529 L 53.7578,149.881
 L 53.6801,150.229 L 53.5808,150.571 L 53.4601,150.906 L 53.3187,151.233 L 53.157,151.55 L 52.9757,151.857
 L 52.7755,152.151 L 52.5572,152.433 L 52.3217,152.7 L 52.0699,152.952 L 51.8027,153.187 L 51.5213,153.405
 L 51.2267,153.606 L 50.9202,153.787 L 50.6028,153.949 L 50.276,154.09 L 49.9409,154.211 L 49.5989,154.31
 L 49.2513,154.388 L 48.8995,154.443 L 48.545,154.477 L 48.189,154.488 z
M -48.545,154.477 L -48.8995,154.443 L -49.2513,154.388 L -49.5989,154.31 L -49.9409,154.211 L -50.276,154.09
 L -50.6028,153.949 L -50.9202,153.787 L -51.2267,153.606 L -51.5213,153.405 L -51.8027,153.187 L -52.0699,152.952
 L -52.3217,152.7 L -52.5572,152.433 L -52.7755,152.151 L -52.9757,151.857 L -53.157,151.55 L -53.3187,151.233
 L -53.4601,150.906 L -53.5808,150.571 L -53.6801,150.229 L -53.7578,149.881 L -53.8136,149.529 L -53.8471,149.175
 L -53.8583,148.819 L -53.8471,148.463 L -53.8136,148.108 L -53.7578,147.757 L -53.6801,147.409 L -53.5808,147.067
 L -53.4601,146.732 L -53.3187,146.405 L -53.157,146.088 L -52.9757,145.781 L -52.7755,145.487 L -52.5572,145.205
 L -52.3217,144.938 L -52.0699,144.686 L -51.8027,144.451 L -51.5213,144.232 L -51.2267,144.032 L -50.9202,143.851
 L -50.6028,143.689 L -50.276,143.548 L -49.9409,143.427 L -49.5989,143.328 L -49.2513,143.25 L -48.8995,143.194
 L -48.545,143.161 L -48.189,143.15 L -47.833,143.161 L -47.4784,143.194 L -47.1266,143.25 L -46.7791,143.328
 L -46.4371,143.427 L -46.102,143.548 L -45.7751,143.689 L -45.4578,143.851 L -45.1512,144.032 L -44.8566,144.232
 L -44.5752,144.451 L -44.3081,144.686 L -44.0562,144.938 L -43.8207,145.205 L -43.6024,145.487 L -43.4022,145.781
 L -43.2209,146.088 L -43.0592,146.405 L -42.9178,146.732 L -42.7971,147.067 L -42.6978,147.409 L -42.6201,147.757
 L -42.5644,148.108 L -42.5309,148.463 L -42.5197,148.819 L -42.5309,149.175 L -42.5644,149.529 L -42.6201,149.881
 L -42.6978,150.229 L -42.7971,150.571 L -42.9178,150.906 L -43.0592,151.233 L -43.2209,151.55 L -43.4022,151.857
 L -43.6024,152.151 L -43.8207,152.433 L -44.0562,152.7 L -44.3081,152.952 L -44.5752,153.187 L -44.8566,153.405
 L -45.1512,153.606 L -45.4578,153.787 L -45.7751,153.949 L -46.102,154.09 L -46.4371,154.211 L -46.7791,154.31
 L -47.1266,154.388 L -47.4784,154.443 L -47.833,154.477 L -48.189,154.488 z
M -101.237,316.063 L -60.7424,316.063 L -60.7424,330.236 L -20.2475,330.236 L -20.2475,316.063 L 20.2475,316.063
 L 20.2475,330.236 L 60.7424,330.236 L 60.7424,316.063 L 101.237,316.063 L 101.237,330.236 L 141.732,330.236
 L 141.732,188.504 L 101.237,188.504 L 101.237,202.677 L 60.7424,202.677 L 60.7424,188.504 L 20.2475,188.504
 L 20.2475,202.677 L -20.2475,202.677 L -20.2475,188.504 L -60.7424,188.504 L -60.7424,202.677 L -101.237,202.677
 L -101.237,188.504 L -141.732,188.504 L -141.732,330.236 L -101.237,330.236 z
M 47.833,225.343 L 47.4784,225.31 L 47.1266,225.254 L 46.7791,225.176 L 46.4371,225.077 L 46.102,224.956
 L 45.7751,224.815 L 45.4578,224.653 L 45.1512,224.472 L 44.8566,224.272 L 44.5752,224.053 L 44.3081,223.818
 L 44.0562,223.566 L 43.8207,223.299 L 43.6024,223.017 L 43.4022,222.723 L 43.2209,222.416 L 43.0592,222.099
 L 42.9178,221.772 L 42.7971,221.437 L 42.6978,221.095 L 42.6201,220.747 L 42.5644,220.396 L 42.5309,220.041
 L 42.5197,219.685 L 42.5309,219.329 L 42.5644,218.974 L 42.6201,218.623 L 42.6978,218.275 L 42.7971,217.933
 L 42.9178,217.598 L 43.0592,217.271 L 43.2209,216.954 L 43.4022,216.647 L 43.6024,216.353 L 43.8207,216.071
 L 44.0562,215.804 L 44.3081,215.552 L 44.5752,215.317 L 44.8566,215.098 L 45.1512,214.898 L 45.4578,214.717
 L 45.7751,214.555 L 46.102,214.414 L 46.4371,214.293 L 46.7791,214.194 L 47.1266,214.116 L 47.4784,214.06
 L 47.833,214.027 L 48.189,214.016 L 48.545,214.027 L 48.8995,214.06 L 49.2513,214.116 L 49.5989,214.194
 L 49.9409,214.293 L 50.276,214.414 L 50.6028,214.555 L 50.9202,214.717 L 51.2267,214.898 L 51.5213,215.098
 L 51.8027,215.317 L 52.0699,215.552 L 52.3217,215.804 L 52.5572,216.071 L 52.7755,216.353 L 52.9757,216.647
 L 53.157,216.954 L 53.3187,217.271 L 53.4601,217.598 L 53.5808,217.933 L 53.6801,218.275 L 53.7578,218.623
 L 53.8136,218.974 L 53.8471,219.329 L 53.8583,219.685 L 53.8471,220.041 L 53.8136,220.396 L 53.7578,220.747
 L 53.6801,221.095 L 53.5808,221.437 L 53.4601,221.772 L 53.3187,222.099 L 53.157,222.416 L 52.9757,222.723
 L 52.7755,223.017 L 52.5572,223.299 L 52.3217,223.566 L 52.0699,223.818 L 51.8027,224.053 L 51.5213,224.272
 L 51.2267,224.472 L 50.9202,224.653 L 50.6028,224.815 L 50.276,224.956 L 49.9409,225.077 L 49.5989,225.176
 L 49.2513,225.254 L 48.8995,225.31 L 48.545,225.343 L 48.189,225.354 z
M -48.545,225.343 L -48.8995,225.31 L -49.2513,225.254 L -49.5989,225.176 L -49.9409,225.077 L -50.276,224.956
 L -50.6028,224.815 L -50.9202,224.653 L -51.2267,224.472 L -51.5213,224.272 L -51.8027,224.053 L -52.0699,223.818
 L -52.3217,223.566 L -52.5572,223.299 L -52.7755,223.017 L -52.9757,222.723 L -53.157,222.416 L -53.3187,222.099
 L -53.4601,221.772 L -53.5808,221.437 L -53.6801,221.095 L -53.7578,220.747 L -53.8136,220.396 L -53.8471,220.041
 L -53.8583,219.685 L -53.8471,219.329 L -53.8136,218.974 L -53.7578,218.623 L -53.6801,218.275 L -53.5808,217.933
 L -53.4601,217.598 L -53.3187,217.271 L -53.157,216.954 L -52.9757,216.647 L -52.7755,216.353 L -52.5572,216.071
 L -52.3217,215.804 L -52.0699,215.552 L -51.8027,215.317 L -51.5213,215.098 L -51.2267,214.898 L -50.9202,214.717
 L -50.6028,214.555 L -50.276,214.414 L -49.9409,214.293 L -49.5989,214.194 L -49.2513,214.116 L -48.8995,214.06
 L -48.545,214.027 L -48.189,214.016 L -47.833,214.027 L -47.4784,214.06 L -47.1266,214.116 L -46.7791,214.194
 L -46.4371,214.293 L -46.102,214.414 L -45.7751,214.555 L -45.4578,214.717 L -45.1512,214.898 L -44.8566,215.098
 L -44.5752,215.317 L -44.3081,215.552 L -44.0562,215.804 L -43.8207,216.071 L -43.6024,216.353 L -43.4022,216.647
 L -43.2209,216.954 L -43.0592,217.271 L -42.9178,217.598 L -42.7971,217.933 L -42.6978,218.275 L -42.6201,218.623
 L -42.5644,218.974 L -42.5309,219.329 L -42.5197,219.685 L -42.5309,220.041 L -42.5644,220.396 L -42.6201,220.747
 L -42.6978,221.095 L -42.7971,221.437 L -42.9178,221.772 L -43.0592,222.099 L -43.2209,222.416 L -43.4022,222.723
 L -43.6024,223.017 L -43.8207,223.299 L -44.0562,223.566 L -44.3081,223.818 L -44.5752,224.053 L -44.8566,224.272
 L -45.1512,224.472 L -45.4578,224.653 L -45.7751,224.815 L -46.102,224.956 L -46.4371,225.077 L -46.7791,225.176
 L -47.1266,225.254 L -47.4784,225.31 L -47.833,225.343 L -48.189,225.354 z
M 73.8749,229.89 L 73.8749,225.354 L 88.1048,225.354 L 88.1048,229.89 z
M -88.1048,229.89 L -88.1048,225.354 L -73.8749,225.354 L -73.8749,229.89 z
M -0.711945,270.686 L -1.4211,270.619 L -2.12463,270.508 L -2.81978,270.352 L -3.5038,270.154 L -4.174,269.912
 L -4.82773,269.63 L -5.4624,269.306 L -6.0755,268.944 L -6.66464,268.543 L -7.22748,268.107 L -7.76178,267.636
 L -8.26546,267.132 L -8.73651,266.598 L -9.1731,266.035 L -9.57347,265.446 L -9.93607,264.832 L -10.2594,264.198
 L -10.5423,263.544 L -10.7836,262.874 L -10.9823,262.19 L -11.1377,261.495 L -11.2492,260.791 L -11.3162,260.082
 L -11.3386,259.37 L -11.3162,258.658 L -11.2492,257.949 L -11.1377,257.245 L -10.9823,256.55 L -10.7836,255.866
 L -10.5423,255.196 L -10.2594,254.542 L -9.93607,253.908 L -9.57347,253.295 L -9.1731,252.705 L -8.73651,252.143
 L -8.26546,251.608 L -7.76178,251.105 L -7.22748,250.634 L -6.66464,250.197 L -6.0755,249.797 L -5.4624,249.434
 L -4.82773,249.111 L -4.174,248.828 L -3.5038,248.586 L -2.81978,248.388 L -2.12463,248.232 L -1.4211,248.121
 L -0.711945,248.054 L 0,248.031 L 0.711945,248.054 L 1.4211,248.121 L 2.12463,248.232 L 2.81978,248.388
 L 3.5038,248.586 L 4.174,248.828 L 4.82773,249.111 L 5.4624,249.434 L 6.0755,249.797 L 6.66464,250.197
 L 7.22748,250.634 L 7.76178,251.105 L 8.26546,251.608 L 8.73651,252.143 L 9.1731,252.705 L 9.57347,253.295
 L 9.93607,253.908 L 10.2594,254.542 L 10.5423,255.196 L 10.7836,255.866 L 10.9823,256.55 L 11.1377,257.245
 L 11.2492,257.949 L 11.3162,258.658 L 11.3386,259.37 L 11.3162,260.082 L 11.2492,260.791 L 11.1377,261.495
 L 10.9823,262.19 L 10.7836,262.874 L 10.5423,263.544 L 10.2594,264.198 L 9.93607,264.832 L 9.57347,265.446
 L 9.1731,266.035 L 8.73651,266.598 L 8.26546,267.132 L 7.76178,267.636 L 7.22748,268.107 L 6.66464,268.543
 L 6.0755,268.944 L 5.4624,269.306 L 4.82773,269.63 L 4.174,269.912 L 3.5038,270.154 L 2.81978,270.352
 L 2.12463,270.508 L 1.4211,270.619 L 0.711945,270.686 L 0,270.709 z
M 73.8749,293.386 L 73.8749,288.85 L 88.1048,288.85 L 88.1048,293.386 z
M -88.1048,293.386 L -88.1048,288.85 L -73.8749,288.85 L -73.8749,293.386 z
M -48.545,304.713 L -48.8995,304.68 L -49.2513,304.624 L -49.5989,304.546 L -49.9409,304.447 L -50.276,304.326
 L -50.6028,304.185 L -50.9202,304.023 L -51.2267,303.842 L -51.5213,303.642 L -51.8027,303.423 L -52.0699,303.188
 L -52.3217,302.936 L -52.5572,302.669 L -52.7755,302.387 L -52.9757,302.093 L -53.157,301.786 L -53.3187,301.469
 L -53.4601,301.142 L -53.5808,300.807 L -53.6801,300.465 L -53.7578,300.117 L -53.8136,299.766 L -53.8471,299.411
 L -53.8583,299.055 L -53.8471,298.699 L -53.8136,298.345 L -53.7578,297.993 L -53.6801,297.645 L -53.5808,297.303
 L -53.4601,296.968 L -53.3187,296.641 L -53.157,296.324 L -52.9757,296.017 L -52.7755,295.723 L -52.5572,295.441
 L -52.3217,295.174 L -52.0699,294.922 L -51.8027,294.687 L -51.5213,294.469 L -51.2267,294.268 L -50.9202,294.087
 L -50.6028,293.925 L -50.276,293.784 L -49.9409,293.663 L -49.5989,293.564 L -49.2513,293.486 L -48.8995,293.431
 L -48.545,293.397 L -48.189,293.386 L -47.833,293.397 L -47.4784,293.431 L -47.1266,293.486 L -46.7791,293.564
 L -46.4371,293.663 L -46.102,293.784 L -45.7751,293.925 L -45.4578,294.087 L -45.1512,294.268 L -44.8566,294.469
 L -44.5752,294.687 L -44.3081,294.922 L -44.0562,295.174 L -43.8207,295.441 L -43.6024,295.723 L -43.4022,296.017
 L -43.2209,296.324 L -43.0592,296.641 L -42.9178,296.968 L -42.7971,297.303 L -42.6978,297.645 L -42.6201,297.993
 L -42.5644,298.345 L -42.5309,298.699 L -42.5197,299.055 L -42.5309,299.411 L -42.5644,299.766 L -42.6201,300.117
 L -42.6978,300.465 L -42.7971,300.807 L -42.9178,301.142 L -43.0592,301.469 L -43.2209,301.786 L -43.4022,302.093
 L -43.6024,302.387 L -43.8207,302.669 L -44.0562,302.936 L -44.3081,303.188 L -44.5752,303.423 L -44.8566,303.642
 L -45.1512,303.842 L -45.4578,304.023 L -45.7751,304.185 L -46.102,304.326 L -46.4371,304.447 L -46.7791,304.546
 L -47.1266,304.624 L -47.4784,304.68 L -47.833,304.713 L -48.189,304.724 z
M 47.833,304.713 L 47.4784,304.68 L 47.1266,304.624 L 46.7791,304.546 L 46.4371,304.447 L 46.102,304.326
 L 45.7751,304.185 L 45.4578,304.023 L 45.1512,303.842 L 44.8566,303.642 L 44.5752,303.423 L 44.3081,303.188
 L 44.0562,302.936 L 43.8207,302.669 L 43.6024,302.387 L 43.4022,302.093 L 43.2209,301.786 L 43.0592,301.469
 L 42.9178,301.142 L 42.7971,300.807 L 42.6978,300.465 L 42.6201,300.117 L 42.5644,299.766 L 42.5309,299.411
 L 42.5197,299.055 L 42.5309,298.699 L 42.5644,298.345 L 42.6201,297.993 L 42.6978,297.645 L 42.7971,297.303
 L 42.9178,296.968 L 43.0592,296.641 L 43.2209,296.324 L 43.4022,296.017 L 43.6024,295.723 L 43.8207,295.441
 L 44.0562,295.174 L 44.3081,294.922 L 44.5752,294.687 L 44.8566,294.469 L 45.1512,294.268 L 45.4578,294.087
 L 45.7751,293.925 L 46.102,293.784 L 46.4371,293.663 L 46.7791,293.564 L 47.1266,293.486 L 47.4784,293.431
 L 47.833,293.397 L 48.189,293.386 L 48.545,293.397 L 48.8995,293.431 L 49.2513,293.486 L 49.5989,293.564
 L 49.9409,293.663 L 50.276,293.784 L 50.6028,293.925 L 50.9202,294.087 L 51.2267,294.268 L 51.5213,294.469
 L 51.8027,294.687 L 52.0699,294.922 L 52.3217,295.174 L 52.5572,295.441 L 52.7755,295.723 L 52.9757,296.017
 L 53.157,296.324 L 53.3187,296.641 L 53.4601,296.968 L 53.5808,297.303 L 53.6801,297.645 L 53.7578,297.993
 L 53.8136,298.345 L 53.8471,298.699 L 53.8583,299.055 L 53.8471,299.411 L 53.8136,299.766 L 53.7578,300.117
 L 53.6801,300.465 L 53.5808,300.807 L 53.4601,301.142 L 53.3187,301.469 L 53.157,301.786 L 52.9757,302.093
 L 52.7755,302.387 L 52.5572,302.669 L 52.3217,302.936 L 52.0699,303.188 L 51.8027,303.423 L 51.5213,303.642
 L 51.2267,303.842 L 50.9202,304.023 L 50.6028,304.185 L 50.276,304.326 L 49.9409,304.447 L 49.5989,304.546
 L 49.2513,304.624 L 48.8995,304.68 L 48.545,304.713 L 48.189,304.724 z
" stroke="black" fill="lightgray" stroke-width="0.5"/></svg>
