<?xml version="1.0" standalone="no"?>
<!DOCTYPE svg PUBLIC "-//W3C//DTD SVG 1.1//EN" "http://www.w3.org/Graphics/SVG/1.1/DTD/svg11.dtd">
<svg width="2229" height="852" viewBox="-1285 -426 2229 852" xmlns="http://www.w3.org/2000/svg" version="1.1">
<title>OpenSCAD Model</title>
<path d="
M -1284.09,288.328 L -1283.98,291.888 L -1283.65,295.434 L -1283.09,298.951 L -1282.31,302.427 L -1281.32,305.847
 L -1280.11,309.198 L -1278.7,312.467 L -1277.08,315.64 L -1275.27,318.706 L -1273.27,321.651 L -1271.08,324.465
 L -1268.73,327.137 L -1186.03,409.831 L -1183.36,412.187 L -1180.55,414.369 L -1177.6,416.371 L -1174.54,418.184
 L -1171.36,419.801 L -1168.1,421.216 L -1164.74,422.422 L -1161.32,423.416 L -1157.85,424.193 L -1154.33,424.75
 L -1150.79,425.085 L -1147.23,425.197 L -881.575,425.197 L -881.53,423.773 L -881.396,422.355 L -881.173,420.948
 L -880.862,419.557 L -880.465,418.189 L -879.982,416.849 L -879.417,415.541 L -878.77,414.272 L -878.045,413.046
 L -877.244,411.868 L -876.371,410.742 L -875.429,409.673 L -874.421,408.666 L -873.353,407.724 L -872.227,406.851
 L -871.049,406.05 L -869.822,405.325 L -868.553,404.678 L -867.246,404.112 L -865.905,403.63 L -864.537,403.232
 L -863.147,402.921 L -861.74,402.698 L -860.322,402.564 L -858.898,402.52 L -857.474,402.564 L -856.055,402.698
 L -854.648,402.921 L -853.258,403.232 L -851.89,403.63 L -850.55,404.112 L -849.242,404.678 L -847.973,405.325
 L -846.747,406.05 L -845.568,406.851 L -844.443,407.724 L -843.374,408.666 L -842.367,409.673 L -841.425,410.742
 L -840.551,411.868 L -839.751,413.046 L -839.025,414.272 L -838.379,415.541 L -837.813,416.849 L -837.33,418.189
 L -836.933,419.557 L -836.622,420.948 L -836.399,422.355 L -836.265,423.773 L -836.22,425.197 L -570.57,425.197
 L -567.01,425.085 L -563.464,424.75 L -559.946,424.193 L -556.471,423.416 L -553.051,422.422 L -549.7,421.216
 L -546.431,419.801 L -543.258,418.184 L -540.192,416.371 L -537.246,414.369 L -534.432,412.187 L -531.761,409.831
 L -449.066,327.137 L -446.711,324.465 L -444.528,321.651 L -442.526,318.706 L -440.713,315.64 L -439.096,312.467
 L -437.682,309.198 L -436.476,305.847 L -435.482,302.427 L -434.705,298.951 L -434.148,295.434 L -433.813,291.888
 L -433.701,288.328 L -433.701,22.6772 L -435.125,22.6324 L -436.543,22.4983 L -437.95,22.2755 L -439.34,21.9647
 L -440.708,21.5673 L -442.049,21.0847 L -443.356,20.5189 L -444.626,19.8722 L -445.852,19.147 L -447.03,18.3462
 L -448.156,17.4731 L -449.224,16.5309 L -450.232,15.5236 L -451.174,14.455 L -452.047,13.3293 L -452.848,12.151
 L -453.573,10.9248 L -454.22,9.65547 L -454.785,8.34802 L -455.268,7.00763 L -455.666,5.63958 L -455.976,4.24928
 L -456.199,2.8422 L -456.333,1.42391 L -456.378,-0 L -456.333,-1.42391 L -456.199,-2.8422 L -455.976,-4.24928
 L -455.666,-5.63958 L -455.268,-7.00763 L -454.785,-8.34802 L -454.22,-9.65547 L -453.573,-10.9248 L -452.848,-12.151
 L -452.047,-13.3293 L -451.174,-14.455 L -450.232,-15.5236 L -449.224,-16.5309 L -448.156,-17.4731 L -447.03,-18.3462
 L -445.852,-19.147 L -444.626,-19.8722 L -443.356,-20.5189 L -442.049,-21.0847 L -440.708,-21.5673 L -439.34,-21.9647
 L -437.95,-22.2755 L -436.543,-22.4983 L -435.125,-22.6324 L -433.701,-22.6772 L -433.701,-288.328 L -433.813,-291.888
 L -434.148,-295.434 L -434.705,-298.951 L -435.482,-302.427 L -436.476,-305.847 L -437.682,-309.198 L -439.096,-312.467
 L -440.713,-315.64 L -442.526,-318.706 L -444.528,-321.651 L -446.711,-324.465 L -449.066,-327.137 L -531.761,-409.831
 L -534.432,-412.187 L -537.246,-414.369 L -540.192,-416.371 L -543.258,-418.184 L -546.431,-419.801 L -549.7,-421.216
 L -553.051,-422.422 L -556.471,-423.416 L -559.946,-424.193 L -563.464,-424.75 L -567.01,-425.085 L -570.57,-425.197
 L -836.22,-425.197 L -836.265,-423.773 L -836.399,-422.355 L -836.622,-420.948 L -836.933,-419.557 L -837.33,-418.189
 L -837.813,-416.849 L -838.379,-415.541 L -839.025,-414.272 L -839.751,-413.046 L -840.551,-411.868 L -841.425,-410.742
 L -842.367,-409.673 L -843.374,-408.666 L -844.443,-407.724 L -845.568,-406.851 L -846.747,-406.05 L -847.973,-405.325
 L -849.242,-404.678 L -850.55,-404.112 L -851.89,-403.63 L -853.258,-403.232 L -854.648,-402.921 L -856.055,-402.698
 L -857.474,-402.564 L -858.898,-402.52 L -860.322,-402.564 L -861.74,-402.698 L -863.147,-402.921 L -864.537,-403.232
 L -865.905,-403.63 L -867.246,-404.112 L -868.553,-404.678 L -869.822,-405.325 L -871.049,-406.05 L -872.227,-406.851
 L -873.353,-407.724 L -874.421,-408.666 L -875.429,-409.673 L -876.371,-410.742 L -877.244,-411.868 L -878.045,-413.046
 L -878.77,-414.272 L -879.417,-415.541 L -879.982,-416.849 L -880.465,-418.189 L -880.862,-419.557 L -881.173,-420.948
 L -881.396,-422.355 L -881.53,-423.773 L -881.575,-425.197 L -1147.23,-425.197 L -1150.79,-425.085 L -1154.33,-424.75
 L -1157.85,-424.193 L -1161.32,-423.416 L -1164.74,-422.422 L -1168.1,-421.216 L -1171.36,-419.801 L -1174.54,-418.184
 L -1177.6,-416.371 L -1180.55,-414.369 L -1183.36,-412.187 L -1186.03,-409.831 L -1268.73,-327.137 L -1271.08,-324.465
 L -1273.27,-321.651 L -1275.27,-318.706 L -1277.08,-315.64 L -1278.7,-312.467 L -1280.11,-309.198 L -1281.32,-305.847
 L -1282.31,-302.427 L -1283.09,-298.951 L -1283.65,-295.434 L -1283.98,-291.888 L -1284.09,-288.328 L -1284.09,-22.6772
 L -1282.67,-22.6324 L -1281.25,-22.4983 L -1279.85,-22.2755 L -1278.45,-21.9647 L -1277.09,-21.5673 L -1275.75,-21.0847
 L -1274.44,-20.5189 L -1273.17,-19.8722 L -1271.94,-19.147 L -1270.77,-18.3462 L -1269.64,-17.4731 L -1268.57,-16.5309
 L -1267.56,-15.5236 L -1266.62,-14.455 L -1265.75,-13.3293 L -1264.95,-12.151 L -1264.22,-10.9248 L -1263.58,-9.65547
 L -1263.01,-8.34802 L -1262.53,-7.00763 L -1262.13,-5.63958 L -1261.82,-4.24928 L -1261.6,-2.8422 L -1261.46,-1.42391
 L -1261.42,-0 L -1261.46,1.42391 L -1261.6,2.8422 L -1261.82,4.24928 L -1262.13,5.63958 L -1262.53,7.00763
 L -1263.01,8.34802 L -1263.58,9.65547 L -1264.22,10.9248 L -1264.95,12.151 L -1265.75,13.3293 L -1266.62,14.455
 L -1267.56,15.5236 L -1268.57,16.5309 L -1269.64,17.4731 L -1270.77,18.3462 L -1271.94,19.147 L -1273.17,19.8722
 L -1274.44,20.5189 L -1275.75,21.0847 L -1277.09,21.5673 L -1278.45,21.9647 L -1279.85,22.2755 L -1281.25,22.4983
 L -1282.67,22.6324 L -1284.09,22.6772 z
M -1261.42,255.118 L -1261.42,182.227 L -1247.24,182.227 L -1247.24,255.118 z
M -1261.42,109.336 L -1261.42,36.4454 L -1247.24,36.4454 L -1247.24,109.336 z
M -1261.42,-36.4454 L -1261.42,-109.336 L -1247.24,-109.336 L -1247.24,-36.4454 z
M -1261.42,-182.227 L -1261.42,-255.118 L -1247.24,-255.118 L -1247.24,-182.227 z
M -1168.58,283.465 L -1168.57,283.153 L -1168.54,282.843 L -1168.49,282.535 L -1168.43,282.231 L -1168.34,281.932
 L -1168.23,281.638 L -1168.11,281.352 L -1167.97,281.075 L -1167.81,280.807 L -1167.64,280.549 L -1167.44,280.303
 L -1167.24,280.069 L -1167.02,279.848 L -1166.78,279.642 L -1166.54,279.451 L -1166.28,279.276 L -1166.01,279.118
 L -1165.73,278.976 L -1165.45,278.852 L -1165.15,278.747 L -1164.86,278.66 L -1164.55,278.592 L -1164.24,278.543
 L -1163.93,278.514 L -1163.62,278.504 L -1163.31,278.514 L -1163,278.543 L -1162.69,278.592 L -1162.39,278.66
 L -1162.09,278.747 L -1161.8,278.852 L -1161.51,278.976 L -1161.23,279.118 L -1160.96,279.276 L -1160.71,279.451
 L -1160.46,279.642 L -1160.23,279.848 L -1160.01,280.069 L -1159.8,280.303 L -1159.61,280.549 L -1159.43,280.807
 L -1159.28,281.075 L -1159.13,281.352 L -1159.01,281.638 L -1158.9,281.932 L -1158.82,282.231 L -1158.75,282.535
 L -1158.7,282.843 L -1158.67,283.153 L -1158.66,283.465 L -1158.67,283.776 L -1158.7,284.086 L -1158.75,284.394
 L -1158.82,284.698 L -1158.9,284.997 L -1159.01,285.291 L -1159.13,285.577 L -1159.28,285.854 L -1159.43,286.123
 L -1159.61,286.38 L -1159.8,286.627 L -1160.01,286.86 L -1160.23,287.081 L -1160.46,287.287 L -1160.71,287.478
 L -1160.96,287.653 L -1161.23,287.812 L -1161.51,287.953 L -1161.8,288.077 L -1162.09,288.182 L -1162.39,288.269
 L -1162.69,288.337 L -1163,288.386 L -1163.31,288.415 L -1163.62,288.425 L -1163.93,288.415 L -1164.24,288.386
 L -1164.55,288.337 L -1164.86,288.269 L -1165.15,288.182 L -1165.45,288.077 L -1165.73,287.953 L -1166.01,287.812
 L -1166.28,287.653 L -1166.54,287.478 L -1166.78,287.287 L -1167.02,287.081 L -1167.24,286.86 L -1167.44,286.627
 L -1167.64,286.38 L -1167.81,286.123 L -1167.97,285.854 L -1168.11,285.577 L -1168.23,285.291 L -1168.34,284.997
 L -1168.43,284.698 L -1168.49,284.394 L -1168.54,284.086 L -1168.57,283.776 z
M -1114.02,402.52 L -1114.02,388.346 L -1041.12,388.346 L -1041.12,402.52 z
M -1114.02,-388.346 L -1114.02,-402.52 L -1041.12,-402.52 L -1041.12,-388.346 z
M -1057.32,141.732 L -1057.32,-141.732 L -1057.21,-145.292 L -1056.88,-148.838 L -1056.32,-152.355 L -1055.54,-155.831
 L -1054.55,-159.251 L -1053.34,-162.602 L -1051.93,-165.871 L -1050.31,-169.044 L -1048.5,-172.11 L -1046.5,-175.056
 L -1044.31,-177.87 L -1041.96,-180.541 L -1039.44,-183.06 L -1036.77,-185.415 L -1033.95,-187.598 L -1031.01,-189.6
 L -1027.94,-191.413 L -1024.77,-193.03 L -1021.5,-194.444 L -1018.15,-195.65 L -1014.73,-196.644 L -1011.25,-197.421
 L -1007.74,-197.978 L -1004.19,-198.313 L -1000.63,-198.425 L -717.165,-198.425 L -713.606,-198.313 L -710.06,-197.978
 L -706.542,-197.421 L -703.066,-196.644 L -699.646,-195.65 L -696.295,-194.444 L -693.027,-193.03 L -689.853,-191.413
 L -686.788,-189.6 L -683.842,-187.598 L -681.028,-185.415 L -678.356,-183.06 L -675.838,-180.541 L -673.483,-177.87
 L -671.3,-175.056 L -669.298,-172.11 L -667.485,-169.044 L -665.868,-165.871 L -664.454,-162.602 L -663.247,-159.251
 L -662.254,-155.831 L -661.477,-152.355 L -660.919,-148.838 L -660.584,-145.292 L -660.472,-141.732 L -660.472,141.732
 L -660.584,145.292 L -660.919,148.838 L -661.477,152.355 L -662.254,155.831 L -663.247,159.251 L -664.454,162.602
 L -665.868,165.871 L -667.485,169.044 L -669.298,172.11 L -671.3,175.056 L -673.483,177.87 L -675.838,180.541
 L -678.356,183.06 L -681.028,185.415 L -683.842,187.598 L -686.788,189.6 L -689.853,191.413 L -693.027,193.03
 L -696.295,194.444 L -699.646,195.65 L -703.066,196.644 L -706.542,197.421 L -710.06,197.978 L -713.606,198.313
 L -717.165,198.425 L -1000.63,198.425 L -1004.19,198.313 L -1007.74,197.978 L -1011.25,197.421 L -1014.73,196.644
 L -1018.15,195.65 L -1021.5,194.444 L -1024.77,193.03 L -1027.94,191.413 L -1031.01,189.6 L -1033.95,187.598
 L -1036.77,185.415 L -1039.44,183.06 L -1041.96,180.541 L -1044.31,177.87 L -1046.5,175.056 L -1048.5,172.11
 L -1050.31,169.044 L -1051.93,165.871 L -1053.34,162.602 L -1054.55,159.251 L -1055.54,155.831 L -1056.32,152.355
 L -1056.88,148.838 L -1057.21,145.292 z
M -1012.68,283.465 L -1012.67,283.153 L -1012.64,282.843 L -1012.59,282.535 L -1012.52,282.231 L -1012.43,281.932
 L -1012.33,281.638 L -1012.21,281.352 L -1012.06,281.075 L -1011.9,280.807 L -1011.73,280.549 L -1011.54,280.303
 L -1011.33,280.069 L -1011.11,279.848 L -1010.88,279.642 L -1010.63,279.451 L -1010.37,279.276 L -1010.11,279.118
 L -1009.83,278.976 L -1009.54,278.852 L -1009.25,278.747 L -1008.95,278.66 L -1008.65,278.592 L -1008.34,278.543
 L -1008.03,278.514 L -1007.72,278.504 L -1007.41,278.514 L -1007.09,278.543 L -1006.79,278.592 L -1006.48,278.66
 L -1006.18,278.747 L -1005.89,278.852 L -1005.6,278.976 L -1005.33,279.118 L -1005.06,279.276 L -1004.8,279.451
 L -1004.55,279.642 L -1004.32,279.848 L -1004.1,280.069 L -1003.89,280.303 L -1003.7,280.549 L -1003.53,280.807
 L -1003.37,281.075 L -1003.23,281.352 L -1003.1,281.638 L -1003,281.932 L -1002.91,282.231 L -1002.84,282.535
 L -1002.8,282.843 L -1002.77,283.153 L -1002.76,283.465 L -1002.77,283.776 L -1002.8,284.086 L -1002.84,284.394
 L -1002.91,284.698 L -1003,284.997 L -1003.1,285.291 L -1003.23,285.577 L -1003.37,285.854 L -1003.53,286.123
 L -1003.7,286.38 L -1003.89,286.627 L -1004.1,286.86 L -1004.32,287.081 L -1004.55,287.287 L -1004.8,287.478
 L -1005.06,287.653 L -1005.33,287.812 L -1005.6,287.953 L -1005.89,288.077 L -1006.18,288.182 L -1006.48,288.269
 L -1006.79,288.337 L -1007.09,288.386 L -1007.41,288.415 L -1007.72,288.425 L -1008.03,288.415 L -1008.34,288.386
 L -1008.65,288.337 L -1008.95,288.269 L -1009.25,288.182 L -1009.54,288.077 L -1009.83,287.953 L -1010.11,287.812
 L -1010.37,287.653 L -1010.63,287.478 L -1010.88,287.287 L -1011.11,287.081 L -1011.33,286.86 L -1011.54,286.627
 L -1011.73,286.38 L -1011.9,286.123 L -1012.06,285.854 L -1012.21,285.577 L -1012.33,285.291 L -1012.43,284.997
 L -1012.52,284.698 L -1012.59,284.394 L -1012.64,284.086 L -1012.67,283.776 z
M -968.234,402.52 L -968.234,388.346 L -895.343,388.346 L -895.343,402.52 z
M -968.234,-388.346 L -968.234,-402.52 L -895.343,-402.52 L -895.343,-388.346 z
M -822.452,402.52 L -822.452,388.346 L -749.561,388.346 L -749.561,402.52 z
M -822.452,-388.346 L -822.452,-402.52 L -749.561,-402.52 L -749.561,-388.346 z
M -676.67,402.52 L -676.67,388.346 L -603.78,388.346 L -603.78,402.52 z
M -676.67,-388.346 L -676.67,-402.52 L -603.78,-402.52 L -603.78,-388.346 z
M -470.551,255.118 L -470.551,182.227 L -456.378,182.227 L -456.378,255.118 z
M -470.551,109.336 L -470.551,36.4454 L -456.378,36.4454 L -456.378,109.336 z
M -470.551,-36.4454 L -470.551,-109.336 L -456.378,-109.336 L -456.378,-36.4454 z
M -470.551,-182.227 L -470.551,-255.118 L -456.378,-255.118 L -456.378,-182.227 z
M -425.197,288.328 L -425.085,291.888 L -424.75,295.434 L -424.193,298.951 L -423.416,302.427 L -422.422,305.847
 L -421.216,309.198 L -419.801,312.467 L -418.184,315.64 L -416.371,318.706 L -414.369,321.651 L -412.187,324.465
 L -409.831,327.137 L -327.137,409.831 L -324.465,412.187 L -321.651,414.369 L -318.706,416.371 L -315.64,418.184
 L -312.467,419.801 L -309.198,421.216 L -305.847,422.422 L -302.427,423.416 L -298.951,424.193 L -295.434,424.75
 L -291.888,425.085 L -288.328,425.197 L -22.6772,425.197 L -22.6324,423.773 L -22.4983,422.355 L -22.2755,420.948
 L -21.9647,419.557 L -21.5673,418.189 L -21.0847,416.849 L -20.5189,415.541 L -19.8722,414.272 L -19.147,413.046
 L -18.3462,411.868 L -17.4731,410.742 L -16.5309,409.673 L -15.5236,408.666 L -14.455,407.724 L -13.3293,406.851
 L -12.151,406.05 L -10.9248,405.325 L -9.65547,404.678 L -8.34802,404.112 L -7.00763,403.63 L -5.63958,403.232
 L -4.24928,402.921 L -2.8422,402.698 L -1.42391,402.564 L 0,402.52 L 1.42391,402.564 L 2.8422,402.698
 L 4.24928,402.921 L 5.63958,403.232 L 7.00763,403.63 L 8.34802,404.112 L 9.65547,404.678 L 10.9248,405.325
 L 12.151,406.05 L 13.3293,406.851 L 14.455,407.724 L 15.5236,408.666 L 16.5309,409.673 L 17.4731,410.742
 L 18.3462,411.868 L 19.147,413.046 L 19.8722,414.272 L 20.5189,415.541 L 21.0847,416.849 L 21.5673,418.189
 L 21.9647,419.557 L 22.2755,420.948 L 22.4983,422.355 L 22.6324,423.773 L 22.6772,425.197 L 288.328,425.197
 L 291.888,425.085 L 295.434,424.75 L 298.951,424.193 L 302.427,423.416 L 305.847,422.422 L 309.198,421.216
 L 312.467,419.801 L 315.64,418.184 L 318.706,416.371 L 321.651,414.369 L 324.465,412.187 L 327.137,409.831
 L 409.831,327.137 L 412.187,324.465 L 414.369,321.651 L 416.371,318.706 L 418.184,315.64 L 419.801,312.467
 L 421.216,309.198 L 422.422,305.847 L 423.416,302.427 L 424.193,298.951 L 424.75,295.434 L 425.085,291.888
 L 425.197,288.328 L 425.197,22.6772 L 423.773,22.6324 L 422.355,22.4983 L 420.948,22.2755 L 419.557,21.9647
 L 418.189,21.5673 L 416.849,21.0847 L 415.541,20.5189 L 414.272,19.8722 L 413.046,19.147 L 411.868,18.3462
 L 410.742,17.4731 L 409.673,16.5309 L 408.666,15.5236 L 407.724,14.455 L 406.851,13.3293 L 406.05,12.151
 L 405.325,10.9248 L 404.678,9.65547 L 404.112,8.34802 L 403.63,7.00763 L 403.232,5.63958 L 402.921,4.24928
 L 402.698,2.8422 L 402.564,1.42391 L 402.52,-0 L 402.564,-1.42391 L 402.698,-2.8422 L 402.921,-4.24928
 L 403.232,-5.63958 L 403.63,-7.00763 L 404.112,-8.34802 L 404.678,-9.65547 L 405.325,-10.9248 L 406.05,-12.151
 L 406.851,-13.3293 L 407.724,-14.455 L 408.666,-15.5236 L 409.673,-16.5309 L 410.742,-17.4731 L 411.868,-18.3462
 L 413.046,-19.147 L 414.272,-19.8722 L 415.541,-20.5189 L 416.849,-21.0847 L 418.189,-21.5673 L 419.557,-21.9647
 L 420.948,-22.2755 L 422.355,-22.4983 L 423.773,-22.6324 L 425.197,-22.6772 L 425.197,-288.328 L 425.085,-291.888
 L 424.75,-295.434 L 424.193,-298.951 L 423.416,-302.427 L 422.422,-305.847 L 421.216,-309.198 L 419.801,-312.467
 L 418.184,-315.64 L 416.371,-318.706 L 414.369,-321.651 L 412.187,-324.465 L 409.831,-327.137 L 327.137,-409.831
 L 324.465,-412.187 L 321.651,-414.369 L 318.706,-416.371 L 315.64,-418.184 L 312.467,-419.801 L 309.198,-421.216
 L 305.847,-422.422 L 302.427,-423.416 L 298.951,-424.193 L 295.434,-424.75 L 291.888,-425.085 L 288.328,-425.197
 L 22.6772,-425.197 L 22.6324,-423.773 L 22.4983,-422.355 L 22.2755,-420.948 L 21.9647,-419.557 L 21.5673,-418.189
 L 21.0847,-416.849 L 20.5189,-415.541 L 19.8722,-414.272 L 19.147,-413.046 L 18.3462,-411.868 L 17.4731,-410.742
 L 16.5309,-409.673 L 15.5236,-408.666 L 14.455,-407.724 L 13.3293,-406.851 L 12.151,-406.05 L 10.9248,-405.325
 L 9.65547,-404.678 L 8.34802,-404.112 L 7.00763,-403.63 L 5.63958,-403.232 L 4.24928,-402.921 L 2.8422,-402.698
 L 1.42391,-402.564 L 0,-402.52 L -1.42391,-402.564 L -2.8422,-402.698 L -4.24928,-402.921 L -5.63958,-403.232
 L -7.00763,-403.63 L -8.34802,-404.112 L -9.65547,-404.678 L -10.9248,-405.325 L -12.151,-406.05 L -13.3293,-406.851
 L -14.455,-407.724 L -15.5236,-408.666 L -16.5309,-409.673 L -17.4731,-410.742 L -18.3462,-411.868 L -19.147,-413.046
 L -19.8722,-414.272 L -20.5189,-415.541 L -21.0847,-416.849 L -21.5673,-418.189 L -21.9647,-419.557 L -22.2755,-420.948
 L -22.4983,-422.355 L -22.6324,-423.773 L -22.6772,-425.197 L -288.328,-425.197 L -291.888,-425.085 L -295.434,-424.75
 L -298.951,-424.193 L -302.427,-423.416 L -305.847,-422.422 L -309.198,-421.216 L -312.467,-419.801 L -315.64,-418.184
 L -318.706,-416.371 L -321.651,-414.369 L -324.465,-412.187 L -327.137,-409.831 L -409.831,-327.137 L -412.187,-324.465
 L -414.369,-321.651 L -416.371,-318.706 L -418.184,-315.64 L -419.801,-312.467 L -421.216,-309.198 L -422.422,-305.847
 L -423.416,-302.427 L -424.193,-298.951 L -424.75,-295.434 L -425.085,-291.888 L -425.197,-288.328 L -425.197,-22.6772
 L -423.773,-22.6324 L -422.355,-22.4983 L -420.948,-22.2755 L -419.557,-21.9647 L -418.189,-21.5673 L -416.849,-21.0847
 L -415.541,-20.5189 L -414.272,-19.8722 L -413.046,-19.147 L -411.868,-18.3462 L -410.742,-17.4731 L -409.673,-16.5309
 L -408.666,-15.5236 L -407.724,-14.455 L -406.851,-13.3293 L -406.05,-12.151 L -405.325,-10.9248 L -404.678,-9.65547
 L -404.112,-8.34802 L -403.63,-7.00763 L -403.232,-5.63958 L -402.921,-4.24928 L -402.698,-2.8422 L -402.564,-1.42391
 L -402.52,-0 L -402.564,1.42391 L -402.698,2.8422 L -402.921,4.24928 L -403.232,5.63958 L -403.63,7.00763
 L -404.112,8.34802 L -404.678,9.65547 L -405.325,10.9248 L -406.05,12.151 L -406.851,13.3293 L -407.724,14.455
 L -408.666,15.5236 L -409.673,16.5309 L -410.742,17.4731 L -411.868,18.3462 L -413.046,19.147 L -414.272,19.8722
 L -415.541,20.5189 L -416.849,21.0847 L -418.189,21.5673 L -419.557,21.9647 L -420.948,22.2755 L -422.355,22.4983
 L -423.773,22.6324 L -425.197,22.6772 z
M -402.52,255.118 L -402.52,182.227 L -388.346,182.227 L -388.346,255.118 z
M -402.52,109.336 L -402.52,36.4454 L -388.346,36.4454 L -388.346,109.336 z
M -402.52,-36.4454 L -402.52,-109.336 L -388.346,-109.336 L -388.346,-36.4454 z
M -402.52,-182.227 L -402.52,-255.118 L -388.346,-255.118 L -388.346,-182.227 z
M -310.394,311.811 L -310.383,311.455 L -310.349,311.1 L -310.293,310.749 L -310.216,310.401 L -310.116,310.059
 L -309.996,309.724 L -309.854,309.397 L -309.692,309.08 L -309.511,308.773 L -309.311,308.479 L -309.093,308.197
 L -308.857,307.93 L -308.605,307.678 L -308.338,307.443 L -308.057,307.224 L -307.762,307.024 L -307.456,306.843
 L -307.138,306.681 L -306.811,306.54 L -306.476,306.419 L -306.134,306.32 L -305.787,306.242 L -305.435,306.186
 L -305.08,306.153 L -304.724,306.142 L -304.368,306.153 L -304.014,306.186 L -303.662,306.242 L -303.315,306.32
 L -302.973,306.419 L -302.637,306.54 L -302.311,306.681 L -301.993,306.843 L -301.687,307.024 L -301.392,307.224
 L -301.111,307.443 L -300.844,307.678 L -300.592,307.93 L -300.356,308.197 L -300.138,308.479 L -299.938,308.773
 L -299.756,309.08 L -299.595,309.397 L -299.453,309.724 L -299.333,310.059 L -299.233,310.401 L -299.156,310.749
 L -299.1,311.1 L -299.066,311.455 L -299.055,311.811 L -299.066,312.167 L -299.1,312.522 L -299.156,312.873
 L -299.233,313.221 L -299.333,313.563 L -299.453,313.898 L -299.595,314.225 L -299.756,314.542 L -299.938,314.849
 L -300.138,315.143 L -300.356,315.425 L -300.592,315.692 L -300.844,315.944 L -301.111,316.179 L -301.392,316.398
 L -301.687,316.598 L -301.993,316.779 L -302.311,316.941 L -302.637,317.082 L -302.973,317.203 L -303.315,317.302
 L -303.662,317.38 L -304.014,317.436 L -304.368,317.469 L -304.724,317.48 L -305.08,317.469 L -305.435,317.436
 L -305.787,317.38 L -306.134,317.302 L -306.476,317.203 L -306.811,317.082 L -307.138,316.941 L -307.456,316.779
 L -307.762,316.598 L -308.057,316.398 L -308.338,316.179 L -308.605,315.944 L -308.857,315.692 L -309.093,315.425
 L -309.311,315.143 L -309.511,314.849 L -309.692,314.542 L -309.854,314.225 L -309.996,313.898 L -310.116,313.563
 L -310.216,313.221 L -310.293,312.873 L -310.349,312.522 L -310.383,312.167 z
M -310.394,141.732 L -310.383,141.376 L -310.349,141.022 L -310.293,140.67 L -310.216,140.322 L -310.116,139.98
 L -309.996,139.645 L -309.854,139.318 L -309.692,139.001 L -309.511,138.695 L -309.311,138.4 L -309.093,138.119
 L -308.857,137.851 L -308.605,137.6 L -308.338,137.364 L -308.057,137.146 L -307.762,136.946 L -307.456,136.764
 L -307.138,136.603 L -306.811,136.461 L -306.476,136.34 L -306.134,136.241 L -305.787,136.163 L -305.435,136.108
 L -305.08,136.074 L -304.724,136.063 L -304.368,136.074 L -304.014,136.108 L -303.662,136.163 L -303.315,136.241
 L -302.973,136.34 L -302.637,136.461 L -302.311,136.603 L -301.993,136.764 L -301.687,136.946 L -301.392,137.146
 L -301.111,137.364 L -300.844,137.6 L -300.592,137.851 L -300.356,138.119 L -300.138,138.4 L -299.938,138.695
 L -299.756,139.001 L -299.595,139.318 L -299.453,139.645 L -299.333,139.98 L -299.233,140.322 L -299.156,140.67
 L -299.1,141.022 L -299.066,141.376 L -299.055,141.732 L -299.066,142.088 L -299.1,142.443 L -299.156,142.795
 L -299.233,143.142 L -299.333,143.484 L -299.453,143.819 L -299.595,144.146 L -299.756,144.463 L -299.938,144.77
 L -300.138,145.065 L -300.356,145.346 L -300.592,145.613 L -300.844,145.865 L -301.111,146.101 L -301.392,146.319
 L -301.687,146.519 L -301.993,146.7 L -302.311,146.862 L -302.637,147.003 L -302.973,147.124 L -303.315,147.223
 L -303.662,147.301 L -304.014,147.357 L -304.368,147.39 L -304.724,147.402 L -305.08,147.39 L -305.435,147.357
 L -305.787,147.301 L -306.134,147.223 L -306.476,147.124 L -306.811,147.003 L -307.138,146.862 L -307.456,146.7
 L -307.762,146.519 L -308.057,146.319 L -308.338,146.101 L -308.605,145.865 L -308.857,145.613 L -309.093,145.346
 L -309.311,145.065 L -309.511,144.77 L -309.692,144.463 L -309.854,144.146 L -309.996,143.819 L -310.116,143.484
 L -310.216,143.142 L -310.293,142.795 L -310.349,142.443 L -310.383,142.088 z
M -255.118,402.52 L -255.118,388.346 L -182.227,388.346 L -182.227,402.52 z
M -255.118,-388.346 L -255.118,-402.52 L -182.227,-402.52 L -182.227,-388.346 z
M -154.488,311.811 L -154.477,311.455 L -154.443,311.1 L -154.388,310.749 L -154.31,310.401 L -154.211,310.059
 L -154.09,309.724 L -153.949,309.397 L -153.787,309.08 L -153.606,308.773 L -153.405,308.479 L -153.187,308.197
 L -152.952,307.93 L -152.7,307.678 L -152.433,307.443 L -152.151,307.224 L -151.857,307.024 L -151.55,306.843
 L -151.233,306.681 L -150.906,306.54 L -150.571,306.419 L -150.229,306.32 L -149.881,306.242 L -149.529,306.186
 L -149.175,306.153 L -148.819,306.142 L -148.463,306.153 L -148.108,306.186 L -147.757,306.242 L -147.409,306.32
 L -147.067,306.419 L -146.732,306.54 L -146.405,306.681 L -146.088,306.843 L -145.781,307.024 L -145.487,307.224
 L -145.205,307.443 L -144.938,307.678 L -144.686,307.93 L -144.451,308.197 L -144.232,308.479 L -144.032,308.773
 L -143.851,309.08 L -143.689,309.397 L -143.548,309.724 L -143.427,310.059 L -143.328,310.401 L -143.25,310.749
 L -143.194,311.1 L -143.161,311.455 L -143.15,311.811 L -143.161,312.167 L -143.194,312.522 L -143.25,312.873
 L -143.328,313.221 L -143.427,313.563 L -143.548,313.898 L -143.689,314.225 L -143.851,314.542 L -144.032,314.849
 L -144.232,315.143 L -144.451,315.425 L -144.686,315.692 L -144.938,315.944 L -145.205,316.179 L -145.487,316.398
 L -145.781,316.598 L -146.088,316.779 L -146.405,316.941 L -146.732,317.082 L -147.067,317.203 L -147.409,317.302
 L -147.757,317.38 L -148.108,317.436 L -148.463,317.469 L -148.819,317.48 L -149.175,317.469 L -149.529,317.436
 L -149.881,317.38 L -150.229,317.302 L -150.571,317.203 L -150.906,317.082 L -151.233,316.941 L -151.55,316.779
 L -151.857,316.598 L -152.151,316.398 L -152.433,316.179 L -152.7,315.944 L -152.952,315.692 L -153.187,315.425
 L -153.405,315.143 L -153.606,314.849 L -153.787,314.542 L -153.949,314.225 L -154.09,313.898 L -154.211,313.563
 L -154.31,313.221 L -154.388,312.873 L -154.443,312.522 L -154.477,312.167 z
M -154.488,141.732 L -154.477,141.376 L -154.443,141.022 L -154.388,140.67 L -154.31,140.322 L -154.211,139.98
 L -154.09,139.645 L -153.949,139.318 L -153.787,139.001 L -153.606,138.695 L -153.405,138.4 L -153.187,138.119
 L -152.952,137.851 L -152.7,137.6 L -152.433,137.364 L -152.151,137.146 L -151.857,136.946 L -151.55,136.764
 L -151.233,136.603 L -150.906,136.461 L -150.571,136.34 L -150.229,136.241 L -149.881,136.163 L -149.529,136.108
 L -149.175,136.074 L -148.819,136.063 L -148.463,136.074 L -148.108,136.108 L -147.757,136.163 L -147.409,136.241
 L -147.067,136.34 L -146.732,136.461 L -146.405,136.603 L -146.088,136.764 L -145.781,136.946 L -145.487,137.146
 L -145.205,137.364 L -144.938,137.6 L -144.686,137.851 L -144.451,138.119 L -144.232,138.4 L -144.032,138.695
 L -143.851,139.001 L -143.689,139.318 L -143.548,139.645 L -143.427,139.98 L -143.328,140.322 L -143.25,140.67
 L -143.194,141.022 L -143.161,141.376 L -143.15,141.732 L -143.161,142.088 L -143.194,142.443 L -143.25,142.795
 L -143.328,143.142 L -143.427,143.484 L -143.548,143.819 L -143.689,144.146 L -143.851,144.463 L -144.032,144.77
 L -144.232,145.065 L -144.451,145.346 L -144.686,145.613 L -144.938,145.865 L -145.205,146.101 L -145.487,146.319
 L -145.781,146.519 L -146.088,146.7 L -146.405,146.862 L -146.732,147.003 L -147.067,147.124 L -147.409,147.223
 L -147.757,147.301 L -148.108,147.357 L -148.463,147.39 L -148.819,147.402 L -149.175,147.39 L -149.529,147.357
 L -149.881,147.301 L -150.229,147.223 L -150.571,147.124 L -150.906,147.003 L -151.233,146.862 L -151.55,146.7
 L -151.857,146.519 L -152.151,146.319 L -152.433,146.101 L -152.7,145.865 L -152.952,145.613 L -153.187,145.346
 L -153.405,145.065 L -153.606,144.77 L -153.787,144.463 L -153.949,144.146 L -154.09,143.819 L -154.211,143.484
 L -154.31,143.142 L -154.388,142.795 L -154.443,142.443 L -154.477,142.088 z
M -114.094,276.378 L -114.079,275.888 L -114.033,275.401 L -113.956,274.917 L -113.85,274.439 L -113.713,273.969
 L -113.547,273.508 L -113.353,273.059 L -113.13,272.623 L -112.881,272.201 L -112.606,271.796 L -112.306,271.409
 L -111.982,271.042 L -111.635,270.695 L -111.268,270.372 L -110.881,270.071 L -110.476,269.796 L -110.055,269.547
 L -109.618,269.325 L -109.169,269.13 L -108.708,268.964 L -108.238,268.828 L -107.76,268.721 L -107.276,268.644
 L -106.789,268.598 L -106.299,268.583 L -105.81,268.598 L -105.322,268.644 L -104.839,268.721 L -104.361,268.828
 L -103.89,268.964 L -103.43,269.13 L -102.98,269.325 L -102.544,269.547 L -102.122,269.796 L -101.717,270.071
 L -101.33,270.372 L -100.963,270.695 L -100.617,271.042 L -100.293,271.409 L -99.9927,271.796 L -99.7174,272.201
 L -99.4682,272.623 L -99.2458,273.059 L -99.0514,273.508 L -98.8855,273.969 L -98.7488,274.439 L -98.642,274.917
 L -98.5654,275.401 L -98.5193,275.888 L -98.5039,276.378 L -98.5193,276.867 L -98.5654,277.355 L -98.642,277.839
 L -98.7488,278.317 L -98.8855,278.787 L -99.0514,279.248 L -99.2458,279.697 L -99.4682,280.133 L -99.7174,280.555
 L -99.9927,280.96 L -100.293,281.347 L -100.617,281.714 L -100.963,282.06 L -101.33,282.384 L -101.717,282.684
 L -102.122,282.96 L -102.544,283.209 L -102.98,283.431 L -103.43,283.626 L -103.89,283.792 L -104.361,283.928
 L -104.839,284.035 L -105.322,284.112 L -105.81,284.158 L -106.299,284.173 L -106.789,284.158 L -107.276,284.112
 L -107.76,284.035 L -108.238,283.928 L -108.708,283.792 L -109.169,283.626 L -109.618,283.431 L -110.055,283.209
 L -110.476,282.96 L -110.881,282.684 L -111.268,282.384 L -111.635,282.06 L -111.982,281.714 L -112.306,281.347
 L -112.606,280.96 L -112.881,280.555 L -113.13,280.133 L -113.353,279.697 L -113.547,279.248 L -113.713,278.787
 L -113.85,278.317 L -113.956,277.839 L -114.033,277.355 L -114.079,276.867 z
M -114.094,256.535 L -114.079,256.046 L -114.033,255.558 L -113.956,255.075 L -113.85,254.597 L -113.713,254.127
 L -113.547,253.666 L -113.353,253.216 L -113.13,252.78 L -112.881,252.359 L -112.606,251.953 L -112.306,251.567
 L -111.982,251.199 L -111.635,250.853 L -111.268,250.529 L -110.881,250.229 L -110.476,249.954 L -110.055,249.704
 L -109.618,249.482 L -109.169,249.288 L -108.708,249.122 L -108.238,248.985 L -107.76,248.878 L -107.276,248.802
 L -106.789,248.756 L -106.299,248.74 L -105.81,248.756 L -105.322,248.802 L -104.839,248.878 L -104.361,248.985
 L -103.89,249.122 L -103.43,249.288 L -102.98,249.482 L -102.544,249.704 L -102.122,249.954 L -101.717,250.229
 L -101.33,250.529 L -100.963,250.853 L -100.617,251.199 L -100.293,251.567 L -99.9927,251.953 L -99.7174,252.359
 L -99.4682,252.78 L -99.2458,253.216 L -99.0514,253.666 L -98.8855,254.127 L -98.7488,254.597 L -98.642,255.075
 L -98.5654,255.558 L -98.5193,256.046 L -98.5039,256.535 L -98.5193,257.025 L -98.5654,257.512 L -98.642,257.996
 L -98.7488,258.474 L -98.8855,258.944 L -99.0514,259.405 L -99.2458,259.854 L -99.4682,260.291 L -99.7174,260.712
 L -99.9927,261.117 L -100.293,261.504 L -100.617,261.872 L -100.963,262.218 L -101.33,262.542 L -101.717,262.842
 L -102.122,263.117 L -102.544,263.366 L -102.98,263.589 L -103.43,263.783 L -103.89,263.949 L -104.361,264.086
 L -104.839,264.193 L -105.322,264.269 L -105.81,264.315 L -106.299,264.331 L -106.789,264.315 L -107.276,264.269
 L -107.76,264.193 L -108.238,264.086 L -108.708,263.949 L -109.169,263.783 L -109.618,263.589 L -110.055,263.366
 L -110.476,263.117 L -110.881,262.842 L -111.268,262.542 L -111.635,262.218 L -111.982,261.872 L -112.306,261.504
 L -112.606,261.117 L -112.881,260.712 L -113.13,260.291 L -113.353,259.854 L -113.547,259.405 L -113.713,258.944
 L -113.85,258.474 L -113.956,257.996 L -114.033,257.512 L -114.079,257.025 z
M -114.094,236.693 L -114.079,236.203 L -114.033,235.716 L -113.956,235.232 L -113.85,234.754 L -113.713,234.284
 L -113.547,233.823 L -113.353,233.374 L -113.13,232.938 L -112.881,232.516 L -112.606,232.111 L -112.306,231.724
 L -111.982,231.357 L -111.635,231.01 L -111.268,230.687 L -110.881,230.386 L -110.476,230.111 L -110.055,229.862
 L -109.618,229.64 L -109.169,229.445 L -108.708,229.279 L -108.238,229.143 L -107.76,229.036 L -107.276,228.959
 L -106.789,228.913 L -106.299,228.898 L -105.81,228.913 L -105.322,228.959 L -104.839,229.036 L -104.361,229.143
 L -103.89,229.279 L -103.43,229.445 L -102.98,229.64 L -102.544,229.862 L -102.122,230.111 L -101.717,230.386
 L -101.33,230.687 L -100.963,231.01 L -100.617,231.357 L -100.293,231.724 L -99.9927,232.111 L -99.7174,232.516
 L -99.4682,232.938 L -99.2458,233.374 L -99.0514,233.823 L -98.8855,234.284 L -98.7488,234.754 L -98.642,235.232
 L -98.5654,235.716 L -98.5193,236.203 L -98.5039,236.693 L -98.5193,237.182 L -98.5654,237.67 L -98.642,238.154
 L -98.7488,238.632 L -98.8855,239.102 L -99.0514,239.563 L -99.2458,240.012 L -99.4682,240.448 L -99.7174,240.87
 L -99.9927,241.275 L -100.293,241.662 L -100.617,242.029 L -100.963,242.375 L -101.33,242.699 L -101.717,242.999
 L -102.122,243.275 L -102.544,243.524 L -102.98,243.746 L -103.43,243.941 L -103.89,244.107 L -104.361,244.243
 L -104.839,244.35 L -105.322,244.427 L -105.81,244.473 L -106.299,244.488 L -106.789,244.473 L -107.276,244.427
 L -107.76,244.35 L -108.238,244.243 L -108.708,244.107 L -109.169,243.941 L -109.618,243.746 L -110.055,243.524
 L -110.476,243.275 L -110.881,242.999 L -111.268,242.699 L -111.635,242.375 L -111.982,242.029 L -112.306,241.662
 L -112.606,241.275 L -112.881,240.87 L -113.13,240.448 L -113.353,240.012 L -113.547,239.563 L -113.713,239.102
 L -113.85,238.632 L -113.956,238.154 L -114.033,237.67 L -114.079,237.182 z
M -114.094,216.85 L -114.079,216.361 L -114.033,215.873 L -113.956,215.39 L -113.85,214.912 L -113.713,214.442
 L -113.547,213.981 L -113.353,213.531 L -113.13,213.095 L -112.881,212.673 L -112.606,212.268 L -112.306,211.881
 L -111.982,211.514 L -111.635,211.168 L -111.268,210.844 L -110.881,210.544 L -110.476,210.269 L -110.055,210.019
 L -109.618,209.797 L -109.169,209.603 L -108.708,209.437 L -108.238,209.3 L -107.76,209.193 L -107.276,209.117
 L -106.789,209.071 L -106.299,209.055 L -105.81,209.071 L -105.322,209.117 L -104.839,209.193 L -104.361,209.3
 L -103.89,209.437 L -103.43,209.603 L -102.98,209.797 L -102.544,210.019 L -102.122,210.269 L -101.717,210.544
 L -101.33,210.844 L -100.963,211.168 L -100.617,211.514 L -100.293,211.881 L -99.9927,212.268 L -99.7174,212.673
 L -99.4682,213.095 L -99.2458,213.531 L -99.0514,213.981 L -98.8855,214.442 L -98.7488,214.912 L -98.642,215.39
 L -98.5654,215.873 L -98.5193,216.361 L -98.5039,216.85 L -98.5193,217.34 L -98.5654,217.827 L -98.642,218.311
 L -98.7488,218.789 L -98.8855,219.259 L -99.0514,219.72 L -99.2458,220.169 L -99.4682,220.606 L -99.7174,221.027
 L -99.9927,221.432 L -100.293,221.819 L -100.617,222.187 L -100.963,222.533 L -101.33,222.857 L -101.717,223.157
 L -102.122,223.432 L -102.544,223.681 L -102.98,223.904 L -103.43,224.098 L -103.89,224.264 L -104.361,224.401
 L -104.839,224.508 L -105.322,224.584 L -105.81,224.63 L -106.299,224.646 L -106.789,224.63 L -107.276,224.584
 L -107.76,224.508 L -108.238,224.401 L -108.708,224.264 L -109.169,224.098 L -109.618,223.904 L -110.055,223.681
 L -110.476,223.432 L -110.881,223.157 L -111.268,222.857 L -111.635,222.533 L -111.982,222.187 L -112.306,221.819
 L -112.606,221.432 L -112.881,221.027 L -113.13,220.606 L -113.353,220.169 L -113.547,219.72 L -113.713,219.259
 L -113.85,218.789 L -113.956,218.311 L -114.033,217.827 L -114.079,217.34 z
M -114.094,175.748 L -114.079,175.259 L -114.033,174.771 L -113.956,174.287 L -113.85,173.809 L -113.713,173.339
 L -113.547,172.878 L -113.353,172.429 L -113.13,171.993 L -112.881,171.571 L -112.606,171.166 L -112.306,170.779
 L -111.982,170.412 L -111.635,170.066 L -111.268,169.742 L -110.881,169.442 L -110.476,169.166 L -110.055,168.917
 L -109.618,168.695 L -109.169,168.5 L -108.708,168.334 L -108.238,168.198 L -107.76,168.091 L -107.276,168.014
 L -106.789,167.968 L -106.299,167.953 L -105.81,167.968 L -105.322,168.014 L -104.839,168.091 L -104.361,168.198
 L -103.89,168.334 L -103.43,168.5 L -102.98,168.695 L -102.544,168.917 L -102.122,169.166 L -101.717,169.442
 L -101.33,169.742 L -100.963,170.066 L -100.617,170.412 L -100.293,170.779 L -99.9927,171.166 L -99.7174,171.571
 L -99.4682,171.993 L -99.2458,172.429 L -99.0514,172.878 L -98.8855,173.339 L -98.7488,173.809 L -98.642,174.287
 L -98.5654,174.771 L -98.5193,175.259 L -98.5039,175.748 L -98.5193,176.238 L -98.5654,176.725 L -98.642,177.209
 L -98.7488,177.687 L -98.8855,178.157 L -99.0514,178.618 L -99.2458,179.067 L -99.4682,179.503 L -99.7174,179.925
 L -99.9927,180.33 L -100.293,180.717 L -100.617,181.084 L -100.963,181.431 L -101.33,181.754 L -101.717,182.055
 L -102.122,182.33 L -102.544,182.579 L -102.98,182.801 L -103.43,182.996 L -103.89,183.162 L -104.361,183.298
 L -104.839,183.405 L -105.322,183.482 L -105.81,183.528 L -106.299,183.543 L -106.789,183.528 L -107.276,183.482
 L -107.76,183.405 L -108.238,183.298 L -108.708,183.162 L -109.169,182.996 L -109.618,182.801 L -110.055,182.579
 L -110.476,182.33 L -110.881,182.055 L -111.268,181.754 L -111.635,181.431 L -111.982,181.084 L -112.306,180.717
 L -112.606,180.33 L -112.881,179.925 L -113.13,179.503 L -113.353,179.067 L -113.547,178.618 L -113.713,178.157
 L -113.85,177.687 L -113.956,177.209 L -114.033,176.725 L -114.079,176.238 z
M -109.336,402.52 L -109.336,388.346 L -36.4454,388.346 L -36.4454,402.52 z
M -109.336,-388.346 L -109.336,-402.52 L -36.4454,-402.52 L -36.4454,-388.346 z
M 36.4454,402.52 L 36.4454,388.346 L 109.336,388.346 L 109.336,402.52 z
M 36.4454,-388.346 L 36.4454,-402.52 L 109.336,-402.52 L 109.336,-388.346 z
M 182.227,402.52 L 182.227,388.346 L 255.118,388.346 L 255.118,402.52 z
M 182.227,-388.346 L 182.227,-402.52 L 255.118,-402.52 L 255.118,-388.346 z
M 388.346,255.118 L 388.346,182.227 L 402.52,182.227 L 402.52,255.118 z
M 388.346,109.336 L 388.346,36.4454 L 402.52,36.4454 L 402.52,109.336 z
M 388.346,-36.4454 L 388.346,-109.336 L 402.52,-109.336 L 402.52,-36.4454 z
M 388.346,-182.227 L 388.346,-255.118 L 402.52,-255.118 L 402.52,-182.227 z
M 433.701,167.244 L 506.592,167.244 L 506.592,153.071 L 579.483,153.071 L 579.483,167.244 L 652.373,167.244
 L 652.373,153.071 L 725.264,153.071 L 725.264,167.244 L 798.155,167.244 L 798.155,153.071 L 871.046,153.071
 L 871.046,167.244 L 943.937,167.244 L 943.937,25.5118 L 871.046,25.5118 L 871.046,39.685 L 798.155,39.685
 L 798.155,25.5118 L 725.264,25.5118 L 725.264,39.685 L 652.373,39.685 L 652.373,25.5118 L 579.483,25.5118
 L 579.483,39.685 L 506.592,39.685 L 506.592,25.5118 L 433.701,25.5118 z
M 634.961,136.063 L 634.972,135.707 L 635.005,135.352 L 635.061,135.001 L 635.139,134.653 L 635.238,134.311
 L 635.359,133.976 L 635.5,133.649 L 635.662,133.332 L 635.843,133.025 L 636.043,132.731 L 636.262,132.449
 L 636.497,132.182 L 636.749,131.93 L 637.016,131.695 L 637.298,131.476 L 637.592,131.276 L 637.899,131.095
 L 638.216,130.933 L 638.543,130.792 L 638.878,130.671 L 639.22,130.572 L 639.568,130.494 L 639.919,130.438
 L 640.274,130.405 L 640.63,130.394 L 640.986,130.405 L 641.34,130.438 L 641.692,130.494 L 642.04,130.572
 L 642.382,130.671 L 642.717,130.792 L 643.044,130.933 L 643.361,131.095 L 643.668,131.276 L 643.962,131.476
 L 644.244,131.695 L 644.511,131.93 L 644.763,132.182 L 644.998,132.449 L 645.216,132.731 L 645.417,133.025
 L 645.598,133.332 L 645.76,133.649 L 645.901,133.976 L 646.022,134.311 L 646.121,134.653 L 646.199,135.001
 L 646.255,135.352 L 646.288,135.707 L 646.299,136.063 L 646.288,136.419 L 646.255,136.774 L 646.199,137.125
 L 646.121,137.473 L 646.022,137.815 L 645.901,138.15 L 645.76,138.477 L 645.598,138.794 L 645.417,139.101
 L 645.216,139.395 L 644.998,139.677 L 644.763,139.944 L 644.511,140.196 L 644.244,140.431 L 643.962,140.65
 L 643.668,140.85 L 643.361,141.031 L 643.044,141.193 L 642.717,141.334 L 642.382,141.455 L 642.04,141.554
 L 641.692,141.632 L 641.34,141.688 L 640.986,141.721 L 640.63,141.732 L 640.274,141.721 L 639.919,141.688
 L 639.568,141.632 L 639.22,141.554 L 638.878,141.455 L 638.543,141.334 L 638.216,141.193 L 637.899,141.031
 L 637.592,140.85 L 637.298,140.65 L 637.016,140.431 L 636.749,140.196 L 636.497,139.944 L 636.262,139.677
 L 636.043,139.395 L 635.843,139.101 L 635.662,138.794 L 635.5,138.477 L 635.359,138.15 L 635.238,137.815
 L 635.139,137.473 L 635.061,137.125 L 635.005,136.774 L 634.972,136.419 z
M 634.961,56.6929 L 634.972,56.3369 L 635.005,55.9824 L 635.061,55.6306 L 635.139,55.283 L 635.238,54.941
 L 635.359,54.6059 L 635.5,54.279 L 635.662,53.9617 L 635.843,53.6552 L 636.043,53.3606 L 636.262,53.0792
 L 636.497,52.812 L 636.749,52.5602 L 637.016,52.3247 L 637.298,52.1064 L 637.592,51.9062 L 637.899,51.7249
 L 638.216,51.5632 L 638.543,51.4217 L 638.878,51.3011 L 639.22,51.2017 L 639.568,51.124 L 639.919,51.0683
 L 640.274,51.0348 L 640.63,51.0236 L 640.986,51.0348 L 641.34,51.0683 L 641.692,51.124 L 642.04,51.2017
 L 642.382,51.3011 L 642.717,51.4217 L 643.044,51.5632 L 643.361,51.7249 L 643.668,51.9062 L 643.962,52.1064
 L 644.244,52.3247 L 644.511,52.5602 L 644.763,52.812 L 644.998,53.0792 L 645.216,53.3606 L 645.417,53.6552
 L 645.598,53.9617 L 645.76,54.279 L 645.901,54.6059 L 646.022,54.941 L 646.121,55.283 L 646.199,55.6306
 L 646.255,55.9824 L 646.288,56.3369 L 646.299,56.6929 L 646.288,57.0489 L 646.255,57.4035 L 646.199,57.7552
 L 646.121,58.1028 L 646.022,58.4448 L 645.901,58.7799 L 645.76,59.1068 L 645.598,59.4241 L 645.417,59.7307
 L 645.216,60.0252 L 644.998,60.3067 L 644.763,60.5738 L 644.511,60.8257 L 644.244,61.0612 L 643.962,61.2795
 L 643.668,61.4797 L 643.361,61.661 L 643.044,61.8226 L 642.717,61.9641 L 642.382,62.0847 L 642.04,62.1841
 L 641.692,62.2618 L 641.34,62.3175 L 640.986,62.351 L 640.63,62.3622 L 640.274,62.351 L 639.919,62.3175
 L 639.568,62.2618 L 639.22,62.1841 L 638.878,62.0847 L 638.543,61.9641 L 638.216,61.8226 L 637.899,61.661
 L 637.592,61.4797 L 637.298,61.2795 L 637.016,61.0612 L 636.749,60.8257 L 636.497,60.5738 L 636.262,60.3067
 L 636.043,60.0252 L 635.843,59.7307 L 635.662,59.4241 L 635.5,59.1068 L 635.359,58.7799 L 635.238,58.4448
 L 635.139,58.1028 L 635.061,57.7552 L 635.005,57.4035 L 634.972,57.0489 z
M 677.48,96.378 L 677.503,95.666 L 677.57,94.9569 L 677.681,94.2533 L 677.837,93.5582 L 678.035,92.8741
 L 678.277,92.2039 L 678.559,91.5502 L 678.883,90.9155 L 679.245,90.3024 L 679.646,89.7133 L 680.082,89.1505
 L 680.553,88.6162 L 681.057,88.1125 L 681.591,87.6414 L 682.154,87.2048 L 682.743,86.8045 L 683.356,86.4419
 L 683.991,86.1185 L 684.645,85.8356 L 685.315,85.5943 L 685.999,85.3956 L 686.694,85.2402 L 687.398,85.1288
 L 688.107,85.0617 L 688.819,85.0394 L 689.531,85.0617 L 690.24,85.1288 L 690.944,85.2402 L 691.639,85.3956
 L 692.323,85.5943 L 692.993,85.8356 L 693.647,86.1185 L 694.281,86.4419 L 694.894,86.8045 L 695.484,87.2048
 L 696.046,87.6414 L 696.581,88.1125 L 697.084,88.6162 L 697.555,89.1505 L 697.992,89.7133 L 698.392,90.3024
 L 698.755,90.9155 L 699.078,91.5502 L 699.361,92.2039 L 699.603,92.8741 L 699.801,93.5582 L 699.957,94.2533
 L 700.068,94.9569 L 700.135,95.666 L 700.157,96.378 L 700.135,97.0899 L 700.068,97.7991 L 699.957,98.5026
 L 699.801,99.1977 L 699.603,99.8818 L 699.361,100.552 L 699.078,101.206 L 698.755,101.84 L 698.392,102.453
 L 697.992,103.043 L 697.555,103.605 L 697.084,104.14 L 696.581,104.643 L 696.046,105.114 L 695.484,105.551
 L 694.894,105.951 L 694.281,106.314 L 693.647,106.637 L 692.993,106.92 L 692.323,107.162 L 691.639,107.36
 L 690.944,107.516 L 690.24,107.627 L 689.531,107.694 L 688.819,107.717 L 688.107,107.694 L 687.398,107.627
 L 686.694,107.516 L 685.999,107.36 L 685.315,107.162 L 684.645,106.92 L 683.991,106.637 L 683.356,106.314
 L 682.743,105.951 L 682.154,105.551 L 681.591,105.114 L 681.057,104.643 L 680.553,104.14 L 680.082,103.605
 L 679.646,103.043 L 679.245,102.453 L 678.883,101.84 L 678.559,101.206 L 678.277,100.552 L 678.035,99.8818
 L 677.837,99.1977 L 677.681,98.5026 L 677.57,97.7991 L 677.503,97.0899 z
M 731.339,136.063 L 731.35,135.707 L 731.383,135.352 L 731.439,135.001 L 731.517,134.653 L 731.616,134.311
 L 731.737,133.976 L 731.878,133.649 L 732.04,133.332 L 732.221,133.025 L 732.421,132.731 L 732.64,132.449
 L 732.875,132.182 L 733.127,131.93 L 733.394,131.695 L 733.676,131.476 L 733.97,131.276 L 734.277,131.095
 L 734.594,130.933 L 734.921,130.792 L 735.256,130.671 L 735.598,130.572 L 735.946,130.494 L 736.297,130.438
 L 736.652,130.405 L 737.008,130.394 L 737.364,130.405 L 737.718,130.438 L 738.07,130.494 L 738.418,130.572
 L 738.76,130.671 L 739.095,130.792 L 739.422,130.933 L 739.739,131.095 L 740.046,131.276 L 740.34,131.476
 L 740.622,131.695 L 740.889,131.93 L 741.141,132.182 L 741.376,132.449 L 741.594,132.731 L 741.795,133.025
 L 741.976,133.332 L 742.138,133.649 L 742.279,133.976 L 742.4,134.311 L 742.499,134.653 L 742.577,135.001
 L 742.632,135.352 L 742.666,135.707 L 742.677,136.063 L 742.666,136.419 L 742.632,136.774 L 742.577,137.125
 L 742.499,137.473 L 742.4,137.815 L 742.279,138.15 L 742.138,138.477 L 741.976,138.794 L 741.795,139.101
 L 741.594,139.395 L 741.376,139.677 L 741.141,139.944 L 740.889,140.196 L 740.622,140.431 L 740.34,140.65
 L 740.046,140.85 L 739.739,141.031 L 739.422,141.193 L 739.095,141.334 L 738.76,141.455 L 738.418,141.554
 L 738.07,141.632 L 737.718,141.688 L 737.364,141.721 L 737.008,141.732 L 736.652,141.721 L 736.297,141.688
 L 735.946,141.632 L 735.598,141.554 L 735.256,141.455 L 734.921,141.334 L 734.594,141.193 L 734.277,141.031
 L 733.97,140.85 L 733.676,140.65 L 733.394,140.431 L 733.127,140.196 L 732.875,139.944 L 732.64,139.677
 L 732.421,139.395 L 732.221,139.101 L 732.04,138.794 L 731.878,138.477 L 731.737,138.15 L 731.616,137.815
 L 731.517,137.473 L 731.439,137.125 L 731.383,136.774 L 731.35,136.419 z
M 731.339,56.6929 L 731.35,56.3369 L 731.383,55.9824 L 731.439,55.6306 L 731.517,55.283 L 731.616,54.941
 L 731.737,54.6059 L 731.878,54.279 L 732.04,53.9617 L 732.221,53.6552 L 732.421,53.3606 L 732.64,53.0792
 L 732.875,52.812 L 733.127,52.5602 L 733.394,52.3247 L 733.676,52.1064 L 733.97,51.9062 L 734.277,51.7249
 L 734.594,51.5632 L 734.921,51.4217 L 735.256,51.3011 L 735.598,51.2017 L 735.946,51.124 L 736.297,51.0683
 L 736.652,51.0348 L 737.008,51.0236 L 737.364,51.0348 L 737.718,51.0683 L 738.07,51.124 L 738.418,51.2017
 L 738.76,51.3011 L 739.095,51.4217 L 739.422,51.5632 L 739.739,51.7249 L 740.046,51.9062 L 740.34,52.1064
 L 740.622,52.3247 L 740.889,52.5602 L 741.141,52.812 L 741.376,53.0792 L 741.594,53.3606 L 741.795,53.6552
 L 741.976,53.9617 L 742.138,54.279 L 742.279,54.6059 L 742.4,54.941 L 742.499,55.283 L 742.577,55.6306
 L 742.632,55.9824 L 742.666,56.3369 L 742.677,56.6929 L 742.666,57.0489 L 742.632,57.4035 L 742.577,57.7552
 L 742.499,58.1028 L 742.4,58.4448 L 742.279,58.7799 L 742.138,59.1068 L 741.976,59.4241 L 741.795,59.7307
 L 741.594,60.0252 L 741.376,60.3067 L 741.141,60.5738 L 740.889,60.8257 L 740.622,61.0612 L 740.34,61.2795
 L 740.046,61.4797 L 739.739,61.661 L 739.422,61.8226 L 739.095,61.9641 L 738.76,62.0847 L 738.418,62.1841
 L 738.07,62.2618 L 737.718,62.3175 L 737.364,62.351 L 737.008,62.3622 L 736.652,62.351 L 736.297,62.3175
 L 735.946,62.2618 L 735.598,62.1841 L 735.256,62.0847 L 734.921,61.9641 L 734.594,61.8226 L 734.277,61.661
 L 733.97,61.4797 L 733.676,61.2795 L 733.394,61.0612 L 733.127,60.8257 L 732.875,60.5738 L 732.64,60.3067
 L 732.421,60.0252 L 732.221,59.7307 L 732.04,59.4241 L 731.878,59.1068 L 731.737,58.7799 L 731.616,58.4448
 L 731.517,58.1028 L 731.439,57.7552 L 731.383,57.4035 L 731.35,57.0489 z
M 433.701,17.0079 L 506.592,17.0079 L 506.592,2.83465 L 579.483,2.83465 L 579.483,17.0079 L 652.373,17.0079
 L 652.373,2.83465 L 725.264,2.83465 L 725.264,17.0079 L 798.155,17.0079 L 798.155,2.83465 L 871.046,2.83465
 L 871.046,17.0079 L 943.937,17.0079 L 943.937,-124.724 L 871.046,-124.724 L 871.046,-110.551 L 798.155,-110.551
 L 798.155,-124.724 L 725.264,-124.724 L 725.264,-110.551 L 652.373,-110.551 L 652.373,-124.724 L 579.483,-124.724
 L 579.483,-110.551 L 506.592,-110.551 L 506.592,-124.724 L 433.701,-124.724 z
M 634.961,-14.1732 L 634.972,-14.5292 L 635.005,-14.8838 L 635.061,-15.2356 L 635.139,-15.5831 L 635.238,-15.9251
 L 635.359,-16.2602 L 635.5,-16.5871 L 635.662,-16.9044 L 635.843,-17.211 L 636.043,-17.5056 L 636.262,-17.787
 L 636.497,-18.0541 L 636.749,-18.306 L 637.016,-18.5415 L 637.298,-18.7598 L 637.592,-18.96 L 637.899,-19.1413
 L 638.216,-19.303 L 638.543,-19.4444 L 638.878,-19.565 L 639.22,-19.6644 L 639.568,-19.7421 L 639.919,-19.7978
 L 640.274,-19.8313 L 640.63,-19.8425 L 640.986,-19.8313 L 641.34,-19.7978 L 641.692,-19.7421 L 642.04,-19.6644
 L 642.382,-19.565 L 642.717,-19.4444 L 643.044,-19.303 L 643.361,-19.1413 L 643.668,-18.96 L 643.962,-18.7598
 L 644.244,-18.5415 L 644.511,-18.306 L 644.763,-18.0541 L 644.998,-17.787 L 645.216,-17.5056 L 645.417,-17.211
 L 645.598,-16.9044 L 645.76,-16.5871 L 645.901,-16.2602 L 646.022,-15.9251 L 646.121,-15.5831 L 646.199,-15.2356
 L 646.255,-14.8838 L 646.288,-14.5292 L 646.299,-14.1732 L 646.288,-13.8173 L 646.255,-13.4627 L 646.199,-13.1109
 L 646.121,-12.7633 L 646.022,-12.4213 L 645.901,-12.0862 L 645.76,-11.7594 L 645.598,-11.442 L 645.417,-11.1355
 L 645.216,-10.8409 L 644.998,-10.5595 L 644.763,-10.2923 L 644.511,-10.0405 L 644.244,-9.80497 L 643.962,-9.58668
 L 643.668,-9.38649 L 643.361,-9.20519 L 643.044,-9.0435 L 642.717,-8.90206 L 642.382,-8.78141 L 642.04,-8.68205
 L 641.692,-8.60436 L 641.34,-8.54864 L 640.986,-8.51513 L 640.63,-8.50394 L 640.274,-8.51513 L 639.919,-8.54864
 L 639.568,-8.60436 L 639.22,-8.68205 L 638.878,-8.78141 L 638.543,-8.90206 L 638.216,-9.0435 L 637.899,-9.20519
 L 637.592,-9.38649 L 637.298,-9.58668 L 637.016,-9.80497 L 636.749,-10.0405 L 636.497,-10.2923 L 636.262,-10.5595
 L 636.043,-10.8409 L 635.843,-11.1355 L 635.662,-11.442 L 635.5,-11.7594 L 635.359,-12.0862 L 635.238,-12.4213
 L 635.139,-12.7633 L 635.061,-13.1109 L 635.005,-13.4627 L 634.972,-13.8173 z
M 634.961,-93.5433 L 634.972,-93.8993 L 635.005,-94.2539 L 635.061,-94.6056 L 635.139,-94.9532 L 635.238,-95.2952
 L 635.359,-95.6303 L 635.5,-95.9572 L 635.662,-96.2745 L 635.843,-96.5811 L 636.043,-96.8756 L 636.262,-97.157
 L 636.497,-97.4242 L 636.749,-97.676 L 637.016,-97.9116 L 637.298,-98.1299 L 637.592,-98.33 L 637.899,-98.5113
 L 638.216,-98.673 L 638.543,-98.8145 L 638.878,-98.9351 L 639.22,-99.0345 L 639.568,-99.1122 L 639.919,-99.1679
 L 640.274,-99.2014 L 640.63,-99.2126 L 640.986,-99.2014 L 641.34,-99.1679 L 641.692,-99.1122 L 642.04,-99.0345
 L 642.382,-98.9351 L 642.717,-98.8145 L 643.044,-98.673 L 643.361,-98.5113 L 643.668,-98.33 L 643.962,-98.1299
 L 644.244,-97.9116 L 644.511,-97.676 L 644.763,-97.4242 L 644.998,-97.157 L 645.216,-96.8756 L 645.417,-96.5811
 L 645.598,-96.2745 L 645.76,-95.9572 L 645.901,-95.6303 L 646.022,-95.2952 L 646.121,-94.9532 L 646.199,-94.6056
 L 646.255,-94.2539 L 646.288,-93.8993 L 646.299,-93.5433 L 646.288,-93.1873 L 646.255,-92.8328 L 646.199,-92.481
 L 646.121,-92.1334 L 646.022,-91.7914 L 645.901,-91.4563 L 645.76,-91.1294 L 645.598,-90.8121 L 645.417,-90.5055
 L 645.216,-90.211 L 644.998,-89.9296 L 644.763,-89.6624 L 644.511,-89.4106 L 644.244,-89.175 L 643.962,-88.9568
 L 643.668,-88.7566 L 643.361,-88.5753 L 643.044,-88.4136 L 642.717,-88.2721 L 642.382,-88.1515 L 642.04,-88.0521
 L 641.692,-87.9744 L 641.34,-87.9187 L 640.986,-87.8852 L 640.63,-87.874 L 640.274,-87.8852 L 639.919,-87.9187
 L 639.568,-87.9744 L 639.22,-88.0521 L 638.878,-88.1515 L 638.543,-88.2721 L 638.216,-88.4136 L 637.899,-88.5753
 L 637.592,-88.7566 L 637.298,-88.9568 L 637.016,-89.175 L 636.749,-89.4106 L 636.497,-89.6624 L 636.262,-89.9296
 L 636.043,-90.211 L 635.843,-90.5055 L 635.662,-90.8121 L 635.5,-91.1294 L 635.359,-91.4563 L 635.238,-91.7914
 L 635.139,-92.1334 L 635.061,-92.481 L 635.005,-92.8328 L 634.972,-93.1873 z
M 677.48,-53.8583 L 677.503,-54.5702 L 677.57,-55.2794 L 677.681,-55.9829 L 677.837,-56.6781 L 678.035,-57.3621
 L 678.277,-58.0323 L 678.559,-58.686 L 678.883,-59.3207 L 679.245,-59.9338 L 679.646,-60.5229 L 680.082,-61.0857
 L 680.553,-61.6201 L 681.057,-62.1237 L 681.591,-62.5948 L 682.154,-63.0314 L 682.743,-63.4317 L 683.356,-63.7943
 L 683.991,-64.1177 L 684.645,-64.4006 L 685.315,-64.6419 L 685.999,-64.8406 L 686.694,-64.996 L 687.398,-65.1074
 L 688.107,-65.1745 L 688.819,-65.1969 L 689.531,-65.1745 L 690.24,-65.1074 L 690.944,-64.996 L 691.639,-64.8406
 L 692.323,-64.6419 L 692.993,-64.4006 L 693.647,-64.1177 L 694.281,-63.7943 L 694.894,-63.4317 L 695.484,-63.0314
 L 696.046,-62.5948 L 696.581,-62.1237 L 697.084,-61.6201 L 697.555,-61.0857 L 697.992,-60.5229 L 698.392,-59.9338
 L 698.755,-59.3207 L 699.078,-58.686 L 699.361,-58.0323 L 699.603,-57.3621 L 699.801,-56.6781 L 699.957,-55.9829
 L 700.068,-55.2794 L 700.135,-54.5702 L 700.157,-53.8583 L 700.135,-53.1463 L 700.068,-52.4372 L 699.957,-51.7336
 L 699.801,-51.0385 L 699.603,-50.3545 L 699.361,-49.6843 L 699.078,-49.0305 L 698.755,-48.3959 L 698.392,-47.7828
 L 697.992,-47.1936 L 697.555,-46.6308 L 697.084,-46.0965 L 696.581,-45.5928 L 696.046,-45.1217 L 695.484,-44.6852
 L 694.894,-44.2848 L 694.281,-43.9222 L 693.647,-43.5988 L 692.993,-43.3159 L 692.323,-43.0746 L 691.639,-42.8759
 L 690.944,-42.7205 L 690.24,-42.6091 L 689.531,-42.5421 L 688.819,-42.5197 L 688.107,-42.5421 L 687.398,-42.6091
 L 686.694,-42.7205 L 685.999,-42.8759 L 685.315,-43.0746 L 684.645,-43.3159 L 683.991,-43.5988 L 683.356,-43.9222
 L 682.743,-44.2848 L 682.154,-44.6852 L 681.591,-45.1217 L 681.057,-45.5928 L 680.553,-46.0965 L 680.082,-46.6308
 L 679.646,-47.1936 L 679.245,-47.7828 L 678.883,-48.3959 L 678.559,-49.0305 L 678.277,-49.6843 L 678.035,-50.3545
 L 677.837,-51.0385 L 677.681,-51.7336 L 677.57,-52.4372 L 677.503,-53.1463 z
M 731.339,-14.1732 L 731.35,-14.5292 L 731.383,-14.8838 L 731.439,-15.2356 L 731.517,-15.5831 L 731.616,-15.9251
 L 731.737,-16.2602 L 731.878,-16.5871 L 732.04,-16.9044 L 732.221,-17.211 L 732.421,-17.5056 L 732.64,-17.787
 L 732.875,-18.0541 L 733.127,-18.306 L 733.394,-18.5415 L 733.676,-18.7598 L 733.97,-18.96 L 734.277,-19.1413
 L 734.594,-19.303 L 734.921,-19.4444 L 735.256,-19.565 L 735.598,-19.6644 L 735.946,-19.7421 L 736.297,-19.7978
 L 736.652,-19.8313 L 737.008,-19.8425 L 737.364,-19.8313 L 737.718,-19.7978 L 738.07,-19.7421 L 738.418,-19.6644
 L 738.76,-19.565 L 739.095,-19.4444 L 739.422,-19.303 L 739.739,-19.1413 L 740.046,-18.96 L 740.34,-18.7598
 L 740.622,-18.5415 L 740.889,-18.306 L 741.141,-18.0541 L 741.376,-17.787 L 741.594,-17.5056 L 741.795,-17.211
 L 741.976,-16.9044 L 742.138,-16.5871 L 742.279,-16.2602 L 742.4,-15.9251 L 742.499,-15.5831 L 742.577,-15.2356
 L 742.632,-14.8838 L 742.666,-14.5292 L 742.677,-14.1732 L 742.666,-13.8173 L 742.632,-13.4627 L 742.577,-13.1109
 L 742.499,-12.7633 L 742.4,-12.4213 L 742.279,-12.0862 L 742.138,-11.7594 L 741.976,-11.442 L 741.795,-11.1355
 L 741.594,-10.8409 L 741.376,-10.5595 L 741.141,-10.2923 L 740.889,-10.0405 L 740.622,-9.80497 L 740.34,-9.58668
 L 740.046,-9.38649 L 739.739,-9.20519 L 739.422,-9.0435 L 739.095,-8.90206 L 738.76,-8.78141 L 738.418,-8.68205
 L 738.07,-8.60436 L 737.718,-8.54864 L 737.364,-8.51513 L 737.008,-8.50394 L 736.652,-8.51513 L 736.297,-8.54864
 L 735.946,-8.60436 L 735.598,-8.68205 L 735.256,-8.78141 L 734.921,-8.90206 L 734.594,-9.0435 L 734.277,-9.20519
 L 733.97,-9.38649 L 733.676,-9.58668 L 733.394,-9.80497 L 733.127,-10.0405 L 732.875,-10.2923 L 732.64,-10.5595
 L 732.421,-10.8409 L 732.221,-11.1355 L 732.04,-11.442 L 731.878,-11.7594 L 731.737,-12.0862 L 731.616,-12.4213
 L 731.517,-12.7633 L 731.439,-13.1109 L 731.383,-13.4627 L 731.35,-13.8173 z
M 731.339,-93.5433 L 731.35,-93.8993 L 731.383,-94.2539 L 731.439,-94.6056 L 731.517,-94.9532 L 731.616,-95.2952
 L 731.737,-95.6303 L 731.878,-95.9572 L 732.04,-96.2745 L 732.221,-96.5811 L 732.421,-96.8756 L 732.64,-97.157
 L 732.875,-97.4242 L 733.127,-97.676 L 733.394,-97.9116 L 733.676,-98.1299 L 733.97,-98.33 L 734.277,-98.5113
 L 734.594,-98.673 L 734.921,-98.8145 L 735.256,-98.9351 L 735.598,-99.0345 L 735.946,-99.1122 L 736.297,-99.1679
 L 736.652,-99.2014 L 737.008,-99.2126 L 737.364,-99.2014 L 737.718,-99.1679 L 738.07,-99.1122 L 738.418,-99.0345
 L 738.76,-98.9351 L 739.095,-98.8145 L 739.422,-98.673 L 739.739,-98.5113 L 740.046,-98.33 L 740.34,-98.1299
 L 740.622,-97.9116 L 740.889,-97.676 L 741.141,-97.4242 L 741.376,-97.157 L 741.594,-96.8756 L 741.795,-96.5811
 L 741.976,-96.2745 L 742.138,-95.9572 L 742.279,-95.6303 L 742.4,-95.2952 L 742.499,-94.9532 L 742.577,-94.6056
 L 742.632,-94.2539 L 742.666,-93.8993 L 742.677,-93.5433 L 742.666,-93.1873 L 742.632,-92.8328 L 742.577,-92.481
 L 742.499,-92.1334 L 742.4,-91.7914 L 742.279,-91.4563 L 742.138,-91.1294 L 741.976,-90.8121 L 741.795,-90.5055
 L 741.594,-90.211 L 741.376,-89.9296 L 741.141,-89.6624 L 740.889,-89.4106 L 740.622,-89.175 L 740.34,-88.9568
 L 740.046,-88.7566 L 739.739,-88.5753 L 739.422,-88.4136 L 739.095,-88.2721 L 738.76,-88.1515 L 738.418,-88.0521
 L 738.07,-87.9744 L 737.718,-87.9187 L 737.364,-87.8852 L 737.008,-87.874 L 736.652,-87.8852 L 736.297,-87.9187
 L 735.946,-87.9744 L 735.598,-88.0521 L 735.256,-88.1515 L 734.921,-88.2721 L 734.594,-88.4136 L 734.277,-88.5753
 L 733.97,-88.7566 L 733.676,-88.9568 L 733.394,-89.175 L 733.127,-89.4106 L 732.875,-89.6624 L 732.64,-89.9296
 L 732.421,-90.211 L 732.221,-90.5055 L 732.04,-90.8121 L 731.878,-91.1294 L 731.737,-91.4563 L 731.616,-91.7914
 L 731.517,-92.1334 L 731.439,-92.481 L 731.383,-92.8328 L 731.35,-93.1873 z
M 433.701,-133.228 L 506.592,-133.228 L 506.592,-147.402 L 579.483,-147.402 L 579.483,-133.228 L 652.373,-133.228
 L 652.373,-147.402 L 725.264,-147.402 L 725.264,-133.228 L 798.155,-133.228 L 798.155,-147.402 L 871.046,-147.402
 L 871.046,-133.228 L 943.937,-133.228 L 943.937,-274.961 L 871.046,-274.961 L 871.046,-260.787 L 798.155,-260.787
 L 798.155,-274.961 L 725.264,-274.961 L 725.264,-260.787 L 652.373,-260.787 L 652.373,-274.961 L 579.483,-274.961
 L 579.483,-260.787 L 506.592,-260.787 L 506.592,-274.961 L 433.701,-274.961 z
M 634.961,-164.409 L 634.972,-164.765 L 635.005,-165.12 L 635.061,-165.472 L 635.139,-165.819 L 635.238,-166.161
 L 635.359,-166.496 L 635.5,-166.823 L 635.662,-167.141 L 635.843,-167.447 L 636.043,-167.742 L 636.262,-168.023
 L 636.497,-168.29 L 636.749,-168.542 L 637.016,-168.778 L 637.298,-168.996 L 637.592,-169.196 L 637.899,-169.377
 L 638.216,-169.539 L 638.543,-169.681 L 638.878,-169.801 L 639.22,-169.901 L 639.568,-169.978 L 639.919,-170.034
 L 640.274,-170.068 L 640.63,-170.079 L 640.986,-170.068 L 641.34,-170.034 L 641.692,-169.978 L 642.04,-169.901
 L 642.382,-169.801 L 642.717,-169.681 L 643.044,-169.539 L 643.361,-169.377 L 643.668,-169.196 L 643.962,-168.996
 L 644.244,-168.778 L 644.511,-168.542 L 644.763,-168.29 L 644.998,-168.023 L 645.216,-167.742 L 645.417,-167.447
 L 645.598,-167.141 L 645.76,-166.823 L 645.901,-166.496 L 646.022,-166.161 L 646.121,-165.819 L 646.199,-165.472
 L 646.255,-165.12 L 646.288,-164.765 L 646.299,-164.409 L 646.288,-164.053 L 646.255,-163.699 L 646.199,-163.347
 L 646.121,-163 L 646.022,-162.658 L 645.901,-162.322 L 645.76,-161.996 L 645.598,-161.678 L 645.417,-161.372
 L 645.216,-161.077 L 644.998,-160.796 L 644.763,-160.529 L 644.511,-160.277 L 644.244,-160.041 L 643.962,-159.823
 L 643.668,-159.623 L 643.361,-159.441 L 643.044,-159.28 L 642.717,-159.138 L 642.382,-159.018 L 642.04,-158.918
 L 641.692,-158.841 L 641.34,-158.785 L 640.986,-158.751 L 640.63,-158.74 L 640.274,-158.751 L 639.919,-158.785
 L 639.568,-158.841 L 639.22,-158.918 L 638.878,-159.018 L 638.543,-159.138 L 638.216,-159.28 L 637.899,-159.441
 L 637.592,-159.623 L 637.298,-159.823 L 637.016,-160.041 L 636.749,-160.277 L 636.497,-160.529 L 636.262,-160.796
 L 636.043,-161.077 L 635.843,-161.372 L 635.662,-161.678 L 635.5,-161.996 L 635.359,-162.322 L 635.238,-162.658
 L 635.139,-163 L 635.061,-163.347 L 635.005,-163.699 L 634.972,-164.053 z
M 634.961,-243.78 L 634.972,-244.136 L 635.005,-244.49 L 635.061,-244.842 L 635.139,-245.189 L 635.238,-245.531
 L 635.359,-245.867 L 635.5,-246.193 L 635.662,-246.511 L 635.843,-246.817 L 636.043,-247.112 L 636.262,-247.393
 L 636.497,-247.66 L 636.749,-247.912 L 637.016,-248.148 L 637.298,-248.366 L 637.592,-248.566 L 637.899,-248.748
 L 638.216,-248.909 L 638.543,-249.051 L 638.878,-249.171 L 639.22,-249.271 L 639.568,-249.348 L 639.919,-249.404
 L 640.274,-249.438 L 640.63,-249.449 L 640.986,-249.438 L 641.34,-249.404 L 641.692,-249.348 L 642.04,-249.271
 L 642.382,-249.171 L 642.717,-249.051 L 643.044,-248.909 L 643.361,-248.748 L 643.668,-248.566 L 643.962,-248.366
 L 644.244,-248.148 L 644.511,-247.912 L 644.763,-247.66 L 644.998,-247.393 L 645.216,-247.112 L 645.417,-246.817
 L 645.598,-246.511 L 645.76,-246.193 L 645.901,-245.867 L 646.022,-245.531 L 646.121,-245.189 L 646.199,-244.842
 L 646.255,-244.49 L 646.288,-244.136 L 646.299,-243.78 L 646.288,-243.424 L 646.255,-243.069 L 646.199,-242.717
 L 646.121,-242.37 L 646.022,-242.028 L 645.901,-241.693 L 645.76,-241.366 L 645.598,-241.048 L 645.417,-240.742
 L 645.216,-240.447 L 644.998,-240.166 L 644.763,-239.899 L 644.511,-239.647 L 644.244,-239.411 L 643.962,-239.193
 L 643.668,-238.993 L 643.361,-238.811 L 643.044,-238.65 L 642.717,-238.508 L 642.382,-238.388 L 642.04,-238.288
 L 641.692,-238.211 L 641.34,-238.155 L 640.986,-238.121 L 640.63,-238.11 L 640.274,-238.121 L 639.919,-238.155
 L 639.568,-238.211 L 639.22,-238.288 L 638.878,-238.388 L 638.543,-238.508 L 638.216,-238.65 L 637.899,-238.811
 L 637.592,-238.993 L 637.298,-239.193 L 637.016,-239.411 L 636.749,-239.647 L 636.497,-239.899 L 636.262,-240.166
 L 636.043,-240.447 L 635.843,-240.742 L 635.662,-241.048 L 635.5,-241.366 L 635.359,-241.693 L 635.238,-242.028
 L 635.139,-242.37 L 635.061,-242.717 L 635.005,-243.069 L 634.972,-243.424 z
M 677.48,-204.094 L 677.503,-204.806 L 677.57,-205.516 L 677.681,-206.219 L 677.837,-206.914 L 678.035,-207.598
 L 678.277,-208.268 L 678.559,-208.922 L 678.883,-209.557 L 679.245,-210.17 L 679.646,-210.759 L 680.082,-211.322
 L 680.553,-211.856 L 681.057,-212.36 L 681.591,-212.831 L 682.154,-213.268 L 682.743,-213.668 L 683.356,-214.031
 L 683.991,-214.354 L 684.645,-214.637 L 685.315,-214.878 L 685.999,-215.077 L 686.694,-215.232 L 687.398,-215.344
 L 688.107,-215.411 L 688.819,-215.433 L 689.531,-215.411 L 690.24,-215.344 L 690.944,-215.232 L 691.639,-215.077
 L 692.323,-214.878 L 692.993,-214.637 L 693.647,-214.354 L 694.281,-214.031 L 694.894,-213.668 L 695.484,-213.268
 L 696.046,-212.831 L 696.581,-212.36 L 697.084,-211.856 L 697.555,-211.322 L 697.992,-210.759 L 698.392,-210.17
 L 698.755,-209.557 L 699.078,-208.922 L 699.361,-208.268 L 699.603,-207.598 L 699.801,-206.914 L 699.957,-206.219
 L 700.068,-205.516 L 700.135,-204.806 L 700.157,-204.094 L 700.135,-203.383 L 700.068,-202.673 L 699.957,-201.97
 L 699.801,-201.275 L 699.603,-200.591 L 699.361,-199.92 L 699.078,-199.267 L 698.755,-198.632 L 698.392,-198.019
 L 697.992,-197.43 L 697.555,-196.867 L 697.084,-196.333 L 696.581,-195.829 L 696.046,-195.358 L 695.484,-194.921
 L 694.894,-194.521 L 694.281,-194.158 L 693.647,-193.835 L 692.993,-193.552 L 692.323,-193.311 L 691.639,-193.112
 L 690.944,-192.957 L 690.24,-192.845 L 689.531,-192.778 L 688.819,-192.756 L 688.107,-192.778 L 687.398,-192.845
 L 686.694,-192.957 L 685.999,-193.112 L 685.315,-193.311 L 684.645,-193.552 L 683.991,-193.835 L 683.356,-194.158
 L 682.743,-194.521 L 682.154,-194.921 L 681.591,-195.358 L 681.057,-195.829 L 680.553,-196.333 L 680.082,-196.867
 L 679.646,-197.43 L 679.245,-198.019 L 678.883,-198.632 L 678.559,-199.267 L 678.277,-199.92 L 678.035,-200.591
 L 677.837,-201.275 L 677.681,-201.97 L 677.57,-202.673 L 677.503,-203.383 z
M 731.339,-164.409 L 731.35,-164.765 L 731.383,-165.12 L 731.439,-165.472 L 731.517,-165.819 L 731.616,-166.161
 L 731.737,-166.496 L 731.878,-166.823 L 732.04,-167.141 L 732.221,-167.447 L 732.421,-167.742 L 732.64,-168.023
 L 732.875,-168.29 L 733.127,-168.542 L 733.394,-168.778 L 733.676,-168.996 L 733.97,-169.196 L 734.277,-169.377
 L 734.594,-169.539 L 734.921,-169.681 L 735.256,-169.801 L 735.598,-169.901 L 735.946,-169.978 L 736.297,-170.034
 L 736.652,-170.068 L 737.008,-170.079 L 737.364,-170.068 L 737.718,-170.034 L 738.07,-169.978 L 738.418,-169.901
 L 738.76,-169.801 L 739.095,-169.681 L 739.422,-169.539 L 739.739,-169.377 L 740.046,-169.196 L 740.34,-168.996
 L 740.622,-168.778 L 740.889,-168.542 L 741.141,-168.29 L 741.376,-168.023 L 741.594,-167.742 L 741.795,-167.447
 L 741.976,-167.141 L 742.138,-166.823 L 742.279,-166.496 L 742.4,-166.161 L 742.499,-165.819 L 742.577,-165.472
 L 742.632,-165.12 L 742.666,-164.765 L 742.677,-164.409 L 742.666,-164.053 L 742.632,-163.699 L 742.577,-163.347
 L 742.499,-163 L 742.4,-162.658 L 742.279,-162.322 L 742.138,-161.996 L 741.976,-161.678 L 741.795,-161.372
 L 741.594,-161.077 L 741.376,-160.796 L 741.141,-160.529 L 740.889,-160.277 L 740.622,-160.041 L 740.34,-159.823
 L 740.046,-159.623 L 739.739,-159.441 L 739.422,-159.28 L 739.095,-159.138 L 738.76,-159.018 L 738.418,-158.918
 L 738.07,-158.841 L 737.718,-158.785 L 737.364,-158.751 L 737.008,-158.74 L 736.652,-158.751 L 736.297,-158.785
 L 735.946,-158.841 L 735.598,-158.918 L 735.256,-159.018 L 734.921,-159.138 L 734.594,-159.28 L 734.277,-159.441
 L 733.97,-159.623 L 733.676,-159.823 L 733.394,-160.041 L 733.127,-160.277 L 732.875,-160.529 L 732.64,-160.796
 L 732.421,-161.077 L 732.221,-161.372 L 732.04,-161.678 L 731.878,-161.996 L 731.737,-162.322 L 731.616,-162.658
 L 731.517,-163 L 731.439,-163.347 L 731.383,-163.699 L 731.35,-164.053 z
M 731.339,-243.78 L 731.35,-244.136 L 731.383,-244.49 L 731.439,-244.842 L 731.517,-245.189 L 731.616,-245.531
 L 731.737,-245.867 L 731.878,-246.193 L 732.04,-246.511 L 732.221,-246.817 L 732.421,-247.112 L 732.64,-247.393
 L 732.875,-247.66 L 733.127,-247.912 L 733.394,-248.148 L 733.676,-248.366 L 733.97,-248.566 L 734.277,-248.748
 L 734.594,-248.909 L 734.921,-249.051 L 735.256,-249.171 L 735.598,-249.271 L 735.946,-249.348 L 736.297,-249.404
 L 736.652,-249.438 L 737.008,-249.449 L 737.364,-249.438 L 737.718,-249.404 L 738.07,-249.348 L 738.418,-249.271
 L 738.76,-249.171 L 739.095,-249.051 L 739.422,-248.909 L 739.739,-248.748 L 740.046,-248.566 L 740.34,-248.366
 L 740.622,-248.148 L 740.889,-247.912 L 741.141,-247.66 L 741.376,-247.393 L 741.594,-247.112 L 741.795,-246.817
 L 741.976,-246.511 L 742.138,-246.193 L 742.279,-245.867 L 742.4,-245.531 L 742.499,-245.189 L 742.577,-244.842
 L 742.632,-244.49 L 742.666,-244.136 L 742.677,-243.78 L 742.666,-243.424 L 742.632,-243.069 L 742.577,-242.717
 L 742.499,-242.37 L 742.4,-242.028 L 742.279,-241.693 L 742.138,-241.366 L 741.976,-241.048 L 741.795,-240.742
 L 741.594,-240.447 L 741.376,-240.166 L 741.141,-239.899 L 740.889,-239.647 L 740.622,-239.411 L 740.34,-239.193
 L 740.046,-238.993 L 739.739,-238.811 L 739.422,-238.65 L 739.095,-238.508 L 738.76,-238.388 L 738.418,-238.288
 L 738.07,-238.211 L 737.718,-238.155 L 737.364,-238.121 L 737.008,-238.11 L 736.652,-238.121 L 736.297,-238.155
 L 735.946,-238.211 L 735.598,-238.288 L 735.256,-238.388 L 734.921,-238.508 L 734.594,-238.65 L 734.277,-238.811
 L 733.97,-238.993 L 733.676,-239.193 L 733.394,-239.411 L 733.127,-239.647 L 732.875,-239.899 L 732.64,-240.166
 L 732.421,-240.447 L 732.221,-240.742 L 732.04,-241.048 L 731.878,-241.366 L 731.737,-241.693 L 731.616,-242.028
 L 731.517,-242.37 L 731.439,-242.717 L 731.383,-243.069 L 731.35,-243.424 z
M 433.701,-283.465 L 506.592,-283.465 L 506.592,-297.638 L 579.483,-297.638 L 579.483,-283.465 L 652.373,-283.465
 L 652.373,-297.638 L 725.264,-297.638 L 725.264,-283.465 L 798.155,-283.465 L 798.155,-297.638 L 871.046,-297.638
 L 871.046,-283.465 L 943.937,-283.465 L 943.937,-425.197 L 871.046,-425.197 L 871.046,-411.024 L 798.155,-411.024
 L 798.155,-425.197 L 725.264,-425.197 L 725.264,-411.024 L 652.373,-411.024 L 652.373,-425.197 L 579.483,-425.197
 L 579.483,-411.024 L 506.592,-411.024 L 506.592,-425.197 L 433.701,-425.197 z
M 634.961,-314.646 L 634.972,-315.002 L 635.005,-315.356 L 635.061,-315.708 L 635.139,-316.056 L 635.238,-316.398
 L 635.359,-316.733 L 635.5,-317.06 L 635.662,-317.377 L 635.843,-317.683 L 636.043,-317.978 L 636.262,-318.259
 L 636.497,-318.527 L 636.749,-318.778 L 637.016,-319.014 L 637.298,-319.232 L 637.592,-319.432 L 637.899,-319.614
 L 638.216,-319.775 L 638.543,-319.917 L 638.878,-320.037 L 639.22,-320.137 L 639.568,-320.215 L 639.919,-320.27
 L 640.274,-320.304 L 640.63,-320.315 L 640.986,-320.304 L 641.34,-320.27 L 641.692,-320.215 L 642.04,-320.137
 L 642.382,-320.037 L 642.717,-319.917 L 643.044,-319.775 L 643.361,-319.614 L 643.668,-319.432 L 643.962,-319.232
 L 644.244,-319.014 L 644.511,-318.778 L 644.763,-318.527 L 644.998,-318.259 L 645.216,-317.978 L 645.417,-317.683
 L 645.598,-317.377 L 645.76,-317.06 L 645.901,-316.733 L 646.022,-316.398 L 646.121,-316.056 L 646.199,-315.708
 L 646.255,-315.356 L 646.288,-315.002 L 646.299,-314.646 L 646.288,-314.29 L 646.255,-313.935 L 646.199,-313.583
 L 646.121,-313.236 L 646.022,-312.894 L 645.901,-312.559 L 645.76,-312.232 L 645.598,-311.914 L 645.417,-311.608
 L 645.216,-311.313 L 644.998,-311.032 L 644.763,-310.765 L 644.511,-310.513 L 644.244,-310.277 L 643.962,-310.059
 L 643.668,-309.859 L 643.361,-309.678 L 643.044,-309.516 L 642.717,-309.374 L 642.382,-309.254 L 642.04,-309.154
 L 641.692,-309.077 L 641.34,-309.021 L 640.986,-308.988 L 640.63,-308.976 L 640.274,-308.988 L 639.919,-309.021
 L 639.568,-309.077 L 639.22,-309.154 L 638.878,-309.254 L 638.543,-309.374 L 638.216,-309.516 L 637.899,-309.678
 L 637.592,-309.859 L 637.298,-310.059 L 637.016,-310.277 L 636.749,-310.513 L 636.497,-310.765 L 636.262,-311.032
 L 636.043,-311.313 L 635.843,-311.608 L 635.662,-311.914 L 635.5,-312.232 L 635.359,-312.559 L 635.238,-312.894
 L 635.139,-313.236 L 635.061,-313.583 L 635.005,-313.935 L 634.972,-314.29 z
M 634.961,-394.016 L 634.972,-394.372 L 635.005,-394.726 L 635.061,-395.078 L 635.139,-395.426 L 635.238,-395.768
 L 635.359,-396.103 L 635.5,-396.43 L 635.662,-396.747 L 635.843,-397.054 L 636.043,-397.348 L 636.262,-397.629
 L 636.497,-397.897 L 636.749,-398.148 L 637.016,-398.384 L 637.298,-398.602 L 637.592,-398.802 L 637.899,-398.984
 L 638.216,-399.145 L 638.543,-399.287 L 638.878,-399.408 L 639.22,-399.507 L 639.568,-399.585 L 639.919,-399.64
 L 640.274,-399.674 L 640.63,-399.685 L 640.986,-399.674 L 641.34,-399.64 L 641.692,-399.585 L 642.04,-399.507
 L 642.382,-399.408 L 642.717,-399.287 L 643.044,-399.145 L 643.361,-398.984 L 643.668,-398.802 L 643.962,-398.602
 L 644.244,-398.384 L 644.511,-398.148 L 644.763,-397.897 L 644.998,-397.629 L 645.216,-397.348 L 645.417,-397.054
 L 645.598,-396.747 L 645.76,-396.43 L 645.901,-396.103 L 646.022,-395.768 L 646.121,-395.426 L 646.199,-395.078
 L 646.255,-394.726 L 646.288,-394.372 L 646.299,-394.016 L 646.288,-393.66 L 646.255,-393.305 L 646.199,-392.953
 L 646.121,-392.606 L 646.022,-392.264 L 645.901,-391.929 L 645.76,-391.602 L 645.598,-391.285 L 645.417,-390.978
 L 645.216,-390.683 L 644.998,-390.402 L 644.763,-390.135 L 644.511,-389.883 L 644.244,-389.647 L 643.962,-389.429
 L 643.668,-389.229 L 643.361,-389.048 L 643.044,-388.886 L 642.717,-388.745 L 642.382,-388.624 L 642.04,-388.525
 L 641.692,-388.447 L 641.34,-388.391 L 640.986,-388.358 L 640.63,-388.346 L 640.274,-388.358 L 639.919,-388.391
 L 639.568,-388.447 L 639.22,-388.525 L 638.878,-388.624 L 638.543,-388.745 L 638.216,-388.886 L 637.899,-389.048
 L 637.592,-389.229 L 637.298,-389.429 L 637.016,-389.647 L 636.749,-389.883 L 636.497,-390.135 L 636.262,-390.402
 L 636.043,-390.683 L 635.843,-390.978 L 635.662,-391.285 L 635.5,-391.602 L 635.359,-391.929 L 635.238,-392.264
 L 635.139,-392.606 L 635.061,-392.953 L 635.005,-393.305 L 634.972,-393.66 z
M 677.48,-354.331 L 677.503,-355.043 L 677.57,-355.752 L 677.681,-356.455 L 677.837,-357.15 L 678.035,-357.835
 L 678.277,-358.505 L 678.559,-359.158 L 678.883,-359.793 L 679.245,-360.406 L 679.646,-360.995 L 680.082,-361.558
 L 680.553,-362.093 L 681.057,-362.596 L 681.591,-363.067 L 682.154,-363.504 L 682.743,-363.904 L 683.356,-364.267
 L 683.991,-364.59 L 684.645,-364.873 L 685.315,-365.114 L 685.999,-365.313 L 686.694,-365.468 L 687.398,-365.58
 L 688.107,-365.647 L 688.819,-365.669 L 689.531,-365.647 L 690.24,-365.58 L 690.944,-365.468 L 691.639,-365.313
 L 692.323,-365.114 L 692.993,-364.873 L 693.647,-364.59 L 694.281,-364.267 L 694.894,-363.904 L 695.484,-363.504
 L 696.046,-363.067 L 696.581,-362.596 L 697.084,-362.093 L 697.555,-361.558 L 697.992,-360.995 L 698.392,-360.406
 L 698.755,-359.793 L 699.078,-359.158 L 699.361,-358.505 L 699.603,-357.835 L 699.801,-357.15 L 699.957,-356.455
 L 700.068,-355.752 L 700.135,-355.043 L 700.157,-354.331 L 700.135,-353.619 L 700.068,-352.91 L 699.957,-352.206
 L 699.801,-351.511 L 699.603,-350.827 L 699.361,-350.157 L 699.078,-349.503 L 698.755,-348.868 L 698.392,-348.255
 L 697.992,-347.666 L 697.555,-347.103 L 697.084,-346.569 L 696.581,-346.065 L 696.046,-345.594 L 695.484,-345.158
 L 694.894,-344.757 L 694.281,-344.395 L 693.647,-344.071 L 692.993,-343.788 L 692.323,-343.547 L 691.639,-343.348
 L 690.944,-343.193 L 690.24,-343.082 L 689.531,-343.015 L 688.819,-342.992 L 688.107,-343.015 L 687.398,-343.082
 L 686.694,-343.193 L 685.999,-343.348 L 685.315,-343.547 L 684.645,-343.788 L 683.991,-344.071 L 683.356,-344.395
 L 682.743,-344.757 L 682.154,-345.158 L 681.591,-345.594 L 681.057,-346.065 L 680.553,-346.569 L 680.082,-347.103
 L 679.646,-347.666 L 679.245,-348.255 L 678.883,-348.868 L 678.559,-349.503 L 678.277,-350.157 L 678.035,-350.827
 L 677.837,-351.511 L 677.681,-352.206 L 677.57,-352.91 L 677.503,-353.619 z
M 731.339,-314.646 L 731.35,-315.002 L 731.383,-315.356 L 731.439,-315.708 L 731.517,-316.056 L 731.616,-316.398
 L 731.737,-316.733 L 731.878,-317.06 L 732.04,-317.377 L 732.221,-317.683 L 732.421,-317.978 L 732.64,-318.259
 L 732.875,-318.527 L 733.127,-318.778 L 733.394,-319.014 L 733.676,-319.232 L 733.97,-319.432 L 734.277,-319.614
 L 734.594,-319.775 L 734.921,-319.917 L 735.256,-320.037 L 735.598,-320.137 L 735.946,-320.215 L 736.297,-320.27
 L 736.652,-320.304 L 737.008,-320.315 L 737.364,-320.304 L 737.718,-320.27 L 738.07,-320.215 L 738.418,-320.137
 L 738.76,-320.037 L 739.095,-319.917 L 739.422,-319.775 L 739.739,-319.614 L 740.046,-319.432 L 740.34,-319.232
 L 740.622,-319.014 L 740.889,-318.778 L 741.141,-318.527 L 741.376,-318.259 L 741.594,-317.978 L 741.795,-317.683
 L 741.976,-317.377 L 742.138,-317.06 L 742.279,-316.733 L 742.4,-316.398 L 742.499,-316.056 L 742.577,-315.708
 L 742.632,-315.356 L 742.666,-315.002 L 742.677,-314.646 L 742.666,-314.29 L 742.632,-313.935 L 742.577,-313.583
 L 742.499,-313.236 L 742.4,-312.894 L 742.279,-312.559 L 742.138,-312.232 L 741.976,-311.914 L 741.795,-311.608
 L 741.594,-311.313 L 741.376,-311.032 L 741.141,-310.765 L 740.889,-310.513 L 740.622,-310.277 L 740.34,-310.059
 L 740.046,-309.859 L 739.739,-309.678 L 739.422,-309.516 L 739.095,-309.374 L 738.76,-309.254 L 738.418,-309.154
 L 738.07,-309.077 L 737.718,-309.021 L 737.364,-308.988 L 737.008,-308.976 L 736.652,-308.988 L 736.297,-309.021
 L 735.946,-309.077 L 735.598,-309.154 L 735.256,-309.254 L 734.921,-309.374 L 734.594,-309.516 L 734.277,-309.678
 L 733.97,-309.859 L 733.676,-310.059 L 733.394,-310.277 L 733.127,-310.513 L 732.875,-310.765 L 732.64,-311.032
 L 732.421,-311.313 L 732.221,-311.608 L 732.04,-311.914 L 731.878,-312.232 L 731.737,-312.559 L 731.616,-312.894
 L 731.517,-313.236 L 731.439,-313.583 L 731.383,-313.935 L 731.35,-314.29 z
M 731.339,-394.016 L 731.35,-394.372 L 731.383,-394.726 L 731.439,-395.078 L 731.517,-395.426 L 731.616,-395.768
 L 731.737,-396.103 L 731.878,-396.43 L 732.04,-396.747 L 732.221,-397.054 L 732.421,-397.348 L 732.64,-397.629
 L 732.875,-397.897 L 733.127,-398.148 L 733.394,-398.384 L 733.676,-398.602 L 733.97,-398.802 L 734.277,-398.984
 L 734.594,-399.145 L 734.921,-399.287 L 735.256,-399.408 L 735.598,-399.507 L 735.946,-399.585 L 736.297,-399.64
 L 736.652,-399.674 L 737.008,-399.685 L 737.364,-399.674 L 737.718,-399.64 L 738.07,-399.585 L 738.418,-399.507
 L 738.76,-399.408 L 739.095,-399.287 L 739.422,-399.145 L 739.739,-398.984 L 740.046,-398.802 L 740.34,-398.602
 L 740.622,-398.384 L 740.889,-398.148 L 741.141,-397.897 L 741.376,-397.629 L 741.594,-397.348 L 741.795,-397.054
 L 741.976,-396.747 L 742.138,-396.43 L 742.279,-396.103 L 742.4,-395.768 L 742.499,-395.426 L 742.577,-395.078
 L 742.632,-394.726 L 742.666,-394.372 L 742.677,-394.016 L 742.666,-393.66 L 742.632,-393.305 L 742.577,-392.953
 L 742.499,-392.606 L 742.4,-392.264 L 742.279,-391.929 L 742.138,-391.602 L 741.976,-391.285 L 741.795,-390.978
 L 741.594,-390.683 L 741.376,-390.402 L 741.141,-390.135 L 740.889,-389.883 L 740.622,-389.647 L 740.34,-389.429
 L 740.046,-389.229 L 739.739,-389.048 L 739.422,-388.886 L 739.095,-388.745 L 738.76,-388.624 L 738.418,-388.525
 L 738.07,-388.447 L 737.718,-388.391 L 737.364,-388.358 L 737.008,-388.346 L 736.652,-388.358 L 736.297,-388.391
 L 735.946,-388.447 L 735.598,-388.525 L 735.256,-388.624 L 734.921,-388.745 L 734.594,-388.886 L 734.277,-389.048
 L 733.97,-389.229 L 733.676,-389.429 L 733.394,-389.647 L 733.127,-389.883 L 732.875,-390.135 L 732.64,-390.402
 L 732.421,-390.683 L 732.221,-390.978 L 732.04,-391.285 L 731.878,-391.602 L 731.737,-391.929 L 731.616,-392.264
 L 731.517,-392.606 L 731.439,-392.953 L 731.383,-393.305 L 731.35,-393.66 z
" stroke="black" fill="lightgray" stroke-width="0.5"/></svg>
