<?xml version="1.0" standalone="no"?>
<!DOCTYPE svg PUBLIC "-//W3C//DTD SVG 1.1//EN" "http://www.w3.org/Graphics/SVG/1.1/DTD/svg11.dtd">
<svg width="1711" height="852" viewBox="-1285 -426 1711 852" xmlns="http://www.w3.org/2000/svg" version="1.1">
<title>OpenSCAD Model</title>
<path d="
M -1284.09,288.328 L -1283.98,291.888 L -1283.65,295.434 L -1283.09,298.951 L -1282.31,302.427 L -1281.32,305.847
 L -1280.11,309.198 L -1278.7,312.467 L -1277.08,315.64 L -1275.27,318.706 L -1273.27,321.651 L -1271.08,324.465
 L -1268.73,327.137 L -1186.03,409.831 L -1183.36,412.187 L -1180.55,414.369 L -1177.6,416.371 L -1174.54,418.184
 L -1171.36,419.801 L -1168.1,421.216 L -1164.74,422.422 L -1161.32,423.416 L -1157.85,424.193 L -1154.33,424.75
 L -1150.79,425.085 L -1147.23,425.197 L -881.575,425.197 L -881.53,423.773 L -881.396,422.355 L -881.173,420.948
 L -880.862,419.557 L -880.465,418.189 L -879.982,416.849 L -879.417,415.541 L -878.77,414.272 L -878.045,413.046
 L -877.244,411.868 L -876.371,410.742 L -875.429,409.673 L -874.421,408.666 L -873.353,407.724 L -872.227,406.851
 L -871.049,406.05 L -869.822,405.325 L -868.553,404.678 L -867.246,404.112 L -865.905,403.63 L -864.537,403.232
 L -863.147,402.921 L -861.74,402.698 L -860.322,402.564 L -858.898,402.52 L -857.474,402.564 L -856.055,402.698
 L -854.648,402.921 L -853.258,403.232 L -851.89,403.63 L -850.55,404.112 L -849.242,404.678 L -847.973,405.325
 L -846.747,406.05 L -845.568,406.851 L -844.443,407.724 L -843.374,408.666 L -842.367,409.673 L -841.425,410.742
 L -840.551,411.868 L -839.751,413.046 L -839.025,414.272 L -838.379,415.541 L -837.813,416.849 L -837.33,418.189
 L -836.933,419.557 L -836.622,420.948 L -836.399,422.355 L -836.265,423.773 L -836.22,425.197 L -570.57,425.197
 L -567.01,425.085 L -563.464,424.75 L -559.946,424.193 L -556.471,423.416 L -553.051,422.422 L -549.7,421.216
 L -546.431,419.801 L -543.258,418.184 L -540.192,416.371 L -537.246,414.369 L -534.432,412.187 L -531.761,409.831
 L -449.066,327.137 L -446.711,324.465 L -444.528,321.651 L -442.526,318.706 L -440.713,315.64 L -439.096,312.467
 L -437.682,309.198 L -436.476,305.847 L -435.482,302.427 L -434.705,298.951 L -434.148,295.434 L -433.813,291.888
 L -433.701,288.328 L -433.701,22.6772 L -435.125,22.6324 L -436.543,22.4983 L -437.95,22.2755 L -439.34,21.9647
 L -440.708,21.5673 L -442.049,21.0847 L -443.356,20.5189 L -444.626,19.8722 L -445.852,19.147 L -447.03,18.3462
 L -448.156,17.4731 L -449.224,16.5309 L -450.232,15.5236 L -451.174,14.455 L -452.047,13.3293 L -452.848,12.151
 L -453.573,10.9248 L -454.22,9.65547 L -454.785,8.34802 L -455.268,7.00763 L -455.666,5.63958 L -455.976,4.24928
 L -456.199,2.8422 L -456.333,1.42391 L -456.378,-7.81048e-015 L -456.333,-1.42391 L -456.199,-2.8422 L -455.976,-4.24928
 L -455.666,-5.63958 L -455.268,-7.00763 L -454.785,-8.34802 L -454.22,-9.65547 L -453.573,-10.9248 L -452.848,-12.151
 L -452.047,-13.3293 L -451.174,-14.455 L -450.232,-15.5236 L -449.224,-16.5309 L -448.156,-17.4731 L -447.03,-18.3462
 L -445.852,-19.147 L -444.626,-19.8722 L -443.356,-20.5189 L -442.049,-21.0847 L -440.708,-21.5673 L -439.34,-21.9647
 L -437.95,-22.2755 L -436.543,-22.4983 L -435.125,-22.6324 L -433.701,-22.6772 L -433.701,-288.328 L -433.813,-291.888
 L -434.148,-295.434 L -434.705,-298.951 L -435.482,-302.427 L -436.476,-305.847 L -437.682,-309.198 L -439.096,-312.467
 L -440.713,-315.64 L -442.526,-318.706 L -444.528,-321.651 L -446.711,-324.465 L -449.066,-327.137 L -531.761,-409.831
 L -534.432,-412.187 L -537.246,-414.369 L -540.192,-416.371 L -543.258,-418.184 L -546.431,-419.801 L -549.7,-421.216
 L -553.051,-422.422 L -556.471,-423.416 L -559.946,-424.193 L -563.464,-424.75 L -567.01,-425.085 L -570.57,-425.197
 L -836.22,-425.197 L -836.265,-423.773 L -836.399,-422.355 L -836.622,-420.948 L -836.933,-419.557 L -837.33,-418.189
 L -837.813,-416.849 L -838.379,-415.541 L -839.025,-414.272 L -839.751,-413.046 L -840.551,-411.868 L -841.425,-410.742
 L -842.367,-409.673 L -843.374,-408.666 L -844.443,-407.724 L -845.568,-406.851 L -846.747,-406.05 L -847.973,-405.325
 L -849.242,-404.678 L -850.55,-404.112 L -851.89,-403.63 L -853.258,-403.232 L -854.648,-402.921 L -856.055,-402.698
 L -857.474,-402.564 L -858.898,-402.52 L -860.322,-402.564 L -861.74,-402.698 L -863.147,-402.921 L -864.537,-403.232
 L -865.905,-403.63 L -867.246,-404.112 L -868.553,-404.678 L -869.822,-405.325 L -871.049,-406.05 L -872.227,-406.851
 L -873.353,-407.724 L -874.421,-408.666 L -875.429,-409.673 L -876.371,-410.742 L -877.244,-411.868 L -878.045,-413.046
 L -878.77,-414.272 L -879.417,-415.541 L -879.982,-416.849 L -880.465,-418.189 L -880.862,-419.557 L -881.173,-420.948
 L -881.396,-422.355 L -881.53,-423.773 L -881.575,-425.197 L -1147.23,-425.197 L -1150.79,-425.085 L -1154.33,-424.75
 L -1157.85,-424.193 L -1161.32,-423.416 L -1164.74,-422.422 L -1168.1,-421.216 L -1171.36,-419.801 L -1174.54,-418.184
 L -1177.6,-416.371 L -1180.55,-414.369 L -1183.36,-412.187 L -1186.03,-409.831 L -1268.73,-327.137 L -1271.08,-324.465
 L -1273.27,-321.651 L -1275.27,-318.706 L -1277.08,-315.64 L -1278.7,-312.467 L -1280.11,-309.198 L -1281.32,-305.847
 L -1282.31,-302.427 L -1283.09,-298.951 L -1283.65,-295.434 L -1283.98,-291.888 L -1284.09,-288.328 L -1284.09,-22.6772
 L -1282.67,-22.6324 L -1281.25,-22.4983 L -1279.85,-22.2755 L -1278.45,-21.9647 L -1277.09,-21.5673 L -1275.75,-21.0847
 L -1274.44,-20.5189 L -1273.17,-19.8722 L -1271.94,-19.147 L -1270.77,-18.3462 L -1269.64,-17.4731 L -1268.57,-16.5309
 L -1267.56,-15.5236 L -1266.62,-14.455 L -1265.75,-13.3293 L -1264.95,-12.151 L -1264.22,-10.9248 L -1263.58,-9.65547
 L -1263.01,-8.34802 L -1262.53,-7.00763 L -1262.13,-5.63958 L -1261.82,-4.24928 L -1261.6,-2.8422 L -1261.46,-1.42391
 L -1261.42,-7.81048e-015 L -1261.46,1.42391 L -1261.6,2.8422 L -1261.82,4.24928 L -1262.13,5.63958 L -1262.53,7.00763
 L -1263.01,8.34802 L -1263.58,9.65547 L -1264.22,10.9248 L -1264.95,12.151 L -1265.75,13.3293 L -1266.62,14.455
 L -1267.56,15.5236 L -1268.57,16.5309 L -1269.64,17.4731 L -1270.77,18.3462 L -1271.94,19.147 L -1273.17,19.8722
 L -1274.44,20.5189 L -1275.75,21.0847 L -1277.09,21.5673 L -1278.45,21.9647 L -1279.85,22.2755 L -1281.25,22.4983
 L -1282.67,22.6324 L -1284.09,22.6772 z
M -1261.42,-36.4454 L -1261.42,-109.336 L -1247.24,-109.336 L -1247.24,-36.4454 z
M -1261.42,-182.227 L -1261.42,-255.118 L -1247.24,-255.118 L -1247.24,-182.227 z
M -1261.42,255.118 L -1261.42,182.227 L -1247.24,182.227 L -1247.24,255.118 z
M -1261.42,109.336 L -1261.42,36.4454 L -1247.24,36.4454 L -1247.24,109.336 z
M -1257.87,145.782 L -1257.87,145.559 L -1257.85,145.338 L -1257.81,145.118 L -1257.76,144.901 L -1257.7,144.687
 L -1257.63,144.477 L -1257.54,144.273 L -1257.44,144.075 L -1257.32,143.883 L -1257.2,143.699 L -1257.06,143.523
 L -1256.91,143.356 L -1256.76,143.199 L -1256.59,143.052 L -1256.41,142.915 L -1256.23,142.79 L -1256.04,142.677
 L -1255.84,142.576 L -1255.64,142.487 L -1255.43,142.412 L -1255.21,142.35 L -1254.99,142.301 L -1254.77,142.266
 L -1254.55,142.245 L -1254.33,142.238 L -1254.11,142.245 L -1253.89,142.266 L -1253.67,142.301 L -1253.45,142.35
 L -1253.24,142.412 L -1253.03,142.487 L -1252.82,142.576 L -1252.62,142.677 L -1252.43,142.79 L -1252.25,142.915
 L -1252.07,143.052 L -1251.91,143.199 L -1251.75,143.356 L -1251.6,143.523 L -1251.46,143.699 L -1251.34,143.883
 L -1251.23,144.075 L -1251.12,144.273 L -1251.04,144.477 L -1250.96,144.687 L -1250.9,144.901 L -1250.85,145.118
 L -1250.82,145.338 L -1250.79,145.559 L -1250.79,145.782 L -1250.79,146.004 L -1250.82,146.226 L -1250.85,146.446
 L -1250.9,146.663 L -1250.96,146.877 L -1251.04,147.086 L -1251.12,147.29 L -1251.23,147.489 L -1251.34,147.68
 L -1251.46,147.864 L -1251.6,148.04 L -1251.75,148.207 L -1251.91,148.365 L -1252.07,148.512 L -1252.25,148.648
 L -1252.43,148.773 L -1252.62,148.887 L -1252.82,148.988 L -1253.03,149.076 L -1253.24,149.152 L -1253.45,149.214
 L -1253.67,149.262 L -1253.89,149.297 L -1254.11,149.318 L -1254.33,149.325 L -1254.55,149.318 L -1254.77,149.297
 L -1254.99,149.262 L -1255.21,149.214 L -1255.43,149.152 L -1255.64,149.076 L -1255.84,148.988 L -1256.04,148.887
 L -1256.23,148.773 L -1256.41,148.648 L -1256.59,148.512 L -1256.76,148.365 L -1256.91,148.207 L -1257.06,148.04
 L -1257.2,147.864 L -1257.32,147.68 L -1257.44,147.489 L -1257.54,147.29 L -1257.63,147.086 L -1257.7,146.877
 L -1257.76,146.663 L -1257.81,146.446 L -1257.85,146.226 L -1257.87,146.004 z
M -1257.87,22.6772 L -1257.87,22.4547 L -1257.85,22.2331 L -1257.81,22.0132 L -1257.76,21.796 L -1257.7,21.5822
 L -1257.63,21.3728 L -1257.54,21.1685 L -1257.44,20.9702 L -1257.32,20.7786 L -1257.2,20.5945 L -1257.06,20.4186
 L -1256.91,20.2516 L -1256.76,20.0942 L -1256.59,19.947 L -1256.41,19.8106 L -1256.23,19.6855 L -1256.04,19.5721
 L -1255.84,19.4711 L -1255.64,19.3827 L -1255.43,19.3073 L -1255.21,19.2452 L -1254.99,19.1966 L -1254.77,19.1618
 L -1254.55,19.1409 L -1254.33,19.1339 L -1254.11,19.1409 L -1253.89,19.1618 L -1253.67,19.1966 L -1253.45,19.2452
 L -1253.24,19.3073 L -1253.03,19.3827 L -1252.82,19.4711 L -1252.62,19.5721 L -1252.43,19.6855 L -1252.25,19.8106
 L -1252.07,19.947 L -1251.91,20.0942 L -1251.75,20.2516 L -1251.6,20.4186 L -1251.46,20.5945 L -1251.34,20.7786
 L -1251.23,20.9702 L -1251.12,21.1685 L -1251.04,21.3728 L -1250.96,21.5822 L -1250.9,21.796 L -1250.85,22.0132
 L -1250.82,22.2331 L -1250.79,22.4547 L -1250.79,22.6772 L -1250.79,22.8996 L -1250.82,23.1213 L -1250.85,23.3411
 L -1250.9,23.5583 L -1250.96,23.7721 L -1251.04,23.9815 L -1251.12,24.1858 L -1251.23,24.3842 L -1251.34,24.5758
 L -1251.46,24.7599 L -1251.6,24.9358 L -1251.75,25.1027 L -1251.91,25.2601 L -1252.07,25.4073 L -1252.25,25.5438
 L -1252.43,25.6689 L -1252.62,25.7822 L -1252.82,25.8832 L -1253.03,25.9716 L -1253.24,26.047 L -1253.45,26.1092
 L -1253.67,26.1577 L -1253.89,26.1925 L -1254.11,26.2135 L -1254.33,26.2205 L -1254.55,26.2135 L -1254.77,26.1925
 L -1254.99,26.1577 L -1255.21,26.1092 L -1255.43,26.047 L -1255.64,25.9716 L -1255.84,25.8832 L -1256.04,25.7822
 L -1256.23,25.6689 L -1256.41,25.5438 L -1256.59,25.4073 L -1256.76,25.2601 L -1256.91,25.1027 L -1257.06,24.9358
 L -1257.2,24.7599 L -1257.32,24.5758 L -1257.44,24.3842 L -1257.54,24.1858 L -1257.63,23.9815 L -1257.7,23.7721
 L -1257.76,23.5583 L -1257.81,23.3411 L -1257.85,23.1213 L -1257.87,22.8996 z
M -1257.87,-22.6772 L -1257.87,-22.8996 L -1257.85,-23.1213 L -1257.81,-23.3411 L -1257.76,-23.5583 L -1257.7,-23.7721
 L -1257.63,-23.9815 L -1257.54,-24.1858 L -1257.44,-24.3842 L -1257.32,-24.5758 L -1257.2,-24.7599 L -1257.06,-24.9358
 L -1256.91,-25.1027 L -1256.76,-25.2601 L -1256.59,-25.4073 L -1256.41,-25.5438 L -1256.23,-25.6689 L -1256.04,-25.7822
 L -1255.84,-25.8832 L -1255.64,-25.9716 L -1255.43,-26.047 L -1255.21,-26.1092 L -1254.99,-26.1577 L -1254.77,-26.1925
 L -1254.55,-26.2135 L -1254.33,-26.2205 L -1254.11,-26.2135 L -1253.89,-26.1925 L -1253.67,-26.1577 L -1253.45,-26.1092
 L -1253.24,-26.047 L -1253.03,-25.9716 L -1252.82,-25.8832 L -1252.62,-25.7822 L -1252.43,-25.6689 L -1252.25,-25.5438
 L -1252.07,-25.4073 L -1251.91,-25.2601 L -1251.75,-25.1027 L -1251.6,-24.9358 L -1251.46,-24.7599 L -1251.34,-24.5758
 L -1251.23,-24.3842 L -1251.12,-24.1858 L -1251.04,-23.9815 L -1250.96,-23.7721 L -1250.9,-23.5583 L -1250.85,-23.3411
 L -1250.82,-23.1213 L -1250.79,-22.8996 L -1250.79,-22.6772 L -1250.79,-22.4547 L -1250.82,-22.2331 L -1250.85,-22.0132
 L -1250.9,-21.796 L -1250.96,-21.5822 L -1251.04,-21.3728 L -1251.12,-21.1685 L -1251.23,-20.9702 L -1251.34,-20.7786
 L -1251.46,-20.5945 L -1251.6,-20.4186 L -1251.75,-20.2516 L -1251.91,-20.0942 L -1252.07,-19.947 L -1252.25,-19.8106
 L -1252.43,-19.6855 L -1252.62,-19.5721 L -1252.82,-19.4711 L -1253.03,-19.3827 L -1253.24,-19.3073 L -1253.45,-19.2452
 L -1253.67,-19.1966 L -1253.89,-19.1618 L -1254.11,-19.1409 L -1254.33,-19.1339 L -1254.55,-19.1409 L -1254.77,-19.1618
 L -1254.99,-19.1966 L -1255.21,-19.2452 L -1255.43,-19.3073 L -1255.64,-19.3827 L -1255.84,-19.4711 L -1256.04,-19.5721
 L -1256.23,-19.6855 L -1256.41,-19.8106 L -1256.59,-19.947 L -1256.76,-20.0942 L -1256.91,-20.2516 L -1257.06,-20.4186
 L -1257.2,-20.5945 L -1257.32,-20.7786 L -1257.44,-20.9702 L -1257.54,-21.1685 L -1257.63,-21.3728 L -1257.7,-21.5822
 L -1257.76,-21.796 L -1257.81,-22.0132 L -1257.85,-22.2331 L -1257.87,-22.4547 z
M -1257.87,-145.782 L -1257.87,-146.004 L -1257.85,-146.226 L -1257.81,-146.446 L -1257.76,-146.663 L -1257.7,-146.877
 L -1257.63,-147.086 L -1257.54,-147.29 L -1257.44,-147.489 L -1257.32,-147.68 L -1257.2,-147.864 L -1257.06,-148.04
 L -1256.91,-148.207 L -1256.76,-148.365 L -1256.59,-148.512 L -1256.41,-148.648 L -1256.23,-148.773 L -1256.04,-148.887
 L -1255.84,-148.988 L -1255.64,-149.076 L -1255.43,-149.152 L -1255.21,-149.214 L -1254.99,-149.262 L -1254.77,-149.297
 L -1254.55,-149.318 L -1254.33,-149.325 L -1254.11,-149.318 L -1253.89,-149.297 L -1253.67,-149.262 L -1253.45,-149.214
 L -1253.24,-149.152 L -1253.03,-149.076 L -1252.82,-148.988 L -1252.62,-148.887 L -1252.43,-148.773 L -1252.25,-148.648
 L -1252.07,-148.512 L -1251.91,-148.365 L -1251.75,-148.207 L -1251.6,-148.04 L -1251.46,-147.864 L -1251.34,-147.68
 L -1251.23,-147.489 L -1251.12,-147.29 L -1251.04,-147.086 L -1250.96,-146.877 L -1250.9,-146.663 L -1250.85,-146.446
 L -1250.82,-146.226 L -1250.79,-146.004 L -1250.79,-145.782 L -1250.79,-145.559 L -1250.82,-145.338 L -1250.85,-145.118
 L -1250.9,-144.901 L -1250.96,-144.687 L -1251.04,-144.477 L -1251.12,-144.273 L -1251.23,-144.075 L -1251.34,-143.883
 L -1251.46,-143.699 L -1251.6,-143.523 L -1251.75,-143.356 L -1251.91,-143.199 L -1252.07,-143.052 L -1252.25,-142.915
 L -1252.43,-142.79 L -1252.62,-142.677 L -1252.82,-142.576 L -1253.03,-142.487 L -1253.24,-142.412 L -1253.45,-142.35
 L -1253.67,-142.301 L -1253.89,-142.266 L -1254.11,-142.245 L -1254.33,-142.238 L -1254.55,-142.245 L -1254.77,-142.266
 L -1254.99,-142.301 L -1255.21,-142.35 L -1255.43,-142.412 L -1255.64,-142.487 L -1255.84,-142.576 L -1256.04,-142.677
 L -1256.23,-142.79 L -1256.41,-142.915 L -1256.59,-143.052 L -1256.76,-143.199 L -1256.91,-143.356 L -1257.06,-143.523
 L -1257.2,-143.699 L -1257.32,-143.883 L -1257.44,-144.075 L -1257.54,-144.273 L -1257.63,-144.477 L -1257.7,-144.687
 L -1257.76,-144.901 L -1257.81,-145.118 L -1257.85,-145.338 L -1257.87,-145.559 z
M -1168.58,-283.465 L -1168.57,-283.776 L -1168.54,-284.086 L -1168.49,-284.394 L -1168.43,-284.698 L -1168.34,-284.997
 L -1168.23,-285.291 L -1168.11,-285.577 L -1167.97,-285.854 L -1167.81,-286.123 L -1167.64,-286.38 L -1167.44,-286.627
 L -1167.24,-286.86 L -1167.02,-287.081 L -1166.78,-287.287 L -1166.54,-287.478 L -1166.28,-287.653 L -1166.01,-287.812
 L -1165.73,-287.953 L -1165.45,-288.077 L -1165.15,-288.182 L -1164.86,-288.269 L -1164.55,-288.337 L -1164.24,-288.386
 L -1163.93,-288.415 L -1163.62,-288.425 L -1163.31,-288.415 L -1163,-288.386 L -1162.69,-288.337 L -1162.39,-288.269
 L -1162.09,-288.182 L -1161.8,-288.077 L -1161.51,-287.953 L -1161.23,-287.812 L -1160.96,-287.653 L -1160.71,-287.478
 L -1160.46,-287.287 L -1160.23,-287.081 L -1160.01,-286.86 L -1159.8,-286.627 L -1159.61,-286.38 L -1159.43,-286.123
 L -1159.28,-285.854 L -1159.13,-285.577 L -1159.01,-285.291 L -1158.9,-284.997 L -1158.82,-284.698 L -1158.75,-284.394
 L -1158.7,-284.086 L -1158.67,-283.776 L -1158.66,-283.465 L -1158.67,-283.153 L -1158.7,-282.843 L -1158.75,-282.535
 L -1158.82,-282.231 L -1158.9,-281.932 L -1159.01,-281.638 L -1159.13,-281.352 L -1159.28,-281.075 L -1159.43,-280.807
 L -1159.61,-280.549 L -1159.8,-280.303 L -1160.01,-280.069 L -1160.23,-279.848 L -1160.46,-279.642 L -1160.71,-279.451
 L -1160.96,-279.276 L -1161.23,-279.118 L -1161.51,-278.976 L -1161.8,-278.852 L -1162.09,-278.747 L -1162.39,-278.66
 L -1162.69,-278.592 L -1163,-278.543 L -1163.31,-278.514 L -1163.62,-278.504 L -1163.93,-278.514 L -1164.24,-278.543
 L -1164.55,-278.592 L -1164.86,-278.66 L -1165.15,-278.747 L -1165.45,-278.852 L -1165.73,-278.976 L -1166.01,-279.118
 L -1166.28,-279.276 L -1166.54,-279.451 L -1166.78,-279.642 L -1167.02,-279.848 L -1167.24,-280.069 L -1167.44,-280.303
 L -1167.64,-280.549 L -1167.81,-280.807 L -1167.97,-281.075 L -1168.11,-281.352 L -1168.23,-281.638 L -1168.34,-281.932
 L -1168.43,-282.231 L -1168.49,-282.535 L -1168.54,-282.843 L -1168.57,-283.153 z
M -1114.02,402.52 L -1114.02,388.346 L -1041.12,388.346 L -1041.12,402.52 z
M -1114.02,-388.346 L -1114.02,-402.52 L -1041.12,-402.52 L -1041.12,-388.346 z
M -1057.32,141.732 L -1057.32,-141.732 L -1057.21,-145.292 L -1056.88,-148.838 L -1056.32,-152.355 L -1055.54,-155.831
 L -1054.55,-159.251 L -1053.34,-162.602 L -1051.93,-165.871 L -1050.31,-169.044 L -1048.5,-172.11 L -1046.5,-175.056
 L -1044.31,-177.87 L -1041.96,-180.541 L -1039.44,-183.06 L -1036.77,-185.415 L -1033.95,-187.598 L -1031.01,-189.6
 L -1027.94,-191.413 L -1024.77,-193.03 L -1021.5,-194.444 L -1018.15,-195.65 L -1014.73,-196.644 L -1011.25,-197.421
 L -1007.74,-197.978 L -1004.19,-198.313 L -1000.63,-198.425 L -717.165,-198.425 L -713.606,-198.313 L -710.06,-197.978
 L -706.542,-197.421 L -703.066,-196.644 L -699.646,-195.65 L -696.295,-194.444 L -693.027,-193.03 L -689.853,-191.413
 L -686.788,-189.6 L -683.842,-187.598 L -681.028,-185.415 L -678.356,-183.06 L -675.838,-180.541 L -673.483,-177.87
 L -671.3,-175.056 L -669.298,-172.11 L -667.485,-169.044 L -665.868,-165.871 L -664.454,-162.602 L -663.247,-159.251
 L -662.254,-155.831 L -661.477,-152.355 L -660.919,-148.838 L -660.584,-145.292 L -660.472,-141.732 L -660.472,141.732
 L -660.584,145.292 L -660.919,148.838 L -661.477,152.355 L -662.254,155.831 L -663.247,159.251 L -664.454,162.602
 L -665.868,165.871 L -667.485,169.044 L -669.298,172.11 L -671.3,175.056 L -673.483,177.87 L -675.838,180.541
 L -678.356,183.06 L -681.028,185.415 L -683.842,187.598 L -686.788,189.6 L -689.853,191.413 L -693.027,193.03
 L -696.295,194.444 L -699.646,195.65 L -703.066,196.644 L -706.542,197.421 L -710.06,197.978 L -713.606,198.313
 L -717.165,198.425 L -1000.63,198.425 L -1004.19,198.313 L -1007.74,197.978 L -1011.25,197.421 L -1014.73,196.644
 L -1018.15,195.65 L -1021.5,194.444 L -1024.77,193.03 L -1027.94,191.413 L -1031.01,189.6 L -1033.95,187.598
 L -1036.77,185.415 L -1039.44,183.06 L -1041.96,180.541 L -1044.31,177.87 L -1046.5,175.056 L -1048.5,172.11
 L -1050.31,169.044 L -1051.93,165.871 L -1053.34,162.602 L -1054.55,159.251 L -1055.54,155.831 L -1056.32,152.355
 L -1056.88,148.838 L -1057.21,145.292 z
M -1012.68,-283.465 L -1012.67,-283.776 L -1012.64,-284.086 L -1012.59,-284.394 L -1012.52,-284.698 L -1012.43,-284.997
 L -1012.33,-285.291 L -1012.21,-285.577 L -1012.06,-285.854 L -1011.9,-286.123 L -1011.73,-286.38 L -1011.54,-286.627
 L -1011.33,-286.86 L -1011.11,-287.081 L -1010.88,-287.287 L -1010.63,-287.478 L -1010.37,-287.653 L -1010.11,-287.812
 L -1009.83,-287.953 L -1009.54,-288.077 L -1009.25,-288.182 L -1008.95,-288.269 L -1008.65,-288.337 L -1008.34,-288.386
 L -1008.03,-288.415 L -1007.72,-288.425 L -1007.41,-288.415 L -1007.09,-288.386 L -1006.79,-288.337 L -1006.48,-288.269
 L -1006.18,-288.182 L -1005.89,-288.077 L -1005.6,-287.953 L -1005.33,-287.812 L -1005.06,-287.653 L -1004.8,-287.478
 L -1004.55,-287.287 L -1004.32,-287.081 L -1004.1,-286.86 L -1003.89,-286.627 L -1003.7,-286.38 L -1003.53,-286.123
 L -1003.37,-285.854 L -1003.23,-285.577 L -1003.1,-285.291 L -1003,-284.997 L -1002.91,-284.698 L -1002.84,-284.394
 L -1002.8,-284.086 L -1002.77,-283.776 L -1002.76,-283.465 L -1002.77,-283.153 L -1002.8,-282.843 L -1002.84,-282.535
 L -1002.91,-282.231 L -1003,-281.932 L -1003.1,-281.638 L -1003.23,-281.352 L -1003.37,-281.075 L -1003.53,-280.807
 L -1003.7,-280.549 L -1003.89,-280.303 L -1004.1,-280.069 L -1004.32,-279.848 L -1004.55,-279.642 L -1004.8,-279.451
 L -1005.06,-279.276 L -1005.33,-279.118 L -1005.6,-278.976 L -1005.89,-278.852 L -1006.18,-278.747 L -1006.48,-278.66
 L -1006.79,-278.592 L -1007.09,-278.543 L -1007.41,-278.514 L -1007.72,-278.504 L -1008.03,-278.514 L -1008.34,-278.543
 L -1008.65,-278.592 L -1008.95,-278.66 L -1009.25,-278.747 L -1009.54,-278.852 L -1009.83,-278.976 L -1010.11,-279.118
 L -1010.37,-279.276 L -1010.63,-279.451 L -1010.88,-279.642 L -1011.11,-279.848 L -1011.33,-280.069 L -1011.54,-280.303
 L -1011.73,-280.549 L -1011.9,-280.807 L -1012.06,-281.075 L -1012.21,-281.352 L -1012.33,-281.638 L -1012.43,-281.932
 L -1012.52,-282.231 L -1012.59,-282.535 L -1012.64,-282.843 L -1012.67,-283.153 z
M -1008.22,395.433 L -1008.22,395.211 L -1008.19,394.989 L -1008.16,394.769 L -1008.11,394.552 L -1008.05,394.338
 L -1007.97,394.129 L -1007.89,393.924 L -1007.78,393.726 L -1007.67,393.534 L -1007.55,393.35 L -1007.41,393.174
 L -1007.26,393.008 L -1007.1,392.85 L -1006.94,392.703 L -1006.76,392.566 L -1006.58,392.441 L -1006.39,392.328
 L -1006.19,392.227 L -1005.98,392.139 L -1005.77,392.063 L -1005.56,392.001 L -1005.34,391.953 L -1005.12,391.918
 L -1004.9,391.897 L -1004.68,391.89 L -1004.46,391.897 L -1004.24,391.918 L -1004.02,391.953 L -1003.8,392.001
 L -1003.58,392.063 L -1003.38,392.139 L -1003.17,392.227 L -1002.97,392.328 L -1002.78,392.441 L -1002.6,392.566
 L -1002.42,392.703 L -1002.25,392.85 L -1002.1,393.008 L -1001.95,393.174 L -1001.81,393.35 L -1001.69,393.534
 L -1001.57,393.726 L -1001.47,393.924 L -1001.38,394.129 L -1001.31,394.338 L -1001.25,394.552 L -1001.2,394.769
 L -1001.16,394.989 L -1001.14,395.211 L -1001.14,395.433 L -1001.14,395.656 L -1001.16,395.877 L -1001.2,396.097
 L -1001.25,396.314 L -1001.31,396.528 L -1001.38,396.737 L -1001.47,396.942 L -1001.57,397.14 L -1001.69,397.332
 L -1001.81,397.516 L -1001.95,397.692 L -1002.1,397.859 L -1002.25,398.016 L -1002.42,398.163 L -1002.6,398.3
 L -1002.78,398.425 L -1002.97,398.538 L -1003.17,398.639 L -1003.38,398.728 L -1003.58,398.803 L -1003.8,398.865
 L -1004.02,398.914 L -1004.24,398.948 L -1004.46,398.969 L -1004.68,398.976 L -1004.9,398.969 L -1005.12,398.948
 L -1005.34,398.914 L -1005.56,398.865 L -1005.77,398.803 L -1005.98,398.728 L -1006.19,398.639 L -1006.39,398.538
 L -1006.58,398.425 L -1006.76,398.3 L -1006.94,398.163 L -1007.1,398.016 L -1007.26,397.859 L -1007.41,397.692
 L -1007.55,397.516 L -1007.67,397.332 L -1007.78,397.14 L -1007.89,396.942 L -1007.97,396.737 L -1008.05,396.528
 L -1008.11,396.314 L -1008.16,396.097 L -1008.19,395.877 L -1008.22,395.656 z
M -1008.22,-395.433 L -1008.22,-395.656 L -1008.19,-395.877 L -1008.16,-396.097 L -1008.11,-396.314 L -1008.05,-396.528
 L -1007.97,-396.737 L -1007.89,-396.942 L -1007.78,-397.14 L -1007.67,-397.332 L -1007.55,-397.516 L -1007.41,-397.692
 L -1007.26,-397.859 L -1007.1,-398.016 L -1006.94,-398.163 L -1006.76,-398.3 L -1006.58,-398.425 L -1006.39,-398.538
 L -1006.19,-398.639 L -1005.98,-398.728 L -1005.77,-398.803 L -1005.56,-398.865 L -1005.34,-398.914 L -1005.12,-398.948
 L -1004.9,-398.969 L -1004.68,-398.976 L -1004.46,-398.969 L -1004.24,-398.948 L -1004.02,-398.914 L -1003.8,-398.865
 L -1003.58,-398.803 L -1003.38,-398.728 L -1003.17,-398.639 L -1002.97,-398.538 L -1002.78,-398.425 L -1002.6,-398.3
 L -1002.42,-398.163 L -1002.25,-398.016 L -1002.1,-397.859 L -1001.95,-397.692 L -1001.81,-397.516 L -1001.69,-397.332
 L -1001.57,-397.14 L -1001.47,-396.942 L -1001.38,-396.737 L -1001.31,-396.528 L -1001.25,-396.314 L -1001.2,-396.097
 L -1001.16,-395.877 L -1001.14,-395.656 L -1001.14,-395.433 L -1001.14,-395.211 L -1001.16,-394.989 L -1001.2,-394.769
 L -1001.25,-394.552 L -1001.31,-394.338 L -1001.38,-394.129 L -1001.47,-393.924 L -1001.57,-393.726 L -1001.69,-393.534
 L -1001.81,-393.35 L -1001.95,-393.174 L -1002.1,-393.008 L -1002.25,-392.85 L -1002.42,-392.703 L -1002.6,-392.566
 L -1002.78,-392.441 L -1002.97,-392.328 L -1003.17,-392.227 L -1003.38,-392.139 L -1003.58,-392.063 L -1003.8,-392.001
 L -1004.02,-391.953 L -1004.24,-391.918 L -1004.46,-391.897 L -1004.68,-391.89 L -1004.9,-391.897 L -1005.12,-391.918
 L -1005.34,-391.953 L -1005.56,-392.001 L -1005.77,-392.063 L -1005.98,-392.139 L -1006.19,-392.227 L -1006.39,-392.328
 L -1006.58,-392.441 L -1006.76,-392.566 L -1006.94,-392.703 L -1007.1,-392.85 L -1007.26,-393.008 L -1007.41,-393.174
 L -1007.55,-393.35 L -1007.67,-393.534 L -1007.78,-393.726 L -1007.89,-393.924 L -1007.97,-394.129 L -1008.05,-394.338
 L -1008.11,-394.552 L -1008.16,-394.769 L -1008.19,-394.989 L -1008.22,-395.211 z
M -968.234,402.52 L -968.234,388.346 L -895.343,388.346 L -895.343,402.52 z
M -968.234,-388.346 L -968.234,-402.52 L -895.343,-402.52 L -895.343,-388.346 z
M -885.118,395.433 L -885.111,395.211 L -885.09,394.989 L -885.055,394.769 L -885.007,394.552 L -884.945,394.338
 L -884.869,394.129 L -884.781,393.924 L -884.68,393.726 L -884.567,393.534 L -884.441,393.35 L -884.305,393.174
 L -884.158,393.008 L -884,392.85 L -883.833,392.703 L -883.658,392.566 L -883.473,392.441 L -883.282,392.328
 L -883.083,392.227 L -882.879,392.139 L -882.67,392.063 L -882.456,392.001 L -882.239,391.953 L -882.019,391.918
 L -881.797,391.897 L -881.575,391.89 L -881.352,391.897 L -881.131,391.918 L -880.911,391.953 L -880.694,392.001
 L -880.48,392.063 L -880.27,392.139 L -880.066,392.227 L -879.868,392.328 L -879.676,392.441 L -879.492,392.566
 L -879.316,392.703 L -879.149,392.85 L -878.992,393.008 L -878.845,393.174 L -878.708,393.35 L -878.583,393.534
 L -878.47,393.726 L -878.369,393.924 L -878.28,394.129 L -878.205,394.338 L -878.143,394.552 L -878.094,394.769
 L -878.059,394.989 L -878.038,395.211 L -878.031,395.433 L -878.038,395.656 L -878.059,395.877 L -878.094,396.097
 L -878.143,396.314 L -878.205,396.528 L -878.28,396.737 L -878.369,396.942 L -878.47,397.14 L -878.583,397.332
 L -878.708,397.516 L -878.845,397.692 L -878.992,397.859 L -879.149,398.016 L -879.316,398.163 L -879.492,398.3
 L -879.676,398.425 L -879.868,398.538 L -880.066,398.639 L -880.27,398.728 L -880.48,398.803 L -880.694,398.865
 L -880.911,398.914 L -881.131,398.948 L -881.352,398.969 L -881.575,398.976 L -881.797,398.969 L -882.019,398.948
 L -882.239,398.914 L -882.456,398.865 L -882.67,398.803 L -882.879,398.728 L -883.083,398.639 L -883.282,398.538
 L -883.473,398.425 L -883.658,398.3 L -883.833,398.163 L -884,398.016 L -884.158,397.859 L -884.305,397.692
 L -884.441,397.516 L -884.567,397.332 L -884.68,397.14 L -884.781,396.942 L -884.869,396.737 L -884.945,396.528
 L -885.007,396.314 L -885.055,396.097 L -885.09,395.877 L -885.111,395.656 z
M -885.118,-395.433 L -885.111,-395.656 L -885.09,-395.877 L -885.055,-396.097 L -885.007,-396.314 L -884.945,-396.528
 L -884.869,-396.737 L -884.781,-396.942 L -884.68,-397.14 L -884.567,-397.332 L -884.441,-397.516 L -884.305,-397.692
 L -884.158,-397.859 L -884,-398.016 L -883.833,-398.163 L -883.658,-398.3 L -883.473,-398.425 L -883.282,-398.538
 L -883.083,-398.639 L -882.879,-398.728 L -882.67,-398.803 L -882.456,-398.865 L -882.239,-398.914 L -882.019,-398.948
 L -881.797,-398.969 L -881.575,-398.976 L -881.352,-398.969 L -881.131,-398.948 L -880.911,-398.914 L -880.694,-398.865
 L -880.48,-398.803 L -880.27,-398.728 L -880.066,-398.639 L -879.868,-398.538 L -879.676,-398.425 L -879.492,-398.3
 L -879.316,-398.163 L -879.149,-398.016 L -878.992,-397.859 L -878.845,-397.692 L -878.708,-397.516 L -878.583,-397.332
 L -878.47,-397.14 L -878.369,-396.942 L -878.28,-396.737 L -878.205,-396.528 L -878.143,-396.314 L -878.094,-396.097
 L -878.059,-395.877 L -878.038,-395.656 L -878.031,-395.433 L -878.038,-395.211 L -878.059,-394.989 L -878.094,-394.769
 L -878.143,-394.552 L -878.205,-394.338 L -878.28,-394.129 L -878.369,-393.924 L -878.47,-393.726 L -878.583,-393.534
 L -878.708,-393.35 L -878.845,-393.174 L -878.992,-393.008 L -879.149,-392.85 L -879.316,-392.703 L -879.492,-392.566
 L -879.676,-392.441 L -879.868,-392.328 L -880.066,-392.227 L -880.27,-392.139 L -880.48,-392.063 L -880.694,-392.001
 L -880.911,-391.953 L -881.131,-391.918 L -881.352,-391.897 L -881.575,-391.89 L -881.797,-391.897 L -882.019,-391.918
 L -882.239,-391.953 L -882.456,-392.001 L -882.67,-392.063 L -882.879,-392.139 L -883.083,-392.227 L -883.282,-392.328
 L -883.473,-392.441 L -883.658,-392.566 L -883.833,-392.703 L -884,-392.85 L -884.158,-393.008 L -884.305,-393.174
 L -884.441,-393.35 L -884.567,-393.534 L -884.68,-393.726 L -884.781,-393.924 L -884.869,-394.129 L -884.945,-394.338
 L -885.007,-394.552 L -885.055,-394.769 L -885.09,-394.989 L -885.111,-395.211 z
M -839.764,395.433 L -839.757,395.211 L -839.736,394.989 L -839.701,394.769 L -839.652,394.552 L -839.59,394.338
 L -839.515,394.129 L -839.427,393.924 L -839.325,393.726 L -839.212,393.534 L -839.087,393.35 L -838.951,393.174
 L -838.803,393.008 L -838.646,392.85 L -838.479,392.703 L -838.303,392.566 L -838.119,392.441 L -837.927,392.328
 L -837.729,392.227 L -837.525,392.139 L -837.315,392.063 L -837.102,392.001 L -836.884,391.953 L -836.665,391.918
 L -836.443,391.897 L -836.22,391.89 L -835.998,391.897 L -835.776,391.918 L -835.557,391.953 L -835.339,392.001
 L -835.126,392.063 L -834.916,392.139 L -834.712,392.227 L -834.513,392.328 L -834.322,392.441 L -834.138,392.566
 L -833.962,392.703 L -833.795,392.85 L -833.638,393.008 L -833.49,393.174 L -833.354,393.35 L -833.229,393.534
 L -833.115,393.726 L -833.014,393.924 L -832.926,394.129 L -832.851,394.338 L -832.788,394.552 L -832.74,394.769
 L -832.705,394.989 L -832.684,395.211 L -832.677,395.433 L -832.684,395.656 L -832.705,395.877 L -832.74,396.097
 L -832.788,396.314 L -832.851,396.528 L -832.926,396.737 L -833.014,396.942 L -833.115,397.14 L -833.229,397.332
 L -833.354,397.516 L -833.49,397.692 L -833.638,397.859 L -833.795,398.016 L -833.962,398.163 L -834.138,398.3
 L -834.322,398.425 L -834.513,398.538 L -834.712,398.639 L -834.916,398.728 L -835.126,398.803 L -835.339,398.865
 L -835.557,398.914 L -835.776,398.948 L -835.998,398.969 L -836.22,398.976 L -836.443,398.969 L -836.665,398.948
 L -836.884,398.914 L -837.102,398.865 L -837.315,398.803 L -837.525,398.728 L -837.729,398.639 L -837.927,398.538
 L -838.119,398.425 L -838.303,398.3 L -838.479,398.163 L -838.646,398.016 L -838.803,397.859 L -838.951,397.692
 L -839.087,397.516 L -839.212,397.332 L -839.325,397.14 L -839.427,396.942 L -839.515,396.737 L -839.59,396.528
 L -839.652,396.314 L -839.701,396.097 L -839.736,395.877 L -839.757,395.656 z
M -839.764,-395.433 L -839.757,-395.656 L -839.736,-395.877 L -839.701,-396.097 L -839.652,-396.314 L -839.59,-396.528
 L -839.515,-396.737 L -839.427,-396.942 L -839.325,-397.14 L -839.212,-397.332 L -839.087,-397.516 L -838.951,-397.692
 L -838.803,-397.859 L -838.646,-398.016 L -838.479,-398.163 L -838.303,-398.3 L -838.119,-398.425 L -837.927,-398.538
 L -837.729,-398.639 L -837.525,-398.728 L -837.315,-398.803 L -837.102,-398.865 L -836.884,-398.914 L -836.665,-398.948
 L -836.443,-398.969 L -836.22,-398.976 L -835.998,-398.969 L -835.776,-398.948 L -835.557,-398.914 L -835.339,-398.865
 L -835.126,-398.803 L -834.916,-398.728 L -834.712,-398.639 L -834.513,-398.538 L -834.322,-398.425 L -834.138,-398.3
 L -833.962,-398.163 L -833.795,-398.016 L -833.638,-397.859 L -833.49,-397.692 L -833.354,-397.516 L -833.229,-397.332
 L -833.115,-397.14 L -833.014,-396.942 L -832.926,-396.737 L -832.851,-396.528 L -832.788,-396.314 L -832.74,-396.097
 L -832.705,-395.877 L -832.684,-395.656 L -832.677,-395.433 L -832.684,-395.211 L -832.705,-394.989 L -832.74,-394.769
 L -832.788,-394.552 L -832.851,-394.338 L -832.926,-394.129 L -833.014,-393.924 L -833.115,-393.726 L -833.229,-393.534
 L -833.354,-393.35 L -833.49,-393.174 L -833.638,-393.008 L -833.795,-392.85 L -833.962,-392.703 L -834.138,-392.566
 L -834.322,-392.441 L -834.513,-392.328 L -834.712,-392.227 L -834.916,-392.139 L -835.126,-392.063 L -835.339,-392.001
 L -835.557,-391.953 L -835.776,-391.918 L -835.998,-391.897 L -836.22,-391.89 L -836.443,-391.897 L -836.665,-391.918
 L -836.884,-391.953 L -837.102,-392.001 L -837.315,-392.063 L -837.525,-392.139 L -837.729,-392.227 L -837.927,-392.328
 L -838.119,-392.441 L -838.303,-392.566 L -838.479,-392.703 L -838.646,-392.85 L -838.803,-393.008 L -838.951,-393.174
 L -839.087,-393.35 L -839.212,-393.534 L -839.325,-393.726 L -839.427,-393.924 L -839.515,-394.129 L -839.59,-394.338
 L -839.652,-394.552 L -839.701,-394.769 L -839.736,-394.989 L -839.757,-395.211 z
M -822.452,402.52 L -822.452,388.346 L -749.561,388.346 L -749.561,402.52 z
M -822.452,-388.346 L -822.452,-402.52 L -749.561,-402.52 L -749.561,-388.346 z
M -716.659,395.433 L -716.652,395.211 L -716.631,394.989 L -716.596,394.769 L -716.548,394.552 L -716.486,394.338
 L -716.41,394.129 L -716.322,393.924 L -716.221,393.726 L -716.108,393.534 L -715.982,393.35 L -715.846,393.174
 L -715.699,393.008 L -715.541,392.85 L -715.374,392.703 L -715.199,392.566 L -715.014,392.441 L -714.823,392.328
 L -714.625,392.227 L -714.42,392.139 L -714.211,392.063 L -713.997,392.001 L -713.78,391.953 L -713.56,391.918
 L -713.338,391.897 L -713.116,391.89 L -712.893,391.897 L -712.672,391.918 L -712.452,391.953 L -712.235,392.001
 L -712.021,392.063 L -711.811,392.139 L -711.607,392.227 L -711.409,392.328 L -711.217,392.441 L -711.033,392.566
 L -710.857,392.703 L -710.69,392.85 L -710.533,393.008 L -710.386,393.174 L -710.249,393.35 L -710.124,393.534
 L -710.011,393.726 L -709.91,393.924 L -709.821,394.129 L -709.746,394.338 L -709.684,394.552 L -709.635,394.769
 L -709.6,394.989 L -709.58,395.211 L -709.573,395.433 L -709.58,395.656 L -709.6,395.877 L -709.635,396.097
 L -709.684,396.314 L -709.746,396.528 L -709.821,396.737 L -709.91,396.942 L -710.011,397.14 L -710.124,397.332
 L -710.249,397.516 L -710.386,397.692 L -710.533,397.859 L -710.69,398.016 L -710.857,398.163 L -711.033,398.3
 L -711.217,398.425 L -711.409,398.538 L -711.607,398.639 L -711.811,398.728 L -712.021,398.803 L -712.235,398.865
 L -712.452,398.914 L -712.672,398.948 L -712.893,398.969 L -713.116,398.976 L -713.338,398.969 L -713.56,398.948
 L -713.78,398.914 L -713.997,398.865 L -714.211,398.803 L -714.42,398.728 L -714.625,398.639 L -714.823,398.538
 L -715.014,398.425 L -715.199,398.3 L -715.374,398.163 L -715.541,398.016 L -715.699,397.859 L -715.846,397.692
 L -715.982,397.516 L -716.108,397.332 L -716.221,397.14 L -716.322,396.942 L -716.41,396.737 L -716.486,396.528
 L -716.548,396.314 L -716.596,396.097 L -716.631,395.877 L -716.652,395.656 z
M -716.659,-395.433 L -716.652,-395.656 L -716.631,-395.877 L -716.596,-396.097 L -716.548,-396.314 L -716.486,-396.528
 L -716.41,-396.737 L -716.322,-396.942 L -716.221,-397.14 L -716.108,-397.332 L -715.982,-397.516 L -715.846,-397.692
 L -715.699,-397.859 L -715.541,-398.016 L -715.374,-398.163 L -715.199,-398.3 L -715.014,-398.425 L -714.823,-398.538
 L -714.625,-398.639 L -714.42,-398.728 L -714.211,-398.803 L -713.997,-398.865 L -713.78,-398.914 L -713.56,-398.948
 L -713.338,-398.969 L -713.116,-398.976 L -712.893,-398.969 L -712.672,-398.948 L -712.452,-398.914 L -712.235,-398.865
 L -712.021,-398.803 L -711.811,-398.728 L -711.607,-398.639 L -711.409,-398.538 L -711.217,-398.425 L -711.033,-398.3
 L -710.857,-398.163 L -710.69,-398.016 L -710.533,-397.859 L -710.386,-397.692 L -710.249,-397.516 L -710.124,-397.332
 L -710.011,-397.14 L -709.91,-396.942 L -709.821,-396.737 L -709.746,-396.528 L -709.684,-396.314 L -709.635,-396.097
 L -709.6,-395.877 L -709.58,-395.656 L -709.573,-395.433 L -709.58,-395.211 L -709.6,-394.989 L -709.635,-394.769
 L -709.684,-394.552 L -709.746,-394.338 L -709.821,-394.129 L -709.91,-393.924 L -710.011,-393.726 L -710.124,-393.534
 L -710.249,-393.35 L -710.386,-393.174 L -710.533,-393.008 L -710.69,-392.85 L -710.857,-392.703 L -711.033,-392.566
 L -711.217,-392.441 L -711.409,-392.328 L -711.607,-392.227 L -711.811,-392.139 L -712.021,-392.063 L -712.235,-392.001
 L -712.452,-391.953 L -712.672,-391.918 L -712.893,-391.897 L -713.116,-391.89 L -713.338,-391.897 L -713.56,-391.918
 L -713.78,-391.953 L -713.997,-392.001 L -714.211,-392.063 L -714.42,-392.139 L -714.625,-392.227 L -714.823,-392.328
 L -715.014,-392.441 L -715.199,-392.566 L -715.374,-392.703 L -715.541,-392.85 L -715.699,-393.008 L -715.846,-393.174
 L -715.982,-393.35 L -716.108,-393.534 L -716.221,-393.726 L -716.322,-393.924 L -716.41,-394.129 L -716.486,-394.338
 L -716.548,-394.552 L -716.596,-394.769 L -716.631,-394.989 L -716.652,-395.211 z
M -676.67,-402.52 L -603.78,-402.52 L -603.78,-388.346 L -676.67,-388.346 z
M -676.67,402.52 L -676.67,388.346 L -603.78,388.346 L -603.78,402.52 z
M -470.551,-36.4454 L -470.551,-109.336 L -456.378,-109.336 L -456.378,-36.4454 z
M -470.551,-182.227 L -470.551,-255.118 L -456.378,-255.118 L -456.378,-182.227 z
M -470.551,255.118 L -470.551,182.227 L -456.378,182.227 L -456.378,255.118 z
M -470.551,109.336 L -470.551,36.4454 L -456.378,36.4454 L -456.378,109.336 z
M -467.008,145.782 L -467.001,145.559 L -466.98,145.338 L -466.945,145.118 L -466.897,144.901 L -466.834,144.687
 L -466.759,144.477 L -466.671,144.273 L -466.57,144.075 L -466.456,143.883 L -466.331,143.699 L -466.195,143.523
 L -466.048,143.356 L -465.89,143.199 L -465.723,143.052 L -465.547,142.915 L -465.363,142.79 L -465.172,142.677
 L -464.973,142.576 L -464.769,142.487 L -464.56,142.412 L -464.346,142.35 L -464.129,142.301 L -463.909,142.266
 L -463.687,142.245 L -463.465,142.238 L -463.242,142.245 L -463.02,142.266 L -462.801,142.301 L -462.583,142.35
 L -462.37,142.412 L -462.16,142.487 L -461.956,142.576 L -461.758,142.677 L -461.566,142.79 L -461.382,142.915
 L -461.206,143.052 L -461.039,143.199 L -460.882,143.356 L -460.734,143.523 L -460.598,143.699 L -460.473,143.883
 L -460.36,144.075 L -460.258,144.273 L -460.17,144.477 L -460.095,144.687 L -460.033,144.901 L -459.984,145.118
 L -459.949,145.338 L -459.928,145.559 L -459.921,145.782 L -459.928,146.004 L -459.949,146.226 L -459.984,146.446
 L -460.033,146.663 L -460.095,146.877 L -460.17,147.086 L -460.258,147.29 L -460.36,147.489 L -460.473,147.68
 L -460.598,147.864 L -460.734,148.04 L -460.882,148.207 L -461.039,148.365 L -461.206,148.512 L -461.382,148.648
 L -461.566,148.773 L -461.758,148.887 L -461.956,148.988 L -462.16,149.076 L -462.37,149.152 L -462.583,149.214
 L -462.801,149.262 L -463.02,149.297 L -463.242,149.318 L -463.465,149.325 L -463.687,149.318 L -463.909,149.297
 L -464.129,149.262 L -464.346,149.214 L -464.56,149.152 L -464.769,149.076 L -464.973,148.988 L -465.172,148.887
 L -465.363,148.773 L -465.547,148.648 L -465.723,148.512 L -465.89,148.365 L -466.048,148.207 L -466.195,148.04
 L -466.331,147.864 L -466.456,147.68 L -466.57,147.489 L -466.671,147.29 L -466.759,147.086 L -466.834,146.877
 L -466.897,146.663 L -466.945,146.446 L -466.98,146.226 L -467.001,146.004 z
M -467.008,22.6772 L -467.001,22.4547 L -466.98,22.2331 L -466.945,22.0132 L -466.897,21.796 L -466.834,21.5822
 L -466.759,21.3728 L -466.671,21.1685 L -466.57,20.9702 L -466.456,20.7786 L -466.331,20.5945 L -466.195,20.4186
 L -466.048,20.2516 L -465.89,20.0942 L -465.723,19.947 L -465.547,19.8106 L -465.363,19.6855 L -465.172,19.5721
 L -464.973,19.4711 L -464.769,19.3827 L -464.56,19.3073 L -464.346,19.2452 L -464.129,19.1966 L -463.909,19.1618
 L -463.687,19.1409 L -463.465,19.1339 L -463.242,19.1409 L -463.02,19.1618 L -462.801,19.1966 L -462.583,19.2452
 L -462.37,19.3073 L -462.16,19.3827 L -461.956,19.4711 L -461.758,19.5721 L -461.566,19.6855 L -461.382,19.8106
 L -461.206,19.947 L -461.039,20.0942 L -460.882,20.2516 L -460.734,20.4186 L -460.598,20.5945 L -460.473,20.7786
 L -460.36,20.9702 L -460.258,21.1685 L -460.17,21.3728 L -460.095,21.5822 L -460.033,21.796 L -459.984,22.0132
 L -459.949,22.2331 L -459.928,22.4547 L -459.921,22.6772 L -459.928,22.8996 L -459.949,23.1213 L -459.984,23.3411
 L -460.033,23.5583 L -460.095,23.7721 L -460.17,23.9815 L -460.258,24.1858 L -460.36,24.3842 L -460.473,24.5758
 L -460.598,24.7599 L -460.734,24.9358 L -460.882,25.1027 L -461.039,25.2601 L -461.206,25.4073 L -461.382,25.5438
 L -461.566,25.6689 L -461.758,25.7822 L -461.956,25.8832 L -462.16,25.9716 L -462.37,26.047 L -462.583,26.1092
 L -462.801,26.1577 L -463.02,26.1925 L -463.242,26.2135 L -463.465,26.2205 L -463.687,26.2135 L -463.909,26.1925
 L -464.129,26.1577 L -464.346,26.1092 L -464.56,26.047 L -464.769,25.9716 L -464.973,25.8832 L -465.172,25.7822
 L -465.363,25.6689 L -465.547,25.5438 L -465.723,25.4073 L -465.89,25.2601 L -466.048,25.1027 L -466.195,24.9358
 L -466.331,24.7599 L -466.456,24.5758 L -466.57,24.3842 L -466.671,24.1858 L -466.759,23.9815 L -466.834,23.7721
 L -466.897,23.5583 L -466.945,23.3411 L -466.98,23.1213 L -467.001,22.8996 z
M -467.008,-22.6772 L -467.001,-22.8996 L -466.98,-23.1213 L -466.945,-23.3411 L -466.897,-23.5583 L -466.834,-23.7721
 L -466.759,-23.9815 L -466.671,-24.1858 L -466.57,-24.3842 L -466.456,-24.5758 L -466.331,-24.7599 L -466.195,-24.9358
 L -466.048,-25.1027 L -465.89,-25.2601 L -465.723,-25.4073 L -465.547,-25.5438 L -465.363,-25.6689 L -465.172,-25.7822
 L -464.973,-25.8832 L -464.769,-25.9716 L -464.56,-26.047 L -464.346,-26.1092 L -464.129,-26.1577 L -463.909,-26.1925
 L -463.687,-26.2135 L -463.465,-26.2205 L -463.242,-26.2135 L -463.02,-26.1925 L -462.801,-26.1577 L -462.583,-26.1092
 L -462.37,-26.047 L -462.16,-25.9716 L -461.956,-25.8832 L -461.758,-25.7822 L -461.566,-25.6689 L -461.382,-25.5438
 L -461.206,-25.4073 L -461.039,-25.2601 L -460.882,-25.1027 L -460.734,-24.9358 L -460.598,-24.7599 L -460.473,-24.5758
 L -460.36,-24.3842 L -460.258,-24.1858 L -460.17,-23.9815 L -460.095,-23.7721 L -460.033,-23.5583 L -459.984,-23.3411
 L -459.949,-23.1213 L -459.928,-22.8996 L -459.921,-22.6772 L -459.928,-22.4547 L -459.949,-22.2331 L -459.984,-22.0132
 L -460.033,-21.796 L -460.095,-21.5822 L -460.17,-21.3728 L -460.258,-21.1685 L -460.36,-20.9702 L -460.473,-20.7786
 L -460.598,-20.5945 L -460.734,-20.4186 L -460.882,-20.2516 L -461.039,-20.0942 L -461.206,-19.947 L -461.382,-19.8106
 L -461.566,-19.6855 L -461.758,-19.5721 L -461.956,-19.4711 L -462.16,-19.3827 L -462.37,-19.3073 L -462.583,-19.2452
 L -462.801,-19.1966 L -463.02,-19.1618 L -463.242,-19.1409 L -463.465,-19.1339 L -463.687,-19.1409 L -463.909,-19.1618
 L -464.129,-19.1966 L -464.346,-19.2452 L -464.56,-19.3073 L -464.769,-19.3827 L -464.973,-19.4711 L -465.172,-19.5721
 L -465.363,-19.6855 L -465.547,-19.8106 L -465.723,-19.947 L -465.89,-20.0942 L -466.048,-20.2516 L -466.195,-20.4186
 L -466.331,-20.5945 L -466.456,-20.7786 L -466.57,-20.9702 L -466.671,-21.1685 L -466.759,-21.3728 L -466.834,-21.5822
 L -466.897,-21.796 L -466.945,-22.0132 L -466.98,-22.2331 L -467.001,-22.4547 z
M -467.008,-145.782 L -467.001,-146.004 L -466.98,-146.226 L -466.945,-146.446 L -466.897,-146.663 L -466.834,-146.877
 L -466.759,-147.086 L -466.671,-147.29 L -466.57,-147.489 L -466.456,-147.68 L -466.331,-147.864 L -466.195,-148.04
 L -466.048,-148.207 L -465.89,-148.365 L -465.723,-148.512 L -465.547,-148.648 L -465.363,-148.773 L -465.172,-148.887
 L -464.973,-148.988 L -464.769,-149.076 L -464.56,-149.152 L -464.346,-149.214 L -464.129,-149.262 L -463.909,-149.297
 L -463.687,-149.318 L -463.465,-149.325 L -463.242,-149.318 L -463.02,-149.297 L -462.801,-149.262 L -462.583,-149.214
 L -462.37,-149.152 L -462.16,-149.076 L -461.956,-148.988 L -461.758,-148.887 L -461.566,-148.773 L -461.382,-148.648
 L -461.206,-148.512 L -461.039,-148.365 L -460.882,-148.207 L -460.734,-148.04 L -460.598,-147.864 L -460.473,-147.68
 L -460.36,-147.489 L -460.258,-147.29 L -460.17,-147.086 L -460.095,-146.877 L -460.033,-146.663 L -459.984,-146.446
 L -459.949,-146.226 L -459.928,-146.004 L -459.921,-145.782 L -459.928,-145.559 L -459.949,-145.338 L -459.984,-145.118
 L -460.033,-144.901 L -460.095,-144.687 L -460.17,-144.477 L -460.258,-144.273 L -460.36,-144.075 L -460.473,-143.883
 L -460.598,-143.699 L -460.734,-143.523 L -460.882,-143.356 L -461.039,-143.199 L -461.206,-143.052 L -461.382,-142.915
 L -461.566,-142.79 L -461.758,-142.677 L -461.956,-142.576 L -462.16,-142.487 L -462.37,-142.412 L -462.583,-142.35
 L -462.801,-142.301 L -463.02,-142.266 L -463.242,-142.245 L -463.465,-142.238 L -463.687,-142.245 L -463.909,-142.266
 L -464.129,-142.301 L -464.346,-142.35 L -464.56,-142.412 L -464.769,-142.487 L -464.973,-142.576 L -465.172,-142.677
 L -465.363,-142.79 L -465.547,-142.915 L -465.723,-143.052 L -465.89,-143.199 L -466.048,-143.356 L -466.195,-143.523
 L -466.331,-143.699 L -466.456,-143.883 L -466.57,-144.075 L -466.671,-144.273 L -466.759,-144.477 L -466.834,-144.687
 L -466.897,-144.901 L -466.945,-145.118 L -466.98,-145.338 L -467.001,-145.559 z
M -425.197,288.328 L -425.085,291.888 L -424.75,295.434 L -424.193,298.951 L -423.416,302.427 L -422.422,305.847
 L -421.216,309.198 L -419.801,312.467 L -418.184,315.64 L -416.371,318.706 L -414.369,321.651 L -412.187,324.465
 L -409.831,327.137 L -327.137,409.831 L -324.465,412.187 L -321.651,414.369 L -318.706,416.371 L -315.64,418.184
 L -312.467,419.801 L -309.198,421.216 L -305.847,422.422 L -302.427,423.416 L -298.951,424.193 L -295.434,424.75
 L -291.888,425.085 L -288.328,425.197 L -22.6772,425.197 L -22.6324,423.773 L -22.4983,422.355 L -22.2755,420.948
 L -21.9647,419.557 L -21.5673,418.189 L -21.0847,416.849 L -20.5189,415.541 L -19.8722,414.272 L -19.147,413.046
 L -18.3462,411.868 L -17.4731,410.742 L -16.5309,409.673 L -15.5236,408.666 L -14.455,407.724 L -13.3293,406.851
 L -12.151,406.05 L -10.9248,405.325 L -9.65547,404.678 L -8.34802,404.112 L -7.00763,403.63 L -5.63958,403.232
 L -4.24928,402.921 L -2.8422,402.698 L -1.42391,402.564 L 0,402.52 L 1.42391,402.564 L 2.8422,402.698
 L 4.24928,402.921 L 5.63958,403.232 L 7.00763,403.63 L 8.34802,404.112 L 9.65547,404.678 L 10.9248,405.325
 L 12.151,406.05 L 13.3293,406.851 L 14.455,407.724 L 15.5236,408.666 L 16.5309,409.673 L 17.4731,410.742
 L 18.3462,411.868 L 19.147,413.046 L 19.8722,414.272 L 20.5189,415.541 L 21.0847,416.849 L 21.5673,418.189
 L 21.9647,419.557 L 22.2755,420.948 L 22.4983,422.355 L 22.6324,423.773 L 22.6772,425.197 L 288.328,425.197
 L 291.888,425.085 L 295.434,424.75 L 298.951,424.193 L 302.427,423.416 L 305.847,422.422 L 309.198,421.216
 L 312.467,419.801 L 315.64,418.184 L 318.706,416.371 L 321.651,414.369 L 324.465,412.187 L 327.137,409.831
 L 409.831,327.137 L 412.187,324.465 L 414.369,321.651 L 416.371,318.706 L 418.184,315.64 L 419.801,312.467
 L 421.216,309.198 L 422.422,305.847 L 423.416,302.427 L 424.193,298.951 L 424.75,295.434 L 425.085,291.888
 L 425.197,288.328 L 425.197,22.6772 L 423.773,22.6324 L 422.355,22.4983 L 420.948,22.2755 L 419.557,21.9647
 L 418.189,21.5673 L 416.849,21.0847 L 415.541,20.5189 L 414.272,19.8722 L 413.046,19.147 L 411.868,18.3462
 L 410.742,17.4731 L 409.673,16.5309 L 408.666,15.5236 L 407.724,14.455 L 406.851,13.3293 L 406.05,12.151
 L 405.325,10.9248 L 404.678,9.65547 L 404.112,8.34802 L 403.63,7.00763 L 403.232,5.63958 L 402.921,4.24928
 L 402.698,2.8422 L 402.564,1.42391 L 402.52,-0 L 402.564,-1.42391 L 402.698,-2.8422 L 402.921,-4.24928
 L 403.232,-5.63958 L 403.63,-7.00763 L 404.112,-8.34802 L 404.678,-9.65547 L 405.325,-10.9248 L 406.05,-12.151
 L 406.851,-13.3293 L 407.724,-14.455 L 408.666,-15.5236 L 409.673,-16.5309 L 410.742,-17.4731 L 411.868,-18.3462
 L 413.046,-19.147 L 414.272,-19.8722 L 415.541,-20.5189 L 416.849,-21.0847 L 418.189,-21.5673 L 419.557,-21.9647
 L 420.948,-22.2755 L 422.355,-22.4983 L 423.773,-22.6324 L 425.197,-22.6772 L 425.197,-288.328 L 425.085,-291.888
 L 424.75,-295.434 L 424.193,-298.951 L 423.416,-302.427 L 422.422,-305.847 L 421.216,-309.198 L 419.801,-312.467
 L 418.184,-315.64 L 416.371,-318.706 L 414.369,-321.651 L 412.187,-324.465 L 409.831,-327.137 L 327.137,-409.831
 L 324.465,-412.187 L 321.651,-414.369 L 318.706,-416.371 L 315.64,-418.184 L 312.467,-419.801 L 309.198,-421.216
 L 305.847,-422.422 L 302.427,-423.416 L 298.951,-424.193 L 295.434,-424.75 L 291.888,-425.085 L 288.328,-425.197
 L 22.6772,-425.197 L 22.6324,-423.773 L 22.4983,-422.355 L 22.2755,-420.948 L 21.9647,-419.557 L 21.5673,-418.189
 L 21.0847,-416.849 L 20.5189,-415.541 L 19.8722,-414.272 L 19.147,-413.046 L 18.3462,-411.868 L 17.4731,-410.742
 L 16.5309,-409.673 L 15.5236,-408.666 L 14.455,-407.724 L 13.3293,-406.851 L 12.151,-406.05 L 10.9248,-405.325
 L 9.65547,-404.678 L 8.34802,-404.112 L 7.00763,-403.63 L 5.63958,-403.232 L 4.24928,-402.921 L 2.8422,-402.698
 L 1.42391,-402.564 L 0,-402.52 L -1.42391,-402.564 L -2.8422,-402.698 L -4.24928,-402.921 L -5.63958,-403.232
 L -7.00763,-403.63 L -8.34802,-404.112 L -9.65547,-404.678 L -10.9248,-405.325 L -12.151,-406.05 L -13.3293,-406.851
 L -14.455,-407.724 L -15.5236,-408.666 L -16.5309,-409.673 L -17.4731,-410.742 L -18.3462,-411.868 L -19.147,-413.046
 L -19.8722,-414.272 L -20.5189,-415.541 L -21.0847,-416.849 L -21.5673,-418.189 L -21.9647,-419.557 L -22.2755,-420.948
 L -22.4983,-422.355 L -22.6324,-423.773 L -22.6772,-425.197 L -288.328,-425.197 L -291.888,-425.085 L -295.434,-424.75
 L -298.951,-424.193 L -302.427,-423.416 L -305.847,-422.422 L -309.198,-421.216 L -312.467,-419.801 L -315.64,-418.184
 L -318.706,-416.371 L -321.651,-414.369 L -324.465,-412.187 L -327.137,-409.831 L -409.831,-327.137 L -412.187,-324.465
 L -414.369,-321.651 L -416.371,-318.706 L -418.184,-315.64 L -419.801,-312.467 L -421.216,-309.198 L -422.422,-305.847
 L -423.416,-302.427 L -424.193,-298.951 L -424.75,-295.434 L -425.085,-291.888 L -425.197,-288.328 L -425.197,-22.6772
 L -423.773,-22.6324 L -422.355,-22.4983 L -420.948,-22.2755 L -419.557,-21.9647 L -418.189,-21.5673 L -416.849,-21.0847
 L -415.541,-20.5189 L -414.272,-19.8722 L -413.046,-19.147 L -411.868,-18.3462 L -410.742,-17.4731 L -409.673,-16.5309
 L -408.666,-15.5236 L -407.724,-14.455 L -406.851,-13.3293 L -406.05,-12.151 L -405.325,-10.9248 L -404.678,-9.65547
 L -404.112,-8.34802 L -403.63,-7.00763 L -403.232,-5.63958 L -402.921,-4.24928 L -402.698,-2.8422 L -402.564,-1.42391
 L -402.52,-0 L -402.564,1.42391 L -402.698,2.8422 L -402.921,4.24928 L -403.232,5.63958 L -403.63,7.00763
 L -404.112,8.34802 L -404.678,9.65547 L -405.325,10.9248 L -406.05,12.151 L -406.851,13.3293 L -407.724,14.455
 L -408.666,15.5236 L -409.673,16.5309 L -410.742,17.4731 L -411.868,18.3462 L -413.046,19.147 L -414.272,19.8722
 L -415.541,20.5189 L -416.849,21.0847 L -418.189,21.5673 L -419.557,21.9647 L -420.948,22.2755 L -422.355,22.4983
 L -423.773,22.6324 L -425.197,22.6772 z
M -402.52,255.118 L -402.52,182.227 L -388.346,182.227 L -388.346,255.118 z
M -402.52,109.336 L -402.52,36.4454 L -388.346,36.4454 L -388.346,109.336 z
M -402.52,-36.4454 L -402.52,-109.336 L -388.346,-109.336 L -388.346,-36.4454 z
M -402.52,-182.227 L -402.52,-255.118 L -388.346,-255.118 L -388.346,-182.227 z
M -398.976,145.782 L -398.969,145.559 L -398.948,145.338 L -398.914,145.118 L -398.865,144.901 L -398.803,144.687
 L -398.728,144.477 L -398.639,144.273 L -398.538,144.075 L -398.425,143.883 L -398.3,143.699 L -398.163,143.523
 L -398.016,143.356 L -397.859,143.199 L -397.692,143.052 L -397.516,142.915 L -397.332,142.79 L -397.14,142.677
 L -396.942,142.576 L -396.737,142.487 L -396.528,142.412 L -396.314,142.35 L -396.097,142.301 L -395.877,142.266
 L -395.656,142.245 L -395.433,142.238 L -395.211,142.245 L -394.989,142.266 L -394.769,142.301 L -394.552,142.35
 L -394.338,142.412 L -394.129,142.487 L -393.924,142.576 L -393.726,142.677 L -393.534,142.79 L -393.35,142.915
 L -393.174,143.052 L -393.008,143.199 L -392.85,143.356 L -392.703,143.523 L -392.566,143.699 L -392.441,143.883
 L -392.328,144.075 L -392.227,144.273 L -392.139,144.477 L -392.063,144.687 L -392.001,144.901 L -391.953,145.118
 L -391.918,145.338 L -391.897,145.559 L -391.89,145.782 L -391.897,146.004 L -391.918,146.226 L -391.953,146.446
 L -392.001,146.663 L -392.063,146.877 L -392.139,147.086 L -392.227,147.29 L -392.328,147.489 L -392.441,147.68
 L -392.566,147.864 L -392.703,148.04 L -392.85,148.207 L -393.008,148.365 L -393.174,148.512 L -393.35,148.648
 L -393.534,148.773 L -393.726,148.887 L -393.924,148.988 L -394.129,149.076 L -394.338,149.152 L -394.552,149.214
 L -394.769,149.262 L -394.989,149.297 L -395.211,149.318 L -395.433,149.325 L -395.656,149.318 L -395.877,149.297
 L -396.097,149.262 L -396.314,149.214 L -396.528,149.152 L -396.737,149.076 L -396.942,148.988 L -397.14,148.887
 L -397.332,148.773 L -397.516,148.648 L -397.692,148.512 L -397.859,148.365 L -398.016,148.207 L -398.163,148.04
 L -398.3,147.864 L -398.425,147.68 L -398.538,147.489 L -398.639,147.29 L -398.728,147.086 L -398.803,146.877
 L -398.865,146.663 L -398.914,146.446 L -398.948,146.226 L -398.969,146.004 z
M -398.976,22.6772 L -398.969,22.4547 L -398.948,22.2331 L -398.914,22.0132 L -398.865,21.796 L -398.803,21.5822
 L -398.728,21.3728 L -398.639,21.1685 L -398.538,20.9702 L -398.425,20.7786 L -398.3,20.5945 L -398.163,20.4186
 L -398.016,20.2516 L -397.859,20.0942 L -397.692,19.947 L -397.516,19.8106 L -397.332,19.6855 L -397.14,19.5721
 L -396.942,19.4711 L -396.737,19.3827 L -396.528,19.3073 L -396.314,19.2452 L -396.097,19.1966 L -395.877,19.1618
 L -395.656,19.1409 L -395.433,19.1339 L -395.211,19.1409 L -394.989,19.1618 L -394.769,19.1966 L -394.552,19.2452
 L -394.338,19.3073 L -394.129,19.3827 L -393.924,19.4711 L -393.726,19.5721 L -393.534,19.6855 L -393.35,19.8106
 L -393.174,19.947 L -393.008,20.0942 L -392.85,20.2516 L -392.703,20.4186 L -392.566,20.5945 L -392.441,20.7786
 L -392.328,20.9702 L -392.227,21.1685 L -392.139,21.3728 L -392.063,21.5822 L -392.001,21.796 L -391.953,22.0132
 L -391.918,22.2331 L -391.897,22.4547 L -391.89,22.6772 L -391.897,22.8996 L -391.918,23.1213 L -391.953,23.3411
 L -392.001,23.5583 L -392.063,23.7721 L -392.139,23.9815 L -392.227,24.1858 L -392.328,24.3842 L -392.441,24.5758
 L -392.566,24.7599 L -392.703,24.9358 L -392.85,25.1027 L -393.008,25.2601 L -393.174,25.4073 L -393.35,25.5438
 L -393.534,25.6689 L -393.726,25.7822 L -393.924,25.8832 L -394.129,25.9716 L -394.338,26.047 L -394.552,26.1092
 L -394.769,26.1577 L -394.989,26.1925 L -395.211,26.2135 L -395.433,26.2205 L -395.656,26.2135 L -395.877,26.1925
 L -396.097,26.1577 L -396.314,26.1092 L -396.528,26.047 L -396.737,25.9716 L -396.942,25.8832 L -397.14,25.7822
 L -397.332,25.6689 L -397.516,25.5438 L -397.692,25.4073 L -397.859,25.2601 L -398.016,25.1027 L -398.163,24.9358
 L -398.3,24.7599 L -398.425,24.5758 L -398.538,24.3842 L -398.639,24.1858 L -398.728,23.9815 L -398.803,23.7721
 L -398.865,23.5583 L -398.914,23.3411 L -398.948,23.1213 L -398.969,22.8996 z
M -398.976,-22.6772 L -398.969,-22.8996 L -398.948,-23.1213 L -398.914,-23.3411 L -398.865,-23.5583 L -398.803,-23.7721
 L -398.728,-23.9815 L -398.639,-24.1858 L -398.538,-24.3842 L -398.425,-24.5758 L -398.3,-24.7599 L -398.163,-24.9358
 L -398.016,-25.1027 L -397.859,-25.2601 L -397.692,-25.4073 L -397.516,-25.5438 L -397.332,-25.6689 L -397.14,-25.7822
 L -396.942,-25.8832 L -396.737,-25.9716 L -396.528,-26.047 L -396.314,-26.1092 L -396.097,-26.1577 L -395.877,-26.1925
 L -395.656,-26.2135 L -395.433,-26.2205 L -395.211,-26.2135 L -394.989,-26.1925 L -394.769,-26.1577 L -394.552,-26.1092
 L -394.338,-26.047 L -394.129,-25.9716 L -393.924,-25.8832 L -393.726,-25.7822 L -393.534,-25.6689 L -393.35,-25.5438
 L -393.174,-25.4073 L -393.008,-25.2601 L -392.85,-25.1027 L -392.703,-24.9358 L -392.566,-24.7599 L -392.441,-24.5758
 L -392.328,-24.3842 L -392.227,-24.1858 L -392.139,-23.9815 L -392.063,-23.7721 L -392.001,-23.5583 L -391.953,-23.3411
 L -391.918,-23.1213 L -391.897,-22.8996 L -391.89,-22.6772 L -391.897,-22.4547 L -391.918,-22.2331 L -391.953,-22.0132
 L -392.001,-21.796 L -392.063,-21.5822 L -392.139,-21.3728 L -392.227,-21.1685 L -392.328,-20.9702 L -392.441,-20.7786
 L -392.566,-20.5945 L -392.703,-20.4186 L -392.85,-20.2516 L -393.008,-20.0942 L -393.174,-19.947 L -393.35,-19.8106
 L -393.534,-19.6855 L -393.726,-19.5721 L -393.924,-19.4711 L -394.129,-19.3827 L -394.338,-19.3073 L -394.552,-19.2452
 L -394.769,-19.1966 L -394.989,-19.1618 L -395.211,-19.1409 L -395.433,-19.1339 L -395.656,-19.1409 L -395.877,-19.1618
 L -396.097,-19.1966 L -396.314,-19.2452 L -396.528,-19.3073 L -396.737,-19.3827 L -396.942,-19.4711 L -397.14,-19.5721
 L -397.332,-19.6855 L -397.516,-19.8106 L -397.692,-19.947 L -397.859,-20.0942 L -398.016,-20.2516 L -398.163,-20.4186
 L -398.3,-20.5945 L -398.425,-20.7786 L -398.538,-20.9702 L -398.639,-21.1685 L -398.728,-21.3728 L -398.803,-21.5822
 L -398.865,-21.796 L -398.914,-22.0132 L -398.948,-22.2331 L -398.969,-22.4547 z
M -398.976,-145.782 L -398.969,-146.004 L -398.948,-146.226 L -398.914,-146.446 L -398.865,-146.663 L -398.803,-146.877
 L -398.728,-147.086 L -398.639,-147.29 L -398.538,-147.489 L -398.425,-147.68 L -398.3,-147.864 L -398.163,-148.04
 L -398.016,-148.207 L -397.859,-148.365 L -397.692,-148.512 L -397.516,-148.648 L -397.332,-148.773 L -397.14,-148.887
 L -396.942,-148.988 L -396.737,-149.076 L -396.528,-149.152 L -396.314,-149.214 L -396.097,-149.262 L -395.877,-149.297
 L -395.656,-149.318 L -395.433,-149.325 L -395.211,-149.318 L -394.989,-149.297 L -394.769,-149.262 L -394.552,-149.214
 L -394.338,-149.152 L -394.129,-149.076 L -393.924,-148.988 L -393.726,-148.887 L -393.534,-148.773 L -393.35,-148.648
 L -393.174,-148.512 L -393.008,-148.365 L -392.85,-148.207 L -392.703,-148.04 L -392.566,-147.864 L -392.441,-147.68
 L -392.328,-147.489 L -392.227,-147.29 L -392.139,-147.086 L -392.063,-146.877 L -392.001,-146.663 L -391.953,-146.446
 L -391.918,-146.226 L -391.897,-146.004 L -391.89,-145.782 L -391.897,-145.559 L -391.918,-145.338 L -391.953,-145.118
 L -392.001,-144.901 L -392.063,-144.687 L -392.139,-144.477 L -392.227,-144.273 L -392.328,-144.075 L -392.441,-143.883
 L -392.566,-143.699 L -392.703,-143.523 L -392.85,-143.356 L -393.008,-143.199 L -393.174,-143.052 L -393.35,-142.915
 L -393.534,-142.79 L -393.726,-142.677 L -393.924,-142.576 L -394.129,-142.487 L -394.338,-142.412 L -394.552,-142.35
 L -394.769,-142.301 L -394.989,-142.266 L -395.211,-142.245 L -395.433,-142.238 L -395.656,-142.245 L -395.877,-142.266
 L -396.097,-142.301 L -396.314,-142.35 L -396.528,-142.412 L -396.737,-142.487 L -396.942,-142.576 L -397.14,-142.677
 L -397.332,-142.79 L -397.516,-142.915 L -397.692,-143.052 L -397.859,-143.199 L -398.016,-143.356 L -398.163,-143.523
 L -398.3,-143.699 L -398.425,-143.883 L -398.538,-144.075 L -398.639,-144.273 L -398.728,-144.477 L -398.803,-144.687
 L -398.865,-144.901 L -398.914,-145.118 L -398.948,-145.338 L -398.969,-145.559 z
M -310.394,311.811 L -310.383,311.455 L -310.349,311.1 L -310.293,310.749 L -310.216,310.401 L -310.116,310.059
 L -309.996,309.724 L -309.854,309.397 L -309.692,309.08 L -309.511,308.773 L -309.311,308.479 L -309.093,308.197
 L -308.857,307.93 L -308.605,307.678 L -308.338,307.443 L -308.057,307.224 L -307.762,307.024 L -307.456,306.843
 L -307.138,306.681 L -306.811,306.54 L -306.476,306.419 L -306.134,306.32 L -305.787,306.242 L -305.435,306.186
 L -305.08,306.153 L -304.724,306.142 L -304.368,306.153 L -304.014,306.186 L -303.662,306.242 L -303.315,306.32
 L -302.973,306.419 L -302.637,306.54 L -302.311,306.681 L -301.993,306.843 L -301.687,307.024 L -301.392,307.224
 L -301.111,307.443 L -300.844,307.678 L -300.592,307.93 L -300.356,308.197 L -300.138,308.479 L -299.938,308.773
 L -299.756,309.08 L -299.595,309.397 L -299.453,309.724 L -299.333,310.059 L -299.233,310.401 L -299.156,310.749
 L -299.1,311.1 L -299.066,311.455 L -299.055,311.811 L -299.066,312.167 L -299.1,312.522 L -299.156,312.873
 L -299.233,313.221 L -299.333,313.563 L -299.453,313.898 L -299.595,314.225 L -299.756,314.542 L -299.938,314.849
 L -300.138,315.143 L -300.356,315.425 L -300.592,315.692 L -300.844,315.944 L -301.111,316.179 L -301.392,316.398
 L -301.687,316.598 L -301.993,316.779 L -302.311,316.941 L -302.637,317.082 L -302.973,317.203 L -303.315,317.302
 L -303.662,317.38 L -304.014,317.436 L -304.368,317.469 L -304.724,317.48 L -305.08,317.469 L -305.435,317.436
 L -305.787,317.38 L -306.134,317.302 L -306.476,317.203 L -306.811,317.082 L -307.138,316.941 L -307.456,316.779
 L -307.762,316.598 L -308.057,316.398 L -308.338,316.179 L -308.605,315.944 L -308.857,315.692 L -309.093,315.425
 L -309.311,315.143 L -309.511,314.849 L -309.692,314.542 L -309.854,314.225 L -309.996,313.898 L -310.116,313.563
 L -310.216,313.221 L -310.293,312.873 L -310.349,312.522 L -310.383,312.167 z
M -310.394,141.732 L -310.383,141.376 L -310.349,141.022 L -310.293,140.67 L -310.216,140.322 L -310.116,139.98
 L -309.996,139.645 L -309.854,139.318 L -309.692,139.001 L -309.511,138.695 L -309.311,138.4 L -309.093,138.119
 L -308.857,137.851 L -308.605,137.6 L -308.338,137.364 L -308.057,137.146 L -307.762,136.946 L -307.456,136.764
 L -307.138,136.603 L -306.811,136.461 L -306.476,136.34 L -306.134,136.241 L -305.787,136.163 L -305.435,136.108
 L -305.08,136.074 L -304.724,136.063 L -304.368,136.074 L -304.014,136.108 L -303.662,136.163 L -303.315,136.241
 L -302.973,136.34 L -302.637,136.461 L -302.311,136.603 L -301.993,136.764 L -301.687,136.946 L -301.392,137.146
 L -301.111,137.364 L -300.844,137.6 L -300.592,137.851 L -300.356,138.119 L -300.138,138.4 L -299.938,138.695
 L -299.756,139.001 L -299.595,139.318 L -299.453,139.645 L -299.333,139.98 L -299.233,140.322 L -299.156,140.67
 L -299.1,141.022 L -299.066,141.376 L -299.055,141.732 L -299.066,142.088 L -299.1,142.443 L -299.156,142.795
 L -299.233,143.142 L -299.333,143.484 L -299.453,143.819 L -299.595,144.146 L -299.756,144.463 L -299.938,144.77
 L -300.138,145.065 L -300.356,145.346 L -300.592,145.613 L -300.844,145.865 L -301.111,146.101 L -301.392,146.319
 L -301.687,146.519 L -301.993,146.7 L -302.311,146.862 L -302.637,147.003 L -302.973,147.124 L -303.315,147.223
 L -303.662,147.301 L -304.014,147.357 L -304.368,147.39 L -304.724,147.402 L -305.08,147.39 L -305.435,147.357
 L -305.787,147.301 L -306.134,147.223 L -306.476,147.124 L -306.811,147.003 L -307.138,146.862 L -307.456,146.7
 L -307.762,146.519 L -308.057,146.319 L -308.338,146.101 L -308.605,145.865 L -308.857,145.613 L -309.093,145.346
 L -309.311,145.065 L -309.511,144.77 L -309.692,144.463 L -309.854,144.146 L -309.996,143.819 L -310.116,143.484
 L -310.216,143.142 L -310.293,142.795 L -310.349,142.443 L -310.383,142.088 z
M -255.118,402.52 L -255.118,388.346 L -182.227,388.346 L -182.227,402.52 z
M -255.118,-388.346 L -255.118,-402.52 L -182.227,-402.52 L -182.227,-388.346 z
M -154.488,311.811 L -154.477,311.455 L -154.443,311.1 L -154.388,310.749 L -154.31,310.401 L -154.211,310.059
 L -154.09,309.724 L -153.949,309.397 L -153.787,309.08 L -153.606,308.773 L -153.405,308.479 L -153.187,308.197
 L -152.952,307.93 L -152.7,307.678 L -152.433,307.443 L -152.151,307.224 L -151.857,307.024 L -151.55,306.843
 L -151.233,306.681 L -150.906,306.54 L -150.571,306.419 L -150.229,306.32 L -149.881,306.242 L -149.529,306.186
 L -149.175,306.153 L -148.819,306.142 L -148.463,306.153 L -148.108,306.186 L -147.757,306.242 L -147.409,306.32
 L -147.067,306.419 L -146.732,306.54 L -146.405,306.681 L -146.088,306.843 L -145.781,307.024 L -145.487,307.224
 L -145.205,307.443 L -144.938,307.678 L -144.686,307.93 L -144.451,308.197 L -144.232,308.479 L -144.032,308.773
 L -143.851,309.08 L -143.689,309.397 L -143.548,309.724 L -143.427,310.059 L -143.328,310.401 L -143.25,310.749
 L -143.194,311.1 L -143.161,311.455 L -143.15,311.811 L -143.161,312.167 L -143.194,312.522 L -143.25,312.873
 L -143.328,313.221 L -143.427,313.563 L -143.548,313.898 L -143.689,314.225 L -143.851,314.542 L -144.032,314.849
 L -144.232,315.143 L -144.451,315.425 L -144.686,315.692 L -144.938,315.944 L -145.205,316.179 L -145.487,316.398
 L -145.781,316.598 L -146.088,316.779 L -146.405,316.941 L -146.732,317.082 L -147.067,317.203 L -147.409,317.302
 L -147.757,317.38 L -148.108,317.436 L -148.463,317.469 L -148.819,317.48 L -149.175,317.469 L -149.529,317.436
 L -149.881,317.38 L -150.229,317.302 L -150.571,317.203 L -150.906,317.082 L -151.233,316.941 L -151.55,316.779
 L -151.857,316.598 L -152.151,316.398 L -152.433,316.179 L -152.7,315.944 L -152.952,315.692 L -153.187,315.425
 L -153.405,315.143 L -153.606,314.849 L -153.787,314.542 L -153.949,314.225 L -154.09,313.898 L -154.211,313.563
 L -154.31,313.221 L -154.388,312.873 L -154.443,312.522 L -154.477,312.167 z
M -154.488,141.732 L -154.477,141.376 L -154.443,141.022 L -154.388,140.67 L -154.31,140.322 L -154.211,139.98
 L -154.09,139.645 L -153.949,139.318 L -153.787,139.001 L -153.606,138.695 L -153.405,138.4 L -153.187,138.119
 L -152.952,137.851 L -152.7,137.6 L -152.433,137.364 L -152.151,137.146 L -151.857,136.946 L -151.55,136.764
 L -151.233,136.603 L -150.906,136.461 L -150.571,136.34 L -150.229,136.241 L -149.881,136.163 L -149.529,136.108
 L -149.175,136.074 L -148.819,136.063 L -148.463,136.074 L -148.108,136.108 L -147.757,136.163 L -147.409,136.241
 L -147.067,136.34 L -146.732,136.461 L -146.405,136.603 L -146.088,136.764 L -145.781,136.946 L -145.487,137.146
 L -145.205,137.364 L -144.938,137.6 L -144.686,137.851 L -144.451,138.119 L -144.232,138.4 L -144.032,138.695
 L -143.851,139.001 L -143.689,139.318 L -143.548,139.645 L -143.427,139.98 L -143.328,140.322 L -143.25,140.67
 L -143.194,141.022 L -143.161,141.376 L -143.15,141.732 L -143.161,142.088 L -143.194,142.443 L -143.25,142.795
 L -143.328,143.142 L -143.427,143.484 L -143.548,143.819 L -143.689,144.146 L -143.851,144.463 L -144.032,144.77
 L -144.232,145.065 L -144.451,145.346 L -144.686,145.613 L -144.938,145.865 L -145.205,146.101 L -145.487,146.319
 L -145.781,146.519 L -146.088,146.7 L -146.405,146.862 L -146.732,147.003 L -147.067,147.124 L -147.409,147.223
 L -147.757,147.301 L -148.108,147.357 L -148.463,147.39 L -148.819,147.402 L -149.175,147.39 L -149.529,147.357
 L -149.881,147.301 L -150.229,147.223 L -150.571,147.124 L -150.906,147.003 L -151.233,146.862 L -151.55,146.7
 L -151.857,146.519 L -152.151,146.319 L -152.433,146.101 L -152.7,145.865 L -152.952,145.613 L -153.187,145.346
 L -153.405,145.065 L -153.606,144.77 L -153.787,144.463 L -153.949,144.146 L -154.09,143.819 L -154.211,143.484
 L -154.31,143.142 L -154.388,142.795 L -154.443,142.443 L -154.477,142.088 z
M -149.325,395.433 L -149.318,395.211 L -149.297,394.989 L -149.262,394.769 L -149.214,394.552 L -149.152,394.338
 L -149.076,394.129 L -148.988,393.924 L -148.887,393.726 L -148.773,393.534 L -148.648,393.35 L -148.512,393.174
 L -148.365,393.008 L -148.207,392.85 L -148.04,392.703 L -147.864,392.566 L -147.68,392.441 L -147.489,392.328
 L -147.29,392.227 L -147.086,392.139 L -146.877,392.063 L -146.663,392.001 L -146.446,391.953 L -146.226,391.918
 L -146.004,391.897 L -145.782,391.89 L -145.559,391.897 L -145.338,391.918 L -145.118,391.953 L -144.901,392.001
 L -144.687,392.063 L -144.477,392.139 L -144.273,392.227 L -144.075,392.328 L -143.883,392.441 L -143.699,392.566
 L -143.523,392.703 L -143.356,392.85 L -143.199,393.008 L -143.052,393.174 L -142.915,393.35 L -142.79,393.534
 L -142.677,393.726 L -142.576,393.924 L -142.487,394.129 L -142.412,394.338 L -142.35,394.552 L -142.301,394.769
 L -142.266,394.989 L -142.245,395.211 L -142.238,395.433 L -142.245,395.656 L -142.266,395.877 L -142.301,396.097
 L -142.35,396.314 L -142.412,396.528 L -142.487,396.737 L -142.576,396.942 L -142.677,397.14 L -142.79,397.332
 L -142.915,397.516 L -143.052,397.692 L -143.199,397.859 L -143.356,398.016 L -143.523,398.163 L -143.699,398.3
 L -143.883,398.425 L -144.075,398.538 L -144.273,398.639 L -144.477,398.728 L -144.687,398.803 L -144.901,398.865
 L -145.118,398.914 L -145.338,398.948 L -145.559,398.969 L -145.782,398.976 L -146.004,398.969 L -146.226,398.948
 L -146.446,398.914 L -146.663,398.865 L -146.877,398.803 L -147.086,398.728 L -147.29,398.639 L -147.489,398.538
 L -147.68,398.425 L -147.864,398.3 L -148.04,398.163 L -148.207,398.016 L -148.365,397.859 L -148.512,397.692
 L -148.648,397.516 L -148.773,397.332 L -148.887,397.14 L -148.988,396.942 L -149.076,396.737 L -149.152,396.528
 L -149.214,396.314 L -149.262,396.097 L -149.297,395.877 L -149.318,395.656 z
M -149.325,-395.433 L -149.318,-395.656 L -149.297,-395.877 L -149.262,-396.097 L -149.214,-396.314 L -149.152,-396.528
 L -149.076,-396.737 L -148.988,-396.942 L -148.887,-397.14 L -148.773,-397.332 L -148.648,-397.516 L -148.512,-397.692
 L -148.365,-397.859 L -148.207,-398.016 L -148.04,-398.163 L -147.864,-398.3 L -147.68,-398.425 L -147.489,-398.538
 L -147.29,-398.639 L -147.086,-398.728 L -146.877,-398.803 L -146.663,-398.865 L -146.446,-398.914 L -146.226,-398.948
 L -146.004,-398.969 L -145.782,-398.976 L -145.559,-398.969 L -145.338,-398.948 L -145.118,-398.914 L -144.901,-398.865
 L -144.687,-398.803 L -144.477,-398.728 L -144.273,-398.639 L -144.075,-398.538 L -143.883,-398.425 L -143.699,-398.3
 L -143.523,-398.163 L -143.356,-398.016 L -143.199,-397.859 L -143.052,-397.692 L -142.915,-397.516 L -142.79,-397.332
 L -142.677,-397.14 L -142.576,-396.942 L -142.487,-396.737 L -142.412,-396.528 L -142.35,-396.314 L -142.301,-396.097
 L -142.266,-395.877 L -142.245,-395.656 L -142.238,-395.433 L -142.245,-395.211 L -142.266,-394.989 L -142.301,-394.769
 L -142.35,-394.552 L -142.412,-394.338 L -142.487,-394.129 L -142.576,-393.924 L -142.677,-393.726 L -142.79,-393.534
 L -142.915,-393.35 L -143.052,-393.174 L -143.199,-393.008 L -143.356,-392.85 L -143.523,-392.703 L -143.699,-392.566
 L -143.883,-392.441 L -144.075,-392.328 L -144.273,-392.227 L -144.477,-392.139 L -144.687,-392.063 L -144.901,-392.001
 L -145.118,-391.953 L -145.338,-391.918 L -145.559,-391.897 L -145.782,-391.89 L -146.004,-391.897 L -146.226,-391.918
 L -146.446,-391.953 L -146.663,-392.001 L -146.877,-392.063 L -147.086,-392.139 L -147.29,-392.227 L -147.489,-392.328
 L -147.68,-392.441 L -147.864,-392.566 L -148.04,-392.703 L -148.207,-392.85 L -148.365,-393.008 L -148.512,-393.174
 L -148.648,-393.35 L -148.773,-393.534 L -148.887,-393.726 L -148.988,-393.924 L -149.076,-394.129 L -149.152,-394.338
 L -149.214,-394.552 L -149.262,-394.769 L -149.297,-394.989 L -149.318,-395.211 z
M -114.094,174.331 L -114.079,173.841 L -114.033,173.354 L -113.956,172.87 L -113.85,172.392 L -113.713,171.922
 L -113.547,171.461 L -113.353,171.012 L -113.13,170.575 L -112.881,170.154 L -112.606,169.749 L -112.306,169.362
 L -111.982,168.994 L -111.635,168.648 L -111.268,168.324 L -110.881,168.024 L -110.476,167.749 L -110.055,167.5
 L -109.618,167.277 L -109.169,167.083 L -108.708,166.917 L -108.238,166.78 L -107.76,166.674 L -107.276,166.597
 L -106.789,166.551 L -106.299,166.535 L -105.81,166.551 L -105.322,166.597 L -104.839,166.674 L -104.361,166.78
 L -103.89,166.917 L -103.43,167.083 L -102.98,167.277 L -102.544,167.5 L -102.122,167.749 L -101.717,168.024
 L -101.33,168.324 L -100.963,168.648 L -100.617,168.994 L -100.293,169.362 L -99.9927,169.749 L -99.7174,170.154
 L -99.4682,170.575 L -99.2458,171.012 L -99.0514,171.461 L -98.8855,171.922 L -98.7488,172.392 L -98.642,172.87
 L -98.5654,173.354 L -98.5193,173.841 L -98.5039,174.331 L -98.5193,174.82 L -98.5654,175.308 L -98.642,175.791
 L -98.7488,176.269 L -98.8855,176.74 L -99.0514,177.2 L -99.2458,177.65 L -99.4682,178.086 L -99.7174,178.508
 L -99.9927,178.913 L -100.293,179.3 L -100.617,179.667 L -100.963,180.013 L -101.33,180.337 L -101.717,180.637
 L -102.122,180.912 L -102.544,181.162 L -102.98,181.384 L -103.43,181.579 L -103.89,181.744 L -104.361,181.881
 L -104.839,181.988 L -105.322,182.065 L -105.81,182.111 L -106.299,182.126 L -106.789,182.111 L -107.276,182.065
 L -107.76,181.988 L -108.238,181.881 L -108.708,181.744 L -109.169,181.579 L -109.618,181.384 L -110.055,181.162
 L -110.476,180.912 L -110.881,180.637 L -111.268,180.337 L -111.635,180.013 L -111.982,179.667 L -112.306,179.3
 L -112.606,178.913 L -112.881,178.508 L -113.13,178.086 L -113.353,177.65 L -113.547,177.2 L -113.713,176.74
 L -113.85,176.269 L -113.956,175.791 L -114.033,175.308 L -114.079,174.82 z
M -109.336,402.52 L -109.336,388.346 L -36.4454,388.346 L -36.4454,402.52 z
M -109.336,-388.346 L -109.336,-402.52 L -36.4454,-402.52 L -36.4454,-388.346 z
M -85.748,276.378 L -85.7326,275.888 L -85.6866,275.401 L -85.61,274.917 L -85.5031,274.439 L -85.3665,273.969
 L -85.2006,273.508 L -85.0061,273.059 L -84.7838,272.623 L -84.5345,272.201 L -84.2593,271.796 L -83.9591,271.409
 L -83.6353,271.042 L -83.289,270.695 L -82.9217,270.372 L -82.5347,270.071 L -82.1297,269.796 L -81.7082,269.547
 L -81.2718,269.325 L -80.8224,269.13 L -80.3616,268.964 L -79.8914,268.828 L -79.4134,268.721 L -78.9298,268.644
 L -78.4422,268.598 L -77.9528,268.583 L -77.4633,268.598 L -76.9758,268.644 L -76.4921,268.721 L -76.0142,268.828
 L -75.5439,268.964 L -75.0831,269.13 L -74.6337,269.325 L -74.1974,269.547 L -73.7758,269.796 L -73.3708,270.071
 L -72.9839,270.372 L -72.6165,270.695 L -72.2702,271.042 L -71.9464,271.409 L -71.6462,271.796 L -71.371,272.201
 L -71.1217,272.623 L -70.8994,273.059 L -70.7049,273.508 L -70.539,273.969 L -70.4024,274.439 L -70.2956,274.917
 L -70.2189,275.401 L -70.1729,275.888 L -70.1575,276.378 L -70.1729,276.867 L -70.2189,277.355 L -70.2956,277.839
 L -70.4024,278.317 L -70.539,278.787 L -70.7049,279.248 L -70.8994,279.697 L -71.1217,280.133 L -71.371,280.555
 L -71.6462,280.96 L -71.9464,281.347 L -72.2702,281.714 L -72.6165,282.06 L -72.9839,282.384 L -73.3708,282.684
 L -73.7758,282.96 L -74.1974,283.209 L -74.6337,283.431 L -75.0831,283.626 L -75.5439,283.792 L -76.0142,283.928
 L -76.4921,284.035 L -76.9758,284.112 L -77.4633,284.158 L -77.9528,284.173 L -78.4422,284.158 L -78.9298,284.112
 L -79.4134,284.035 L -79.8914,283.928 L -80.3616,283.792 L -80.8224,283.626 L -81.2718,283.431 L -81.7082,283.209
 L -82.1297,282.96 L -82.5347,282.684 L -82.9217,282.384 L -83.289,282.06 L -83.6353,281.714 L -83.9591,281.347
 L -84.2593,280.96 L -84.5345,280.555 L -84.7838,280.133 L -85.0061,279.697 L -85.2006,279.248 L -85.3665,278.787
 L -85.5031,278.317 L -85.61,277.839 L -85.6866,277.355 L -85.7326,276.867 z
M -85.748,256.535 L -85.7326,256.046 L -85.6866,255.558 L -85.61,255.075 L -85.5031,254.597 L -85.3665,254.127
 L -85.2006,253.666 L -85.0061,253.216 L -84.7838,252.78 L -84.5345,252.359 L -84.2593,251.953 L -83.9591,251.567
 L -83.6353,251.199 L -83.289,250.853 L -82.9217,250.529 L -82.5347,250.229 L -82.1297,249.954 L -81.7082,249.704
 L -81.2718,249.482 L -80.8224,249.288 L -80.3616,249.122 L -79.8914,248.985 L -79.4134,248.878 L -78.9298,248.802
 L -78.4422,248.756 L -77.9528,248.74 L -77.4633,248.756 L -76.9758,248.802 L -76.4921,248.878 L -76.0142,248.985
 L -75.5439,249.122 L -75.0831,249.288 L -74.6337,249.482 L -74.1974,249.704 L -73.7758,249.954 L -73.3708,250.229
 L -72.9839,250.529 L -72.6165,250.853 L -72.2702,251.199 L -71.9464,251.567 L -71.6462,251.953 L -71.371,252.359
 L -71.1217,252.78 L -70.8994,253.216 L -70.7049,253.666 L -70.539,254.127 L -70.4024,254.597 L -70.2956,255.075
 L -70.2189,255.558 L -70.1729,256.046 L -70.1575,256.535 L -70.1729,257.025 L -70.2189,257.512 L -70.2956,257.996
 L -70.4024,258.474 L -70.539,258.944 L -70.7049,259.405 L -70.8994,259.854 L -71.1217,260.291 L -71.371,260.712
 L -71.6462,261.117 L -71.9464,261.504 L -72.2702,261.872 L -72.6165,262.218 L -72.9839,262.542 L -73.3708,262.842
 L -73.7758,263.117 L -74.1974,263.366 L -74.6337,263.589 L -75.0831,263.783 L -75.5439,263.949 L -76.0142,264.086
 L -76.4921,264.193 L -76.9758,264.269 L -77.4633,264.315 L -77.9528,264.331 L -78.4422,264.315 L -78.9298,264.269
 L -79.4134,264.193 L -79.8914,264.086 L -80.3616,263.949 L -80.8224,263.783 L -81.2718,263.589 L -81.7082,263.366
 L -82.1297,263.117 L -82.5347,262.842 L -82.9217,262.542 L -83.289,262.218 L -83.6353,261.872 L -83.9591,261.504
 L -84.2593,261.117 L -84.5345,260.712 L -84.7838,260.291 L -85.0061,259.854 L -85.2006,259.405 L -85.3665,258.944
 L -85.5031,258.474 L -85.61,257.996 L -85.6866,257.512 L -85.7326,257.025 z
M -85.748,236.693 L -85.7326,236.203 L -85.6866,235.716 L -85.61,235.232 L -85.5031,234.754 L -85.3665,234.284
 L -85.2006,233.823 L -85.0061,233.374 L -84.7838,232.938 L -84.5345,232.516 L -84.2593,232.111 L -83.9591,231.724
 L -83.6353,231.357 L -83.289,231.01 L -82.9217,230.687 L -82.5347,230.386 L -82.1297,230.111 L -81.7082,229.862
 L -81.2718,229.64 L -80.8224,229.445 L -80.3616,229.279 L -79.8914,229.143 L -79.4134,229.036 L -78.9298,228.959
 L -78.4422,228.913 L -77.9528,228.898 L -77.4633,228.913 L -76.9758,228.959 L -76.4921,229.036 L -76.0142,229.143
 L -75.5439,229.279 L -75.0831,229.445 L -74.6337,229.64 L -74.1974,229.862 L -73.7758,230.111 L -73.3708,230.386
 L -72.9839,230.687 L -72.6165,231.01 L -72.2702,231.357 L -71.9464,231.724 L -71.6462,232.111 L -71.371,232.516
 L -71.1217,232.938 L -70.8994,233.374 L -70.7049,233.823 L -70.539,234.284 L -70.4024,234.754 L -70.2956,235.232
 L -70.2189,235.716 L -70.1729,236.203 L -70.1575,236.693 L -70.1729,237.182 L -70.2189,237.67 L -70.2956,238.154
 L -70.4024,238.632 L -70.539,239.102 L -70.7049,239.563 L -70.8994,240.012 L -71.1217,240.448 L -71.371,240.87
 L -71.6462,241.275 L -71.9464,241.662 L -72.2702,242.029 L -72.6165,242.375 L -72.9839,242.699 L -73.3708,242.999
 L -73.7758,243.275 L -74.1974,243.524 L -74.6337,243.746 L -75.0831,243.941 L -75.5439,244.107 L -76.0142,244.243
 L -76.4921,244.35 L -76.9758,244.427 L -77.4633,244.473 L -77.9528,244.488 L -78.4422,244.473 L -78.9298,244.427
 L -79.4134,244.35 L -79.8914,244.243 L -80.3616,244.107 L -80.8224,243.941 L -81.2718,243.746 L -81.7082,243.524
 L -82.1297,243.275 L -82.5347,242.999 L -82.9217,242.699 L -83.289,242.375 L -83.6353,242.029 L -83.9591,241.662
 L -84.2593,241.275 L -84.5345,240.87 L -84.7838,240.448 L -85.0061,240.012 L -85.2006,239.563 L -85.3665,239.102
 L -85.5031,238.632 L -85.61,238.154 L -85.6866,237.67 L -85.7326,237.182 z
M -85.748,216.85 L -85.7326,216.361 L -85.6866,215.873 L -85.61,215.39 L -85.5031,214.912 L -85.3665,214.442
 L -85.2006,213.981 L -85.0061,213.531 L -84.7838,213.095 L -84.5345,212.673 L -84.2593,212.268 L -83.9591,211.881
 L -83.6353,211.514 L -83.289,211.168 L -82.9217,210.844 L -82.5347,210.544 L -82.1297,210.269 L -81.7082,210.019
 L -81.2718,209.797 L -80.8224,209.603 L -80.3616,209.437 L -79.8914,209.3 L -79.4134,209.193 L -78.9298,209.117
 L -78.4422,209.071 L -77.9528,209.055 L -77.4633,209.071 L -76.9758,209.117 L -76.4921,209.193 L -76.0142,209.3
 L -75.5439,209.437 L -75.0831,209.603 L -74.6337,209.797 L -74.1974,210.019 L -73.7758,210.269 L -73.3708,210.544
 L -72.9839,210.844 L -72.6165,211.168 L -72.2702,211.514 L -71.9464,211.881 L -71.6462,212.268 L -71.371,212.673
 L -71.1217,213.095 L -70.8994,213.531 L -70.7049,213.981 L -70.539,214.442 L -70.4024,214.912 L -70.2956,215.39
 L -70.2189,215.873 L -70.1729,216.361 L -70.1575,216.85 L -70.1729,217.34 L -70.2189,217.827 L -70.2956,218.311
 L -70.4024,218.789 L -70.539,219.259 L -70.7049,219.72 L -70.8994,220.169 L -71.1217,220.606 L -71.371,221.027
 L -71.6462,221.432 L -71.9464,221.819 L -72.2702,222.187 L -72.6165,222.533 L -72.9839,222.857 L -73.3708,223.157
 L -73.7758,223.432 L -74.1974,223.681 L -74.6337,223.904 L -75.0831,224.098 L -75.5439,224.264 L -76.0142,224.401
 L -76.4921,224.508 L -76.9758,224.584 L -77.4633,224.63 L -77.9528,224.646 L -78.4422,224.63 L -78.9298,224.584
 L -79.4134,224.508 L -79.8914,224.401 L -80.3616,224.264 L -80.8224,224.098 L -81.2718,223.904 L -81.7082,223.681
 L -82.1297,223.432 L -82.5347,223.157 L -82.9217,222.857 L -83.289,222.533 L -83.6353,222.187 L -83.9591,221.819
 L -84.2593,221.432 L -84.5345,221.027 L -84.7838,220.606 L -85.0061,220.169 L -85.2006,219.72 L -85.3665,219.259
 L -85.5031,218.789 L -85.61,218.311 L -85.6866,217.827 L -85.7326,217.34 z
M -26.2205,395.433 L -26.2135,395.211 L -26.1925,394.989 L -26.1577,394.769 L -26.1092,394.552 L -26.047,394.338
 L -25.9716,394.129 L -25.8832,393.924 L -25.7822,393.726 L -25.6689,393.534 L -25.5438,393.35 L -25.4073,393.174
 L -25.2601,393.008 L -25.1027,392.85 L -24.9358,392.703 L -24.7599,392.566 L -24.5758,392.441 L -24.3842,392.328
 L -24.1858,392.227 L -23.9815,392.139 L -23.7721,392.063 L -23.5583,392.001 L -23.3411,391.953 L -23.1213,391.918
 L -22.8996,391.897 L -22.6772,391.89 L -22.4547,391.897 L -22.2331,391.918 L -22.0132,391.953 L -21.796,392.001
 L -21.5822,392.063 L -21.3728,392.139 L -21.1685,392.227 L -20.9702,392.328 L -20.7786,392.441 L -20.5945,392.566
 L -20.4186,392.703 L -20.2516,392.85 L -20.0942,393.008 L -19.947,393.174 L -19.8106,393.35 L -19.6855,393.534
 L -19.5721,393.726 L -19.4711,393.924 L -19.3827,394.129 L -19.3073,394.338 L -19.2452,394.552 L -19.1966,394.769
 L -19.1618,394.989 L -19.1409,395.211 L -19.1339,395.433 L -19.1409,395.656 L -19.1618,395.877 L -19.1966,396.097
 L -19.2452,396.314 L -19.3073,396.528 L -19.3827,396.737 L -19.4711,396.942 L -19.5721,397.14 L -19.6855,397.332
 L -19.8106,397.516 L -19.947,397.692 L -20.0942,397.859 L -20.2516,398.016 L -20.4186,398.163 L -20.5945,398.3
 L -20.7786,398.425 L -20.9702,398.538 L -21.1685,398.639 L -21.3728,398.728 L -21.5822,398.803 L -21.796,398.865
 L -22.0132,398.914 L -22.2331,398.948 L -22.4547,398.969 L -22.6772,398.976 L -22.8996,398.969 L -23.1213,398.948
 L -23.3411,398.914 L -23.5583,398.865 L -23.7721,398.803 L -23.9815,398.728 L -24.1858,398.639 L -24.3842,398.538
 L -24.5758,398.425 L -24.7599,398.3 L -24.9358,398.163 L -25.1027,398.016 L -25.2601,397.859 L -25.4073,397.692
 L -25.5438,397.516 L -25.6689,397.332 L -25.7822,397.14 L -25.8832,396.942 L -25.9716,396.737 L -26.047,396.528
 L -26.1092,396.314 L -26.1577,396.097 L -26.1925,395.877 L -26.2135,395.656 z
M -26.2205,-395.433 L -26.2135,-395.656 L -26.1925,-395.877 L -26.1577,-396.097 L -26.1092,-396.314 L -26.047,-396.528
 L -25.9716,-396.737 L -25.8832,-396.942 L -25.7822,-397.14 L -25.6689,-397.332 L -25.5438,-397.516 L -25.4073,-397.692
 L -25.2601,-397.859 L -25.1027,-398.016 L -24.9358,-398.163 L -24.7599,-398.3 L -24.5758,-398.425 L -24.3842,-398.538
 L -24.1858,-398.639 L -23.9815,-398.728 L -23.7721,-398.803 L -23.5583,-398.865 L -23.3411,-398.914 L -23.1213,-398.948
 L -22.8996,-398.969 L -22.6772,-398.976 L -22.4547,-398.969 L -22.2331,-398.948 L -22.0132,-398.914 L -21.796,-398.865
 L -21.5822,-398.803 L -21.3728,-398.728 L -21.1685,-398.639 L -20.9702,-398.538 L -20.7786,-398.425 L -20.5945,-398.3
 L -20.4186,-398.163 L -20.2516,-398.016 L -20.0942,-397.859 L -19.947,-397.692 L -19.8106,-397.516 L -19.6855,-397.332
 L -19.5721,-397.14 L -19.4711,-396.942 L -19.3827,-396.737 L -19.3073,-396.528 L -19.2452,-396.314 L -19.1966,-396.097
 L -19.1618,-395.877 L -19.1409,-395.656 L -19.1339,-395.433 L -19.1409,-395.211 L -19.1618,-394.989 L -19.1966,-394.769
 L -19.2452,-394.552 L -19.3073,-394.338 L -19.3827,-394.129 L -19.4711,-393.924 L -19.5721,-393.726 L -19.6855,-393.534
 L -19.8106,-393.35 L -19.947,-393.174 L -20.0942,-393.008 L -20.2516,-392.85 L -20.4186,-392.703 L -20.5945,-392.566
 L -20.7786,-392.441 L -20.9702,-392.328 L -21.1685,-392.227 L -21.3728,-392.139 L -21.5822,-392.063 L -21.796,-392.001
 L -22.0132,-391.953 L -22.2331,-391.918 L -22.4547,-391.897 L -22.6772,-391.89 L -22.8996,-391.897 L -23.1213,-391.918
 L -23.3411,-391.953 L -23.5583,-392.001 L -23.7721,-392.063 L -23.9815,-392.139 L -24.1858,-392.227 L -24.3842,-392.328
 L -24.5758,-392.441 L -24.7599,-392.566 L -24.9358,-392.703 L -25.1027,-392.85 L -25.2601,-393.008 L -25.4073,-393.174
 L -25.5438,-393.35 L -25.6689,-393.534 L -25.7822,-393.726 L -25.8832,-393.924 L -25.9716,-394.129 L -26.047,-394.338
 L -26.1092,-394.552 L -26.1577,-394.769 L -26.1925,-394.989 L -26.2135,-395.211 z
M 19.1339,395.433 L 19.1409,395.211 L 19.1618,394.989 L 19.1966,394.769 L 19.2452,394.552 L 19.3073,394.338
 L 19.3827,394.129 L 19.4711,393.924 L 19.5721,393.726 L 19.6855,393.534 L 19.8106,393.35 L 19.947,393.174
 L 20.0942,393.008 L 20.2516,392.85 L 20.4186,392.703 L 20.5945,392.566 L 20.7786,392.441 L 20.9702,392.328
 L 21.1685,392.227 L 21.3728,392.139 L 21.5822,392.063 L 21.796,392.001 L 22.0132,391.953 L 22.2331,391.918
 L 22.4547,391.897 L 22.6772,391.89 L 22.8996,391.897 L 23.1213,391.918 L 23.3411,391.953 L 23.5583,392.001
 L 23.7721,392.063 L 23.9815,392.139 L 24.1858,392.227 L 24.3842,392.328 L 24.5758,392.441 L 24.7599,392.566
 L 24.9358,392.703 L 25.1027,392.85 L 25.2601,393.008 L 25.4073,393.174 L 25.5438,393.35 L 25.6689,393.534
 L 25.7822,393.726 L 25.8832,393.924 L 25.9716,394.129 L 26.047,394.338 L 26.1092,394.552 L 26.1577,394.769
 L 26.1925,394.989 L 26.2135,395.211 L 26.2205,395.433 L 26.2135,395.656 L 26.1925,395.877 L 26.1577,396.097
 L 26.1092,396.314 L 26.047,396.528 L 25.9716,396.737 L 25.8832,396.942 L 25.7822,397.14 L 25.6689,397.332
 L 25.5438,397.516 L 25.4073,397.692 L 25.2601,397.859 L 25.1027,398.016 L 24.9358,398.163 L 24.7599,398.3
 L 24.5758,398.425 L 24.3842,398.538 L 24.1858,398.639 L 23.9815,398.728 L 23.7721,398.803 L 23.5583,398.865
 L 23.3411,398.914 L 23.1213,398.948 L 22.8996,398.969 L 22.6772,398.976 L 22.4547,398.969 L 22.2331,398.948
 L 22.0132,398.914 L 21.796,398.865 L 21.5822,398.803 L 21.3728,398.728 L 21.1685,398.639 L 20.9702,398.538
 L 20.7786,398.425 L 20.5945,398.3 L 20.4186,398.163 L 20.2516,398.016 L 20.0942,397.859 L 19.947,397.692
 L 19.8106,397.516 L 19.6855,397.332 L 19.5721,397.14 L 19.4711,396.942 L 19.3827,396.737 L 19.3073,396.528
 L 19.2452,396.314 L 19.1966,396.097 L 19.1618,395.877 L 19.1409,395.656 z
M 19.1339,-395.433 L 19.1409,-395.656 L 19.1618,-395.877 L 19.1966,-396.097 L 19.2452,-396.314 L 19.3073,-396.528
 L 19.3827,-396.737 L 19.4711,-396.942 L 19.5721,-397.14 L 19.6855,-397.332 L 19.8106,-397.516 L 19.947,-397.692
 L 20.0942,-397.859 L 20.2516,-398.016 L 20.4186,-398.163 L 20.5945,-398.3 L 20.7786,-398.425 L 20.9702,-398.538
 L 21.1685,-398.639 L 21.3728,-398.728 L 21.5822,-398.803 L 21.796,-398.865 L 22.0132,-398.914 L 22.2331,-398.948
 L 22.4547,-398.969 L 22.6772,-398.976 L 22.8996,-398.969 L 23.1213,-398.948 L 23.3411,-398.914 L 23.5583,-398.865
 L 23.7721,-398.803 L 23.9815,-398.728 L 24.1858,-398.639 L 24.3842,-398.538 L 24.5758,-398.425 L 24.7599,-398.3
 L 24.9358,-398.163 L 25.1027,-398.016 L 25.2601,-397.859 L 25.4073,-397.692 L 25.5438,-397.516 L 25.6689,-397.332
 L 25.7822,-397.14 L 25.8832,-396.942 L 25.9716,-396.737 L 26.047,-396.528 L 26.1092,-396.314 L 26.1577,-396.097
 L 26.1925,-395.877 L 26.2135,-395.656 L 26.2205,-395.433 L 26.2135,-395.211 L 26.1925,-394.989 L 26.1577,-394.769
 L 26.1092,-394.552 L 26.047,-394.338 L 25.9716,-394.129 L 25.8832,-393.924 L 25.7822,-393.726 L 25.6689,-393.534
 L 25.5438,-393.35 L 25.4073,-393.174 L 25.2601,-393.008 L 25.1027,-392.85 L 24.9358,-392.703 L 24.7599,-392.566
 L 24.5758,-392.441 L 24.3842,-392.328 L 24.1858,-392.227 L 23.9815,-392.139 L 23.7721,-392.063 L 23.5583,-392.001
 L 23.3411,-391.953 L 23.1213,-391.918 L 22.8996,-391.897 L 22.6772,-391.89 L 22.4547,-391.897 L 22.2331,-391.918
 L 22.0132,-391.953 L 21.796,-392.001 L 21.5822,-392.063 L 21.3728,-392.139 L 21.1685,-392.227 L 20.9702,-392.328
 L 20.7786,-392.441 L 20.5945,-392.566 L 20.4186,-392.703 L 20.2516,-392.85 L 20.0942,-393.008 L 19.947,-393.174
 L 19.8106,-393.35 L 19.6855,-393.534 L 19.5721,-393.726 L 19.4711,-393.924 L 19.3827,-394.129 L 19.3073,-394.338
 L 19.2452,-394.552 L 19.1966,-394.769 L 19.1618,-394.989 L 19.1409,-395.211 z
M 36.4454,402.52 L 36.4454,388.346 L 109.336,388.346 L 109.336,402.52 z
M 36.4454,-388.346 L 36.4454,-402.52 L 109.336,-402.52 L 109.336,-388.346 z
M 142.238,395.433 L 142.245,395.211 L 142.266,394.989 L 142.301,394.769 L 142.35,394.552 L 142.412,394.338
 L 142.487,394.129 L 142.576,393.924 L 142.677,393.726 L 142.79,393.534 L 142.915,393.35 L 143.052,393.174
 L 143.199,393.008 L 143.356,392.85 L 143.523,392.703 L 143.699,392.566 L 143.883,392.441 L 144.075,392.328
 L 144.273,392.227 L 144.477,392.139 L 144.687,392.063 L 144.901,392.001 L 145.118,391.953 L 145.338,391.918
 L 145.559,391.897 L 145.782,391.89 L 146.004,391.897 L 146.226,391.918 L 146.446,391.953 L 146.663,392.001
 L 146.877,392.063 L 147.086,392.139 L 147.29,392.227 L 147.489,392.328 L 147.68,392.441 L 147.864,392.566
 L 148.04,392.703 L 148.207,392.85 L 148.365,393.008 L 148.512,393.174 L 148.648,393.35 L 148.773,393.534
 L 148.887,393.726 L 148.988,393.924 L 149.076,394.129 L 149.152,394.338 L 149.214,394.552 L 149.262,394.769
 L 149.297,394.989 L 149.318,395.211 L 149.325,395.433 L 149.318,395.656 L 149.297,395.877 L 149.262,396.097
 L 149.214,396.314 L 149.152,396.528 L 149.076,396.737 L 148.988,396.942 L 148.887,397.14 L 148.773,397.332
 L 148.648,397.516 L 148.512,397.692 L 148.365,397.859 L 148.207,398.016 L 148.04,398.163 L 147.864,398.3
 L 147.68,398.425 L 147.489,398.538 L 147.29,398.639 L 147.086,398.728 L 146.877,398.803 L 146.663,398.865
 L 146.446,398.914 L 146.226,398.948 L 146.004,398.969 L 145.782,398.976 L 145.559,398.969 L 145.338,398.948
 L 145.118,398.914 L 144.901,398.865 L 144.687,398.803 L 144.477,398.728 L 144.273,398.639 L 144.075,398.538
 L 143.883,398.425 L 143.699,398.3 L 143.523,398.163 L 143.356,398.016 L 143.199,397.859 L 143.052,397.692
 L 142.915,397.516 L 142.79,397.332 L 142.677,397.14 L 142.576,396.942 L 142.487,396.737 L 142.412,396.528
 L 142.35,396.314 L 142.301,396.097 L 142.266,395.877 L 142.245,395.656 z
M 142.238,-395.433 L 142.245,-395.656 L 142.266,-395.877 L 142.301,-396.097 L 142.35,-396.314 L 142.412,-396.528
 L 142.487,-396.737 L 142.576,-396.942 L 142.677,-397.14 L 142.79,-397.332 L 142.915,-397.516 L 143.052,-397.692
 L 143.199,-397.859 L 143.356,-398.016 L 143.523,-398.163 L 143.699,-398.3 L 143.883,-398.425 L 144.075,-398.538
 L 144.273,-398.639 L 144.477,-398.728 L 144.687,-398.803 L 144.901,-398.865 L 145.118,-398.914 L 145.338,-398.948
 L 145.559,-398.969 L 145.782,-398.976 L 146.004,-398.969 L 146.226,-398.948 L 146.446,-398.914 L 146.663,-398.865
 L 146.877,-398.803 L 147.086,-398.728 L 147.29,-398.639 L 147.489,-398.538 L 147.68,-398.425 L 147.864,-398.3
 L 148.04,-398.163 L 148.207,-398.016 L 148.365,-397.859 L 148.512,-397.692 L 148.648,-397.516 L 148.773,-397.332
 L 148.887,-397.14 L 148.988,-396.942 L 149.076,-396.737 L 149.152,-396.528 L 149.214,-396.314 L 149.262,-396.097
 L 149.297,-395.877 L 149.318,-395.656 L 149.325,-395.433 L 149.318,-395.211 L 149.297,-394.989 L 149.262,-394.769
 L 149.214,-394.552 L 149.152,-394.338 L 149.076,-394.129 L 148.988,-393.924 L 148.887,-393.726 L 148.773,-393.534
 L 148.648,-393.35 L 148.512,-393.174 L 148.365,-393.008 L 148.207,-392.85 L 148.04,-392.703 L 147.864,-392.566
 L 147.68,-392.441 L 147.489,-392.328 L 147.29,-392.227 L 147.086,-392.139 L 146.877,-392.063 L 146.663,-392.001
 L 146.446,-391.953 L 146.226,-391.918 L 146.004,-391.897 L 145.782,-391.89 L 145.559,-391.897 L 145.338,-391.918
 L 145.118,-391.953 L 144.901,-392.001 L 144.687,-392.063 L 144.477,-392.139 L 144.273,-392.227 L 144.075,-392.328
 L 143.883,-392.441 L 143.699,-392.566 L 143.523,-392.703 L 143.356,-392.85 L 143.199,-393.008 L 143.052,-393.174
 L 142.915,-393.35 L 142.79,-393.534 L 142.677,-393.726 L 142.576,-393.924 L 142.487,-394.129 L 142.412,-394.338
 L 142.35,-394.552 L 142.301,-394.769 L 142.266,-394.989 L 142.245,-395.211 z
M 182.227,402.52 L 182.227,388.346 L 255.118,388.346 L 255.118,402.52 z
M 182.227,-388.346 L 182.227,-402.52 L 255.118,-402.52 L 255.118,-388.346 z
M 388.346,255.118 L 388.346,182.227 L 402.52,182.227 L 402.52,255.118 z
M 388.346,109.336 L 388.346,36.4454 L 402.52,36.4454 L 402.52,109.336 z
M 388.346,-36.4454 L 388.346,-109.336 L 402.52,-109.336 L 402.52,-36.4454 z
M 388.346,-182.227 L 388.346,-255.118 L 402.52,-255.118 L 402.52,-182.227 z
M 391.89,145.782 L 391.897,145.559 L 391.918,145.338 L 391.953,145.118 L 392.001,144.901 L 392.063,144.687
 L 392.139,144.477 L 392.227,144.273 L 392.328,144.075 L 392.441,143.883 L 392.566,143.699 L 392.703,143.523
 L 392.85,143.356 L 393.008,143.199 L 393.174,143.052 L 393.35,142.915 L 393.534,142.79 L 393.726,142.677
 L 393.924,142.576 L 394.129,142.487 L 394.338,142.412 L 394.552,142.35 L 394.769,142.301 L 394.989,142.266
 L 395.211,142.245 L 395.433,142.238 L 395.656,142.245 L 395.877,142.266 L 396.097,142.301 L 396.314,142.35
 L 396.528,142.412 L 396.737,142.487 L 396.942,142.576 L 397.14,142.677 L 397.332,142.79 L 397.516,142.915
 L 397.692,143.052 L 397.859,143.199 L 398.016,143.356 L 398.163,143.523 L 398.3,143.699 L 398.425,143.883
 L 398.538,144.075 L 398.639,144.273 L 398.728,144.477 L 398.803,144.687 L 398.865,144.901 L 398.914,145.118
 L 398.948,145.338 L 398.969,145.559 L 398.976,145.782 L 398.969,146.004 L 398.948,146.226 L 398.914,146.446
 L 398.865,146.663 L 398.803,146.877 L 398.728,147.086 L 398.639,147.29 L 398.538,147.489 L 398.425,147.68
 L 398.3,147.864 L 398.163,148.04 L 398.016,148.207 L 397.859,148.365 L 397.692,148.512 L 397.516,148.648
 L 397.332,148.773 L 397.14,148.887 L 396.942,148.988 L 396.737,149.076 L 396.528,149.152 L 396.314,149.214
 L 396.097,149.262 L 395.877,149.297 L 395.656,149.318 L 395.433,149.325 L 395.211,149.318 L 394.989,149.297
 L 394.769,149.262 L 394.552,149.214 L 394.338,149.152 L 394.129,149.076 L 393.924,148.988 L 393.726,148.887
 L 393.534,148.773 L 393.35,148.648 L 393.174,148.512 L 393.008,148.365 L 392.85,148.207 L 392.703,148.04
 L 392.566,147.864 L 392.441,147.68 L 392.328,147.489 L 392.227,147.29 L 392.139,147.086 L 392.063,146.877
 L 392.001,146.663 L 391.953,146.446 L 391.918,146.226 L 391.897,146.004 z
M 391.89,22.6772 L 391.897,22.4547 L 391.918,22.2331 L 391.953,22.0132 L 392.001,21.796 L 392.063,21.5822
 L 392.139,21.3728 L 392.227,21.1685 L 392.328,20.9702 L 392.441,20.7786 L 392.566,20.5945 L 392.703,20.4186
 L 392.85,20.2516 L 393.008,20.0942 L 393.174,19.947 L 393.35,19.8106 L 393.534,19.6855 L 393.726,19.5721
 L 393.924,19.4711 L 394.129,19.3827 L 394.338,19.3073 L 394.552,19.2452 L 394.769,19.1966 L 394.989,19.1618
 L 395.211,19.1409 L 395.433,19.1339 L 395.656,19.1409 L 395.877,19.1618 L 396.097,19.1966 L 396.314,19.2452
 L 396.528,19.3073 L 396.737,19.3827 L 396.942,19.4711 L 397.14,19.5721 L 397.332,19.6855 L 397.516,19.8106
 L 397.692,19.947 L 397.859,20.0942 L 398.016,20.2516 L 398.163,20.4186 L 398.3,20.5945 L 398.425,20.7786
 L 398.538,20.9702 L 398.639,21.1685 L 398.728,21.3728 L 398.803,21.5822 L 398.865,21.796 L 398.914,22.0132
 L 398.948,22.2331 L 398.969,22.4547 L 398.976,22.6772 L 398.969,22.8996 L 398.948,23.1213 L 398.914,23.3411
 L 398.865,23.5583 L 398.803,23.7721 L 398.728,23.9815 L 398.639,24.1858 L 398.538,24.3842 L 398.425,24.5758
 L 398.3,24.7599 L 398.163,24.9358 L 398.016,25.1027 L 397.859,25.2601 L 397.692,25.4073 L 397.516,25.5438
 L 397.332,25.6689 L 397.14,25.7822 L 396.942,25.8832 L 396.737,25.9716 L 396.528,26.047 L 396.314,26.1092
 L 396.097,26.1577 L 395.877,26.1925 L 395.656,26.2135 L 395.433,26.2205 L 395.211,26.2135 L 394.989,26.1925
 L 394.769,26.1577 L 394.552,26.1092 L 394.338,26.047 L 394.129,25.9716 L 393.924,25.8832 L 393.726,25.7822
 L 393.534,25.6689 L 393.35,25.5438 L 393.174,25.4073 L 393.008,25.2601 L 392.85,25.1027 L 392.703,24.9358
 L 392.566,24.7599 L 392.441,24.5758 L 392.328,24.3842 L 392.227,24.1858 L 392.139,23.9815 L 392.063,23.7721
 L 392.001,23.5583 L 391.953,23.3411 L 391.918,23.1213 L 391.897,22.8996 z
M 391.89,-22.6772 L 391.897,-22.8996 L 391.918,-23.1213 L 391.953,-23.3411 L 392.001,-23.5583 L 392.063,-23.7721
 L 392.139,-23.9815 L 392.227,-24.1858 L 392.328,-24.3842 L 392.441,-24.5758 L 392.566,-24.7599 L 392.703,-24.9358
 L 392.85,-25.1027 L 393.008,-25.2601 L 393.174,-25.4073 L 393.35,-25.5438 L 393.534,-25.6689 L 393.726,-25.7822
 L 393.924,-25.8832 L 394.129,-25.9716 L 394.338,-26.047 L 394.552,-26.1092 L 394.769,-26.1577 L 394.989,-26.1925
 L 395.211,-26.2135 L 395.433,-26.2205 L 395.656,-26.2135 L 395.877,-26.1925 L 396.097,-26.1577 L 396.314,-26.1092
 L 396.528,-26.047 L 396.737,-25.9716 L 396.942,-25.8832 L 397.14,-25.7822 L 397.332,-25.6689 L 397.516,-25.5438
 L 397.692,-25.4073 L 397.859,-25.2601 L 398.016,-25.1027 L 398.163,-24.9358 L 398.3,-24.7599 L 398.425,-24.5758
 L 398.538,-24.3842 L 398.639,-24.1858 L 398.728,-23.9815 L 398.803,-23.7721 L 398.865,-23.5583 L 398.914,-23.3411
 L 398.948,-23.1213 L 398.969,-22.8996 L 398.976,-22.6772 L 398.969,-22.4547 L 398.948,-22.2331 L 398.914,-22.0132
 L 398.865,-21.796 L 398.803,-21.5822 L 398.728,-21.3728 L 398.639,-21.1685 L 398.538,-20.9702 L 398.425,-20.7786
 L 398.3,-20.5945 L 398.163,-20.4186 L 398.016,-20.2516 L 397.859,-20.0942 L 397.692,-19.947 L 397.516,-19.8106
 L 397.332,-19.6855 L 397.14,-19.5721 L 396.942,-19.4711 L 396.737,-19.3827 L 396.528,-19.3073 L 396.314,-19.2452
 L 396.097,-19.1966 L 395.877,-19.1618 L 395.656,-19.1409 L 395.433,-19.1339 L 395.211,-19.1409 L 394.989,-19.1618
 L 394.769,-19.1966 L 394.552,-19.2452 L 394.338,-19.3073 L 394.129,-19.3827 L 393.924,-19.4711 L 393.726,-19.5721
 L 393.534,-19.6855 L 393.35,-19.8106 L 393.174,-19.947 L 393.008,-20.0942 L 392.85,-20.2516 L 392.703,-20.4186
 L 392.566,-20.5945 L 392.441,-20.7786 L 392.328,-20.9702 L 392.227,-21.1685 L 392.139,-21.3728 L 392.063,-21.5822
 L 392.001,-21.796 L 391.953,-22.0132 L 391.918,-22.2331 L 391.897,-22.4547 z
M 391.89,-145.782 L 391.897,-146.004 L 391.918,-146.226 L 391.953,-146.446 L 392.001,-146.663 L 392.063,-146.877
 L 392.139,-147.086 L 392.227,-147.29 L 392.328,-147.489 L 392.441,-147.68 L 392.566,-147.864 L 392.703,-148.04
 L 392.85,-148.207 L 393.008,-148.365 L 393.174,-148.512 L 393.35,-148.648 L 393.534,-148.773 L 393.726,-148.887
 L 393.924,-148.988 L 394.129,-149.076 L 394.338,-149.152 L 394.552,-149.214 L 394.769,-149.262 L 394.989,-149.297
 L 395.211,-149.318 L 395.433,-149.325 L 395.656,-149.318 L 395.877,-149.297 L 396.097,-149.262 L 396.314,-149.214
 L 396.528,-149.152 L 396.737,-149.076 L 396.942,-148.988 L 397.14,-148.887 L 397.332,-148.773 L 397.516,-148.648
 L 397.692,-148.512 L 397.859,-148.365 L 398.016,-148.207 L 398.163,-148.04 L 398.3,-147.864 L 398.425,-147.68
 L 398.538,-147.489 L 398.639,-147.29 L 398.728,-147.086 L 398.803,-146.877 L 398.865,-146.663 L 398.914,-146.446
 L 398.948,-146.226 L 398.969,-146.004 L 398.976,-145.782 L 398.969,-145.559 L 398.948,-145.338 L 398.914,-145.118
 L 398.865,-144.901 L 398.803,-144.687 L 398.728,-144.477 L 398.639,-144.273 L 398.538,-144.075 L 398.425,-143.883
 L 398.3,-143.699 L 398.163,-143.523 L 398.016,-143.356 L 397.859,-143.199 L 397.692,-143.052 L 397.516,-142.915
 L 397.332,-142.79 L 397.14,-142.677 L 396.942,-142.576 L 396.737,-142.487 L 396.528,-142.412 L 396.314,-142.35
 L 396.097,-142.301 L 395.877,-142.266 L 395.656,-142.245 L 395.433,-142.238 L 395.211,-142.245 L 394.989,-142.266
 L 394.769,-142.301 L 394.552,-142.35 L 394.338,-142.412 L 394.129,-142.487 L 393.924,-142.576 L 393.726,-142.677
 L 393.534,-142.79 L 393.35,-142.915 L 393.174,-143.052 L 393.008,-143.199 L 392.85,-143.356 L 392.703,-143.523
 L 392.566,-143.699 L 392.441,-143.883 L 392.328,-144.075 L 392.227,-144.273 L 392.139,-144.477 L 392.063,-144.687
 L 392.001,-144.901 L 391.953,-145.118 L 391.918,-145.338 L 391.897,-145.559 z
" stroke="black" fill="lightgray" stroke-width="0.5"/></svg>
